<?xml version="1.0" encoding="iso-8859-1"?>
<!-- Generator: Adobe Illustrator 19.2.1, SVG Export Plug-In . SVG Version: 6.00 Build 0)  -->
<svg version="1.1" xmlns="http://www.w3.org/2000/svg" xmlns:xlink="http://www.w3.org/1999/xlink" x="0px" y="0px"
	 viewBox="0 0 32 32.001" style="enable-background:new 0 0 32 32.001;" xml:space="preserve">
<g id="Layer_11">
	<polygon style="fill:#4DC3FF;" points="16,13 16,31 2,25 2,7 	"/>
	
		<linearGradient id="SVGID_1_" gradientUnits="userSpaceOnUse" x1="-252.0392" y1="-366.1927" x2="-250.0392" y2="-366.1927" gradientTransform="matrix(6.645 6.645 6.645 -6.645 4125.1616 -745.5515)">
		<stop  offset="0" style="stop-color:#4DA6FF"/>
		<stop  offset="1" style="stop-color:#4DC3FF"/>
	</linearGradient>
	<polygon style="fill:url(#SVGID_1_);" points="30,7 30,25 16,31 16,13 	"/>
	<polygon style="fill:#4DE1FF;" points="30,7 16,13 2,7 16,1 	"/>
	<path style="fill:#297BCC;" d="M30.394,6.081l-14-6c-0.253-0.108-0.535-0.108-0.788,0l-14,6C1.237,6.239,1,6.599,1,7v18
		c0,0.401,0.237,0.761,0.606,0.919l14,6c0.253,0.108,0.535,0.108,0.788,0l14-6C30.763,25.761,31,25.402,31,25V7
		C31,6.599,30.763,6.239,30.394,6.081z M15,29.484L3,24.341V8.517l12,5.143V29.484z M16,11.912L4.539,7L16,2.088L27.461,7L16,11.912
		z M29,24.341l-12,5.143V13.66l12-5.143V24.341z"/>
	<rect y="0" style="fill:none;" width="32" height="32"/>
</g>
<g id="Layer_1">
</g>
</svg>
