<?xml version="1.0" encoding="iso-8859-1"?>
<!-- Generator: Adobe Illustrator 19.2.1, SVG Export Plug-In . SVG Version: 6.00 Build 0)  -->
<svg version="1.1" xmlns="http://www.w3.org/2000/svg" xmlns:xlink="http://www.w3.org/1999/xlink" x="0px" y="0px"
	 viewBox="0 0 32.015 32" style="enable-background:new 0 0 32.015 32;" xml:space="preserve">
<g id="Layer_29">
	
		<linearGradient id="SVGID_1_" gradientUnits="userSpaceOnUse" x1="-297.167" y1="-404.9508" x2="-295.167" y2="-404.9508" gradientTransform="matrix(4.444536e-010 -9.8995 -9.8995 -4.444536e-010 -3992.8081 -2915.9038)">
		<stop  offset="0" style="stop-color:#4DC4FF"/>
		<stop  offset="1" style="stop-color:#4DE1FF"/>
	</linearGradient>
	<polygon style="fill:url(#SVGID_1_);" points="25.899,16 16,25.899 6.101,16 16,6.101 	"/>
	<g>
		<path style="fill:#297BCC;" d="M9.804,28.553l-0.888,1.792c0.282,0.14,0.57,0.272,0.861,0.396c1.008,0.427,2.069,0.754,3.17,0.967
			l0.381-1.963c-0.962-0.187-1.889-0.472-2.771-0.846C10.302,28.791,10.051,28.675,9.804,28.553z"/>
		<path style="fill:#297BCC;" d="M2.221,18.489C2.076,17.681,2,16.85,2,16c0-0.415,0.018-0.826,0.054-1.231l-1.992-0.174
			C0.021,15.058,0,15.527,0,16c0,0.969,0.087,1.92,0.253,2.843L2.221,18.489L2.221,18.489z"/>
		<path style="fill:#297BCC;" d="M3.101,21.443c-0.159-0.374-0.301-0.757-0.427-1.146l-1.903,0.615
			c0.144,0.446,0.307,0.883,0.489,1.311c0.375,0.886,0.828,1.73,1.349,2.526l1.673-1.096C3.825,22.956,3.429,22.217,3.101,21.443z"
			/>
		<path style="fill:#297BCC;" d="M5.406,25.142L3.893,26.45c0.256,0.296,0.522,0.582,0.799,0.859
			c0.728,0.728,1.525,1.386,2.382,1.964l1.119-1.658c-0.75-0.506-1.448-1.082-2.086-1.72C5.863,25.653,5.63,25.402,5.406,25.142z"/>
		<path style="fill:#297BCC;" d="M23.993,27.488c-0.794,0.554-1.648,1.029-2.55,1.41c-0.249,0.106-0.502,0.204-0.758,0.295
			l0.671,1.884c0.293-0.104,0.582-0.217,0.867-0.338c1.031-0.437,2.007-0.979,2.914-1.612L23.993,27.488L23.993,27.488z"/>
		<path style="fill:#297BCC;" d="M27.839,23.465c-0.201,0.317-0.414,0.626-0.639,0.925c-0.4,0.532-0.836,1.035-1.306,1.505
			l-0.445,0.426l1.351,1.475l0.508-0.487c0.536-0.536,1.035-1.11,1.491-1.718c0.257-0.342,0.5-0.694,0.73-1.057L27.839,23.465
			L27.839,23.465z"/>
		<path style="fill:#297BCC;" d="M16,30c-0.276,0-0.55-0.008-0.822-0.024l-0.116,1.997C15.373,31.991,15.685,32,16,32
			c1.131,0,2.237-0.118,3.304-0.343L18.892,29.7C17.959,29.896,16.992,30,16,30z"/>
		<path style="fill:#297BCC;" d="M27.457,4.843C24.607,1.897,20.586-0.002,16,0C9.981,0.002,4.731,3.341,2,8.27V5
			c0-0.552-0.448-1-1-1S0,4.448,0,5v6c0,0.263,0.107,0.521,0.293,0.707S0.737,12,1,12h6c0.552,0,1-0.448,1-1c0-0.552-0.448-1-1-1
			l-3.638,0C5.616,5.274,10.433,1.998,16,2c4.029,0.002,7.516,1.652,10.02,4.234c2.502,2.582,3.996,6.091,3.995,9.775
			c0,1.793-0.352,3.628-1.117,5.434c-0.215,0.508,0.022,1.095,0.531,1.311c0.509,0.215,1.095-0.022,1.311-0.531
			c0.87-2.052,1.275-4.16,1.275-6.214C32.014,11.783,30.308,7.787,27.457,4.843z"/>
		<path style="fill:#297BCC;" d="M16,26.899c0.263,0,0.521-0.107,0.707-0.293l9.9-9.899c0.186-0.186,0.293-0.444,0.293-0.707
			c0-0.263-0.107-0.521-0.293-0.707l-9.9-9.899c-0.391-0.391-1.024-0.391-1.414,0l-9.9,9.899C5.207,15.479,5.101,15.737,5.101,16
			c0,0.263,0.107,0.521,0.293,0.707l9.9,9.899C15.479,26.793,15.737,26.899,16,26.899z M16,7.515L24.485,16L16,24.485L7.515,16
			L16,7.515z"/>
	</g>
	<rect style="fill:none;" width="32" height="32"/>
</g>
<g id="Layer_1">
</g>
</svg>
