<?xml version="1.0" encoding="iso-8859-1"?>
<!-- Generator: Adobe Illustrator 19.2.1, SVG Export Plug-In . SVG Version: 6.00 Build 0)  -->
<svg version="1.1" xmlns="http://www.w3.org/2000/svg" xmlns:xlink="http://www.w3.org/1999/xlink" x="0px" y="0px"
	 viewBox="0 0 32 32" style="enable-background:new 0 0 32 32;" xml:space="preserve">
<g id="Layer_32">
	<rect y="18" style="fill:#405580;" width="2" height="4"/>
	<polygon style="fill:#405580;" points="0,24 0,28 0,32 4,32 8,32 8,30 4,30 2,30 2,28 2,24 	"/>
	<rect x="10" y="30" style="fill:#405580;" width="4" height="2"/>
	
		<linearGradient id="SVGID_1_" gradientUnits="userSpaceOnUse" x1="-300.5" y1="-394.1429" x2="-298.5" y2="-394.1429" gradientTransform="matrix(3.142762e-010 -7 -7 -3.142762e-010 -2751 -2072.5)">
		<stop  offset="0" style="stop-color:#4DC4FF"/>
		<stop  offset="1" style="stop-color:#4DE1FF"/>
	</linearGradient>
	<rect x="1" y="17" style="fill:url(#SVGID_1_);" width="14" height="14"/>
	<g>
		<polygon style="fill:#297BCC;" points="30,30 28,30 28,32 32,32 32,28 30,28 		"/>
		<rect x="30" y="22" style="fill:#297BCC;" width="2" height="4"/>
		<rect x="30" y="16" style="fill:#297BCC;" width="2" height="4"/>
		<rect x="30" y="10" style="fill:#297BCC;" width="2" height="4"/>
		<polygon style="fill:#297BCC;" points="28,0 24,0 24,2 28,2 30,2 30,4 30,8 32,8 32,4 32,0 		"/>
		<rect x="6" style="fill:#297BCC;" width="4" height="2"/>
		<rect x="12" style="fill:#297BCC;" width="4" height="2"/>
		<rect x="18" style="fill:#297BCC;" width="4" height="2"/>
		<polygon style="fill:#297BCC;" points="2,2 4,2 4,0 4,0 0,0 0,4 2,4 		"/>
		<rect y="6" style="fill:#297BCC;" width="2" height="4"/>
		<rect x="22" y="30" style="fill:#297BCC;" width="4" height="2"/>
		<path style="fill:#297BCC;" d="M28,5c0-0.13-0.026-0.259-0.076-0.381c-0.05-0.121-0.123-0.233-0.217-0.326
			c-0.093-0.093-0.205-0.167-0.326-0.217C27.259,4.026,27.13,4,27,4h-6c-0.552,0-1,0.448-1,1c0,0.552,0.448,1,1,1l3.586,0
			l-6.364,6.364c-0.391,0.391-0.391,1.024,0,1.414c0.391,0.391,1.024,0.391,1.414,0L26,7.414V11c0,0.552,0.448,1,1,1s1-0.448,1-1V5z
			"/>
		<path style="fill:#297BCC;" d="M16,17c0-0.263-0.107-0.521-0.293-0.707C15.521,16.107,15.263,16,15,16H2v-4H0v5v14
			c0,0.263,0.107,0.521,0.293,0.707S0.737,32,1,32h13h1h5v-2h-4V17z M14,30H2V18h12V30z"/>
	</g>
	<rect style="fill:none;" width="32" height="32"/>
</g>
<g id="Layer_1">
</g>
</svg>
