<svg xmlns="http://www.w3.org/2000/svg" width="60" height="60" viewBox="0 0 60 60">
    <defs>
        <linearGradient id="a" x1="0%" y1="50%" y2="50%">
            <stop offset="0%" stop-color="#4DA6FF"/>
            <stop offset="100%" stop-color="#4DE1FF"/>
        </linearGradient>
        <linearGradient id="b" x1="7.219%" x2="102.147%" y1="24.994%" y2="80.369%">
            <stop offset="0%" stop-color="#4DA6FF"/>
            <stop offset="100%" stop-color="#4DC3FF"/>
        </linearGradient>
        <radialGradient id="c" cx="74.385%" cy="25.339%" r="47.625%" fx="74.385%" fy="25.339%" gradientTransform="scale(1 .99939) rotate(57.479 .744 .253)">
            <stop offset="0%" stop-color="#4DE1FF"/>
            <stop offset="100%" stop-color="#4DA6FF"/>
        </radialGradient>
    </defs>
    <g fill="none" fill-rule="evenodd">
        <path d="M0 0h60v60H0z"/>
        <g fill-rule="nonzero">
            <path fill="url(#a)" d="M42.803 10.748c6.592 0 11.942-2.15 11.942-4.777v26.274c0 2.628-5.35 4.777-11.942 4.777-6.593 0-11.943-2.15-11.943-4.777V5.971c0 2.628 5.35 4.777 11.943 4.777z" transform="translate(1)"/>
            <path fill="#4DE1FF" d="M43.803 1.194c6.592 0 11.942 2.15 11.942 4.777 0 2.628-5.35 4.777-11.942 4.777-6.593 0-11.943-2.15-11.943-4.777 0-2.627 5.35-4.777 11.943-4.777z"/>
            <path fill="#297BCC" d="M55.626 3.248c-1.147-1.07-2.81-1.832-4.836-2.388C48.765.312 46.373 0 43.803 0c-3.428.002-6.535.55-8.888 1.49-1.178.472-2.173 1.04-2.936 1.758-.754.706-1.313 1.641-1.313 2.723v26.274c0 1.082.559 2.017 1.313 2.723 1.147 1.07 2.81 1.832 4.836 2.389 2.025.548 4.417.86 6.988.86 3.427-.003 6.535-.55 8.887-1.49 1.178-.474 2.173-1.042 2.937-1.759.754-.706 1.312-1.64 1.312-2.723V5.971c0-1.082-.558-2.017-1.313-2.723zM54.55 32.245c0 .232-.11.55-.565.987-.668.643-2.034 1.342-3.82 1.819-1.787.484-3.99.777-6.363.777-3.165.002-6.03-.525-8-1.317-.984-.392-1.739-.854-2.184-1.28-.455-.435-.565-.754-.565-.986V9.51c1.027.655 2.296 1.171 3.76 1.573 2.026.549 4.418.86 6.989.86 3.427-.002 6.535-.549 8.887-1.489.69-.277 1.307-.592 1.861-.944v22.736zm-.565-25.287c-.668.644-2.034 1.342-3.82 1.819-1.787.485-3.99.777-6.363.777-3.165.003-6.03-.525-8-1.317-.984-.393-1.739-.854-2.184-1.28-.455-.435-.565-.754-.565-.986 0-.231.11-.55.565-.986.668-.644 2.034-1.342 3.82-1.819 1.787-.485 3.99-.779 6.364-.777 3.164-.003 6.028.525 7.999 1.317.984.392 1.739.854 2.184 1.279.455.436.565.755.565.986 0 .232-.11.55-.565.987z"/>
            <path fill="#4DC3FF" d="M18.962 25.462v21.497l-16.72-7.166V18.296z"/>
            <path fill="url(#b)" d="M34.682 18.296v21.497l-16.72 7.166V25.462z" transform="translate(1)"/>
            <path fill="#4DE1FF" d="M35.682 18.296l-16.72 7.166-16.72-7.166 16.72-7.165z"/>
            <path fill="#297BCC" d="M36.152 17.199l-16.72-7.166a1.193 1.193 0 0 0-.94 0l-16.72 7.166a1.19 1.19 0 0 0-.724 1.097v21.497c0 .479.283.909.723 1.098l16.72 7.165c.302.13.64.13.941 0l16.72-7.165a1.19 1.19 0 0 0 .724-1.098V18.296a1.19 1.19 0 0 0-.724-1.097zm-18.384 27.95L3.436 39.005V20.108l14.332 6.142v18.898zm1.194-20.987L5.274 18.296l13.688-5.866 13.687 5.866-13.687 5.866zm15.525 14.844l-14.33 6.142V26.25l14.33-6.142v18.898z"/>
            <path fill="url(#c)" d="M56.423 43.232c.701-10.115-7.577-18.474-17.675-17.87-8.755.52-15.69 7.788-15.69 16.676 0 9.234 7.487 16.72 16.72 16.72 8.835 0 16.067-6.85 16.679-15.528" transform="translate(1)"/>
            <path fill="#297BCC" d="M58.66 42.037c0-4.94-2-9.422-5.234-12.657a17.824 17.824 0 0 0-13.75-5.21c-9.384.559-16.81 8.345-16.811 17.868 0 9.895 8.02 17.913 17.914 17.914 9.464-.002 17.214-7.337 17.87-16.638l-.033-.003c.029-.427.043-.852.043-1.274zm-2.396 1.115c-.57 8.051-7.285 14.414-15.485 14.412A15.472 15.472 0 0 1 29.8 53.016a15.463 15.463 0 0 1-4.548-10.978c-.002-8.252 6.44-15.002 14.565-15.483h.002a15.437 15.437 0 0 1 11.916 4.513 15.472 15.472 0 0 1 4.535 10.97c0 .368-.013.738-.039 1.112l.032.002z"/>
        </g>
    </g>
</svg>
