<?xml version="1.0" encoding="iso-8859-1"?>
<!-- Generator: Adobe Illustrator 19.2.1, SVG Export Plug-In . SVG Version: 6.00 Build 0)  -->
<svg version="1.1" xmlns="http://www.w3.org/2000/svg" xmlns:xlink="http://www.w3.org/1999/xlink" x="0px" y="0px"
	 viewBox="0 0 32.07 32.069" style="enable-background:new 0 0 32.07 32.069;" xml:space="preserve">
<g id="Layer_20">
	
		<linearGradient id="SVGID_1_" gradientUnits="userSpaceOnUse" x1="-306.7857" y1="-422.1528" x2="-304.7857" y2="-422.1528" gradientTransform="matrix(3.142762e-010 -7 -7 -3.142762e-010 -2939 -2124.5)">
		<stop  offset="0" style="stop-color:#4DC4FF"/>
		<stop  offset="1" style="stop-color:#4DE1FF"/>
	</linearGradient>
	<rect x="9.07" y="9" style="fill:url(#SVGID_1_);" width="14" height="14"/>
	<path style="fill:#FFFFFF;" d="M23.777,8.293C23.59,8.107,23.333,8,23.07,8h-14C8.806,8,8.549,8.107,8.362,8.293S8.07,8.737,8.07,9
		v14c0,0.263,0.107,0.521,0.293,0.707S8.806,24,9.07,24h14c0.263,0,0.521-0.107,0.707-0.293S24.07,23.263,24.07,23V9
		C24.07,8.737,23.963,8.479,23.777,8.293z M22.07,22h-12V10h12V22z"/>
	<g>
		<path style="fill:#FFFFFF;" d="M31.993,0.619c-0.05-0.121-0.123-0.233-0.217-0.326c-0.093-0.093-0.205-0.167-0.326-0.217
			C31.329,0.026,31.199,0,31.069,0h-6c-0.552,0-1,0.448-1,1c0,0.552,0.448,1,1,1l3.586,0l-4.364,4.364
			c-0.391,0.391-0.391,1.024,0,1.414c0.391,0.391,1.024,0.391,1.414,0l4.364-4.364V7c0,0.552,0.448,1,1,1s1-0.448,1-1V1
			C32.07,0.87,32.043,0.741,31.993,0.619z"/>
		<path style="fill:#FFFFFF;" d="M31.07,24.071c-0.552,0-1,0.448-1,1v3.586l-4.364-4.364c-0.391-0.391-1.024-0.391-1.414,0
			c-0.391,0.391-0.391,1.024,0,1.414L28.584,30H25.07c-0.552,0-1,0.448-1,1c0,0.552,0.448,1,1,1h5.635
			c0.359,0.141,0.782,0.068,1.072-0.222c0.195-0.195,0.293-0.451,0.293-0.706c0,0,0,0,0-0.001v-6
			C32.07,24.519,31.622,24.071,31.07,24.071z"/>
		<path style="fill:#FFFFFF;" d="M3.413,2h3.586c0.552,0,1-0.448,1-1c0-0.552-0.448-1-1-1l-6,0C0.743,0,0.487,0.098,0.291,0.293
			c-0.29,0.29-0.363,0.714-0.222,1.072V7c0,0.552,0.412,1,0.964,1c0.552,0,1.018-0.448,1.018-1H2.07V3.485l4.293,4.293
			c0.391,0.391,1.024,0.391,1.414,0c0.391-0.391,0.391-1.024,0-1.414L3.413,2z"/>
		<path style="fill:#FFFFFF;" d="M7.777,24.293c-0.391-0.391-1.024-0.391-1.414,0L2.07,28.586v-3.515c0-0.552-0.483-1-1.036-1
			c-0.552,0-0.982,0.448-0.982,1H0.07v5.635c-0.141,0.359-0.068,0.782,0.222,1.072c0.29,0.29,0.713,0.362,1.072,0.222h5.635
			c0.552,0,1-0.448,1-1c0-0.552-0.448-1-1-1H3.484l4.293-4.293C8.167,25.317,8.167,24.683,7.777,24.293z"/>
	</g>
	<rect x="0.07" y="0" style="fill:none;" width="32" height="32"/>
</g>
<g id="Layer_1">
</g>
</svg>
