<svg xmlns="http://www.w3.org/2000/svg" width="22" height="22" viewBox="0 0 22 22">
    <g fill="none" fill-rule="evenodd">
        <path fill="#4DCCFF" d="M8.33 13.678h5.308V8.294H8.33z"/>
        <path fill="#FFF" d="M14.131 7.823a.672.672 0 0 0-.47-.195H8.328a.668.668 0 0 0-.666.666v5.33c0 .176.071.348.195.472a.671.671 0 0 0 .471.195h5.331a.672.672 0 0 0 .471-.195.672.672 0 0 0 .196-.471v-5.33a.671.671 0 0 0-.196-.472zM8.996 12.96h3.998V8.96H8.996v3.999zM11.25.051a.663.663 0 0 0-.726.144L7.697 3.022a.666.666 0 1 0 .942.942l1.69-1.69v3.593a.665.665 0 1 0 1.332 0V2.275l1.69 1.69a.666.666 0 1 0 .942-.943L11.466.195a.66.66 0 0 0-.215-.144M10.74 21.903a.662.662 0 0 0 .726-.143l2.827-2.828a.666.666 0 1 0-.942-.942l-1.69 1.69v-3.593a.666.666 0 1 0-1.332 0v3.593l-1.69-1.69a.666.666 0 1 0-.942.942l2.827 2.828c.06.061.134.11.215.143M21.939 11.215a.658.658 0 0 0 0-.511.665.665 0 0 0-.144-.215L18.968 7.66a.667.667 0 0 0-.943.943l1.69 1.69h-3.592a.665.665 0 1 0 0 1.332h3.592l-1.69 1.69a.666.666 0 0 0 .943.942l2.827-2.827a.663.663 0 0 0 .144-.216M.051 10.704a.658.658 0 0 0 0 .511c.034.08.083.154.144.216l2.827 2.827a.667.667 0 0 0 .943-.943l-1.69-1.69h3.592a.665.665 0 1 0 0-1.332H2.275l1.69-1.69a.666.666 0 0 0-.943-.942L.195 10.488a.66.66 0 0 0-.144.216"/>
    </g>
</svg>
