<svg xmlns="http://www.w3.org/2000/svg" width="60" height="60" viewBox="0 0 60 60">
    <g fill="none" fill-rule="evenodd">
        <path d="M0 0h60v60H0z"/>
        <path fill="#6A8D2F" d="M51.149 13.239H9v43.257A3.504 3.504 0 0 0 12.504 60h35.141a3.504 3.504 0 0 0 3.504-3.504V13.24zM14.072 54.928V18.31h32.005v36.617H14.072zM37.736 3.704H51.15v5.483H9V3.704h13.413V0h15.323v3.704zM18.027 50.975H23.1V21.991h-5.073v28.984zm9.511 0h5.073V21.991h-5.073v28.984zm9.511 0h5.072V21.991H37.05v28.984z"/>
    </g>
</svg>
