<?xml version="1.0" encoding="iso-8859-1"?>
<!-- Generator: Adobe Illustrator 19.2.1, SVG Export Plug-In . SVG Version: 6.00 Build 0)  -->
<svg version="1.1" xmlns="http://www.w3.org/2000/svg" xmlns:xlink="http://www.w3.org/1999/xlink" x="0px" y="0px"
	 viewBox="0 0 32 32" style="enable-background:new 0 0 32 32;" xml:space="preserve">
<g id="Layer_12">
	
		<linearGradient id="SVGID_1_" gradientUnits="userSpaceOnUse" x1="-261.05" y1="-396.3" x2="-259.05" y2="-396.3" gradientTransform="matrix(10 0 0 -10 2616.5 -3945)">
		<stop  offset="0" style="stop-color:#4DA6FF"/>
		<stop  offset="1" style="stop-color:#4DE1FF"/>
	</linearGradient>
	<path style="fill:url(#SVGID_1_);" d="M16,9c5.52,0,10-1.8,10-4v22c0,2.2-4.48,4-10,4S6,29.2,6,27V5C6,7.2,10.48,9,16,9z"/>
	<path style="fill:#4DE1FF;" d="M16,1c5.52,0,10,1.8,10,4s-4.48,4-10,4S6,7.2,6,5S10.48,1,16,1z"/>
	<path style="fill:#297BCC;" d="M25.9,2.72c-0.96-0.896-2.353-1.534-4.049-2C20.155,0.261,18.152,0,16,0
		c-2.87,0.002-5.472,0.46-7.442,1.247C7.572,1.643,6.739,2.119,6.1,2.72C5.468,3.311,5,4.094,5,5v22c0,0.906,0.468,1.689,1.1,2.28
		c0.96,0.896,2.353,1.534,4.049,2c1.696,0.459,3.699,0.72,5.851,0.72c2.87-0.002,5.472-0.46,7.442-1.247
		c0.986-0.397,1.819-0.873,2.459-1.473C26.532,28.689,27,27.906,27,27V5C27,4.094,26.532,3.311,25.9,2.72z M25,27
		c0,0.194-0.092,0.461-0.473,0.826c-0.559,0.539-1.703,1.124-3.199,1.523C19.832,29.755,17.988,30,16,30
		c-2.65,0.002-5.048-0.44-6.698-1.103c-0.824-0.328-1.456-0.715-1.829-1.071C7.092,27.461,7,27.194,7,27V7.962
		c0.86,0.549,1.922,0.981,3.149,1.317C11.845,9.739,13.848,9.999,16,10c2.87-0.002,5.472-0.46,7.442-1.247
		C24.019,8.521,24.536,8.257,25,7.962V27z M24.527,5.826c-0.559,0.539-1.703,1.124-3.199,1.523C19.832,7.755,17.988,8,16,8
		c-2.65,0.002-5.048-0.44-6.698-1.103C8.478,6.568,7.846,6.182,7.473,5.826C7.092,5.461,7,5.194,7,5
		c0-0.194,0.092-0.461,0.473-0.826c0.559-0.539,1.703-1.124,3.199-1.523C12.168,2.245,14.012,1.999,16,2
		c2.65-0.002,5.048,0.44,6.698,1.103c0.824,0.328,1.456,0.715,1.829,1.071C24.908,4.539,25,4.806,25,5
		C25,5.194,24.908,5.461,24.527,5.826z"/>
	<rect style="fill:none;" width="32" height="32"/>
</g>
<g id="Layer_1">
</g>
</svg>
