<svg xmlns="http://www.w3.org/2000/svg" width="12" height="12" viewBox="0 0 12 12">
    <g fill="none" fill-rule="evenodd">
        <path fill="#FBFBFB" d="M-1073-192H367v798h-1440z"/>
        <path fill="#3B3E45" d="M-8-9h192a2 2 0 0 1 2 2v26a2 2 0 0 1-2 2H-8a2 2 0 0 1-2-2V-7a2 2 0 0 1 2-2z"/>
        <path fill="#F33" d="M.099 10.107L5.151 1.03a.941.941 0 0 1 1.693 0l5.052 9.077c.32.638-.136 1.393-.842 1.393H.95c-.707 0-1.162-.755-.852-1.393zm5.052-.717c0 .471.339.834.822.834.484 0 .823-.363.823-.834v-.02c0-.47-.34-.833-.823-.833-.483 0-.822.363-.822.834v.02zm.406-1.933c.03.265.203.432.445.432s.417-.167.445-.432l.417-3.69c.028-.283-.126-.51-.388-.51h-.948c-.26 0-.416.227-.387.51l.416 3.69z"/>
    </g>
</svg>
