<?xml version="1.0" encoding="UTF-8" standalone="no"?>
<svg
   xmlns:dc="http://purl.org/dc/elements/1.1/"
   xmlns:cc="http://creativecommons.org/ns#"
   xmlns:rdf="http://www.w3.org/1999/02/22-rdf-syntax-ns#"
   xmlns:svg="http://www.w3.org/2000/svg"
   xmlns="http://www.w3.org/2000/svg"
   xmlns:sodipodi="http://sodipodi.sourceforge.net/DTD/sodipodi-0.dtd"
   xmlns:inkscape="http://www.inkscape.org/namespaces/inkscape"
   inkscape:version="1.0 (4035a4fb49, 2020-05-01)"
   height="53.400002"
   width="68.599998"
   sodipodi:docname="joystick.svg"
   xml:space="preserve"
   enable-background="new -586.2 383.7 100.3 101.9"
   viewBox="-586.2 383.7 68.599996 53.400001"
   y="0px"
   x="0px"
   id="svg2"
   version="1.1"><metadata
   id="metadata1045"><rdf:RDF><cc:Work
       rdf:about=""><dc:format>image/svg+xml</dc:format><dc:type
         rdf:resource="http://purl.org/dc/dcmitype/StillImage" /><dc:title></dc:title></cc:Work></rdf:RDF></metadata><defs
   id="defs1043" /><sodipodi:namedview
   inkscape:current-layer="svg2"
   inkscape:window-maximized="1"
   inkscape:window-y="0"
   inkscape:window-x="0"
   inkscape:cy="25.589468"
   inkscape:cx="33.929469"
   inkscape:zoom="8.2139352"
   fit-margin-bottom="0"
   fit-margin-right="0"
   fit-margin-left="0"
   fit-margin-top="0"
   showgrid="false"
   id="namedview1041"
   inkscape:window-height="1024"
   inkscape:window-width="1920"
   inkscape:pageshadow="2"
   inkscape:pageopacity="0"
   guidetolerance="10"
   gridtolerance="10"
   objecttolerance="10"
   borderopacity="1"
   bordercolor="#666666"
   pagecolor="#ffffff" />




<g
   transform="translate(-15.9,-23)"
   id="g1038">
	
		<radialGradient
   gradientUnits="userSpaceOnUse"
   gradientTransform="matrix(1,-0.00266845,0.00186791,0.7,-0.8089,128.5426)"
   r="26.6716"
   cy="433.23779"
   cx="-535.83807"
   id="SVGID_1_">
		<stop
   id="stop1000"
   style="stop-color:#4F5758"
   offset="0" />
		<stop
   id="stop1002"
   style="stop-color:#393F3E"
   offset="1" />
	</radialGradient>
	<path
   style="fill:url(#SVGID_1_)"
   id="path1005"
   d="m -501.7,447.3 c 0,-3 -11.5,-18.3 -34.3,-18.3 -22.8,0 -34.3,15.3 -34.3,18.3 v -0.2 c 0,0.3 0,1.3 0,1.6 0,6.4 15.4,11.4 34.3,11.4 19,0 34.3,-4.9 34.3,-11.4 0,-0.3 0,-1.3 0,-1.6 z"
   fill="url(#SVGID_1_)" />
	
		<radialGradient
   gradientUnits="userSpaceOnUse"
   gradientTransform="matrix(1,-0.00266845,0.00186791,0.7,-0.8052,127.9416)"
   r="15.5718"
   cy="431.23511"
   cx="-535.90192"
   id="SVGID_2_">
		<stop
   id="stop1007"
   style="stop-color:#000000"
   offset="0" />
		<stop
   id="stop1009"
   style="stop-color:#020202;stop-opacity:0.5065"
   offset="0.4935" />
		<stop
   id="stop1011"
   style="stop-color:#080909;stop-opacity:0.3288"
   offset="0.6712" />
		<stop
   id="stop1013"
   style="stop-color:#131414;stop-opacity:0.2021"
   offset="0.7979" />
		<stop
   id="stop1015"
   style="stop-color:#222525;stop-opacity:0.1003"
   offset="0.8997" />
		<stop
   id="stop1017"
   style="stop-color:#353B3A;stop-opacity:1.348937e-02"
   offset="0.9865" />
		<stop
   id="stop1019"
   style="stop-color:#393F3E;stop-opacity:0"
   offset="1" />
	</radialGradient>
	<path
   style="fill:url(#SVGID_2_)"
   id="path1022"
   d="m -514.8,435.8 c 0,-0.6 -0.1,-1.2 -0.4,-1.8 -5.4,-2.8 -12.3,-5 -20.8,-5 -8.5,0 -15.5,2.1 -20.8,5 -0.2,0.6 -0.4,1.2 -0.4,1.8 0,5.3 9.5,9.6 21.2,9.6 11.7,0 21.2,-4.4 21.2,-9.6 z"
   fill="url(#SVGID_2_)"
   opacity="0.25" />
	<linearGradient
   y2="409.99301"
   x2="-536.03857"
   y1="436.93439"
   x1="-536.03857"
   gradientUnits="userSpaceOnUse"
   id="SVGID_3_">
		<stop
   id="stop1024"
   style="stop-color:#171717"
   offset="0" />
		<stop
   id="stop1026"
   style="stop-color:#000000"
   offset="0.6664" />
	</linearGradient>
	<path
   style="fill:url(#SVGID_3_)"
   id="path1029"
   d="m -532.4,410 h -7.3 c -2.4,1.5 -4.5,4.2 -6.2,7.2 v 15.5 c 0,0.2 0.4,2.5 1.6,2.9 2.6,1.2 4.7,1.4 8.6,1.4 3.6,0 5.4,-0.1 7.9,-1.2 1.9,-0.5 1.6,-3.7 1.6,-4 v -15.1 c -1.7,-2.9 -3.9,-5.3 -6.2,-6.7 z"
   fill="url(#SVGID_3_)" />
	
		<radialGradient
   gradientUnits="userSpaceOnUse"
   gradientTransform="matrix(1,0,0,0.4,0,245.8667)"
   r="28.539499"
   cy="409.77789"
   cx="-536.20532"
   id="SVGID_4_">
		<stop
   id="stop1031"
   style="stop-color:#4F5758"
   offset="0" />
		<stop
   id="stop1033"
   style="stop-color:#393F3E"
   offset="1" />
	</radialGradient>
	<path
   style="fill:url(#SVGID_4_)"
   id="path1036"
   d="m -507.5,415.6 c 0,-1.9 -9.5,-8.9 -28.5,-8.9 -19,0 -28.5,7 -28.5,8.9 v -0.1 c 0,0.2 0,0.9 0,1 0,4.1 12.8,5.3 28.5,5.3 15.7,0 28.5,-1.2 28.5,-5.3 0,-0.2 0,-0.9 0,-1 z"
   fill="url(#SVGID_4_)" />
</g>
</svg>
