<svg xmlns="http://www.w3.org/2000/svg" width="44" height="44" viewBox="0 0 44 44">
    <path fill="#000" fill-rule="evenodd" d="M33.883 20.301a1.01 1.01 0 1 1-2.02 0v-4.73a1.01 1.01 0 1 1 2.02 0v4.73zm0 8.483a1.01 1.01 0 1 1-2.02 0v-4.73a1.01 1.01 0 1 1 2.02 0v4.73zm-2.889 2.888h-4.73a1.009 1.009 0 1 1 0-2.02h4.73a1.01 1.01 0 1 1 0 2.02zm-6.608-1.878a1.01 1.01 0 0 1-1.01-1.01v-4.73a1.01 1.01 0 1 1 2.02 0v4.73a1.01 1.01 0 0 1-1.01 1.01zm-3.918-9.493a1.01 1.01 0 1 1-2.021 0v-4.73a1.01 1.01 0 1 1 2.02 0v4.73zm0 8.483a1.01 1.01 0 1 1-2.021 0v-4.73a1.01 1.01 0 1 1 2.02 0v4.73zm-2.888 2.888h-4.73a1.009 1.009 0 1 1 0-2.02h4.73a1.01 1.01 0 1 1 0 2.02zm-6.61-1.878a1.01 1.01 0 0 1-1.01-1.01v-4.73a1.01 1.01 0 1 1 2.021 0v4.73a1.01 1.01 0 0 1-1.01 1.01zM9.96 15.572a1.01 1.01 0 1 1 2.021 0v4.73a1.01 1.01 0 1 1-2.02 0v-4.73zm8.63 6.607a1.01 1.01 0 0 1-1.01 1.01h-4.73a1.01 1.01 0 1 1 0-2.02h4.73c.558 0 1.01.452 1.01 1.01zm-5.74-9.496h4.73a1.01 1.01 0 1 1 0 2.02h-4.73a1.009 1.009 0 1 1 0-2.02zm10.526 2.889a1.01 1.01 0 1 1 2.02 0v4.73a1.01 1.01 0 1 1-2.02 0v-4.73zm8.629 6.607a1.01 1.01 0 0 1-1.011 1.01h-4.73a1.01 1.01 0 1 1 0-2.02h4.73c.559 0 1.01.452 1.01 1.01zm-5.74-9.496h4.729a1.01 1.01 0 1 1 0 2.02h-4.73a1.009 1.009 0 1 1 0-2.02zm7.165-4.302H10.413a4.424 4.424 0 0 0-4.424 4.424V31.55a4.424 4.424 0 0 0 4.424 4.424H33.43a4.424 4.424 0 0 0 4.425-4.424V12.805A4.424 4.424 0 0 0 33.43 8.38z"/>
</svg>
