<svg xmlns="http://www.w3.org/2000/svg" width="24" height="24" viewBox="0 0 24 24">
    <path fill="#323843" fill-rule="evenodd" d="M22.04 10.279v-.602c0-5.192-2.524-7.717-7.717-7.717H9.677c-5.193 0-7.717 2.525-7.717 7.717V14.323c0 5.193 2.524 7.717 7.717 7.717H14.323c5.193 0 7.717-2.524 7.717-7.717V10.279zM24 9.677v.602h-.001H24V14.323C24 20.58 20.58 24 14.323 24H9.677C3.42 24 0 20.58 0 14.323V9.677C0 3.42 3.42 0 9.677 0H14.323C20.58 0 24 3.42 24 9.677zM8.468 18.18h7.065v-.607H8.468v.607zm1.304-6.476v3.909h4.456v-3.909A2.23 2.23 0 0 0 12 9.477a2.23 2.23 0 0 0-2.228 2.228zm7.123 3.909c.33 0 .598.267.598.597v3.332c0 .33-.268.598-.598.598h-9.79a.598.598 0 0 1-.598-.598v-3.332c0-.33.268-.597.598-.597h.707v-3.909A4.193 4.193 0 0 1 12 7.517a4.193 4.193 0 0 1 4.188 4.188v3.909h.707zM7.431 8.521L5.727 6.817a.393.393 0 0 1 0-.554l.831-.832a.393.393 0 0 1 .555 0l1.704 1.705a.393.393 0 0 1 0 .554l-.83.831a.393.393 0 0 1-.556 0zm3.981-1.906a.393.393 0 0 1-.392-.393V3.834c0-.217.176-.392.392-.392h1.176c.216 0 .392.175.392.392v2.388a.393.393 0 0 1-.392.393h-1.176zm-4.501 5.677a.393.393 0 0 1-.392.393H4.107a.393.393 0 0 1-.392-.393v-1.175c0-.217.176-.392.392-.392h2.412c.216 0 .392.175.392.392v1.175zm9.103-3.77l-.83-.832a.393.393 0 0 1 0-.554l1.703-1.705a.393.393 0 0 1 .555 0l.831.832a.393.393 0 0 1 0 .554L16.57 8.521a.393.393 0 0 1-.555 0zm1.467 2.203h2.412c.216 0 .392.175.392.392v1.175a.393.393 0 0 1-.392.393h-2.412a.393.393 0 0 1-.392-.393v-1.175c0-.217.176-.392.392-.392z"/>
</svg>
