<svg xmlns="http://www.w3.org/2000/svg" width="44" height="44" viewBox="0 0 44 44">
    <path fill="#000" fill-rule="nonzero" d="M25.959 37.62c6.44 0 11.66-5.222 11.66-11.661V18.04c0-6.44-5.22-11.66-11.66-11.66H18.04c-6.44 0-11.66 5.22-11.66 11.66v7.918c0 6.44 5.22 11.66 11.66 11.66h7.918zm0 1.38H18.04C10.84 39 5 33.162 5 25.96V18.04C5 10.84 10.839 5 18.041 5h7.918C33.16 5 39 10.839 39 18.041v7.918C39 33.16 33.161 39 25.959 39zm-3.955-23.188a.76.76 0 0 1-.76-.76v-2.765a.76.76 0 0 1 1.52 0v2.765c0 .42-.341.76-.76.76zm4.85 2.009a.758.758 0 0 1-.538-1.297l1.45-1.45a.76.76 0 0 1 1.075 1.074l-1.45 1.45a.758.758 0 0 1-.538.223zm-11.708 4.85h-1.64a.76.76 0 0 1 0-1.52h1.64a.76.76 0 1 1 0 1.52zm2.008-4.85a.755.755 0 0 1-.536-.223l-1.452-1.45a.759.759 0 1 1 1.074-1.075l1.451 1.451a.759.759 0 0 1-.537 1.297zm13.34 4.85h-1.633a.76.76 0 1 1 0-1.52h1.633a.76.76 0 1 1 0 1.52zm-2.444 6.045a.755.755 0 0 1-.537-.222l-1.197-1.197a.76.76 0 1 1 1.074-1.073l1.196 1.196a.759.759 0 0 1-.536 1.296zm-12.023-.07a.758.758 0 0 1-.537-1.297l1.127-1.127a.76.76 0 0 1 1.074 1.076l-1.127 1.127a.758.758 0 0 1-.537.221zm5.976-10.72c.164 0 .331.01.5.03 1.888.215 3.432 1.71 3.702 3.591.214 1.501-.371 2.864-1.364 3.783-1.051.973-.887 2.428-.887 2.428a1.952 1.952 0 1 1-3.903 0s.165-1.455-.887-2.428c-.992-.92-1.577-2.282-1.363-3.783.27-1.88 1.813-3.376 3.701-3.591.169-.02.336-.03.5-.03z"/>
</svg>
