<svg xmlns="http://www.w3.org/2000/svg" width="24" height="24" viewBox="0 0 24 24">
    <path fill="#323843" fill-rule="evenodd" d="M12.314 5.168A6.84 6.84 0 0 0 5.48 12a6.84 6.84 0 0 0 6.833 6.832 6.712 6.712 0 0 0 4.195-1.475A5.866 5.866 0 0 1 13.029 12a5.866 5.866 0 0 1 3.48-5.357 6.716 6.716 0 0 0-4.195-1.475m0 15.625c-5.291 0-9.505-4.697-8.692-10.141.5-3.342 2.976-6.166 6.225-7.095 3.42-.979 6.893.146 9.113 2.739a.487.487 0 0 1 .077.499l-.444 1.074a.47.47 0 0 1-.36.279A3.92 3.92 0 0 0 14.99 12a3.92 3.92 0 0 0 3.243 3.852.47.47 0 0 1 .36.278l.444 1.073a.488.488 0 0 1-.077.501c-1.685 1.967-4.091 3.089-6.646 3.089"/>
</svg>
