<svg xmlns="http://www.w3.org/2000/svg" width="44" height="44" viewBox="0 0 44 44">
    <path fill="#000" fill-rule="evenodd" d="M12.511 35.107a14.413 14.413 0 0 0 5.911 1.274c7.972 0 14.46-6.486 14.46-14.459s-6.488-14.46-14.46-14.46a14.41 14.41 0 0 0-5.91 1.275c4.224 3.029 6.793 7.95 6.793 13.185s-2.569 10.156-6.794 13.185m5.911 3.04c-2.836 0-5.642-.757-8.114-2.189a.882.882 0 0 1 0-1.527c4.46-2.584 7.232-7.376 7.232-12.509s-2.771-9.925-7.232-12.51a.882.882 0 0 1 0-1.526 16.205 16.205 0 0 1 8.114-2.188c8.946 0 16.224 7.278 16.224 16.224 0 8.947-7.278 16.225-16.224 16.225"/>
</svg>
