<svg xmlns="http://www.w3.org/2000/svg" width="44" height="44" viewBox="0 0 44 44">
    <path fill="#000" fill-rule="evenodd" d="M10.633 17.685c.167 0 .336.01.507.03 1.909.217 3.47 1.728 3.742 3.63.216 1.517-.375 2.896-1.379 3.825-1.063.984-.897 2.455-.897 2.455h.001a1.974 1.974 0 1 1-3.947 0s.167-1.471-.896-2.455c-1.004-.93-1.595-2.308-1.379-3.826.272-1.9 1.833-3.412 3.742-3.63.17-.02.34-.03.506-.03zm22.584-2.14a.768.768 0 0 1-.768-.767v-2.796a.768.768 0 0 1 1.536 0v2.796a.768.768 0 0 1-.768.768zm4.903 2.032a.767.767 0 0 1-.543-1.31l1.467-1.468a.768.768 0 0 1 1.086 1.086l-1.467 1.467a.763.763 0 0 1-.543.225zM26.283 22.48h-1.658a.768.768 0 0 1 0-1.536h1.658a.768.768 0 1 1 0 1.536zm2.03-4.903a.763.763 0 0 1-.542-.225l-1.467-1.467a.767.767 0 1 1 1.086-1.086l1.466 1.467a.767.767 0 0 1-.542 1.311zm13.49 4.903H40.15a.768.768 0 1 1 0-1.536h1.652a.768.768 0 1 1 0 1.536zm-2.473 6.113a.763.763 0 0 1-.543-.225l-1.21-1.21a.768.768 0 1 1 1.086-1.085l1.21 1.21a.767.767 0 0 1-.543 1.31zm-12.155-.07a.767.767 0 0 1-.543-1.31l1.14-1.14a.767.767 0 1 1 1.085 1.086l-1.14 1.139a.763.763 0 0 1-.542.224zm6.041-10.838c.167 0 .336.01.507.03 1.908.217 3.47 1.728 3.742 3.63.216 1.517-.375 2.896-1.379 3.825-1.063.984-.897 2.455-.897 2.455h.002a1.974 1.974 0 1 1-3.948 0s.167-1.471-.896-2.455c-1.004-.93-1.596-2.308-1.38-3.826.273-1.9 1.834-3.412 3.743-3.63.171-.02.34-.03.506-.03z"/>
</svg>
