<svg xmlns="http://www.w3.org/2000/svg" width="44" height="44" viewBox="0 0 44 44">
    <path fill="#000" fill-rule="evenodd" d="M10.633 17.685c.167 0 .336.01.507.03 1.909.217 3.47 1.728 3.742 3.63.216 1.517-.375 2.896-1.379 3.825-1.063.984-.897 2.455-.897 2.455h.001a1.974 1.974 0 1 1-3.947 0s.167-1.471-.896-2.455c-1.004-.93-1.595-2.308-1.379-3.826.272-1.9 1.833-3.412 3.742-3.63.17-.02.34-.03.506-.03zm22.583 0c.167 0 .336.01.507.03 1.908.217 3.47 1.728 3.742 3.63.216 1.517-.375 2.896-1.379 3.825-1.063.984-.897 2.455-.897 2.455h.002a1.974 1.974 0 1 1-3.948 0s.167-1.471-.896-2.455c-1.004-.93-1.596-2.308-1.38-3.826.273-1.9 1.834-3.412 3.743-3.63.171-.02.34-.03.506-.03z"/>
</svg>
