<svg xmlns="http://www.w3.org/2000/svg" width="44" height="44" viewBox="0 0 44 44">
    <g fill="none" fill-rule="evenodd">
        <path stroke="#373B44" d="M8.276 5.24A2.137 2.137 0 0 0 6.143 3.2 2.147 2.147 0 0 0 4 5.346l.005 21.307A2.142 2.142 0 0 0 6.149 28.8a2.147 2.147 0 0 0 2.142-2.146L8.29 21.82h18.402c.722 0 1.308-.589 1.308-1.314V6.55a1.31 1.31 0 0 0-1.308-1.31H8.276z"/>
        <path fill="#373B44" d="M30.832 29.564a.217.217 0 0 1 .307 0l.797.797a.217.217 0 0 1 0 .307L29.605 33l2.331 2.332a.217.217 0 0 1 0 .307l-.798.797a.217.217 0 0 1-.307 0L28.5 34.105l-2.331 2.331a.217.217 0 0 1-.308 0l-.797-.797a.217.217 0 0 1 0-.308l2.331-2.33-2.331-2.332a.217.217 0 0 1 0-.307l.797-.798a.217.217 0 0 1 .307 0l2.332 2.331 2.332-2.331zm10.33 1.347c-.224.448-.618.944-1.18 1.49l-.72.684c-.45.432-.707.938-.772 1.52l-.035.541h-.004a.417.417 0 0 1-.415.413h-1.437a.417.417 0 0 1-.415-.413h-.003v-.004-.002h.001c0-.826.1-1.486.301-1.975.201-.493.57-.976 1.106-1.453.536-.478.892-.866 1.07-1.165.177-.3.266-.616.266-.948 0-1.001-.462-1.504-1.385-1.504-.438 0-.789.135-1.052.407-.264.269-.401.641-.413 1.115h-.002c0 .23-.187.417-.417.417h-1.739a.418.418 0 0 1-.417-.417c.012-1.131.377-2.017 1.097-2.656.719-.64 1.7-.961 2.943-.961 1.255 0 2.229.303 2.922.912.692.607 1.038 1.465 1.038 2.573 0 .504-.112.979-.337 1.426zm-2.756 7.921c-.263.254-.611.381-1.044.381-.431 0-.78-.127-1.043-.38a1.282 1.282 0 0 1-.395-.965c0-.395.134-.721.404-.978.269-.257.614-.385 1.034-.385.42 0 .766.128 1.035.385.27.257.404.583.404.978 0 .39-.131.71-.395.964z"/>
    </g>
</svg>
