<svg xmlns="http://www.w3.org/2000/svg" width="44" height="44" viewBox="0 0 44 44">
    <g fill="none" fill-rule="evenodd">
        <path stroke="#373B44" d="M8.276 5.24A2.137 2.137 0 0 0 6.143 3.2 2.147 2.147 0 0 0 4 5.346l.005 21.307A2.142 2.142 0 0 0 6.149 28.8a2.147 2.147 0 0 0 2.142-2.146L8.29 21.82h18.402c.722 0 1.308-.589 1.308-1.314V6.55a1.31 1.31 0 0 0-1.308-1.31H8.276z"/>
        <path fill="#373B44" d="M32.447 35.31l2.589 2.59a.3.3 0 0 1 0 .424l-2.59 2.588a.301.301 0 0 1-.426 0l-.62-.62a.3.3 0 0 1 0-.424l.964-.962h-3.448c-3.228 0-5.86-2.595-5.915-5.804-.057-3.305 2.71-6.01 6.02-6.01h.469a.3.3 0 0 1 .3.3v.987a.3.3 0 0 1-.3.3h-.574a4.328 4.328 0 0 0-4.326 4.245c-.04 2.417 1.991 4.394 4.412 4.394h3.362l-.963-.962a.3.3 0 0 1 0-.425l.621-.62a.3.3 0 0 1 .425 0zm4.637-8.215c3.228 0 5.86 2.594 5.915 5.804.057 3.304-2.71 6.01-6.02 6.01h-.469a.3.3 0 0 1-.3-.301v-.987a.3.3 0 0 1 .3-.3h.574a4.328 4.328 0 0 0 4.326-4.245c.041-2.416-1.991-4.394-4.412-4.394h-3.362l.964.962a.3.3 0 0 1 0 .425l-.622.62a.301.301 0 0 1-.426 0L30.964 28.1a.3.3 0 0 1 0-.424l2.59-2.588a.3.3 0 0 1 .426 0l.62.62a.3.3 0 0 1 0 .424l-.964.963h3.448z"/>
    </g>
</svg>
