<svg xmlns="http://www.w3.org/2000/svg" width="44" height="44" viewBox="0 0 44 44">
    <g fill="none" fill-rule="evenodd">
        <path fill-rule="nonzero" stroke="#000" stroke-width="2" d="M-41-30h495v361H-41z"/>
        <g fill="#000">
            <path d="M11.82 14.145a.948.948 0 0 1-.947-.948V9.748a.948.948 0 0 1 1.895 0v3.449a.948.948 0 0 1-.947.948zm6.049 2.505a.946.946 0 0 1-.67-1.617l1.808-1.81a.948.948 0 0 1 1.341 1.34l-1.809 1.81a.945.945 0 0 1-.67.277zM3.267 22.698H1.222a.948.948 0 0 1 0-1.894h2.045a.948.948 0 1 1 0 1.894zm2.505-6.048a.942.942 0 0 1-.67-.277l-1.81-1.81a.946.946 0 1 1 1.34-1.34l1.81 1.81a.946.946 0 0 1-.67 1.617zm16.638 6.048h-2.036a.947.947 0 1 1 0-1.894h2.036a.948.948 0 1 1 0 1.894zm-3.049 7.541a.942.942 0 0 1-.669-.277l-1.493-1.493a.947.947 0 1 1 1.34-1.34l1.492 1.493a.946.946 0 0 1-.67 1.617zm-14.995-.087a.948.948 0 0 1-.67-1.618l1.406-1.405a.949.949 0 0 1 1.34 1.341l-1.406 1.405a.946.946 0 0 1-.67.277zm7.453-13.369c.205 0 .414.012.625.036 2.354.269 4.28 2.133 4.616 4.478.267 1.872-.463 3.573-1.7 4.719-1.312 1.214-1.107 3.028-1.107 3.028a2.435 2.435 0 1 1-4.868 0s.206-1.814-1.106-3.028c-1.238-1.146-1.967-2.847-1.7-4.719.336-2.345 2.261-4.209 4.616-4.478.21-.024.418-.036.624-.036zM28.859 19.562a4.343 4.343 0 0 0-.51.879l-.848-.368a.508.508 0 0 1 .02-.046l.008-.018.005-.013.002-.004v-.002l.007-.01v-.003c0-.002 0-.003.002-.004v-.001a.01.01 0 0 0 .003-.005v-.001c0-.003.002-.004.002-.005l.001-.002.003-.004v-.003l.002-.004h.001l.002-.005v-.002c.002-.001.002-.004.003-.005v-.002l.003-.004.001-.003.001-.002.002-.004.002-.002.001-.004.001-.002v-.003c.002-.001.003-.002.003-.005l.001-.002.001-.003.002-.002v-.003l.003-.005c.002 0 .002 0 .002-.002v-.004l.002-.001.001-.004.002-.001.002-.006.001-.001.001-.004c.002 0 .002-.001.002-.003a.027.027 0 0 0 .003-.006l.002-.005.002-.005h.001l.004-.007v-.001l.003-.004v-.001c.002-.004.003-.008.006-.011v-.001c.002-.004.003-.01.006-.013l.002-.005a5.209 5.209 0 0 1 .316-.545v-.001a.103.103 0 0 0 .01-.015h.001a.108.108 0 0 1 .008-.012l.007-.011.001-.002.003-.003.007-.011v-.002l.003-.002V19.2l.004-.008h.002l.002-.004.008-.01v-.002l.003-.004a.017.017 0 0 1 .004-.006l.001-.002.003-.003v-.002l.003-.003.002-.002c0-.001 0-.003.002-.004l.003-.002v-.003c.002 0 .002 0 .003-.002l.002-.004c0-.001 0-.002.002-.002l.001-.003.003-.003v-.002c.002 0 .003-.003.005-.003v-.003l.002-.002.001-.003.004-.004.004-.006.003-.005h.002l.002-.006.001-.001.003-.004.001-.001c.001-.001.003-.002.003-.004l.004-.006v-.001l.004-.004v-.001c.004-.002.005-.006.008-.01v-.001a.017.017 0 0 0 .004-.005l.004-.005v-.001l.004-.004v-.001l.009-.01.01-.016.01-.014.742.554zm-.814 1.957a4.472 4.472 0 0 0-.037.906l-.924.057a5.39 5.39 0 0 1 .04-1.06v-.005s0-.002.002-.003v-.008-.005-.002-.002c.002 0 .002-.002.002-.003v-.002l.001-.004v-.008c.003-.014.005-.027.006-.041.002-.004.002-.01.003-.013v-.001l.001-.006.003-.014.008-.053.912.157-.017.11zm2.362-3.258a4.4 4.4 0 0 0-.848.562l-.596-.71c.253-.212.525-.4.814-.564l.016-.008.001-.001.013-.007.003-.002.002-.001.007-.004.004-.002h.001l.011-.008h.001l.004-.001.001-.001a.05.05 0 0 0 .011-.006s.002 0 .003-.002h.002s.002 0 .002-.002l.006-.003h.002s.001-.002.003-.002v-.001l.012-.006.001-.002h.004l.002-.002a.01.01 0 0 0 .005-.003h.003l.002-.002.003-.001s0-.002.002-.002c.001 0 .003 0 .003-.002l.005-.001c0-.002 0-.002.002-.003l.002-.001.003-.001.002-.001.005-.003.003-.001.002-.001.003-.002a.01.01 0 0 0 .005-.002c.002-.001.003-.003.005-.003h.002l.004-.003h.001l.005-.003.002-.001.004-.002h.001l.005-.004h.002l.004-.003h.002l.003-.002.003-.001c.001-.002.002-.002.005-.003h.001l.002-.001.417.825zm-2.22 5.161c.1.324.237.637.41.933l-.8.465-.001-.001-.002-.003v-.002s-.002-.001-.002-.003l-.02-.033a5.343 5.343 0 0 1-.469-1.085l.885-.27zm1.27 2.005c.256.236.48.505.67.797l-.777.502c-.03-.044-.06-.091-.092-.136l-.005-.007h-.001l-.003-.004v-.001l-.002-.003-.003-.003-.001-.002-.001-.002-.001-.001-.003-.003-.001-.002-.001-.001c0-.002-.002-.003-.002-.003v-.001c-.002-.001-.002-.001-.002-.003h-.001l-.003-.003-.001-.001-.001-.003-.002-.002s0-.002-.002-.003v-.001c-.001-.001-.002-.001-.002-.003h-.002v-.003c-.002 0-.002-.002-.002-.002l-.003-.002v-.001l-.002-.003-.004-.005-.002-.003-.003-.004h-.001l-.005-.007v-.002l-.004-.002-.002-.004-.003-.005-.006-.007c-.002-.003-.005-.005-.006-.008l-.006-.007a.022.022 0 0 1-.006-.009.08.08 0 0 0-.01-.01l-.005-.008c-.002-.003-.005-.005-.006-.008h-.001l-.003-.003v-.001l-.006-.007-.006-.007v-.001l-.006-.008a64.556 64.556 0 0 1-.007-.007l-.003-.004-.003-.003h-.001l-.002-.004-.004-.004-.003-.004c0-.002-.002-.003-.003-.004l-.003-.003h-.001l-.002-.004h-.002v-.003s-.002 0-.002-.002l-.003-.002v-.001a.003.003 0 0 0-.003-.003v-.001l-.003-.002-.001-.002-.002-.003-.004-.003v-.001l-.004-.004-.002-.002-.002-.001c0-.002 0-.003-.002-.004l-.003-.003-.003-.005h-.001c-.002 0-.002-.002-.002-.002l-.002-.003h-.001l-.002-.002c0-.001 0-.002-.002-.002l-.001-.003-.003-.001-.001-.003h-.001l-.003-.003-.001-.002-.001-.002-.003-.002v-.002l-.002-.001-.003-.002-.002-.002-.001-.002-.002-.001c0-.002 0-.003-.002-.004h-.001l-.001-.003h-.002l-.002-.004h-.001l-.003-.003v-.001a64.556 64.556 0 0 1-.004-.004.015.015 0 0 0-.007-.006v-.001l-.004-.004c0-.001 0-.002-.002-.002v-.002l-.011-.01-.008-.008c0-.003-.003-.004-.006-.006v-.002l-.007-.006c-.004-.005-.008-.007-.011-.01v-.002l-.006-.006-.002-.001c0-.002-.003-.004-.006-.007l-.007-.007-.004-.004-.001-.001-.006-.006-.008-.008a.033.033 0 0 1-.006-.007h-.001l-.004-.004h-.001l-.001-.002h-.002a.017.017 0 0 0-.003-.005c-.002-.001-.003-.001-.003-.003l-.005-.003v-.001c0-.002-.003-.003-.005-.004v-.003h-.002l-.004-.003-.001-.002h-.001l-.001-.002a64.556 64.556 0 0 0-.004-.004l-.001-.001-.002-.001-.002-.003h-.003v-.003l-.002-.002c-.001 0-.003 0-.003-.002l-.002-.001-.001-.003h-.001l-.004-.003-.003-.003v-.001c-.002-.001-.003-.003-.005-.003l-.003-.005c-.002 0-.003-.002-.005-.003l-.001-.001-.003-.003-.002-.002c-.002 0-.003-.002-.004-.003a.017.017 0 0 0-.004-.005l-.002-.001-.003-.003-.005-.004v-.002c-.002 0-.003-.002-.005-.003l-.002-.002-.003-.002v-.001l-.003-.003-.004-.004h-.002c0-.002-.002-.003-.002-.003 0-.001-.002-.001-.002-.003l-.003-.002v-.001l-.006-.005v-.002a.003.003 0 0 1-.003-.002l-.002-.001-.003-.003a5.348 5.348 0 0 1-.23-.233l.677-.63c.08.086.163.169.25.249zm7.237-3.909a4.246 4.246 0 0 0-.199-.805l.874-.308a4.482 4.482 0 0 1 .096.303.011.011 0 0 1 .001.007l.001.001.002.005v.001l.007.025v.001l.001.005.002.003v.005l.002.006.001.002.001.005v.001l.005.018v.002c.002.001.002.003.002.004v.002c0 .002 0 .003.002.004v.004l.001.003.002.004v.008c.002 0 .002 0 .002.003l.001.003.002.006v.005l.002.002.001.005v.003l.001.005.002.002v.007l.002.005.001.003c0 .002 0 .004.002.005v.002l.002.008.001.007.002.001v.008l.002.005v.002a.011.011 0 0 1 .001.006l.002.002v.007l.007.023.001.007.001.008.003.008.007.032.001.006v.001a5.228 5.228 0 0 1 .051.258l.005.03v.002l.001.007v.002l.001.006.002.007v.001a.974.974 0 0 1 .003.024v.001c0 .001 0 .004.002.006v.015l.002.002v.008a.016.016 0 0 1 .001.007.011.011 0 0 1 .002.006v.008c.01.069.02.137.025.205l-.92.093a4.84 4.84 0 0 0-.022-.181zm.13-2.217l-.775.503a4.443 4.443 0 0 0-.65-.784l.64-.668c.005.003.007.005.01.009l.01.009.004.004a.01.01 0 0 1 .005.005l.004.004.002.001c0 .002.002.003.003.003l.001.002.004.004.002.001.003.003.001.002c.001 0 .002.001.002.003l.004.002.001.003c.002 0 .003 0 .003.002l.001.001.01.009v.001c.269.267.51.563.715.88zm-1.763-1.694l-.472.796a4.316 4.316 0 0 0-.927-.412l.274-.883a5.283 5.283 0 0 1 .783.313l.005.002.013.007.003.002h.001l.008.004.001.001.004.001.001.001.007.004.003.001.002.002h.004l.003.003.003.002a.004.004 0 0 0 .003 0c0 .002.002.002.003.002l.003.001.002.001c.002.002.003.003.005.003l.002.001.003.003h.003l.005.003.005.003v.001l.006.001v.002a.01.01 0 0 0 .006.002l.001.001.005.003h.001c.003 0 .006.003.011.006l.011.006h.002c.069.038.14.077.207.117zm-1.133 10.46c.08-.52.234-1.008.457-1.45l.826.418c-.208.41-.315.823-.37 1.172l-.913-.14zm-.339 1.958c.15-.206.247-.45.279-.702l.918.113c-.025.194-.07.381-.139.558 0 .006-.003.012-.006.018a.085.085 0 0 0-.005.013l-.006.013v.001l-.001.004a.06.06 0 0 0-.005.014h-.001l-.005.013-.001.004v.001l-.007.012-.006.014v.004l-.005.008v.002s0 .002-.002.003l-.004.009-.002.004-.002.005a.06.06 0 0 1-.003.008l-.001.001c0 .002 0 .003-.002.004a.06.06 0 0 0-.003.009l-.003.003v.002l-.001.003-.003.004v.001l-.002.004v.001l-.001.003h-.001l-.004.008v.002l-.001.002-.002.001v.005l-.003.004c-.002.001-.002.002-.002.004l-.002.003v.002l-.003.003v.004l-.002.001-.001.004-.001.001-.002.003c0 .002 0 .003-.002.005l-.001.003-.002.001v.004l-.003.004v.001l-.003.003v.002l-.001.002-.001.002-.001.002-.002.001-.001.004-.001.001-.001.003v.001l-.002.003-.002.004-.001.003-.002.001v.003h-.002l-.001.002c0 .001 0 .003-.002.003v.003l-.002.001v.003l-.001.002-.001.002-.002.002v.003c-.002 0-.002 0-.002.002l-.001.003h-.002v.002l-.002.002v.002H34.5l-.003.006v.001l-.002.003-.001.003-.002.001-.005.008v.004a.02.02 0 0 0-.006.01h-.001l-.001.003-.008.013a2.15 2.15 0 0 1-.137.207l-.746-.545zm1.731-4.635c.25-.237.474-.501.665-.784l.768.516a5.685 5.685 0 0 1-.625.77c0 .002-.002.002-.003.003v.002c-.001 0-.003 0-.004.002v.001l-.004.003-.002.003h-.001l-.013.014v.001a7.626 7.626 0 0 1-.144.14l-.637-.671zm1.135-1.69c.121-.316.205-.648.248-.982l.918.118a5.941 5.941 0 0 1-.054.336l-.014.065-.001.004-.001.006c0 .001-.002.002-.002.005v.005s0 .003-.002.005v.005l-.012.054v.001l-.002.004v.006l-.002.004-.001.005-.002.005v.006s0 .002-.002.003v.002l-.001.003v.002l-.002.004c0 .01-.003.02-.006.03v.005l-.002.001v.004l-.001.001v.004l-.002.001v.008s-.002 0-.002.002v.002l-.001.003v.005c-.002 0-.002.001-.002.002v.008l-.002.002v.001l-.001.004v.001l-.002.004v.006c-.002.001-.002.001-.002.003l-.001.002v.001a.044.044 0 0 0-.003.013v.005l-.002.003v.002l-.001.003v.002c-.002 0-.002.002-.002.002v.007l-.002.003-.001.002v.003l-.002.002v.008h-.002v.005h-.001v.005l-.001.004a5.65 5.65 0 0 1-.162.495l-.865-.33zm-5.421 6.138c.12.227.296.42.51.561l-.508.773a2.692 2.692 0 0 1-.203-.149c-.003-.002-.005-.005-.009-.006v-.001l-.002-.001s0-.002-.002-.002l-.007-.006-.002-.002-.002-.002h-.002V31l-.004-.004h-.001l-.003-.002v-.001h-.002l-.001-.002c-.003 0-.004-.002-.005-.003v-.002h-.003v-.002l-.002-.001-.001-.002c-.002 0-.003 0-.003-.002a.003.003 0 0 1-.002-.002c-.002 0-.002 0-.003-.002h-.001l-.001-.002-.003-.001v-.002c-.002 0-.002-.002-.003-.002l-.002-.001s0-.002-.002-.002h-.001l-.002-.003v-.001c-.002 0-.003-.002-.004-.003l-.002-.001-.002-.001-.001-.002s-.002 0-.002-.002v-.001c-.002 0-.003-.002-.005-.003l-.003-.002v-.002c-.002 0-.003 0-.003-.002h-.001l-.006-.006-.001-.001c-.002 0-.002-.002-.003-.003h-.001l-.003-.004s-.002 0-.003-.002v-.001c-.002 0-.003-.001-.004-.003l-.007-.006-.003-.002-.001-.002c-.001 0-.001-.002-.003-.002l-.007-.007-.01-.01h-.001a.003.003 0 0 0-.003-.003l-.007-.007-.004-.004-.01-.01-.04-.04a2.504 2.504 0 0 1-.407-.56l.819-.432zm-.171-.692l-.923-.065c.007-.114.02-.4-.03-.775 0-.014-.003-.028-.006-.043a.109.109 0 0 0-.002-.02v-.003l-.001-.002v-.002-.004l-.002-.002v-.001-.002-.007-.002-.004c-.002-.001-.002-.004-.002-.005v-.001-.003h-.001v-.004-.002-.001s-.002-.001-.002-.003v-.003-.002-.002-.001-.002-.002l-.002-.001v-.003l-.001-.008v-.002l-.002-.002v-.004-.001-.001-.003-.002-.003h-.002v-.003-.002l-.001-.003v-.002l-.001-.008v-.003c0-.002-.002-.002-.002-.003v-.002-.002-.001-.003-.002-.001c0-.002 0-.002-.002-.003v-.001-.003l-.001-.002v-.003-.002l-.002-.004v-.005-.002-.003h-.002v-.003-.001-.003l-.001-.001v-.003-.003c-.002 0-.002 0-.002-.002v-.003-.002-.004l-.002-.007-.001-.003v-.002-.002-.001c0-.001-.002-.001-.002-.003v-.001-.002-.002-.002-.003h-.002v-.003-.002-.002l-.001-.001v-.003l-.001-.008h-.002v-.004-.002-.002-.002-.001c0-.002 0-.002-.002-.003v-.001V28l-.001-.002v-.003c0-.002 0-.002-.002-.003v-.001-.002-.002-.001l-.002-.008v-.001l-.001-.003v-.002-.002c-.002 0-.002-.002-.002-.002v-.002-.001-.002-.002-.001l-.002-.003v-.001-.002l-.001-.002v-.003l-.001-.003v-.005l-.002-.002v-.002-.002-.001-.003l-.002-.003v-.002l-.001-.002v-.001-.003-.001l-.002-.002v-.002-.002-.003l-.002-.003v-.002l-.001-.003V27.9v-.002l-.002-.001v-.003-.003-.003-.001l-.002-.001v-.002-.002l-.001-.001v-.003-.001l-.002-.002v-.002-.002-.001-.003c-.002-.004-.003-.006-.003-.01l.899-.217a5.1 5.1 0 0 1 .136 1.506zm1.507 1.499c.222 0 .434-.047.633-.14l.39.84a2.468 2.468 0 0 1-.562.182h-.004l-.004.001-.037.006-.004.001h-.004c0 .002-.002.002-.003.002h-.004l-.03.005h-.005-.003a.004.004 0 0 1-.003.002h-.005-.003l-.026.004h-.001l-.003.001h-.001-.003l-.003.001H32.676c-.001.002-.002.002-.004.002h-.003l-.015.002h-.004-.004l-.003.001h-.002-.006v.001h-.005-.007l-.001.002H32.6c-.002 0-.002.002-.003.002h-.006-.006l-.001.001H32.57l-.002.002h-.002H32.547h-.007l-.003.002h-.016l-.003.001h-.02v.002h-.012-.012H32.438c-.001.002-.003.002-.003.002H32.326a2.396 2.396 0 0 1-.135-.006l.067-.923c.037.003.074.004.111.004zm.294-12.837a4.344 4.344 0 0 0-1.305.106l-.212-.9c.168-.04.34-.072.516-.094l.012-.003h.001l.013-.001c.006-.001.01-.001.014-.003h.014l.006-.002h.008l.006-.001.007-.001c.211-.024.42-.036.625-.036H32.424l.002.001H32.493l.002.001H32.537l.001.001h.035c.001.002.002.002.004.002H32.62l.017.002h.012l.004.001h.019l.001.002h.047l.004.002h.001l-.062.923z"/>
        </g>
    </g>
</svg>
