<svg xmlns="http://www.w3.org/2000/svg" width="44" height="44" viewBox="0 0 44 44">
    <g fill="none" fill-rule="evenodd">
        <path fill-rule="nonzero" stroke="#000" stroke-width="2" d="M-116-30h495v361h-495z"/>
        <g fill="#000">
            <path d="M32.18 16.783c-.204 0-.413.012-.624.036-2.354.269-4.28 2.133-4.616 4.478-.267 1.872.463 3.573 1.7 4.719 1.312 1.214 1.107 3.028 1.107 3.028a2.435 2.435 0 1 0 4.868 0s-.206-1.814 1.106-3.028c1.238-1.146 1.967-2.847 1.7-4.719-.336-2.345-2.261-4.209-4.616-4.478a5.479 5.479 0 0 0-.624-.036M15.141 19.562c.205.273.375.569.51.879l.848-.368a.508.508 0 0 0-.02-.046l-.008-.018-.005-.013-.002-.004v-.002l-.007-.01v-.003c0-.002 0-.003-.002-.004v-.001a.01.01 0 0 1-.003-.005v-.001c0-.003-.002-.004-.002-.005l-.001-.002-.003-.004v-.003l-.002-.004h-.001l-.002-.005v-.002c-.002-.001-.002-.004-.003-.005v-.002l-.003-.004-.001-.003-.001-.002-.002-.004-.002-.002-.001-.004-.001-.002v-.003c-.002-.001-.003-.002-.003-.005l-.001-.002-.001-.003-.002-.002v-.003l-.003-.005c-.002 0-.002 0-.002-.002v-.004l-.002-.001-.001-.004-.002-.001-.002-.006-.001-.001-.001-.004c-.002 0-.002-.001-.002-.003a.027.027 0 0 1-.003-.006l-.002-.005-.002-.005h-.001l-.004-.007v-.001l-.003-.004v-.001c-.002-.004-.003-.008-.006-.011v-.001c-.002-.004-.003-.01-.006-.013l-.002-.005a5.209 5.209 0 0 0-.316-.545v-.001a.103.103 0 0 1-.01-.015h-.001a.108.108 0 0 0-.008-.012l-.007-.011-.001-.002-.003-.003-.007-.011v-.002l-.003-.002V19.2l-.004-.008h-.002l-.002-.004-.008-.01v-.002L16 19.172a.017.017 0 0 0-.004-.006l-.001-.002-.003-.003v-.002l-.003-.003-.002-.002c0-.001 0-.003-.002-.004l-.003-.002v-.003c-.002 0-.002 0-.003-.002l-.002-.004c0-.001 0-.002-.002-.002l-.001-.003-.003-.003v-.002c-.002 0-.003-.003-.005-.003v-.003l-.002-.002-.001-.003-.004-.004-.004-.006-.003-.005h-.002l-.002-.006-.001-.001-.003-.004-.001-.001c-.001-.001-.003-.002-.003-.004l-.004-.006v-.001l-.004-.004v-.001c-.004-.002-.005-.006-.008-.01v-.001a.017.017 0 0 1-.004-.005l-.004-.005v-.001a64.556 64.556 0 0 0-.004-.004v-.001l-.009-.01-.01-.016-.01-.014-.742.554zm.814 1.957c.044.302.056.607.037.906l.924.057a5.39 5.39 0 0 0-.04-1.06v-.005s0-.002-.002-.003v-.008-.005-.002-.002c-.002 0-.002-.002-.002-.003v-.002l-.001-.004v-.008c-.003-.014-.005-.027-.006-.041-.002-.004-.002-.01-.003-.013v-.001l-.001-.006-.003-.014-.008-.053-.912.157.017.11zm-2.362-3.258a4.4 4.4 0 0 1 .848.562l.596-.71a5.376 5.376 0 0 0-.814-.564l-.016-.008-.001-.001-.013-.007-.003-.002-.002-.001-.007-.004-.004-.002h-.001l-.011-.008h-.001l-.004-.001-.001-.001a.05.05 0 0 1-.011-.006s-.002 0-.003-.002h-.002s-.002 0-.002-.002l-.006-.003h-.002s-.001-.002-.003-.002v-.001l-.012-.006-.001-.002h-.004l-.002-.002a.01.01 0 0 1-.005-.003h-.003l-.002-.002-.003-.001s0-.002-.002-.002c-.001 0-.003 0-.003-.002l-.005-.001c0-.002 0-.002-.002-.003l-.002-.001-.003-.001-.002-.001-.005-.003-.003-.001-.002-.001-.003-.002a.01.01 0 0 1-.005-.002c-.002-.001-.003-.003-.005-.003h-.002l-.004-.003h-.001l-.005-.003-.002-.001-.004-.002h-.001l-.005-.004h-.002l-.004-.003h-.002l-.003-.002-.003-.001c-.001-.002-.002-.002-.005-.003h-.001l-.002-.001-.417.825zm2.22 5.161a4.405 4.405 0 0 1-.41.933l.8.465.001-.001.002-.003v-.002s.002-.001.002-.003l.02-.033c.193-.34.353-.704.469-1.085l-.885-.27zm-1.27 2.005a4.19 4.19 0 0 0-.67.797l.777.502c.03-.044.06-.091.092-.136l.005-.007h.001l.003-.004v-.001l.002-.003.003-.003.001-.002.001-.002.001-.001.003-.003.001-.002.001-.001c0-.002.002-.003.002-.003v-.001c.002-.001.002-.001.002-.003h.001l.003-.003.001-.001.001-.003.002-.002s0-.002.002-.003v-.001c.001-.001.002-.001.002-.003h.002v-.003c.002 0 .002-.002.002-.002l.003-.002v-.001l.002-.003.004-.005.002-.003.003-.004h.001l.005-.007v-.002l.004-.002.002-.004.003-.005.006-.007c.002-.003.005-.005.006-.008l.006-.007a.022.022 0 0 0 .006-.009.08.08 0 0 1 .01-.01l.005-.008c.002-.003.005-.005.006-.008h.001l.003-.003v-.001l.006-.007.006-.007v-.001l.006-.008a64.556 64.556 0 0 0 .007-.007l.003-.004.003-.003h.001l.002-.004.004-.004.003-.004c0-.002.002-.003.003-.004l.003-.003h.001l.002-.004h.002v-.003s.002 0 .002-.002l.003-.002v-.001c0-.002.002-.003.003-.003v-.001l.003-.002.001-.002.002-.003.004-.003v-.001l.004-.004.002-.002.002-.001c0-.002 0-.003.002-.004l.003-.003.003-.005h.001c.002 0 .002-.002.002-.002l.002-.003h.001l.002-.002c0-.001 0-.002.002-.002l.001-.003.003-.001.001-.003h.001l.003-.003.001-.002.001-.002.003-.002v-.002l.002-.001.003-.002.002-.002.001-.002.002-.001c0-.002 0-.003.002-.004h.001l.001-.003h.002l.002-.004h.001l.003-.003v-.001l.004-.004a.015.015 0 0 1 .007-.006v-.001l.004-.004c0-.001 0-.002.002-.002v-.002l.011-.01.008-.008c0-.003.003-.004.006-.006v-.002l.007-.006c.004-.005.008-.007.011-.01v-.002l.006-.006.002-.001c0-.002.003-.004.006-.007l.007-.007.004-.004.001-.001.006-.006.008-.008a.033.033 0 0 0 .006-.007h.001l.004-.004h.001l.001-.002h.002a.017.017 0 0 1 .003-.005c.002-.001.003-.001.003-.003l.005-.003v-.001c0-.002.003-.003.005-.004v-.003h.002l.004-.003.001-.002h.001l.001-.002.004-.004.001-.001.002-.001.002-.003h.003v-.003l.002-.002c.001 0 .003 0 .003-.002l.002-.001.001-.003h.001l.004-.003.003-.003v-.001c.002-.001.003-.003.005-.003l.003-.005c.002 0 .003-.002.005-.003l.001-.001.003-.003.002-.002c.002 0 .003-.002.004-.003a.017.017 0 0 1 .004-.005l.002-.001.003-.003.005-.004v-.002c.002 0 .003-.002.005-.003l.002-.002.003-.002v-.001l.003-.003.004-.004h.002c0-.002.002-.003.002-.003 0-.001.002-.001.002-.003l.003-.002v-.001l.006-.005v-.002a.003.003 0 0 0 .003-.002l.002-.001.003-.003a5.348 5.348 0 0 0 .23-.233l-.677-.63c-.08.086-.163.169-.25.249zm-7.237-3.909c.04-.273.106-.544.199-.805l-.874-.308a4.482 4.482 0 0 0-.096.303l-.001.007-.001.001-.002.005v.001l-.007.025v.001l-.001.005-.002.003v.005l-.002.006-.001.002-.001.005v.001l-.005.018v.002c-.002.001-.002.003-.002.004v.002c0 .002 0 .003-.002.004v.004l-.001.003-.002.004v.008c-.002 0-.002 0-.002.003l-.001.003-.002.006v.005l-.002.002-.001.005v.003l-.001.005-.002.002v.007l-.002.005-.001.003c0 .002 0 .004-.002.005v.002l-.002.008-.001.007-.002.001v.008l-.002.005v.002l-.001.006-.002.002v.007l-.007.023-.001.007-.001.008-.003.008-.007.032-.001.006v.001c-.018.08-.034.16-.047.242-.002.002-.002.005-.002.007v.001c0 .003 0 .005-.002.008l-.005.03v.002l-.001.007v.002l-.001.006-.002.007v.001a.974.974 0 0 0-.003.024v.001c0 .001 0 .004-.002.006v.015l-.002.002v.008l-.001.007-.002.006v.008c-.01.069-.02.137-.025.205l.92.093c.006-.059.013-.12.022-.181zm-.13-2.217l.775.503c.186-.285.404-.549.65-.784l-.64-.668c-.005.003-.007.005-.01.009l-.01.009-.004.004a.01.01 0 0 0-.005.005l-.004.004-.002.001a.003.003 0 0 1-.003.003l-.001.002-.004.004-.002.001-.003.003-.001.002a.003.003 0 0 0-.002.003l-.004.002-.001.003a.003.003 0 0 0-.003.002l-.001.001-.01.009v.001c-.269.267-.51.563-.715.88zm1.763-1.694l.472.796c.293-.174.605-.312.927-.412l-.274-.883a5.283 5.283 0 0 0-.783.313l-.005.002-.013.007-.003.002h-.001l-.008.004-.001.001-.004.001-.001.001-.007.004-.003.001-.002.002h-.004l-.003.003-.003.002H9.22c0 .002-.002.002-.003.002l-.003.001-.002.001c-.002.002-.003.003-.005.003l-.002.001-.003.003h-.003l-.005.003-.005.003v.001l-.006.001v.002a.01.01 0 0 1-.006.002l-.001.001-.005.003H9.17c-.003 0-.006.003-.011.006l-.011.006h-.002c-.069.038-.14.077-.207.117zm1.133 10.46a4.846 4.846 0 0 0-.457-1.45l-.826.418c.208.41.315.823.37 1.172l.913-.14zm.339 1.958a1.517 1.517 0 0 1-.279-.702l-.918.113c.025.194.07.381.139.558 0 .006.003.012.006.018a.085.085 0 0 1 .005.013l.006.013v.001l.001.004a.06.06 0 0 1 .005.014h.001l.005.013.001.004v.001l.007.012.006.014v.004l.005.008v.002s0 .002.002.003l.004.009.002.004.002.005a.06.06 0 0 0 .003.008l.001.001c0 .002 0 .003.002.004a.06.06 0 0 1 .003.009l.003.003v.002l.001.003.003.004v.001l.002.004v.001l.001.003h.001l.004.008v.002l.001.002.002.001v.005l.003.004c.002.001.002.002.002.004l.002.003v.002l.003.003v.004l.002.001.001.004.001.001.002.003c0 .002 0 .003.002.005l.001.003.002.001v.004l.003.004v.001l.003.003v.002l.001.002.001.002.001.002.002.001.001.004.001.001.001.003v.001l.002.003.002.004.001.003.002.001v.003h.002l.001.002c0 .001 0 .003.002.003v.003l.002.001v.003l.001.002.001.002.002.002v.003c.002 0 .002 0 .002.002l.001.003h.002v.002l.002.002v.002H9.5l.003.006v.001l.002.003.001.003.002.001.005.008v.004a.02.02 0 0 1 .006.01h.001l.001.003.008.013c.042.071.087.141.137.207l.746-.545zM8.68 25.39c-.25-.237-.474-.501-.665-.784l-.768.516c.185.275.395.533.625.77 0 .002.002.002.003.003v.002c.001 0 .003 0 .004.002v.001l.004.003.002.003h.001l.013.014v.001l.144.14.637-.671zM7.545 23.7a4.321 4.321 0 0 1-.248-.982l-.918.118c.015.114.033.225.054.336l.014.065.001.004.001.006c0 .001.002.002.002.005v.005s0 .003.002.005v.005l.012.054v.001l.002.004v.006l.002.004.001.005.002.005v.006s0 .002.002.003v.002l.001.003v.002l.002.004c0 .01.003.02.006.03v.005l.002.001v.004l.001.001v.004l.002.001v.008s.002 0 .002.002v.002l.001.003v.005c.002 0 .002.001.002.002v.008l.002.002v.001l.001.004v.001l.002.004v.006c.002.001.002.001.002.003l.001.002v.001a.044.044 0 0 1 .003.013v.005l.002.003v.002l.001.003v.002c.002 0 .002.002.002.002v.007l.002.003.001.002v.003l.002.002v.008h.002v.005h.001v.005l.001.004c.047.168.1.334.162.495l.865-.33zm5.421 6.138a1.52 1.52 0 0 1-.51.561l.508.773c.07-.046.138-.096.203-.149.003-.002.005-.005.009-.006v-.001l.002-.001s0-.002.002-.002l.007-.006.002-.002.002-.002h.002V31l.004-.004h.001l.003-.002v-.001h.002l.001-.002c.003 0 .004-.002.005-.003v-.002h.003v-.002l.002-.001.001-.002c.002 0 .003 0 .003-.002a.003.003 0 0 0 .002-.002c.002 0 .002 0 .003-.002h.001l.001-.002.003-.001v-.002c.002 0 .002-.002.003-.002l.002-.001s0-.002.002-.002h.001l.002-.003v-.001c.002 0 .003-.002.004-.003l.002-.001.002-.001.001-.002s.002 0 .002-.002v-.001c.002 0 .003-.002.005-.003l.003-.002v-.002c.002 0 .003 0 .003-.002h.001l.006-.006.001-.001c.002 0 .002-.002.003-.003h.001l.003-.004s.002 0 .003-.002v-.001c.002 0 .003-.001.004-.003l.007-.006.003-.002.001-.002c.001 0 .001-.002.003-.002l.007-.007.01-.01h.001c0-.002.001-.003.003-.003l.007-.007.004-.004.01-.01.04-.04c.16-.167.297-.355.407-.56l-.819-.432zm.171-.692l.923-.065c-.007-.114-.02-.4.03-.775 0-.014.003-.028.006-.043l.002-.02v-.003l.001-.002v-.002-.004l.002-.002v-.001-.002-.007-.002-.004c.002-.001.002-.004.002-.005v-.001-.003h.001v-.004-.002-.001s.002-.001.002-.003v-.003-.002-.002-.001-.002-.002l.002-.001v-.003l.001-.008v-.002l.002-.002v-.004-.001-.001-.003-.002-.003h.002v-.003-.002l.001-.003v-.002l.001-.008v-.003c0-.002.002-.002.002-.003v-.002-.002-.001-.003-.002-.001c0-.002 0-.002.002-.003v-.001-.003l.001-.002v-.003-.002l.002-.004v-.005-.002-.003h.002v-.003-.001-.003l.001-.001v-.003-.003c.002 0 .002 0 .002-.002v-.003-.002-.004l.002-.007.001-.003v-.002-.002-.001c0-.001.002-.001.002-.003v-.001-.002-.002-.002-.003h.002v-.003-.002-.002l.001-.001v-.003l.001-.008h.002v-.004-.002-.002-.002-.001c0-.002 0-.002.002-.003v-.001V28l.001-.002v-.003c0-.002 0-.002.002-.003v-.001-.002-.002-.001l.002-.008v-.001l.001-.003v-.002-.002c.002 0 .002-.002.002-.002v-.002-.001-.002-.002-.001l.002-.003v-.001-.002l.001-.002v-.003l.001-.003v-.005l.002-.002v-.002-.002-.001-.003l.002-.003v-.002l.001-.002v-.001-.003-.001l.002-.002v-.002-.002-.003l.002-.003v-.002l.001-.003V27.9v-.002l.002-.001v-.003-.003-.003-.001l.002-.001v-.002-.002l.001-.001v-.003-.001l.002-.002v-.002-.002-.001-.003c.002-.004.003-.006.003-.01l-.899-.217a5.1 5.1 0 0 0-.136 1.506zm-1.507 1.499c-.222 0-.434-.047-.633-.14l-.39.84c.177.082.365.144.562.182h.004l.004.001.037.006.004.001h.004c0 .002.002.002.003.002h.004l.03.005h.008a.004.004 0 0 0 .003.002h.008l.026.004h.001l.003.001h.004l.003.001H11.324c.001.002.002.002.004.002h.003l.015.002h.008l.003.001h.008v.001h.012l.001.002h.022c.002 0 .002.002.003.002h.012l.001.001H11.43l.002.002H11.46l.003.002h.016l.003.001h.02v.002H11.563a.004.004 0 0 0 .003.002H11.674c.046-.001.09-.002.135-.006l-.067-.923a1.668 1.668 0 0 1-.111.004zm-.294-12.837a4.344 4.344 0 0 1 1.305.106l.212-.9a5.002 5.002 0 0 0-.516-.094l-.012-.003h-.001l-.013-.001c-.006-.001-.01-.001-.014-.003h-.014l-.006-.002h-.008l-.006-.001-.007-.001a5.662 5.662 0 0 0-.625-.036H11.576l-.002.001H11.507l-.002.001H11.463l-.001.001h-.035c-.001.002-.002.002-.004.002H11.38l-.017.002h-.012l-.004.001h-.007-.012l-.001.002H11.317h-.01-.028l-.004.002h-.001l.062.923z"/>
        </g>
    </g>
</svg>
