<svg xmlns="http://www.w3.org/2000/svg" width="24" height="24" viewBox="0 0 24 24">
    <path fill="#323843" fill-rule="evenodd" d="M12 7.98A4.024 4.024 0 0 0 7.98 12 4.024 4.024 0 0 0 12 16.02 4.024 4.024 0 0 0 16.02 12 4.024 4.024 0 0 0 12 7.98zm0 10A5.987 5.987 0 0 1 6.02 12 5.987 5.987 0 0 1 12 6.02 5.987 5.987 0 0 1 17.98 12 5.987 5.987 0 0 1 12 17.98zM5.362 6.748L3.157 4.544a.475.475 0 0 1 0-.672l.714-.715a.476.476 0 0 1 .672 0l2.205 2.204a.476.476 0 0 1 0 .672l-.715.715a.473.473 0 0 1-.67 0zm7.143-2.68h-1.01a.475.475 0 0 1-.474-.476V.474c0-.26.211-.474.473-.474h1.011c.262 0 .475.213.475.474v3.118a.475.475 0 0 1-.475.475zm5.461 2.68l-.714-.715a.474.474 0 0 1 0-.672l2.204-2.204a.476.476 0 0 1 .672 0l.714.715a.474.474 0 0 1 0 .672l-2.204 2.204a.474.474 0 0 1-.672 0zm5.56 6.232h-3.119a.475.475 0 0 1-.474-.475v-1.01c0-.262.212-.475.474-.475h3.119c.262 0 .474.213.474.475v1.01a.475.475 0 0 1-.474.475zM3.872 20.843l-.714-.715a.475.475 0 0 1 0-.672l2.205-2.204a.475.475 0 0 1 .67 0l.716.715a.475.475 0 0 1-.001.672l-2.204 2.204a.474.474 0 0 1-.672 0zm-.279-7.863H.474A.475.475 0 0 1 0 12.505v-1.01c0-.262.212-.475.474-.475h3.12c.261 0 .474.213.474.475v1.01a.475.475 0 0 1-.475.475zm15.864 7.863l-2.205-2.204a.476.476 0 0 1 0-.672l.715-.715a.476.476 0 0 1 .672 0l2.204 2.204a.476.476 0 0 1 0 .672l-.715.715a.473.473 0 0 1-.671 0zM12.505 24h-1.01a.475.475 0 0 1-.474-.475v-3.118c0-.261.211-.474.473-.474h1.011c.262 0 .475.213.475.474v3.118a.475.475 0 0 1-.475.475z"/>
</svg>
