<svg xmlns="http://www.w3.org/2000/svg" width="44" height="44" viewBox="0 0 44 44">
    <g fill="#000" fill-rule="evenodd">
        <path d="M8.48 20.188v7.642c.06.255.091.522.091.795C8.571 30.49 7.1 32 5.285 32 3.471 32 2 30.49 2 28.625c0-1.864 1.47-3.375 3.285-3.375.599 0 1.16.164 1.644.452V14H25v14.95a.82.82 0 0 1-.056.3c-.285 1.565-1.622 2.75-3.23 2.75-1.814 0-3.285-1.51-3.285-3.375 0-1.864 1.47-3.375 3.286-3.375.636 0 1.23.186 1.734.508v-5.57H8.479zM36.852 30.458h-2.667V20.175L31 21.163v-2.17L36.566 17h.286z"/>
    </g>
</svg>
