<svg xmlns="http://www.w3.org/2000/svg" width="44" height="44" viewBox="0 0 44 44">
    <g fill="#000" fill-rule="evenodd">
        <path d="M8.48 20.188v7.642c.06.255.091.522.091.795C8.571 30.49 7.1 32 5.285 32 3.471 32 2 30.49 2 28.625c0-1.864 1.47-3.375 3.285-3.375.599 0 1.16.164 1.644.452V14H25v14.95a.82.82 0 0 1-.056.3c-.285 1.565-1.622 2.75-3.23 2.75-1.814 0-3.285-1.51-3.285-3.375 0-1.864 1.47-3.375 3.286-3.375.636 0 1.23.186 1.734.508v-5.57H8.479zM39.48 29.624h-9.212v-1.827l4.347-4.634c.597-.652 1.039-1.222 1.325-1.708.286-.486.429-.947.429-1.384 0-.597-.15-1.066-.452-1.408-.302-.342-.733-.512-1.293-.512-.603 0-1.078.207-1.426.623-.347.415-.521.961-.521 1.638H30c0-.818.195-1.566.586-2.243a4.131 4.131 0 0 1 1.657-1.592c.714-.385 1.523-.577 2.428-.577 1.384 0 2.46.332 3.226.997.766.664 1.149 1.603 1.149 2.815 0 .665-.172 1.342-.517 2.03-.345.69-.935 1.493-1.772 2.41L33.7 27.473h5.779v2.151z"/>
    </g>
</svg>
