<svg xmlns="http://www.w3.org/2000/svg" width="44" height="44" viewBox="0 0 44 44">
    <path fill="#000" fill-rule="evenodd" d="M17.485 30.479a.76.76 0 0 1-.022-.01l-3.82-1.644a.76.76 0 0 1-.006-.003l-4.295-1.848a.755.755 0 0 1-.014-.006L3.85 24.612a.746.746 0 0 1-.389-.978A19.89 19.89 0 0 1 21.74 11.6a19.89 19.89 0 0 1 18.277 12.033.741.741 0 0 1-.388.978l-5.477 2.356a.805.805 0 0 1-.012.005l-4.297 1.849a.755.755 0 0 1-.01.004l-3.816 1.644a.824.824 0 0 1-.016.006l-3.967 1.707a.74.74 0 0 1-.588 0l-3.96-1.704zm1.32-1.051l2.935 1.263 2.934-1.263a3.588 3.588 0 0 0-5.869 0zm2.935-3.01c1.779 0 3.405.928 4.322 2.413l2.477-1.066a7.753 7.753 0 0 0-6.8-4.023 7.753 7.753 0 0 0-6.798 4.023l2.477 1.066a5.076 5.076 0 0 1 4.322-2.412zm0-4.163a9.238 9.238 0 0 1 8.17 4.92l2.95-1.27a12.442 12.442 0 0 0-11.12-6.855 12.442 12.442 0 0 0-11.121 6.855l2.95 1.27a9.238 9.238 0 0 1 8.17-4.92zm0-4.692a13.927 13.927 0 0 1 12.489 7.753l4.115-1.771A18.402 18.402 0 0 0 21.74 13.088c-7.11 0-13.548 4.08-16.604 10.457l4.115 1.771a13.927 13.927 0 0 1 12.489-7.753z"/>
</svg>
