<svg xmlns="http://www.w3.org/2000/svg" width="44" height="44" viewBox="0 0 44 44">
    <g fill="#000" fill-rule="evenodd">
        <path d="M22.43 5.073c.192.131.242.393.11.585-2.21 3.244-5.758 5.18-9.488 5.18-3.73 0-7.277-1.936-9.488-5.18a.421.421 0 0 1 .696-.474c2.054 3.013 5.34 4.813 8.792 4.813s6.739-1.8 8.793-4.813a.42.42 0 0 1 .585-.11zm.442 3.36a.36.36 0 0 1-.465.55l-.933-.788a.36.36 0 1 1 .464-.551l.934.789zM19.72 9.566l.927 1.455a.361.361 0 0 1-.607.388l-.928-1.455a.361.361 0 0 1 .608-.388zm-3.123 1.552l.571 2.041a.36.36 0 1 1-.694.194l-.57-2.041a.36.36 0 1 1 .693-.194zm-3.551.162c.2 0 .36.161.36.36v2.227a.36.36 0 1 1-.72 0V11.64a.36.36 0 0 1 .36-.36zm-3.102-.41a.36.36 0 0 1 .243.447l-.603 2.041a.36.36 0 0 1-.692-.204l.604-2.042a.36.36 0 0 1 .448-.243zM6.866 9.46c.167.108.217.33.11.499l-.924 1.45a.36.36 0 1 1-.608-.388l.924-1.45a.36.36 0 0 1 .498-.11zM4.152 7.645a.36.36 0 1 1 .464.55l-1.023.865a.36.36 0 0 1-.508-.042.36.36 0 0 1 .043-.508l1.024-.865zM21.678 34.46h14.63l1.392 5.038h2.286V42H18v-2.502h2.286l1.392-5.038zM26.226 18h5.534l2.704 9.787H23.521L26.226 18z"/>
    </g>
</svg>
