<svg xmlns="http://www.w3.org/2000/svg" width="44" height="44" viewBox="0 0 44 44">
    <g fill="none" fill-rule="evenodd">
        <path fill="#000" d="M22.43 6.073c.192.131.242.393.11.585-2.21 3.244-5.758 5.18-9.488 5.18-3.73 0-7.277-1.936-9.488-5.18a.421.421 0 0 1 .696-.474c2.054 3.013 5.34 4.813 8.792 4.813s6.739-1.8 8.793-4.813a.42.42 0 0 1 .585-.11zm.442 3.36a.36.36 0 0 1-.465.55l-.933-.788a.36.36 0 1 1 .464-.551l.934.789zm-3.153 1.133l.927 1.455a.361.361 0 0 1-.607.388l-.928-1.455a.361.361 0 0 1 .608-.388zm-3.123 1.552l.571 2.041a.36.36 0 1 1-.694.194l-.57-2.041a.36.36 0 1 1 .693-.194zm-3.551.162c.2 0 .36.161.36.36v2.227a.36.36 0 1 1-.72 0V12.64a.36.36 0 0 1 .36-.36zm-3.102-.41a.36.36 0 0 1 .243.447l-.603 2.041a.36.36 0 0 1-.692-.204l.604-2.042a.36.36 0 0 1 .448-.243zm-3.077-1.41c.167.108.217.33.11.499l-.924 1.45a.36.36 0 1 1-.608-.388l.924-1.45a.36.36 0 0 1 .498-.11zM4.152 8.645a.36.36 0 1 1 .464.55l-1.023.865a.36.36 0 0 1-.508-.042.36.36 0 0 1 .043-.508l1.024-.865z"/>
        <path fill="#FF1720" d="M26.714 36.16c-.072.001-.143.01-.215.01-4.76 0-8.62-3.84-8.62-8.578 0-4.739 3.86-8.58 8.62-8.58s8.62 3.841 8.62 8.58c0 .571-.06 1.13-.166 1.67-2.52 2.251-5.082 4.542-5.389 4.848-.325.323-.464.769-.44 1.24a2.783 2.783 0 0 0-2.378.773l-.032.036zm-.406-11.93l-3.077 2.236 1.175 3.617h3.803l1.176-3.617-3.077-2.235z"/>
        <path fill="#000" d="M41.511 26.086c-.168.167-1.309 1.431-3.875 4.277-2.229 2.472-4.97 5.513-5.535 6.109a3.7 3.7 0 0 0-.72-1.038 3.551 3.551 0 0 0-1.053-.706c.561-.531 3.618-3.26 6.1-5.477 2.892-2.581 4.177-3.731 4.345-3.899.011-.011.039-.017.079-.017.104 0 .288.05.456.217.246.246.234.503.203.534m-11.51 13.27c-.619.616-1.83 1.318-3.073 1.497.474-.984.325-1.795.105-2.553-.184-.63-.245-.843.406-1.492.342-.34.796-.529 1.28-.529s.939.189 1.281.53a1.799 1.799 0 0 1 0 2.547m-3.942-3.922c-.883.878-1.106 1.65-1.099 2.296-4.958-.743-8.776-5-8.776-10.139 0-5.66 4.629-10.268 10.317-10.268 5.27 0 9.622 3.958 10.234 9.041l-1.61 1.44c-3.448 3.079-5.915 5.284-6.25 5.615a2.408 2.408 0 0 0-.589.992c-.825.09-1.622.42-2.227 1.023M42.69 24.178c-.964-.959-2.443-1.05-3.298-.201-.07.069-.428.392-.952.861-1.257-5.41-6.128-9.459-11.94-9.459-6.767 0-12.271 5.478-12.271 12.212 0 6.317 4.849 11.51 11.035 12.13-.063.335-.291.715-.857 1.278a.968.968 0 0 0-.258.918c.081.33.33.595.655.697a5.227 5.227 0 0 0 1.567.234c2.083 0 4.04-1.15 5.01-2.117a3.697 3.697 0 0 0 1.06-2.223c.363-.123.695-.313.964-.58.335-.334 2.568-2.808 5.685-6.267 1.784-1.978 3.626-4.021 3.802-4.2.853-.849.762-2.322-.202-3.283"/>
    </g>
</svg>
