<svg xmlns="http://www.w3.org/2000/svg" width="44" height="44" viewBox="0 0 44 44">
    <g fill="#000" fill-rule="evenodd">
        <path d="M3.836 9.294c2.158 3.003 5.51 4.786 9.024 4.786 3.514 0 6.865-1.783 9.023-4.786-2.158-3.002-5.51-4.786-9.023-4.786-3.515 0-6.866 1.784-9.024 4.786zm9.024 5.666c-3.901 0-7.611-2.025-9.924-5.418a.44.44 0 0 1 0-.496c2.313-3.392 6.023-5.418 9.924-5.418s7.61 2.026 9.923 5.418a.439.439 0 0 1 0 .496c-2.312 3.393-6.022 5.418-9.923 5.418zm4.043-5.666a4.043 4.043 0 1 1-8.086 0 4.043 4.043 0 0 1 8.086 0zM21.678 34.46h14.63l1.392 5.038h2.286V42H18v-2.502h2.286l1.392-5.038zM26.226 18h5.534l2.704 9.787H23.521L26.226 18z"/>
    </g>
</svg>
