<svg xmlns="http://www.w3.org/2000/svg" width="44" height="44" viewBox="0 0 44 44">
    <g fill="#000" fill-rule="evenodd">
        <path d="M17.576 30.75a.76.76 0 0 1-.022-.008l-3.82-1.645a.767.767 0 0 1-.006-.003l-4.295-1.848a.756.756 0 0 1-.015-.006l-5.477-2.356a.746.746 0 0 1-.388-.978 19.89 19.89 0 0 1 18.278-12.033 19.89 19.89 0 0 1 18.277 12.033.741.741 0 0 1-.388.978l-5.477 2.356a.807.807 0 0 1-.013.005l-4.296 1.85a.755.755 0 0 1-.01.003l-3.816 1.644a.825.825 0 0 1-.016.006l-3.967 1.707a.74.74 0 0 1-.589 0l-3.96-1.704zm1.32-1.05l2.934 1.264 2.935-1.264a3.588 3.588 0 0 0-5.87 0zm2.935-3.009c1.778 0 3.405.927 4.321 2.412l2.478-1.066a7.753 7.753 0 0 0-6.8-4.023 7.753 7.753 0 0 0-6.798 4.023l2.477 1.066a5.076 5.076 0 0 1 4.322-2.412zm0-4.164a9.238 9.238 0 0 1 8.17 4.92l2.95-1.27a12.442 12.442 0 0 0-11.12-6.855 12.442 12.442 0 0 0-11.121 6.855l2.95 1.27a9.238 9.238 0 0 1 8.17-4.92zm0-4.692a13.927 13.927 0 0 1 12.489 7.753l4.115-1.77A18.402 18.402 0 0 0 21.83 13.36c-7.11 0-13.548 4.08-16.604 10.457l4.115 1.771a13.927 13.927 0 0 1 12.489-7.753z"/>
        <path d="M35.43 16.338a5.6 5.6 0 1 1-11.2.001 5.6 5.6 0 0 1 11.2 0"/>
    </g>
</svg>
