<svg xmlns="http://www.w3.org/2000/svg" width="44" height="44" viewBox="0 0 44 44">
    <path fill="#000" fill-rule="evenodd" d="M17.084 14.234c.391 0 .689-.36.604-.743a5.374 5.374 0 0 0-.717-1.735.617.617 0 0 0-.955-.1l-1.527 1.526a.617.617 0 0 0 .436 1.052h2.159zm-.113 3.344c.344-.54.584-1.128.717-1.735a.616.616 0 0 0-.604-.743h-2.16a.617.617 0 0 0-.435 1.053l1.527 1.526c.277.278.744.23.955-.101zm-1.67 1.669a.617.617 0 0 0 .103-.956l-1.527-1.526a.616.616 0 0 0-1.052.435v2.16c0 .39.36.688.743.604a5.383 5.383 0 0 0 1.734-.717zm-3.594-3.894a1.019 1.019 0 1 0 1.44-1.442 1.019 1.019 0 0 0-1.44 1.442zm.252 4.006V17.2a.616.616 0 0 0-1.053-.435L9.38 18.29a.617.617 0 0 0 .101.956 5.37 5.37 0 0 0 1.735.717.616.616 0 0 0 .743-.605zm-4.146-1.781c.21.331.677.379.955.101l1.526-1.526A.617.617 0 0 0 9.86 15.1h-2.16a.617.617 0 0 0-.604.743c.135.607.373 1.195.718 1.735zm0-5.822a5.391 5.391 0 0 0-.718 1.735.616.616 0 0 0 .605.743h2.159a.616.616 0 0 0 .435-1.052l-1.526-1.526a.617.617 0 0 0-.955.1zm1.668-1.668a.618.618 0 0 0-.1.956l1.525 1.526a.617.617 0 0 0 1.053-.436v-2.16a.615.615 0 0 0-.743-.604 5.386 5.386 0 0 0-1.735.718zm3.344-.113v2.16c0 .548.664.823 1.052.435l1.527-1.526a.618.618 0 0 0-.102-.956 5.383 5.383 0 0 0-1.734-.718.616.616 0 0 0-.743.605zm6.63 9.555a.549.549 0 0 1 0 .777l-1.424 1.423a.548.548 0 0 1-.776 0l-.43-.43.232.563a.55.55 0 0 1-.297.718l-1.86.771a.55.55 0 0 1-.718-.298l-.234-.562v.608a.55.55 0 0 1-.549.55h-2.014a.549.549 0 0 1-.55-.55v-.607l-.232.561a.55.55 0 0 1-.719.298l-1.86-.771a.55.55 0 0 1-.297-.718l.233-.562-.43.43a.549.549 0 0 1-.778 0l-1.424-1.424a.549.549 0 0 1 0-.777l.43-.43-.562.233a.55.55 0 0 1-.718-.298l-.77-1.86a.55.55 0 0 1 .296-.718l.563-.233h-.609a.55.55 0 0 1-.55-.55v-2.013c0-.305.247-.55.55-.55h.61l-.564-.233a.55.55 0 0 1-.296-.719l.77-1.86a.55.55 0 0 1 .718-.297l.562.232-.43-.43a.548.548 0 0 1 0-.776l1.424-1.425a.549.549 0 0 1 .777 0l.43.43-.232-.562a.549.549 0 0 1 .297-.717l1.86-.772a.55.55 0 0 1 .719.298l.233.562v-.608a.55.55 0 0 1 .55-.55h2.013a.55.55 0 0 1 .55.55v.608l.232-.562a.55.55 0 0 1 .718-.297l1.86.77c.281.116.415.438.298.718l-.233.563.43-.43a.549.549 0 0 1 .777 0l1.424 1.424a.55.55 0 0 1 0 .776l-.43.43.562-.232a.55.55 0 0 1 .718.297l.771 1.86a.55.55 0 0 1-.297.719l-.563.233h.609a.55.55 0 0 1 .55.55v2.013a.55.55 0 0 1-.55.55h-.608l.562.233a.55.55 0 0 1 .297.718l-.77 1.86a.55.55 0 0 1-.719.298l-.562-.233.43.43zm17.851 10.326c.326-.273.49-.637.49-1.092a1.483 1.483 0 0 0-.865-1.388 2.174 2.174 0 0 0-.948-.197H34.12v4.67h1.127v-1.584h.717c.569 0 1.016-.136 1.342-.41zm-3.766-.245v-.215a2.67 2.67 0 0 0-.262-1.195 1.9 1.9 0 0 0-.723-.804 2 2 0 0 0-1.058-.282c-.4 0-.756.096-1.07.286-.314.19-.554.46-.722.81-.167.35-.252.753-.252 1.21v.264c.01.44.1.83.272 1.17.172.34.411.602.72.784.308.183.66.274 1.058.274a2 2 0 0 0 1.063-.283c.31-.19.551-.46.72-.81.17-.351.254-.754.254-1.21zM29.2 28.048v-.869h-3.904v.87h1.376v3.8h1.126v-3.8H29.2zm-6.473.715c-.128-.098-.192-.206-.192-.326 0-.137.057-.25.175-.34.116-.088.275-.132.475-.132.2 0 .357.053.474.158.116.104.174.252.174.442h1.123a1.34 1.34 0 0 0-.22-.76 1.436 1.436 0 0 0-.622-.51 2.183 2.183 0 0 0-.903-.18c-.343 0-.654.055-.93.165-.275.111-.49.264-.64.462a1.093 1.093 0 0 0-.226.685c0 .52.303.928.908 1.226.186.092.426.187.718.284.293.1.498.195.615.286.116.092.175.22.175.385a.4.4 0 0 1-.162.339c-.109.08-.256.12-.441.12-.292 0-.502-.06-.63-.178-.13-.118-.196-.303-.196-.553h-1.128c0 .308.078.58.232.815.156.237.387.423.693.558.307.137.65.204 1.029.204.536 0 .959-.116 1.265-.35.31-.232.463-.553.463-.961 0-.512-.252-.912-.757-1.203a4.148 4.148 0 0 0-.795-.335c-.323-.104-.548-.205-.677-.301zm11.205-9.864l6.218 6.219v8.794l-6.218 6.218h-8.795l-6.218-6.218v-8.794l6.218-6.219h8.795zm2.064 9.15a.63.63 0 0 1 .48.198c.118.131.177.306.177.523 0 .199-.057.353-.172.462-.115.11-.28.164-.5.164h-.735v-1.348h.75zm-4.5-.052c.289 0 .51.121.665.361.156.24.233.592.233 1.057v.215c-.002.453-.08.8-.234 1.042a.737.737 0 0 1-.657.363.744.744 0 0 1-.677-.37c-.152-.245-.228-.596-.228-1.054l.003-.344c.033-.847.33-1.27.895-1.27z"/>
</svg>
