<svg xmlns="http://www.w3.org/2000/svg" width="44" height="44" viewBox="0 0 44 44">
    <g fill="none" fill-rule="evenodd">
        <path fill="#7AC943" d="M19.528 31.507c.017-.017.027-.03.042-.047a3.618 3.618 0 0 1 3.09-1.006c-.03-.612.15-1.192.574-1.611.398-.398 3.728-3.376 7.005-6.302.139-.702.215-1.429.215-2.172 0-6.16-5.017-11.153-11.205-11.153-6.19 0-11.206 4.993-11.206 11.153s5.017 11.153 11.206 11.153c.094 0 .185-.013.28-.015"/>
        <path fill="#000" d="M38.764 18.412c-.218.216-1.701 1.86-5.037 5.56-2.898 3.214-6.461 7.167-7.196 7.941a4.81 4.81 0 0 0-.935-1.35 4.616 4.616 0 0 0-1.37-.917c.73-.69 4.703-4.237 7.931-7.12 3.76-3.355 5.429-4.85 5.647-5.068.016-.015.051-.023.103-.023.136 0 .375.065.593.282.32.32.305.655.264.695M23.8 35.663c-.803.8-2.378 1.714-3.993 1.946.616-1.28.421-2.334.136-3.318-.239-.82-.319-1.097.528-1.94a2.345 2.345 0 0 1 1.665-.688c.628 0 1.219.245 1.664.688.917.913.917 2.4 0 3.312m-5.125-5.1c-1.148 1.143-1.437 2.145-1.428 2.986-6.446-.966-11.41-6.5-11.41-13.18 0-7.36 6.018-13.349 13.412-13.349 6.851 0 12.51 5.145 13.306 11.754l-2.094 1.871c-4.483 4.003-7.69 6.87-8.125 7.3a3.131 3.131 0 0 0-.765 1.29c-1.073.115-2.11.545-2.896 1.329M40.297 15.93c-1.253-1.246-3.176-1.366-4.287-.261-.091.09-.557.51-1.238 1.12-1.634-7.035-7.966-12.297-15.523-12.297-8.796 0-15.951 7.121-15.951 15.876 0 8.212 6.303 14.963 14.345 15.768-.081.436-.378.93-1.114 1.662-.313.312-.44.764-.335 1.193.106.43.428.773.85.906.68.212 1.363.305 2.038.305 2.708 0 5.253-1.497 6.514-2.753a4.806 4.806 0 0 0 1.378-2.889c.47-.16.903-.407 1.252-.754.435-.435 3.338-3.652 7.392-8.148 2.318-2.57 4.713-5.227 4.942-5.46 1.108-1.103.99-3.018-.263-4.268"/>
    </g>
</svg>
