<svg xmlns="http://www.w3.org/2000/svg" width="24" height="24" viewBox="0 0 24 24">
    <path fill="#323843" fill-rule="evenodd" d="M10.001 14.235a4.238 4.238 0 0 0 4.234-4.234 4.24 4.24 0 0 0-4.234-4.235 4.24 4.24 0 0 0-4.234 4.235 4.238 4.238 0 0 0 4.234 4.234zm0-10.069a5.84 5.84 0 0 1 5.834 5.835 5.84 5.84 0 0 1-5.834 5.834 5.84 5.84 0 0 1-5.834-5.834 5.841 5.841 0 0 1 5.834-5.835zM10.002 0c5.348 0 9.728 4.221 9.986 9.506a.48.48 0 0 1-.481.495h-.666a.472.472 0 0 1-.467-.456c-.238-4.413-3.902-7.93-8.373-7.93-.335 0-.676.02-1.02.061-3.638.432-6.649 3.287-7.247 6.902a8.378 8.378 0 0 0 2.34 7.349l1.431 1.427v-1.295c0-.106.041-.205.116-.28a.393.393 0 0 1 .28-.116h.711a.397.397 0 0 1 .397.396l-.001 3.545a.395.395 0 0 1-.397.396l-3.546.001a.396.396 0 0 1-.396-.396l.001-.71c0-.219.178-.397.396-.397h1.295l-1.427-1.43C.75 14.885-.431 11.7.148 8.271.832 4.214 4.058.925 8.103.176A10.414 10.414 0 0 1 10.002 0zm10.256 16.5c.128 0 .256.049.353.146l3.243 3.244a.497.497 0 0 1 0 .704l-3.243 3.244a.498.498 0 0 1-.706 0l-.572-.572a.5.5 0 0 1 0-.705l2.32-2.319-2.32-2.319a.5.5 0 0 1 0-.705l.572-.572a.502.502 0 0 1 .353-.146zm-3.817 0c.127 0 .255.049.352.146l3.244 3.244a.499.499 0 0 1 0 .704l-3.244 3.244a.498.498 0 0 1-.706 0l-.572-.572a.5.5 0 0 1 0-.705l2.32-2.319-2.32-2.319a.5.5 0 0 1 0-.705l.572-.572a.502.502 0 0 1 .354-.146zm-3.817 0c.127 0 .255.049.353.146l3.243 3.244a.499.499 0 0 1 0 .704l-3.243 3.244a.502.502 0 0 1-.706 0l-.572-.572a.498.498 0 0 1 0-.705l2.319-2.319-2.319-2.319a.498.498 0 0 1 0-.705l.572-.572a.5.5 0 0 1 .353-.146zm-1.538-8.147c.176 0 .323.042.423.14.442.444-.263 1.867-.706 2.31-.344.344-1.28.846-1.887.846-.175 0-.323-.042-.422-.141-.443-.443.262-1.866.705-2.31.344-.343 1.279-.845 1.887-.845z"/>
</svg>
