<svg xmlns="http://www.w3.org/2000/svg" width="24" height="24" viewBox="0 0 24 24">
    <path fill="#323843" fill-rule="evenodd" d="M10.001 14.237a4.238 4.238 0 0 0 4.234-4.234 4.24 4.24 0 0 0-4.234-4.236 4.24 4.24 0 0 0-4.234 4.236 4.238 4.238 0 0 0 4.234 4.234zm0-10.069a5.84 5.84 0 0 1 5.834 5.835 5.84 5.84 0 0 1-5.834 5.834 5.841 5.841 0 0 1-5.834-5.834 5.841 5.841 0 0 1 5.834-5.835zM9.199 9.2c.442-.443 1.866-1.148 2.31-.705.442.443-.263 1.867-.706 2.31-.443.442-1.867 1.148-2.309.705-.443-.443.262-1.867.705-2.31zm10.406-6.523c.22 0 .396.178.396.396v3.546a.393.393 0 0 1-.117.28.39.39 0 0 1-.28.116H16.06a.399.399 0 0 1-.396-.395v-.711a.39.39 0 0 1 .116-.28.392.392 0 0 1 .28-.117h1.296l-1.428-1.43a8.379 8.379 0 0 0-7.349-2.34c-3.616.598-6.47 3.608-6.903 7.247-.584 4.92 3.125 9.137 7.87 9.392a.473.473 0 0 1 .456.467v.666a.48.48 0 0 1-.496.482A10.016 10.016 0 0 1 .176 8.11C.926 4.065 4.214.839 8.271.155A9.992 9.992 0 0 1 17.07 2.94l1.43 1.428V3.073a.398.398 0 0 1 .395-.396h.711zm-3.06 13.97l3.243 3.242a.498.498 0 0 1 0 .705l-3.243 3.244a.499.499 0 0 1-.705 0l-.572-.572a.498.498 0 0 1 0-.705l2.318-2.319-2.318-2.319a.498.498 0 0 1 0-.705l.572-.572a.498.498 0 0 1 .705 0z"/>
</svg>
