<svg xmlns="http://www.w3.org/2000/svg" width="24" height="24" viewBox="0 0 24 24">
    <path fill="#323843" fill-rule="evenodd" d="M10.001 14.237a4.238 4.238 0 0 0 4.234-4.234 4.24 4.24 0 0 0-4.234-4.236 4.24 4.24 0 0 0-4.234 4.236 4.238 4.238 0 0 0 4.234 4.234zm0-10.069a5.84 5.84 0 0 1 5.834 5.835 5.84 5.84 0 0 1-5.834 5.834 5.841 5.841 0 0 1-5.834-5.834 5.841 5.841 0 0 1 5.834-5.835zm0-4.16a9.966 9.966 0 0 1 7.067 2.933l1.43 1.428V3.073a.398.398 0 0 1 .396-.396h.711c.218 0 .396.178.396.396v3.546a.393.393 0 0 1-.117.28.39.39 0 0 1-.279.116h-3.546a.399.399 0 0 1-.397-.396v-.71a.39.39 0 0 1 .116-.28.394.394 0 0 1 .281-.117h1.296l-1.428-1.43a8.36 8.36 0 0 0-5.926-2.458c-.467 0-.942.038-1.424.118-3.615.598-6.47 3.608-6.902 7.246-.584 4.92 3.125 9.138 7.87 9.393a.473.473 0 0 1 .456.467v.666a.483.483 0 0 1-.474.483l-.022-.001A10.015 10.015 0 0 1 .176 8.11C.924 4.065 4.214.839 8.271.155a10.352 10.352 0 0 1 1.73-.146zM20.258 16.5c.128 0 .256.049.353.146l3.243 3.243a.498.498 0 0 1 0 .705l-3.243 3.244a.498.498 0 0 1-.706 0l-.572-.572a.5.5 0 0 1 0-.705l2.32-2.319-2.32-2.319a.5.5 0 0 1 0-.705l.572-.572a.502.502 0 0 1 .353-.146zm-3.817 0c.127 0 .255.049.352.146l3.244 3.243a.5.5 0 0 1 0 .705l-3.244 3.244a.498.498 0 0 1-.706 0l-.572-.572a.5.5 0 0 1 0-.705l2.32-2.319-2.32-2.319a.5.5 0 0 1 0-.705l.572-.572a.502.502 0 0 1 .354-.146zm-3.817 0c.127 0 .255.049.353.146l3.243 3.243a.5.5 0 0 1 0 .705l-3.243 3.244a.502.502 0 0 1-.706 0l-.572-.572a.498.498 0 0 1 0-.705l2.319-2.319-2.319-2.319a.498.498 0 0 1 0-.705l.572-.572a.5.5 0 0 1 .353-.146zm-1.538-8.146c.176 0 .323.043.423.142.442.442-.263 1.865-.706 2.309-.344.344-1.28.845-1.887.845-.175 0-.323-.042-.422-.14-.443-.444.262-1.867.705-2.31.344-.343 1.279-.845 1.887-.845z"/>
</svg>
