<svg xmlns="http://www.w3.org/2000/svg" width="44" height="44" viewBox="0 0 44 44">
    <g fill="none" fill-rule="evenodd">
        <path fill="#000" d="M11.19 7.562c6.084-6.083 15.984-6.083 22.07 0a15.506 15.506 0 0 1 4.57 11.035c0 4.168-1.624 8.087-4.57 11.035l-1.482-1.482a13.423 13.423 0 0 0 3.956-9.553c0-3.61-1.405-7.002-3.956-9.553-5.268-5.266-13.84-5.267-19.107 0a13.446 13.446 0 0 0-2.496 15.654l.287-3.128 1.929 2.318-.46 5.003-5.003-.46L5 26.11l3.738.346C5.175 20.38 6.11 12.642 11.189 7.562zm15.726 10.602c.392 0 .69-.362.605-.743a5.376 5.376 0 0 0-.718-1.735.617.617 0 0 0-.955-.1l-1.526 1.526a.616.616 0 0 0 .435 1.052h2.16zm-.113 3.343c.345-.54.584-1.128.718-1.734a.616.616 0 0 0-.605-.744h-2.159a.616.616 0 0 0-.435 1.053l1.526 1.527c.278.277.744.23.955-.102zm-1.668 1.67a.618.618 0 0 0 .1-.957l-1.526-1.526a.617.617 0 0 0-1.052.436v2.159c0 .391.36.69.743.605a5.402 5.402 0 0 0 1.735-.717zm-3.666-3.895a1.018 1.018 0 1 0 1.44-1.44 1.018 1.018 0 0 0-1.44 1.44zm.322 4.007V21.13a.617.617 0 0 0-1.052-.436l-1.527 1.526a.618.618 0 0 0 .101.957c.54.343 1.128.583 1.734.717a.616.616 0 0 0 .744-.605zm-4.146-1.782c.21.332.677.379.955.102l1.527-1.527a.617.617 0 0 0-.437-1.053h-2.158a.617.617 0 0 0-.605.744c.135.606.374 1.195.718 1.734zm0-5.82a5.407 5.407 0 0 0-.718 1.734.616.616 0 0 0 .605.743h2.158c.55 0 .825-.664.437-1.052L18.6 15.586a.617.617 0 0 0-.955.1zm1.668-1.67a.618.618 0 0 0-.1.956l1.526 1.526a.616.616 0 0 0 1.052-.436v-2.159a.616.616 0 0 0-.744-.604 5.394 5.394 0 0 0-1.734.718zm3.344-.113v2.16c0 .549.664.824 1.052.435l1.527-1.526a.617.617 0 0 0-.101-.955A5.403 5.403 0 0 0 23.4 13.3a.616.616 0 0 0-.743.604zm8 3.136c.304 0 .55.246.55.55v2.014a.549.549 0 0 1-.55.55h-.608l.563.232c.28.116.412.438.296.718l-.77 1.86a.55.55 0 0 1-.719.298l-.561-.233.43.43a.548.548 0 0 1 0 .777l-1.424 1.424a.549.549 0 0 1-.777 0l-.43-.43.232.562a.549.549 0 0 1-.297.718l-1.86.772a.55.55 0 0 1-.719-.298l-.233-.562v.608a.55.55 0 0 1-.549.55h-2.014a.55.55 0 0 1-.55-.55v-.608l-.233.562a.55.55 0 0 1-.718.298l-1.86-.772a.55.55 0 0 1-.297-.718l.232-.562-.43.43a.548.548 0 0 1-.776 0l-1.425-1.424a.55.55 0 0 1 0-.777l.43-.43-.561.233a.549.549 0 0 1-.718-.298l-.771-1.86a.55.55 0 0 1 .297-.718l.562-.233h-.608a.55.55 0 0 1-.55-.549V17.59a.55.55 0 0 1 .55-.55h.608l-.562-.232a.55.55 0 0 1-.297-.719l.77-1.86a.55.55 0 0 1 .719-.298l.561.233-.43-.43a.55.55 0 0 1 0-.777l1.425-1.424a.548.548 0 0 1 .776 0l.43.43-.232-.562a.55.55 0 0 1 .297-.718l1.86-.77a.55.55 0 0 1 .719.297l.233.562v-.608a.55.55 0 0 1 .55-.55h2.013a.55.55 0 0 1 .55.55v.607l.232-.562a.55.55 0 0 1 .719-.297l1.86.77a.55.55 0 0 1 .297.719l-.233.562.43-.43a.549.549 0 0 1 .778 0l1.424 1.424a.549.549 0 0 1 0 .777l-.43.43.561-.233a.55.55 0 0 1 .719.298l.77 1.86a.55.55 0 0 1-.296.719l-.563.232h.608z"/>
        <path fill="#373B44" d="M18.433 41.354a.178.178 0 0 1-.247 0l-1.135-1.112a.173.173 0 0 1 0-.242l2.855-2.798-2.855-2.798a.169.169 0 0 1 0-.242l1.135-1.112a.176.176 0 0 1 .124-.05c.046 0 .09.018.123.05l4.114 4.031a.174.174 0 0 1 0 .242l-4.114 4.03zm4.202 0a.178.178 0 0 1-.247 0l-1.135-1.112a.173.173 0 0 1 0-.242l2.855-2.798-2.855-2.798a.169.169 0 0 1 0-.242l1.135-1.112a.176.176 0 0 1 .123-.05c.047 0 .091.018.124.05l4.114 4.031a.174.174 0 0 1 0 .242l-4.114 4.03z"/>
    </g>
</svg>
