<svg xmlns="http://www.w3.org/2000/svg" width="44" height="44" viewBox="0 0 44 44">
    <g fill="none" fill-rule="evenodd">
        <path fill="#000" d="M32.64 7.562c-6.084-6.083-15.984-6.083-22.07 0A15.506 15.506 0 0 0 6 18.597c0 4.168 1.624 8.087 4.57 11.035l1.482-1.482a13.423 13.423 0 0 1-3.957-9.553c0-3.61 1.405-7.002 3.957-9.553 5.267-5.266 13.839-5.267 19.107 0a13.446 13.446 0 0 1 2.495 15.654l-.287-3.128-1.928 2.318.46 5.003 5.003-.46 1.928-2.32-3.738.346c3.563-6.077 2.628-13.815-2.452-18.895zM16.913 18.164a.616.616 0 0 1-.604-.743 5.376 5.376 0 0 1 .717-1.735.617.617 0 0 1 .956-.1l1.526 1.526a.616.616 0 0 1-.436 1.052h-2.159zm.113 3.343a5.372 5.372 0 0 1-.717-1.734.616.616 0 0 1 .604-.744h2.16c.549 0 .823.665.435 1.053l-1.526 1.527a.617.617 0 0 1-.956-.102zm1.669 1.67a.618.618 0 0 1-.101-.957l1.526-1.526a.617.617 0 0 1 1.053.436v2.159c0 .391-.361.69-.744.605a5.402 5.402 0 0 1-1.734-.717zm3.666-3.895a1.018 1.018 0 1 1-1.44-1.44 1.018 1.018 0 0 1 1.44 1.44zm-.323 4.007V21.13c0-.55.664-.825 1.053-.436l1.527 1.526a.618.618 0 0 1-.102.957 5.408 5.408 0 0 1-1.734.717.616.616 0 0 1-.744-.605zm4.147-1.782a.617.617 0 0 1-.956.102l-1.526-1.527a.617.617 0 0 1 .436-1.053h2.159c.391 0 .69.362.605.744a5.403 5.403 0 0 1-.718 1.734zm0-5.82c.344.54.583 1.127.718 1.734a.616.616 0 0 1-.605.743h-2.159a.617.617 0 0 1-.436-1.052l1.526-1.526a.617.617 0 0 1 .956.1zm-1.669-1.67c.331.212.379.678.102.956l-1.527 1.526a.616.616 0 0 1-1.053-.436v-2.159c0-.39.361-.689.744-.604a5.394 5.394 0 0 1 1.734.718zm-3.343-.113v2.16c0 .549-.664.824-1.053.435l-1.526-1.526a.617.617 0 0 1 .101-.955 5.403 5.403 0 0 1 1.734-.718.616.616 0 0 1 .744.604zm-8 3.136a.549.549 0 0 0-.55.55v2.014c0 .303.245.55.55.55h.607l-.562.232a.549.549 0 0 0-.297.718l.77 1.86a.55.55 0 0 0 .72.298l.56-.233-.43.43a.548.548 0 0 0 0 .777l1.425 1.424a.549.549 0 0 0 .777 0l.43-.43-.232.562a.549.549 0 0 0 .296.718l1.861.772a.55.55 0 0 0 .719-.298l.232-.562v.608c0 .304.246.55.55.55h2.013a.55.55 0 0 0 .55-.55v-.608l.233.562a.55.55 0 0 0 .718.298l1.86-.772a.55.55 0 0 0 .298-.718l-.233-.562.43.43a.548.548 0 0 0 .777 0l1.425-1.424a.55.55 0 0 0 0-.777l-.43-.43.561.233a.549.549 0 0 0 .718-.298l.771-1.86a.55.55 0 0 0-.297-.718l-.562-.233h.608a.55.55 0 0 0 .55-.549V17.59a.55.55 0 0 0-.55-.55h-.609l.563-.232a.55.55 0 0 0 .297-.719l-.771-1.86a.55.55 0 0 0-.718-.298l-.562.233.43-.43a.55.55 0 0 0 0-.777l-1.424-1.424a.548.548 0 0 0-.777 0l-.43.43.233-.562a.55.55 0 0 0-.298-.718l-1.86-.77a.55.55 0 0 0-.718.297l-.233.562v-.608a.55.55 0 0 0-.55-.55h-2.014a.55.55 0 0 0-.549.55v.607l-.232-.562a.55.55 0 0 0-.719-.297l-1.86.77a.55.55 0 0 0-.297.719l.232.562-.43-.43a.549.549 0 0 0-.777 0l-1.424 1.424a.549.549 0 0 0 0 .777l.43.43-.562-.233a.55.55 0 0 0-.718.298l-.77 1.86a.55.55 0 0 0 .296.719l.563.232h-.608z"/>
        <path fill="#373B44" d="M20.433 41.354a.178.178 0 0 1-.247 0l-1.135-1.112a.173.173 0 0 1 0-.242l2.855-2.798-2.855-2.798a.169.169 0 0 1 0-.242l1.135-1.112a.176.176 0 0 1 .124-.05c.046 0 .09.018.123.05l4.114 4.031a.174.174 0 0 1 0 .242l-4.114 4.03z"/>
    </g>
</svg>
