<svg xmlns="http://www.w3.org/2000/svg" width="24" height="24" viewBox="0 0 24 24">
    <path fill="#323843" fill-rule="evenodd" d="M16.782 1.895c3.938 0 7.15 3.17 7.218 7.093v5.154c.068 4.038-3.308 7.343-7.347 7.343h-.627a.452.452 0 0 1-.452-.45v-1.038c0-.248.203-.451.452-.451h.65c2.953 0 5.433-2.418 5.383-5.37l.001-5.153a5.285 5.285 0 0 0-5.278-5.188H7.324c-2.954 0-5.434 2.417-5.383 5.37l-.002 5.152a5.285 5.285 0 0 0 5.28 5.189H9.71l-1.099-1.1a.475.475 0 0 1 0-.673l.603-.602a.475.475 0 0 1 .672 0l3.008 3.009a.471.471 0 0 1 0 .672L9.886 23.86a.474.474 0 0 1-.672 0l-.603-.602a.477.477 0 0 1 0-.674l1.1-1.099H7.217c-3.939 0-7.15-3.17-7.218-7.092l.001-5.154C-.069 5.2 3.307 1.894 7.346 1.894h9.436zM12.32 9.688c.79 0 1.399.233 1.824.702.424.468.636 1.125.636 1.971 0 .51-.113.973-.341 1.386a2.346 2.346 0 0 1-.96.954c-.411.223-.898.335-1.46.335-.5 0-.968-.104-1.405-.31a2.525 2.525 0 0 1-1.028-.847 2.061 2.061 0 0 1-.366-1.214h1.848c.018.29.11.522.279.692.167.17.388.257.66.257.62 0 .93-.459.93-1.376 0-.846-.378-1.27-1.137-1.27-.43 0-.75.136-.961.414l-1.466-.345.487-4.073h4.652v1.434h-3.154l-.181 1.582c.132-.079.304-.146.517-.205a2.34 2.34 0 0 1 .626-.088z"/>
</svg>
