<svg xmlns="http://www.w3.org/2000/svg" width="24" height="24" viewBox="0 0 24 24">
    <path fill="#323843" fill-rule="evenodd" d="M16.782 1.895c3.938 0 7.15 3.17 7.218 7.093v5.154c.068 4.038-3.308 7.343-7.347 7.343h-.627a.452.452 0 0 1-.452-.45v-1.038c0-.248.203-.451.452-.451h.65c2.953 0 5.434-2.418 5.383-5.37l.001-5.153a5.285 5.285 0 0 0-5.278-5.188H7.324c-2.954 0-5.434 2.417-5.383 5.37v5.152a5.283 5.283 0 0 0 5.277 5.189H9.71l-1.099-1.1a.475.475 0 0 1 0-.673l.603-.602a.475.475 0 0 1 .672 0l3.008 3.009a.471.471 0 0 1 0 .672L9.886 23.86a.474.474 0 0 1-.672 0l-.603-.602a.477.477 0 0 1 0-.674l1.1-1.099H7.217c-3.939 0-7.15-3.17-7.218-7.092l.001-5.154C-.068 5.2 3.307 1.894 7.346 1.894h9.436zM9.868 14.98H8.02V9.098l-1.815.53V8.229L9.699 7.02h.169v7.96zm6.085-2.974v-1.968c0-.573-.075-1-.224-1.282a.749.749 0 0 0-.71-.424c-.318 0-.548.13-.692.394-.145.262-.222.659-.233 1.192v2.033c0 .595.075 1.029.224 1.305.15.275.386.412.711.412a.743.743 0 0 0 .695-.402c.15-.267.225-.688.23-1.26zm1.843-.28c0 1.076-.242 1.906-.725 2.489s-1.163.875-2.042.875c-.886 0-1.57-.293-2.056-.88-.485-.587-.727-1.415-.727-2.483v-1.454c0-1.076.242-1.905.725-2.488.482-.583 1.165-.875 2.047-.875.882 0 1.565.294 2.05.88.485.588.728 1.417.728 2.488v1.449z"/>
</svg>
