<svg xmlns="http://www.w3.org/2000/svg" width="44" height="44" viewBox="0 0 44 44">
    <path fill="#000" fill-rule="nonzero" d="M5.955 25.253a.993.993 0 0 0-.988.988v8.124c0 .542.446.989.988.989H38.2a.993.993 0 0 0 .988-.989v-8.124a.993.993 0 0 0-.988-.988H5.955zm0-1.397H38.2a2.39 2.39 0 0 1 2.385 2.385v8.124A2.39 2.39 0 0 1 38.2 36.75H5.955a2.39 2.39 0 0 1-2.385-2.385v-8.124a2.39 2.39 0 0 1 2.385-2.385zm12.65 2.817c.6 0 1.088.488 1.088 1.088v5.084c0 .6-.488 1.088-1.088 1.088H7.741a1.09 1.09 0 0 1-1.088-1.088v-5.084c0-.6.488-1.088 1.088-1.088h10.864zM5.955 8.49V7.094H8.7V8.49H5.955zm4.806 0V7.094h2.746V8.49H10.76zm4.805 0V7.094h2.747V8.49h-2.747zm4.806 0V7.094h2.746V8.49h-2.746zm4.806 0V7.094h2.746V8.49h-2.746zm4.806 0V7.094h2.746V8.49h-2.746zm4.806 0V7.094h2.746V8.49H34.79zm4.154.34l1.051-.92c.378.431.59.985.59 1.568v1.56H39.19V9.48a.98.98 0 0 0-.245-.649zm.245 4.268h1.397v2.746h-1.397V13.1zm-.016 4.68l1.375.25a2.393 2.393 0 0 1-2.325 1.959h-.49V18.59h.481a.994.994 0 0 0 .96-.812zm-3.5.812v1.397h-2.746V18.59h2.747zm-4.805 0v1.397h-2.746V18.59h2.746zm-4.806 0v1.397h-2.746V18.59h2.746zm-4.806 0v1.397H18.51V18.59h2.746zm-4.806 0v1.397h-2.746V18.59h2.746zm-4.805 0v1.397H8.899V18.59h2.746zm-4.806 0v1.397h-.884a2.39 2.39 0 0 1-2.195-1.453l1.285-.548a.994.994 0 0 0 .91.604h.884zm-1.872-2.33H3.57v-2.746h1.397v2.747zm0-4.805H3.57V9.479c0-.372.086-.734.25-1.061l1.25.624a.972.972 0 0 0-.103.437v1.977z"/>
</svg>
