<svg xmlns="http://www.w3.org/2000/svg" width="44" height="44" viewBox="0 0 44 44">
    <path fill="#000" fill-rule="nonzero" d="M5.955 18.747a.993.993 0 0 1-.988-.988V9.635c0-.542.446-.989.988-.989H38.2c.542 0 .988.447.988.989v8.124a.993.993 0 0 1-.988.988H5.955zm0 1.397H38.2a2.39 2.39 0 0 0 2.385-2.385V9.635A2.39 2.39 0 0 0 38.2 7.25H5.955A2.39 2.39 0 0 0 3.57 9.635v8.124a2.39 2.39 0 0 0 2.385 2.385zm12.65-2.817c.6 0 1.088-.488 1.088-1.088v-5.084c0-.6-.488-1.088-1.088-1.088H7.741c-.6 0-1.088.488-1.088 1.088v5.084c0 .6.488 1.088 1.088 1.088h10.864zM5.955 35.51v1.397H8.7V35.51H5.955zm4.806 0v1.397h2.746V35.51H10.76zm4.805 0v1.397h2.747V35.51h-2.747zm4.806 0v1.397h2.746V35.51h-2.746zm4.806 0v1.397h2.746V35.51h-2.746zm4.806 0v1.397h2.746V35.51h-2.746zm4.806 0v1.397h2.746V35.51H34.79zm4.154-.34l1.051.92c.378-.431.59-.985.59-1.568v-1.56H39.19v1.56a.98.98 0 0 1-.245.649zm.245-4.268h1.397v-2.746h-1.397V30.9zm-.016-4.68l1.375-.25a2.393 2.393 0 0 0-2.325-1.959h-.49v1.397h.481a.994.994 0 0 1 .96.812zm-3.5-.812v-1.397h-2.746v1.397h2.747zm-4.805 0v-1.397h-2.746v1.397h2.746zm-4.806 0v-1.397h-2.746v1.397h2.746zm-4.806 0v-1.397H18.51v1.397h2.746zm-4.806 0v-1.397h-2.746v1.397h2.746zm-4.805 0v-1.397H8.899v1.397h2.746zm-4.806 0v-1.397h-.884a2.39 2.39 0 0 0-2.195 1.453l1.285.548a.994.994 0 0 1 .91-.604h.884zm-1.872 2.33H3.57v2.746h1.397v-2.747zm0 4.805H3.57v1.977c0 .372.086.734.25 1.061l1.25-.624a.972.972 0 0 1-.103-.437v-1.977z"/>
</svg>
