<svg xmlns="http://www.w3.org/2000/svg" width="44" height="44" viewBox="0 0 44 44">
    <path fill="#000" fill-rule="nonzero" d="M38.045 25.253c.542 0 .988.446.988.988v8.124a.993.993 0 0 1-.988.989H5.8a.993.993 0 0 1-.988-.989v-8.124c0-.542.446-.988.988-.988h32.246zm0-1.397H5.8a2.39 2.39 0 0 0-2.385 2.385v8.124A2.39 2.39 0 0 0 5.8 36.75h32.246a2.39 2.39 0 0 0 2.385-2.385v-8.124a2.39 2.39 0 0 0-2.385-2.385zm-12.65 2.817c-.6 0-1.088.488-1.088 1.088v5.084c0 .6.488 1.088 1.088 1.088h10.864c.6 0 1.088-.488 1.088-1.088v-5.084c0-.6-.488-1.088-1.088-1.088H25.395zM38.045 8.49V7.094H35.3V8.49h2.746zm-4.806 0V7.094h-2.746V8.49h2.746zm-4.805 0V7.094h-2.747V8.49h2.747zm-4.806 0V7.094h-2.746V8.49h2.746zm-4.806 0V7.094h-2.746V8.49h2.746zm-4.806 0V7.094H11.27V8.49h2.746zm-4.806 0V7.094H6.464V8.49H9.21zm-4.154.34l-1.051-.92c-.378.431-.59.985-.59 1.568v1.56H4.81V9.48a.98.98 0 0 1 .245-.649zm-.245 4.268H3.414v2.746h1.397V13.1zm.016 4.68l-1.375.25a2.393 2.393 0 0 0 2.325 1.959h.49V18.59h-.481a.994.994 0 0 1-.96-.812zm3.5.812v1.397h2.746V18.59H8.326zm4.805 0v1.397h2.746V18.59h-2.746zm4.806 0v1.397h2.746V18.59h-2.746zm4.806 0v1.397h2.746V18.59h-2.746zm4.806 0v1.397h2.746V18.59H27.55zm4.805 0v1.397h2.746V18.59h-2.746zm4.806 0v1.397h.884a2.39 2.39 0 0 0 2.195-1.453l-1.285-.548a.994.994 0 0 1-.91.604h-.884zm1.872-2.33h1.397v-2.746h-1.397v2.747zm0-4.805h1.397V9.479a2.37 2.37 0 0 0-.25-1.061l-1.25.624a.972.972 0 0 1 .103.437v1.977z"/>
</svg>
