<svg xmlns="http://www.w3.org/2000/svg" width="24" height="24" viewBox="0 0 24 24">
    <path fill="#323843" fill-rule="evenodd" d="M8.584 22.759v-1.96h2.803v1.96H8.584zm-1.72-7.656v-1.96h2.803v1.96H6.864zm3.822 0v-1.96h2.803v1.96h-2.803zm-5.717 0c-.417 0-.822.148-1.14.417l-1.264-1.498a3.735 3.735 0 0 1 2.404-.879h.876v1.96H4.97zm-.13 5.691c.043.003.086.005.13.005h2.596v1.96H4.969c-.095 0-.19-.004-.283-.01l.153-1.955zM3.2 16.872v1.43H1.24v-1.43c0-.624.157-1.24.455-1.786l1.72.938a1.75 1.75 0 0 0-.215.848zm.009 2.346c.063.605.445 1.145.997 1.409l-.847 1.768a3.754 3.754 0 0 1-2.099-2.973l1.949-.204zm9.196 3.541v-1.96h2.803v1.96h-2.803zm7.284-2.087a1.774 1.774 0 0 0 1.083-1.342l1.933.327a3.75 3.75 0 0 1-2.284 2.833l-.732-1.818zm.945-4.546l1.776-.829c.23.495.349 1.026.349 1.575v1.605H20.8v-1.605c0-.262-.056-.512-.165-.745zm-6.127-1.023v-1.96h2.803v1.96h-2.803zm1.72 5.696h2.803l.032 1.96h-2.835V20.8zm4.027-5.204a1.763 1.763 0 0 0-1.224-.492h-.701v-1.96h.7c.968 0 1.885.37 2.582 1.038l-1.357 1.414zm.544-8.467v-2.16A1.77 1.77 0 0 0 19.03 3.2H4.97c-.976 0-1.77.794-1.77 1.769v2.159c0 .975.794 1.769 1.77 1.769h14.06a1.77 1.77 0 0 0 1.77-1.77zM19.03 1.24a3.733 3.733 0 0 1 3.73 3.729v2.159a3.733 3.733 0 0 1-3.73 3.729H4.97a3.733 3.733 0 0 1-3.73-3.73V4.97a3.733 3.733 0 0 1 3.73-3.73h14.06zM11.2 4.308a.8.8 0 0 1 .8.8V6.99a.8.8 0 0 1-.8.8H5.25a.8.8 0 0 1-.8-.8V5.108a.8.8 0 0 1 .8-.8h5.95z"/>
</svg>
