<svg xmlns="http://www.w3.org/2000/svg" width="24" height="24" viewBox="0 0 24 24">
    <path fill="#323843" fill-rule="evenodd" d="M5.999 22.646a4.651 4.651 0 0 0 4.646-4.648 4.67 4.67 0 0 0-2.261-3.987V5.394a2.39 2.39 0 0 0-2.385-2.386 2.389 2.389 0 0 0-2.383 2.386v8.617a4.668 4.668 0 0 0-2.263 3.987 4.652 4.652 0 0 0 4.646 4.648zm3.783-9.304A5.99 5.99 0 0 1 12 17.998 6.007 6.007 0 0 1 5.999 24 6.007 6.007 0 0 1 0 17.998a5.99 5.99 0 0 1 2.217-4.656l.045-.036V5.394a3.743 3.743 0 0 1 3.737-3.74 3.743 3.743 0 0 1 3.738 3.74v7.912l.045.036zm-1.991 1.55a3.606 3.606 0 0 1 1.794 3.105 3.59 3.59 0 0 1-3.586 3.587 3.59 3.59 0 0 1-3.585-3.587c0-1.273.689-2.462 1.794-3.104l.469-.271v-1.483c0-.73.593-1.324 1.322-1.324.73 0 1.324.594 1.324 1.324v1.483l.468.27zM24 5.422v1.158h-.705l.406.406-.82.821-1.226-1.227h-2.256l1.597 1.597h1.732v1.158h-.574l.471.471-.82.82-.471-.471v.574h-1.158V8.996L18.579 7.4v2.255l1.227 1.226-.821.82-.406-.407V12h-1.158v-.706l-.406.407-.821-.82 1.227-1.226V7.4l-1.596 1.596v1.732h-1.158v-.574l-.473.473-.82-.82.473-.473h-.575V8.176h1.733l1.597-1.597h-2.257l-1.226 1.227-.82-.821.407-.406H12V5.421h.706l-.407-.406.82-.821 1.226 1.227h2.256l-1.596-1.596h-1.733V2.667h.575l-.473-.473.82-.82.473.473v-.574h1.158v1.732l1.596 1.596V2.345L16.195 1.12l.819-.82.407.406V0h1.158v.706L18.986.3l.819.82-1.226 1.225v2.257l1.597-1.597V1.273h1.158v.574l.473-.473.82.82-.473.473h.574v1.158h-1.732L19.4 5.421h2.255l1.227-1.226.818.821-.405.405H24z"/>
</svg>
