<svg xmlns="http://www.w3.org/2000/svg" width="44" height="44" viewBox="0 0 44 44">
    <g fill="none" fill-rule="evenodd">
        <path stroke="#000" stroke-width="2" d="M-39-42h621v413H-39z"/>
        <path fill="#000" d="M39.084 18.295l-.346.241-1.54.88 1.38.376a.687.687 0 1 1-.362 1.326l-2.706-.737-3.17 1.812 1.977 1.129.158.091 1.035.591 2.706-.737a.687.687 0 1 1 .362 1.327l-1.38.376 1.886 1.078v.398c0 .38-.308.71-.687.71a.7.7 0 0 1-.497-.202l-1.384-.79.38 1.395a.687.687 0 0 1-.663.867c-.017 0-.034-.006-.051-.007a.664.664 0 0 1-.097-.017.642.642 0 0 1-.138-.046c-.03-.015-.06-.028-.087-.047a.695.695 0 0 1-.118-.101c-.02-.022-.042-.04-.06-.063a.68.68 0 0 1-.112-.225l-.742-2.721-3.186-1.821v3.669l1.989 1.988a.687.687 0 1 1-.973.973l-1.016-1.017v1.796a.687.687 0 1 1-1.375 0V28.99l-1.017 1.017a.687.687 0 1 1-.972-.973l1.989-1.988v-3.669l-3.186 1.82-.742 2.722a.687.687 0 1 1-1.326-.361l.38-1.396-1.54.88a.686.686 0 0 1-.938-.255.688.688 0 0 1 .256-.938l1.54-.88-1.38-.376a.687.687 0 1 1 .362-1.327l2.706.738 3.17-1.812-3.17-1.812-2.706.737a.687.687 0 1 1-.362-1.326l1.38-.376-1.887-1.079v-.398c0-.38.308-.71.688-.71.195 0 .372.077.497.201l1.384.792-.38-1.395a.687.687 0 1 1 1.326-.361l.742 2.72 3.186 1.822v-3.67l-1.989-1.989a.687.687 0 1 1 .972-.972l1.017 1.016V13.6a.687.687 0 1 1 1.375 0v1.794l1.016-1.016a.687.687 0 1 1 .973.972l-1.99 1.989v3.67l3.187-1.822.742-2.72a.687.687 0 1 1 1.326.36l-.38 1.396 1.439-.822a.668.668 0 0 1 .442-.17.67.67 0 0 1 .687.666v.399zM8.551 7.765a4.327 4.327 0 1 1 8.654 0V26.08a8.054 8.054 0 0 1 3.739 6.801 8.066 8.066 0 0 1-16.131 0 8.054 8.054 0 0 1 3.738-6.801V7.765zm4.327-2.952a2.952 2.952 0 0 0-2.952 2.952v19.104l-.347.197a6.683 6.683 0 0 0-3.392 5.816 6.69 6.69 0 0 0 13.382 0 6.683 6.683 0 0 0-3.391-5.816l-.348-.197V7.765a2.952 2.952 0 0 0-2.952-2.952zm0 17.38c.87 0 1.577.707 1.577 1.577v3.899l1.043.593a5.331 5.331 0 0 1 2.696 4.62 5.321 5.321 0 0 1-5.316 5.316 5.322 5.322 0 0 1-5.316-5.315 5.331 5.331 0 0 1 2.696-4.621l1.043-.593V23.769c0-.869.708-1.576 1.577-1.576z"/>
    </g>
</svg>
