<svg xmlns="http://www.w3.org/2000/svg" width="44" height="44" viewBox="0 0 44 44">
    <path fill="#000" fill-rule="evenodd" d="M21.922 34.165c5.877 0 10.66-4.783 10.66-10.66s-4.783-10.659-10.66-10.659c-5.878 0-10.66 4.782-10.66 10.659 0 5.877 4.782 10.66 10.66 10.66zm0-22.62c6.595 0 11.96 5.365 11.96 11.96 0 6.595-5.365 11.96-11.96 11.96-6.595 0-11.961-5.365-11.961-11.96 0-6.595 5.366-11.96 11.961-11.96zm0 26.234c7.871 0 14.273-6.403 14.273-14.274 0-6.825-4.823-12.517-11.233-13.916-.441.739-1.738 1.083-3.04 1.083s-2.598-.344-3.04-1.083c-6.41 1.4-11.233 7.091-11.233 13.916 0 7.87 6.402 14.274 14.273 14.274zm-1.91-32.164v3.332c.176.159.862.424 1.91.424s1.734-.265 1.91-.424V5.615c-.176-.16-.862-.425-1.91-.425s-1.734.265-1.91.425zm5.121 2.667c7.05 1.487 12.364 7.737 12.364 15.223 0 8.588-6.987 15.575-15.575 15.575S6.347 32.093 6.347 23.505c0-7.485 5.315-13.736 12.364-15.222v-2.75c0-1.13 1.664-1.644 3.211-1.644s3.211.515 3.211 1.645v2.748zm-3.211 9.078a.65.65 0 0 1-.65-.65v-1.805a.65.65 0 0 1 1.3 0v1.804a.65.65 0 0 1-.65.651zm0 6.796a.652.652 0 0 1-.46-1.112l6.08-6.08a.652.652 0 0 1 .92.921l-6.08 6.08a.652.652 0 0 1-.46.19zm-6.145-.651a.65.65 0 0 1-.65.65h-1.804a.65.65 0 0 1 0-1.301h1.804c.36 0 .65.291.65.65zm.526-6.54l1.274 1.274a.653.653 0 0 1-.46 1.112.652.652 0 0 1-.46-.19l-1.275-1.276a.65.65 0 1 1 .92-.92zm14.218 5.89a.65.65 0 1 1 0 1.3h-1.804a.65.65 0 1 1 0-1.3h1.804zm-3.334 4.994l1.275 1.276a.652.652 0 0 1-.92.921l-1.275-1.276a.65.65 0 1 1 .92-.92zm-5.265 1.8c.36 0 .65.292.65.651v1.804a.65.65 0 0 1-1.3 0V30.3c0-.36.29-.65.65-.65zm-5.265-1.8a.652.652 0 0 1 .92.921l-1.275 1.275a.652.652 0 0 1-.92-.92l1.275-1.276z"/>
</svg>
