<svg xmlns="http://www.w3.org/2000/svg" width="24" height="24" viewBox="0 0 24 24">
    <g fill="none" fill-rule="evenodd">
        <path fill="#CE1C23" d="M23.114 17.693A5.693 5.693 0 0 0 17.42 12a5.693 5.693 0 1 0 5.694 5.693"/>
        <path fill="#323843" d="M10 11.726c.953 0 1.727-.775 1.727-1.727 0-.95-.774-1.726-1.726-1.726S8.275 9.05 8.275 10c0 .952.774 1.726 1.726 1.726zm0-5.005a3.278 3.278 0 1 1 .002 6.557 3.278 3.278 0 0 1-.001-6.557zm7.528 15.692a4.892 4.892 0 0 0 4.886-4.886 4.891 4.891 0 0 0-4.886-4.887 4.892 4.892 0 0 0-4.887 4.887 4.892 4.892 0 0 0 4.887 4.886zm-7.527-6.967c.506 0 .998-.077 1.478-.201a6.476 6.476 0 0 1 5.835-4.181c.354-.424.641-.801.83-1.065-.956-1.336-4.212-5.445-8.143-5.445-3.943 0-7.192 4.109-8.144 5.445.954 1.335 4.211 5.447 8.144 5.447zm9.141-4.18c2.79.72 4.858 3.251 4.858 6.261a6.48 6.48 0 0 1-6.472 6.472 6.48 6.48 0 0 1-6.473-6.472c0-.209.013-.415.032-.619a7.2 7.2 0 0 1-1.086.09c-5.534 0-9.572-6.316-9.74-6.585L0 9.999l.26-.413C.428 9.317 4.466 3 10 3c5.532 0 9.571 6.317 9.74 6.586l.26.413-.26.414c-.035.056-.25.385-.599.853zm-.82 5.312l2.017.293-1.459 1.423.344 2.009-1.804-.948-1.805.948.345-2.01-1.46-1.422 2.018-.293.902-1.828.902 1.828z"/>
    </g>
</svg>
