<svg xmlns="http://www.w3.org/2000/svg" width="24" height="24" viewBox="0 0 24 24">
    <path fill="#323843" fill-rule="evenodd" d="M10 11.726a1.727 1.727 0 0 0 0-3.452c-.951 0-1.725.774-1.725 1.725 0 .952.774 1.726 1.726 1.726zm0-5.006a3.279 3.279 0 1 1 .001 6.558 3.279 3.279 0 0 1 0-6.558zm.001 8.725c.506 0 .998-.077 1.478-.201a6.473 6.473 0 0 1 5.835-4.18c.354-.425.641-.802.83-1.065-.956-1.336-4.212-5.446-8.143-5.446-3.943 0-7.192 4.109-8.144 5.445.954 1.336 4.211 5.447 8.144 5.447zm9.141-4.179c2.79.719 4.858 3.25 4.858 6.26a6.48 6.48 0 0 1-6.472 6.472 6.48 6.48 0 0 1-6.473-6.472c0-.209.013-.415.032-.619a7.072 7.072 0 0 1-1.086.091c-5.534 0-9.572-6.316-9.74-6.585L0 9.999l.26-.414C.428 9.316 4.466 3 10 3c5.532 0 9.571 6.316 9.74 6.585l.26.414-.26.414c-.035.056-.25.385-.599.853z"/>
</svg>
