<svg xmlns="http://www.w3.org/2000/svg" width="44" height="44" viewBox="0 0 44 44">
    <g fill="#000" fill-rule="evenodd">
        <path d="M3.836 9.294c2.158 3.003 5.51 4.786 9.024 4.786 3.514 0 6.865-1.783 9.023-4.786-2.158-3.002-5.51-4.786-9.023-4.786-3.515 0-6.866 1.784-9.024 4.786zm9.024 5.666c-3.901 0-7.611-2.025-9.924-5.418a.44.44 0 0 1 0-.496c2.313-3.392 6.023-5.418 9.924-5.418s7.61 2.026 9.923 5.418a.439.439 0 0 1 0 .496c-2.312 3.393-6.022 5.418-9.923 5.418zm4.043-5.666a4.043 4.043 0 1 1-8.086 0 4.043 4.043 0 0 1 8.086 0zM26.681 35.993c-.072.002-.142.012-.215.012-4.76 0-8.62-3.841-8.62-8.58 0-4.738 3.86-8.579 8.62-8.579s8.62 3.841 8.62 8.58c0 .571-.059 1.13-.165 1.67-2.521 2.251-5.083 4.541-5.39 4.848-.325.322-.463.769-.44 1.24a2.783 2.783 0 0 0-2.377.773l-.033.036zm-.373-11.762l-3.077 6.154h6.154l-3.077-6.154z"/>
        <path d="M41.511 26.086c-.168.167-1.309 1.431-3.875 4.277-2.229 2.472-4.97 5.513-5.535 6.109a3.7 3.7 0 0 0-.72-1.038 3.551 3.551 0 0 0-1.053-.706c.561-.531 3.618-3.26 6.1-5.477 2.892-2.581 4.177-3.731 4.345-3.899.011-.011.039-.017.079-.017.104 0 .288.05.456.217.246.246.234.503.203.534m-11.51 13.27c-.619.616-1.83 1.318-3.073 1.497.474-.984.325-1.795.105-2.553-.184-.63-.245-.843.406-1.492.342-.34.796-.529 1.28-.529s.939.189 1.281.53a1.799 1.799 0 0 1 0 2.547m-3.942-3.922c-.883.878-1.106 1.65-1.099 2.296-4.958-.743-8.776-5-8.776-10.139 0-5.66 4.629-10.268 10.317-10.268 5.27 0 9.622 3.958 10.234 9.041l-1.61 1.44c-3.448 3.079-5.915 5.284-6.25 5.615a2.408 2.408 0 0 0-.589.992c-.825.09-1.622.42-2.227 1.023M42.69 24.178c-.964-.959-2.443-1.05-3.298-.201-.07.069-.428.392-.952.861-1.257-5.41-6.128-9.459-11.94-9.459-6.767 0-12.271 5.478-12.271 12.212 0 6.317 4.849 11.51 11.035 12.13-.063.335-.291.715-.857 1.278a.968.968 0 0 0-.258.918c.081.33.33.595.655.697a5.227 5.227 0 0 0 1.567.234c2.083 0 4.04-1.15 5.01-2.117a3.697 3.697 0 0 0 1.06-2.223c.363-.123.695-.313.964-.58.335-.334 2.568-2.808 5.685-6.267 1.784-1.978 3.626-4.021 3.802-4.2.853-.849.762-2.322-.202-3.283"/>
    </g>
</svg>
