<svg xmlns="http://www.w3.org/2000/svg" width="44" height="44" viewBox="0 0 44 44">
    <g fill="none" fill-rule="evenodd">
        <path fill="#000" d="M3.836 9.294c2.158 3.003 5.51 4.786 9.024 4.786 3.514 0 6.865-1.783 9.023-4.786-2.158-3.002-5.51-4.786-9.023-4.786-3.515 0-6.866 1.784-9.024 4.786zm9.024 5.666c-3.901 0-7.611-2.025-9.924-5.418a.44.44 0 0 1 0-.496c2.313-3.392 6.023-5.418 9.924-5.418s7.61 2.026 9.923 5.418a.439.439 0 0 1 0 .496c-2.312 3.393-6.022 5.418-9.923 5.418zm4.043-5.666a4.043 4.043 0 1 1-8.086 0 4.043 4.043 0 0 1 8.086 0z"/>
        <path fill="#3FA9F5" d="M26.714 36.264c-.072.002-.143.012-.215.012a8.62 8.62 0 1 1 8.454-6.941c-2.52 2.26-5.082 4.562-5.389 4.87-.325.324-.464.773-.44 1.245a2.775 2.775 0 0 0-2.378.778l-.032.036zm-3.483-12.033v6.154h6.154V24.23H23.23z"/>
        <path fill="#000" d="M41.511 26.143c-.168.167-1.309 1.438-3.875 4.297-2.229 2.484-4.97 5.54-5.535 6.138a3.719 3.719 0 0 0-.72-1.043 3.55 3.55 0 0 0-1.053-.71c.561-.532 3.618-3.274 6.1-5.502 2.892-2.594 4.177-3.75 4.345-3.917.011-.012.039-.018.079-.018.104 0 .288.05.456.218.246.247.234.506.203.537m-11.51 13.333c-.619.619-1.83 1.325-3.073 1.505.474-.99.325-1.804.105-2.565-.184-.634-.245-.848.406-1.5a1.8 1.8 0 0 1 1.28-.531A1.813 1.813 0 0 1 30 39.477m-3.941-3.942c-.883.883-1.106 1.658-1.099 2.307-4.958-.746-8.776-5.023-8.776-10.187 0-5.688 4.629-10.317 10.317-10.317 5.27 0 9.622 3.977 10.234 9.084-.516.464-1.063.957-1.61 1.447-3.448 3.094-5.915 5.309-6.25 5.642a2.422 2.422 0 0 0-.589.996c-.825.09-1.622.422-2.227 1.028m16.632-11.31c-.964-.963-2.443-1.055-3.298-.202-.07.07-.428.394-.952.866-1.257-5.437-6.128-9.504-11.94-9.504-6.767 0-12.271 5.504-12.271 12.27 0 6.347 4.849 11.565 11.035 12.188-.063.337-.291.719-.857 1.284a.976.976 0 0 0 .397 1.623 5.204 5.204 0 0 0 1.567.235c2.083 0 4.04-1.156 5.01-2.127a3.722 3.722 0 0 0 1.06-2.233c.363-.124.695-.315.964-.584.335-.336 2.568-2.821 5.685-6.297 1.784-1.987 3.626-4.04 3.802-4.22.853-.852.762-2.332-.202-3.298"/>
    </g>
</svg>
