<svg xmlns="http://www.w3.org/2000/svg" width="24" height="24" viewBox="0 0 24 24">
    <g fill="none" fill-rule="evenodd">
        <path fill="#0095D2" d="M23.114 17.528a5.693 5.693 0 1 0-11.387 0 5.693 5.693 0 0 0 11.387 0"/>
        <path fill="#323843" d="M10 11.727c.953 0 1.727-.774 1.727-1.726S10.953 8.275 10 8.275s-1.726.774-1.726 1.726.774 1.726 1.726 1.726zm0-5.005a3.279 3.279 0 1 1 0 6.558 3.279 3.279 0 0 1 0-6.558zm7.528 15.692a4.892 4.892 0 0 0 4.886-4.886 4.892 4.892 0 0 0-4.886-4.887 4.892 4.892 0 0 0-4.887 4.887 4.892 4.892 0 0 0 4.887 4.886zm-7.527-6.967c.506 0 .998-.077 1.478-.2a6.475 6.475 0 0 1 5.835-4.18c.354-.426.641-.803.83-1.066-.956-1.337-4.212-5.446-8.143-5.446-3.943 0-7.192 4.11-8.144 5.445.954 1.336 4.211 5.447 8.144 5.447zm9.141-4.18c2.79.72 4.858 3.251 4.858 6.261A6.48 6.48 0 0 1 17.528 24a6.479 6.479 0 0 1-6.44-7.09A7.2 7.2 0 0 1 10 17C4.467 17 .43 10.683.261 10.414L0 10.001l.26-.414C.428 9.318 4.466 3.002 10 3.002c5.532 0 9.571 6.316 9.74 6.585l.26.414-.26.413c-.035.057-.25.385-.599.853zm-3.862 8.401v-4.28h4.28v4.28h-4.28z"/>
    </g>
</svg>
