<svg xmlns="http://www.w3.org/2000/svg" width="200" height="200" viewBox="0 0 200 200">
    <g fill="none" fill-rule="evenodd">
        <path fill="#00687B" d="M199.999 93.907l-.003-.001H200V89.26c0-48.357-28.5-74.785-80.645-74.785H80.645C28.498 14.475 0 40.903 0 89.26v4.646h.003H0v31.25c0 48.356 28.499 74.784 80.644 74.784h38.71c52.146 0 80.645-26.428 80.645-74.784V93.907z"/>
        <path fill="#00819A" d="M199.999 79.735h-.003.003v-4.647c0-48.356-28.5-74.784-80.645-74.784H80.645C28.498.304 0 26.732 0 75.088v4.647h.003H0V110.984c0 48.357 28.499 74.784 80.644 74.784h38.71c52.146 0 80.645-26.427 80.645-74.784V79.735z"/>
        <path fill="#FFF" fill-opacity=".3" d="M9.188 76.589a1.508 1.508 0 0 1-1.515-1.501c0-22.155 6.243-39.178 18.556-50.597C38.514 13.1 56.822 7.323 80.645 7.323h38.71c.836 0 1.514.672 1.514 1.501 0 .829-.678 1.501-1.515 1.501h-38.71c-23.028 0-40.64 5.504-52.344 16.358C16.624 37.51 10.703 53.797 10.703 75.088c0 .829-.678 1.5-1.515 1.5m0 19.905a1.508 1.508 0 0 1-1.515-1.501v-9.626c0-.829.678-1.501 1.515-1.501.837 0 1.515.672 1.515 1.5v9.627c0 .829-.678 1.5-1.514 1.5M119.358 178.749a1.508 1.508 0 0 1-1.515-1.5c0-.83.678-1.502 1.515-1.502 23.029 0 40.64-5.503 52.344-16.357 11.677-10.828 17.597-27.115 17.597-48.406 0-.829.679-1.5 1.516-1.5.836 0 1.515.671 1.515 1.5 0 22.155-6.244 39.179-18.557 50.597-12.284 11.392-30.592 17.168-54.415 17.168"/>
        <path fill="#00525F" d="M102.1 134.691c0 1.076-.94 1.948-2.1 1.948-1.16 0-2.102-.872-2.102-1.948s.941-1.948 2.101-1.948c1.16 0 2.101.872 2.101 1.948"/>
        <path fill="#0098B7" d="M96.008 96.552c-.5.49-1.17.738-1.993.738a2.619 2.619 0 0 1-1.78-.678c-.8-.691-1.205-1.807-1.205-3.318 0-1.511.406-2.629 1.206-3.32a2.62 2.62 0 0 1 1.78-.677c.76 0 1.398.262 1.948.802.947.927 1.145 2.25 1.145 3.195 0 .994-.19 2.366-1.101 3.258m1.503-7.864c-.6-.552-1.643-1.211-3.208-1.211-1.245 0-2.476.518-3.183 1.316v-5.375a.294.294 0 0 0-.296-.293h-1.492a.294.294 0 0 0-.296.293v13.045c0 .161.133.292.296.292h.755c.657 1.164 1.953 2.365 4.146 2.365 1.291 0 2.53-.455 3.347-1.28 1.066-1.066 1.653-2.672 1.653-4.52 0-1.942-.612-3.586-1.722-4.632M107.568 96.614a2.622 2.622 0 0 1-1.78.678c-.76 0-1.4-.263-1.948-.802-.946-.928-1.145-2.25-1.145-3.195 0-.994.19-2.366 1.101-3.259.499-.49 1.17-.737 1.992-.737.672 0 1.27.228 1.78.678.8.69 1.205 1.807 1.205 3.318 0 1.512-.405 2.627-1.205 3.32zm2.072-6.781c-.656-1.163-1.877-2.364-4.069-2.364-1.292 0-2.53.455-3.347 1.28-1.066 1.066-1.652 2.671-1.652 4.52 0 1.941.61 3.586 1.721 4.631.6.553 1.644 1.211 3.208 1.211 1.245 0 2.476-.518 3.183-1.316v5.375c0 .162.133.293.296.293h1.491a.294.294 0 0 0 .296-.293V90.126a.294.294 0 0 0-.296-.293h-.83z"/>
        <path fill="#00525F" d="M85.878 155.932c.05.06.071.141.056.219l-.89 4.583h2.442a.265.265 0 1 1 .227.405l-4.562 7.27a.27.27 0 0 1-.322.108.264.264 0 0 1-.17-.292l.795-4.72h-2.112l.89-7.436a.267.267 0 0 1 .265-.234h3.175c.08 0 .155.036.206.097M119.533 158.241h-1.656c-.124 0-.225.1-.225.223v1.62c0 .123.1.223.225.223h.464v1.473c0 .51-.3.984-.763 1.208l-1.835.882v-6.86h.834a.279.279 0 0 0 .238-.429l-1.188-1.853a.283.283 0 0 0-.475 0l-1.187 1.853a.279.279 0 0 0 .237.429h.834v8.4l-1.914-.92a1.35 1.35 0 0 1-.763-1.208v-1.326c.527-.15.922-.612.922-1.183 0-.691-.566-1.251-1.263-1.251-.699 0-1.264.56-1.264 1.25 0 .564.382 1.022.897 1.18v1.33c0 .776.457 1.498 1.162 1.837l2.223 1.069v.929a1.352 1.352 0 0 0-1.012 1.301 1.36 1.36 0 0 0 1.366 1.353 1.36 1.36 0 0 0 1.365-1.353c0-.625-.43-1.146-1.012-1.301v-2.469l2.144-1.03a2.051 2.051 0 0 0 1.162-1.838v-1.473h.484c.124 0 .225-.1.225-.222v-1.621c0-.123-.1-.223-.225-.223M18 84.42h8.737L24.964 82h2.172l1.965 2.705v1.693H18zM18 110.031h1.597l5.16 4.29c.447.378.974.568 1.421.568.783 0 1.39-.49 1.39-1.393 0-.934-.72-1.47-1.598-1.47V110c1.949.015 3.338 1.25 3.338 3.512 0 1.884-1.166 3.386-3.114 3.386-.99 0-1.965-.585-2.715-1.202l-3.674-3.038v4.399H18v-7.026zM182.516 113.75c0 2.025-1.342 3.67-3.418 3.734v-1.977c1.086-.08 1.66-.809 1.66-1.773 0-.98-.606-1.741-1.66-1.741-1.15 0-1.677.902-1.677 1.931v.822h-1.741v-.822c0-1.077-.448-1.693-1.486-1.693-.799 0-1.453.633-1.453 1.503 0 .981.495 1.677 1.501 1.693v1.994c-2.092-.033-3.242-1.678-3.242-3.687 0-1.993 1.23-3.513 3.147-3.513 1.006 0 2.028.585 2.379 1.583.32-1.14 1.454-1.804 2.604-1.804 2.22 0 3.386 1.677 3.386 3.75M179.864 81.393h2.237v1.978h-2.237v4.904h-1.884L171 84.242v-2.153l7.06 4.098V83.37h-2.604v-1.978h2.604V80h1.804zM115.144 24.718l1.612-4.73h-3.226l1.614 4.73zM112.156 16l.735 2.152h4.505L118.13 16h2.076l-3.976 11.218h-2.253L110 16h2.156zM85.025 20.952h2.604v-3.116h-2.54c-.958 0-1.997.347-1.997 1.487 0 1.202.847 1.63 1.933 1.63m.064 4.525h2.54v-2.816h-2.588c-.926 0-1.71.332-1.71 1.392 0 1.076.832 1.424 1.758 1.424m-2.94-8.719c.88-.664 1.934-.759 3.02-.759h4.504v11.235H85.17c-.911 0-1.853-.128-2.62-.618a2.907 2.907 0 0 1-1.31-2.437c0-.917.432-1.946 1.39-2.373A2.742 2.742 0 0 1 81 19.275c0-.997.336-1.898 1.15-2.516M88.653 192.854c0 2.247-1.838 4.068-4.105 4.068-2.268 0-4.106-1.821-4.106-4.068 0-2.245 1.838-4.066 4.106-4.066 2.267 0 4.105 1.82 4.105 4.066M112.824 189.507h4.864c1.222 0 2.213.982 2.213 2.192h-9.29c0-1.21.99-2.192 2.213-2.192"/>
    </g>
</svg>
