<svg xmlns="http://www.w3.org/2000/svg" width="80" height="80" viewBox="0 0 80 80">
    <g fill="none" fill-rule="evenodd">
        <path fill="#00687B" d="M53.096 46.003c0 9.857-7.142 18.04-16.528 19.656-.88.152-4.985.824-6.182.947-.684.07-1.38.108-2.083.108h-1.955c-11.28 0-20.424-9.154-20.424-20.445V20.444C5.924 9.154 15.068 0 26.348 0h1.955c.703 0 1.399.037 2.083.107 1.197.123 5.303.796 6.182.947 9.386 1.617 16.528 9.8 16.528 19.657v25.292z"/>
        <path fill="#00687B" d="M48.727 46.27c0 11.29-9.144 20.444-20.424 20.444h-1.955c-.64 0-1.272-.03-1.897-.09-1.262-.117-5.538-.818-6.44-.977-9.35-1.646-16.456-9.812-16.456-19.644V20.71c0-9.832 7.106-17.998 16.456-19.644.902-.16 5.178-.86 6.44-.978a20.254 20.254 0 0 1 1.897-.09h1.955c11.28 0 20.424 9.154 20.424 20.445V46.27z"/>
        <path fill="#00819A" d="M23.395 65.955h-1.908c-11.008 0-19.932-8.933-19.932-19.952V20.711C1.555 9.69 10.479.759 21.487.759h1.908c11.008 0 19.932 8.932 19.932 19.952v25.292c0 11.02-8.924 19.952-19.932 19.952"/>
        <path fill="#FFF" fill-opacity=".3" d="M3.999 35.285a.917.917 0 0 1-.916-.917V20.71c0-10.16 8.256-18.423 18.404-18.423h1.908a.917.917 0 0 1 0 1.834h-1.908c-9.138 0-16.572 7.442-16.572 16.589v13.657c0 .506-.41.917-.916.917m0 6.743a.917.917 0 0 1-.916-.918v-2.757a.917.917 0 1 1 1.832 0v2.757c0 .507-.41.918-.916.918"/>
        <path fill="#76FF68" d="M30.9 15.559c0 5.43-3.788 9.832-8.459 9.832-4.672 0-8.459-4.402-8.459-9.832 0-5.43 3.787-9.831 8.459-9.831 4.671 0 8.459 4.401 8.459 9.831M30.9 51.154c0 5.43-3.788 9.832-8.459 9.832-4.672 0-8.459-4.402-8.459-9.832 0-5.43 3.787-9.831 8.459-9.831 4.671 0 8.459 4.402 8.459 9.831"/>
        <path fill="#00687B" d="M73.79 46.862c0 17.02-10.246 30.817-22.886 30.817-12.64 0-22.886-13.797-22.886-30.817s10.246-30.818 22.886-30.818c12.64 0 22.886 13.798 22.886 30.818"/>
        <path fill="#5C606A" d="M78.376 46.862c0 18.286-11.01 33.11-24.59 33.11s-24.589-14.824-24.589-33.11c0-18.287 11.01-33.11 24.59-33.11s24.589 14.823 24.589 33.11"/>
        <path fill="#76FF68" d="M77.18 46.862c0 17.02-10.246 30.817-22.885 30.817-12.64 0-22.887-13.797-22.887-30.817s10.247-30.818 22.887-30.818S77.18 29.842 77.18 46.862"/>
        <path fill="#00819A" d="M54.295 16.044c-12.64 0-22.887 13.798-22.887 30.818 0 17.02 10.247 30.817 22.887 30.817S77.18 63.881 77.18 46.862c0-17.02-10.247-30.818-22.886-30.818m0 2.401c5.335 0 10.399 2.862 14.258 8.058 4.017 5.41 6.23 12.64 6.23 20.359 0 7.719-2.213 14.95-6.23 20.358-3.86 5.197-8.923 8.058-14.258 8.058-5.336 0-10.4-2.861-14.259-8.058-4.017-5.409-6.23-12.64-6.23-20.358 0-7.72 2.213-14.95 6.23-20.36 3.86-5.195 8.923-8.057 14.259-8.057"/>
        <path fill="#5C606A" d="M66.512 39.852c-.29-.29-.716-.422-1.231-.435-.86-.021-4.116-.01-4.695 0-2.423.037-6.606 2.495-7.925 3.816-1.634 1.636-5.013 7.67-3.379 9.307.303.302.755.433 1.302.435.849.004 4.02.002 4.577 0 2.416-.006 6.644-2.487 7.972-3.817 1.635-1.636 5.013-7.67 3.379-9.306"/>
        <path fill="#323843" d="M63.133 49.16c-1.634 1.636-7.663 5.017-9.297 3.382-1.635-1.637 1.744-7.671 3.378-9.307 1.635-1.636 7.663-5.018 9.298-3.382 1.634 1.636-1.745 7.67-3.379 9.307"/>
    </g>
</svg>
