<svg xmlns="http://www.w3.org/2000/svg" width="80" height="80" viewBox="0 0 80 80">
    <g fill="none" fill-rule="evenodd">
        <path fill="#00687B" d="M27.776 1.537c-.742-.172-4.027-.698-4.95-.904A13.438 13.438 0 0 0 19.89.31c-8.491 0-15.375 7.653-15.375 17.475v44.579c0 9.821 6.884 17.474 15.375 17.474a13.42 13.42 0 0 0 2.937-.324c.922-.206 4.207-.732 4.949-.903 6.8-1.573 11.925-8.517 11.925-16.846V18.383c0-8.33-5.125-15.274-11.925-16.846"/>
        <path fill="#00687B" d="M19.89.309c-.859 0-1.7.081-2.521.238-1.069.204-4.605.816-5.34.984C5.215 3.093.078 10.044.078 18.383v43.381c0 8.339 5.137 15.29 11.95 16.851.735.169 4.271.78 5.34.985.82.156 1.662.237 2.521.237 8.492 0 15.376-7.653 15.376-17.475V17.784C35.266 7.962 28.382.31 19.89.31"/>
        <path fill="#00819A" d="M14.932 1.203C6.73 1.203.08 8.894.08 18.383v43.38c0 9.489 6.65 17.18 14.852 17.18 8.203 0 14.852-7.691 14.852-17.18v-43.38c0-9.489-6.65-17.18-14.852-17.18"/>
        <path fill="#FFF" fill-opacity=".3" d="M2.56 34.7a.928.928 0 0 1-.93-.927v-15.39c0-8.622 5.967-15.635 13.302-15.635.514 0 .93.414.93.926a.928.928 0 0 1-.93.927c-6.309 0-11.442 6.182-11.442 13.782v15.39a.929.929 0 0 1-.93.927m0 7.223a.928.928 0 0 1-.93-.927v-3.045c0-.512.416-.927.93-.927s.93.415.93.927v3.045a.929.929 0 0 1-.93.927"/>
        <path fill="#76FF68" d="M24.81 17.648c0 6.31-4.422 11.426-9.878 11.426S5.054 23.96 5.054 17.648c0-6.31 4.422-11.425 9.878-11.425s9.878 5.115 9.878 11.425M24.81 62.498c0 6.31-4.422 11.426-9.878 11.426s-9.878-5.115-9.878-11.426c0-6.31 4.422-11.426 9.878-11.426s9.878 5.116 9.878 11.426"/>
        <path fill="#00525F" d="M23.545 46.951H6.32a1.263 1.263 0 0 1-1.265-1.26V34.456c0-.696.566-1.26 1.265-1.26h17.226c.7 0 1.265.564 1.265 1.26V45.69c0 .696-.566 1.26-1.265 1.26"/>
        <path fill="#00687B" d="M23.62 46.951H8.533c-.657 0-1.19-.53-1.19-1.185V34.38c0-.654.533-1.185 1.19-1.185h15.089c.657 0 1.19.531 1.19 1.185v11.386c0 .654-.533 1.185-1.19 1.185"/>
        <path fill="#373B44" d="M47.405 33.94a1.08 1.08 0 0 1-1.078-1.083 1.08 1.08 0 0 1 1.078-1.08 1.08 1.08 0 0 1 1.078 1.08 1.08 1.08 0 0 1-1.078 1.083zm4.527.043a1.08 1.08 0 0 1-1.078-1.083 1.08 1.08 0 0 1 1.078-1.08 1.08 1.08 0 0 1 1.078 1.08 1.08 1.08 0 0 1-1.078 1.083zm4.536-.043a1.08 1.08 0 0 1-1.078-1.083 1.08 1.08 0 0 1 1.078-1.08 1.08 1.08 0 0 1 1.078 1.08 1.08 1.08 0 0 1-1.078 1.083zm4.541.017a1.075 1.075 0 0 1-1.073-1.078c0-.594.48-1.078 1.073-1.078h6.864l-.46-.461a1.08 1.08 0 0 1 0-1.524 1.07 1.07 0 0 1 1.518 0l2.28 2.287a1.072 1.072 0 0 1-.003 1.554L68.93 35.94a1.07 1.07 0 0 1-1.519 0 1.08 1.08 0 0 1 0-1.523l.46-.461h-6.863zm9.583 18.871c2.892 0 5.244-2.361 5.244-5.265 0-2.903-2.352-5.264-5.244-5.264h-3.174a6.373 6.373 0 0 1 2.738 5.241c0 2.201-1.11 4.14-2.798 5.288h3.234zm-6.792-1.08c2.312 0 4.192-1.888 4.192-4.208 0-2.32-1.88-4.208-4.192-4.208-2.31 0-4.191 1.888-4.191 4.208 0 2.32 1.88 4.208 4.191 4.208zm6.792-11.623c4.092 0 7.408 3.33 7.408 7.438C78 51.67 74.684 55 70.592 55l-21.183-.02c-4.092 0-7.409-3.33-7.409-7.437 0-4.108 3.317-7.437 7.409-7.437l21.183.02z"/>
    </g>
</svg>
