<svg xmlns="http://www.w3.org/2000/svg" width="80" height="80" viewBox="0 0 80 80">
    <g fill="none" fill-rule="evenodd">
        <path fill="#00687B" d="M27.776 1.537c-.742-.172-4.027-.698-4.95-.904A13.438 13.438 0 0 0 19.89.31c-8.491 0-15.375 7.653-15.375 17.475v44.579c0 9.821 6.884 17.474 15.375 17.474a13.42 13.42 0 0 0 2.937-.324c.922-.206 4.207-.732 4.949-.903 6.8-1.573 11.925-8.517 11.925-16.846V18.383c0-8.33-5.125-15.274-11.925-16.846"/>
        <path fill="#00687B" d="M19.89.309c-.859 0-1.7.081-2.521.238-1.069.204-4.605.816-5.34.984C5.215 3.093.078 10.044.078 18.383v43.381c0 8.339 5.137 15.29 11.95 16.851.735.169 4.271.78 5.34.985.82.156 1.662.237 2.521.237 8.492 0 15.376-7.653 15.376-17.475V17.784C35.266 7.962 28.382.31 19.89.31"/>
        <path fill="#00819A" d="M14.932 1.203C6.73 1.203.08 8.894.08 18.383v43.38c0 9.489 6.65 17.18 14.852 17.18 8.203 0 14.852-7.691 14.852-17.18v-43.38c0-9.489-6.65-17.18-14.852-17.18"/>
        <path fill="#FFF" fill-opacity=".3" d="M2.56 34.7a.928.928 0 0 1-.93-.927v-15.39c0-8.622 5.967-15.635 13.302-15.635.514 0 .93.414.93.926a.928.928 0 0 1-.93.927c-6.309 0-11.442 6.182-11.442 13.782v15.39a.929.929 0 0 1-.93.927m0 7.223a.928.928 0 0 1-.93-.927v-3.045c0-.512.416-.927.93-.927s.93.415.93.927v3.045a.929.929 0 0 1-.93.927"/>
        <path fill="#76FF68" d="M24.81 17.648c0 6.31-4.422 11.426-9.878 11.426S5.054 23.96 5.054 17.648c0-6.31 4.422-11.425 9.878-11.425s9.878 5.115 9.878 11.425M24.81 62.498c0 6.31-4.422 11.426-9.878 11.426s-9.878-5.115-9.878-11.426c0-6.31 4.422-11.426 9.878-11.426s9.878 5.116 9.878 11.426"/>
        <path fill="#00525F" d="M23.545 46.951H6.32a1.263 1.263 0 0 1-1.265-1.26V34.456c0-.696.566-1.26 1.265-1.26h17.226c.7 0 1.265.564 1.265 1.26V45.69c0 .696-.566 1.26-1.265 1.26"/>
        <path fill="#00687B" d="M23.62 46.951H8.533c-.657 0-1.19-.53-1.19-1.185V34.38c0-.654.533-1.185 1.19-1.185h15.089c.657 0 1.19.531 1.19 1.185v11.386c0 .654-.533 1.185-1.19 1.185"/>
        <path fill="#373B44" d="M68.647 48.375c.649 0 1.175.526 1.175 1.175v.179c0 .65-.526 1.175-1.175 1.175h-3.312v7.676a1.175 1.175 0 1 1-2.35 0v-7.676h-5.988v2.08a1.175 1.175 0 1 1-2.35 0v-2.08h-3.303a1.174 1.174 0 0 1-1.175-1.175v-.18c0-.648.526-1.174 1.175-1.174h1.054V36.812a7.597 7.597 0 0 1 7.598-7.597 7.597 7.597 0 0 1 7.597 7.597v11.563h1.054zm1.135-24.425c.508.404.593 1.143.19 1.65l-2.205 2.78a1.175 1.175 0 1 1-1.841-1.461l2.205-2.78a1.177 1.177 0 0 1 1.65-.19zm-9.79 2.192a1.174 1.174 0 0 1-1.175-1.175V21.42a1.175 1.175 0 0 1 2.35 0v3.547c0 .65-.526 1.175-1.175 1.175zm-6.108 2.427a1.175 1.175 0 0 1-1.65-.19l-2.205-2.778a1.175 1.175 0 1 1 1.84-1.461l2.205 2.779a1.175 1.175 0 0 1-.19 1.65z"/>
    </g>
</svg>
