<svg xmlns="http://www.w3.org/2000/svg" width="80" height="80" viewBox="0 0 80 80">
    <g fill="none" fill-rule="evenodd">
        <path fill="#00687B" d="M27.776 1.537c-.742-.172-4.027-.698-4.95-.904A13.438 13.438 0 0 0 19.89.31c-8.491 0-15.375 7.653-15.375 17.475v44.579c0 9.821 6.884 17.474 15.375 17.474a13.42 13.42 0 0 0 2.937-.324c.922-.206 4.207-.732 4.949-.903 6.8-1.573 11.925-8.517 11.925-16.846V18.383c0-8.33-5.125-15.274-11.925-16.846"/>
        <path fill="#00687B" d="M19.89.309c-.859 0-1.7.081-2.521.238-1.069.204-4.605.816-5.34.984C5.215 3.093.078 10.044.078 18.383v43.381c0 8.339 5.137 15.29 11.95 16.851.735.169 4.271.78 5.34.985.82.156 1.662.237 2.521.237 8.492 0 15.376-7.653 15.376-17.475V17.784C35.266 7.962 28.382.31 19.89.31"/>
        <path fill="#00819A" d="M14.932 1.203C6.73 1.203.08 8.894.08 18.383v43.38c0 9.489 6.65 17.18 14.852 17.18 8.203 0 14.852-7.691 14.852-17.18v-43.38c0-9.489-6.65-17.18-14.852-17.18"/>
        <path fill="#FFF" fill-opacity=".3" d="M2.56 34.7a.928.928 0 0 1-.93-.927v-15.39c0-8.622 5.967-15.635 13.302-15.635.514 0 .93.414.93.926a.928.928 0 0 1-.93.927c-6.309 0-11.442 6.182-11.442 13.782v15.39a.929.929 0 0 1-.93.927m0 7.223a.928.928 0 0 1-.93-.927v-3.045c0-.512.416-.927.93-.927s.93.415.93.927v3.045a.929.929 0 0 1-.93.927"/>
        <path fill="#76FF68" d="M24.81 17.648c0 6.31-4.422 11.426-9.878 11.426S5.054 23.96 5.054 17.648c0-6.31 4.422-11.425 9.878-11.425s9.878 5.115 9.878 11.425M24.81 62.498c0 6.31-4.422 11.426-9.878 11.426s-9.878-5.115-9.878-11.426c0-6.31 4.422-11.426 9.878-11.426s9.878 5.116 9.878 11.426"/>
        <path fill="#00525F" d="M23.545 46.951H6.32a1.263 1.263 0 0 1-1.265-1.26V34.456c0-.696.566-1.26 1.265-1.26h17.226c.7 0 1.265.564 1.265 1.26V45.69c0 .696-.566 1.26-1.265 1.26"/>
        <path fill="#00687B" d="M23.62 46.951H8.533c-.657 0-1.19-.53-1.19-1.185V34.38c0-.654.533-1.185 1.19-1.185h15.089c.657 0 1.19.531 1.19 1.185v11.386c0 .654-.533 1.185-1.19 1.185"/>
        <path fill="#373B44" d="M73.513 37.892c0 .627-.51 1.136-1.142 1.136-.63 0-1.14-.509-1.14-1.136v-5.314c0-.627.51-1.134 1.14-1.134.632 0 1.142.507 1.142 1.134v5.314zm0 9.53c0 .628-.51 1.135-1.142 1.135-.63 0-1.14-.507-1.14-1.136v-5.313c0-.627.51-1.135 1.14-1.135.632 0 1.142.508 1.142 1.135v5.313zm-3.263 3.245h-5.344c-.63 0-1.141-.507-1.141-1.136 0-.627.51-1.133 1.14-1.133h5.345c.63 0 1.141.506 1.141 1.133 0 .629-.51 1.136-1.14 1.136zm-7.466-2.11a1.137 1.137 0 0 1-1.141-1.136v-5.313c0-.627.51-1.135 1.141-1.135s1.14.508 1.14 1.135v5.313c0 .629-.509 1.136-1.14 1.136zm-4.427-10.665c0 .627-.51 1.136-1.141 1.136-.63 0-1.14-.509-1.14-1.136v-5.314c0-.627.51-1.134 1.14-1.134.631 0 1.141.507 1.141 1.134v5.314zm0 9.53c0 .628-.51 1.135-1.141 1.135-.63 0-1.14-.507-1.14-1.136v-5.313c0-.627.51-1.135 1.14-1.135.631 0 1.141.508 1.141 1.135v5.313zm-3.263 3.245h-5.343a1.137 1.137 0 0 1-1.142-1.136c0-.627.51-1.133 1.142-1.133h5.343c.631 0 1.141.506 1.141 1.133 0 .629-.51 1.136-1.14 1.136zm-7.465-2.11a1.137 1.137 0 0 1-1.141-1.136v-5.313c0-.627.51-1.135 1.14-1.135.63 0 1.142.508 1.142 1.135v5.313c0 .629-.511 1.136-1.141 1.136zm-1.141-15.979c0-.627.51-1.134 1.14-1.134.63 0 1.142.507 1.142 1.134v5.314c0 .627-.511 1.136-1.141 1.136a1.138 1.138 0 0 1-1.141-1.136v-5.314zm9.747 7.423c0 .627-.51 1.135-1.14 1.135H49.75a1.138 1.138 0 0 1-1.142-1.135c0-.627.51-1.134 1.142-1.134h5.343c.631 0 1.141.507 1.141 1.134zm-6.484-10.668h5.343c.631 0 1.141.508 1.141 1.136 0 .627-.51 1.134-1.14 1.134H49.75a1.138 1.138 0 0 1-1.142-1.134c0-.628.51-1.136 1.142-1.136zm11.892 3.245c0-.627.51-1.134 1.141-1.134s1.14.507 1.14 1.134v5.314c0 .627-.509 1.136-1.14 1.136a1.138 1.138 0 0 1-1.141-1.136v-5.314zm9.748 7.423c0 .627-.51 1.135-1.14 1.135h-5.345c-.63 0-1.141-.508-1.141-1.135s.51-1.134 1.14-1.134h5.345c.63 0 1.141.507 1.141 1.134zm-6.485-10.668h5.344c.63 0 1.141.508 1.141 1.136 0 .627-.51 1.134-1.14 1.134h-5.345c-.63 0-1.141-.507-1.141-1.134 0-.628.51-1.136 1.14-1.136zm8.096-4.833H46.998c-2.76 0-4.998 2.225-4.998 4.97v21.06c0 2.745 2.239 4.97 4.998 4.97h26.004c2.76 0 4.998-2.225 4.998-4.97V29.47c0-2.745-2.239-4.97-4.998-4.97z"/>
    </g>
</svg>
