<svg xmlns="http://www.w3.org/2000/svg" width="80" height="80" viewBox="0 0 80 80">
    <g fill="none" fill-rule="evenodd">
        <path fill="#01687B" d="M80 37.509h-.002H80v-1.861C80 16.268 68.6 5.68 47.742 5.68H32.257C11.4 5.68 0 16.269 0 35.648v14.385C0 69.41 11.4 80 32.257 80H47.742C68.6 80 80 69.41 80 50.033V37.509z"/>
        <path fill="#008199" d="M80 31.83h-.002H80v-1.86C80 10.59 68.6 0 47.742 0H32.257C11.4 0 0 10.59 0 29.97v14.383c0 19.378 11.4 29.968 32.257 29.968H47.742C68.6 74.321 80 63.731 80 44.353V31.831z"/>
        <path fill="#00525F" d="M40.88 54.264c0 .435-.376.787-.841.787-.464 0-.84-.352-.84-.787 0-.433.376-.787.84-.787.465 0 .84.354.84.787"/>
        <path fill="#0098B7" d="M37.34 39.796c-.34.337-.8.51-1.363.51-.457 0-.867-.159-1.216-.469-.544-.476-.822-1.246-.822-2.289 0-1.04.278-1.813.822-2.289.349-.31.759-.467 1.216-.467.522 0 .957.18 1.333.554.647.637.781 1.55.781 2.202 0 .686-.13 1.631-.752 2.248m1.028-5.425c-.41-.38-1.123-.834-2.194-.834-.85 0-1.69.355-2.175.907v-3.709a.2.2 0 0 0-.2-.2h-1.02a.203.203 0 0 0-.204.2v9c0 .11.092.203.203.203h.517c.449.801 1.335 1.628 2.834 1.628.879 0 1.729-.312 2.287-.881.726-.738 1.13-1.843 1.13-3.119 0-1.339-.42-2.473-1.178-3.195M45.238 39.838c-.346.31-.756.467-1.214.467-.522 0-.957-.18-1.333-.55-.646-.64-.783-1.554-.783-2.206 0-.688.132-1.633.754-2.248.342-.34.8-.508 1.362-.508.458 0 .868.157 1.214.467.547.476.825 1.246.825 2.29 0 1.04-.278 1.812-.825 2.288zm1.417-4.678c-.449-.8-1.283-1.63-2.781-1.63-.882 0-1.727.313-2.287.883-.73.736-1.13 1.843-1.13 3.118 0 1.34.42 2.474 1.178 3.196.41.38 1.123.836 2.19.836.853 0 1.693-.358 2.176-.911v3.708c0 .111.091.202.203.202h1.018a.203.203 0 0 0 .203-.202v-8.997a.203.203 0 0 0-.203-.203h-.567z"/>
        <path fill="#00525F" d="M33.323 8.728a2.241 2.241 0 1 1-4.483 0 2.241 2.241 0 0 1 4.483 0M51.16 8.728a2.24 2.24 0 1 1-4.481 0 2.242 2.242 0 0 1 4.48 0M11.669 29.04a2.24 2.24 0 1 1-4.481 0 2.242 2.242 0 0 1 4.48 0M11.669 46.273a2.24 2.24 0 1 1-4.481 0 2.242 2.242 0 0 1 4.48 0M72.812 29.04a2.24 2.24 0 1 1-4.481 0 2.242 2.242 0 0 1 4.481 0M72.812 46.273a2.24 2.24 0 1 1-4.481 0 2.242 2.242 0 0 1 4.481 0"/>
    </g>
</svg>
