<svg xmlns="http://www.w3.org/2000/svg" width="44" height="44" viewBox="0 0 44 44">
    <g fill="none" fill-rule="evenodd">
        <path fill="#111410" d="M3.75 24.181h16.5l-5.32-3.676-2.68 1.851a.439.439 0 0 1-.5 0l-2.68-1.851-5.32 3.676zm-.896-7.972v7.582l5.487-3.79-5.487-3.792zm17.396-.39H3.75l8.25 5.7 8.25-5.7zm.896 7.972V16.21L15.66 20l5.487 3.791zm.854.797v.003l-.002.007c0 .04-.005.08-.018.118-.003.007-.008.012-.01.018-.007.017-.016.03-.024.045a.387.387 0 0 1-.178.17c-.014.008-.028.016-.043.022a.436.436 0 0 1-.152.029H2.427a.436.436 0 0 1-.152-.03c-.015-.005-.028-.013-.043-.02a.414.414 0 0 1-.178-.17c-.008-.015-.017-.03-.024-.046-.002-.006-.007-.011-.01-.018a.4.4 0 0 1-.018-.117L2 24.591v-9.182l.002-.008c0-.04.006-.079.018-.117.003-.006.008-.012.01-.018.007-.016.016-.03.024-.046a.408.408 0 0 1 .178-.17c.015-.007.028-.015.043-.02a.437.437 0 0 1 .152-.03h19.146c.054 0 .104.012.152.03.015.005.029.013.043.02a.417.417 0 0 1 .122.092c.023.024.04.05.056.079.008.015.017.029.024.045.002.006.007.012.01.018a.384.384 0 0 1 .018.118l.002.007v9.179zm-6.504-20.72H9.504V6.88c0 .24-.192.434-.43.434H7.7l4.8 3.705 4.802-3.705h-1.376a.432.432 0 0 1-.43-.434V3.868zM9.075 3h6.85c.237 0 .43.194.43.434v3.013h2.216a.43.43 0 0 1 .406.295c.06.176 0 .37-.146.483l-6.07 4.686a.425.425 0 0 1-.521 0L6.169 7.225a.436.436 0 0 1 .26-.778h2.216V3.434c0-.24.193-.434.43-.434z"/>
        <path fill="#000" fill-rule="nonzero" d="M33 42.75c-5.385 0-9.75-4.365-9.75-9.75s4.365-9.75 9.75-9.75 9.75 4.365 9.75 9.75-4.365 9.75-9.75 9.75zm0-1.5a8.25 8.25 0 1 0 0-16.5 8.25 8.25 0 0 0 0 16.5z"/>
        <path fill="#000" d="M29 38.476V28h3.733c1.294 0 2.275.243 2.943.73.669.487 1.003 1.2 1.003 2.14 0 .514-.134.966-.403 1.357a2.32 2.32 0 0 1-1.12.86c.547.134.978.405 1.292.813.315.408.473.906.473 1.496 0 1.008-.327 1.77-.981 2.288-.654.518-1.586.782-2.797.792H29zm2.196-4.562v2.828h1.881c.518 0 .922-.121 1.212-.364.29-.242.435-.576.435-1.003 0-.96-.505-1.446-1.515-1.46h-2.013zm0-1.525h1.625c1.108-.02 1.662-.453 1.662-1.302 0-.475-.14-.817-.421-1.026-.28-.208-.724-.313-1.329-.313h-1.537v2.64z"/>
    </g>
</svg>
