<?xml version="1.0" encoding="utf-8"?>
<!-- Generator: Adobe Illustrator 23.1.1, SVG Export Plug-In . SVG Version: 6.00 Build 0)  -->
<svg version="1.1" id="Capa_1" xmlns="http://www.w3.org/2000/svg" xmlns:xlink="http://www.w3.org/1999/xlink" x="0px" y="0px"
	 viewBox="0 0 449.04 252.46" style="enable-background:new 0 0 449.04 252.46;" xml:space="preserve">
<style type="text/css">
	.st0{fill:#FFFFFF;}
	.st1{fill:url(#SVGID_1_);}
</style>
<g>
	<path class="st0" d="M83.07,117.36c1.51-1.5,3.55-2.26,6.04-2.26c2.04,0,3.85,0.7,5.4,2.08c2.43,2.11,3.66,5.53,3.66,10.16
		c0,4.63-1.23,8.05-3.66,10.16c-1.54,1.38-3.36,2.07-5.4,2.07c-2.31,0-4.24-0.8-5.91-2.45c-2.87-2.84-3.47-6.89-3.47-9.78
		C79.73,124.3,80.31,120.09,83.07,117.36L83.07,117.36z M88.25,145.15c3.78,0,7.51-1.59,9.66-4.03v17.36h6.32v-41.74h-3.42
		c-1.99-3.56-5.69-7.24-12.34-7.24c-3.92,0-7.68,1.39-10.15,3.92c-3.23,3.27-5.01,8.18-5.01,13.84c0,5.94,1.85,10.98,5.22,14.18
		C80.33,143.14,83.5,145.15,88.25,145.15L88.25,145.15z M48,117.17c1.55-1.38,3.36-2.07,5.4-2.07c2.31,0,4.24,0.8,5.91,2.45
		c2.87,2.84,3.47,6.89,3.47,9.78c0,3.04-0.58,7.25-3.34,9.98c-1.51,1.5-3.55,2.26-6.04,2.26c-2.04,0-3.85-0.7-5.4-2.08
		c-2.43-2.12-3.66-5.53-3.66-10.16C44.35,122.71,45.58,119.29,48,117.17L48,117.17z M41.49,137.94c1.99,3.56,5.93,7.24,12.57,7.24
		c3.92,0,7.68-1.39,10.16-3.92c3.23-3.27,5.01-8.18,5.01-13.84c0-5.94-1.85-10.98-5.22-14.18c-1.82-1.69-4.98-3.71-9.73-3.71
		c-3.78,0-7.51,1.59-9.66,4.03V96.2H38.3v41.74H41.49L41.49,137.94z"/>
</g>
<linearGradient id="SVGID_1_" gradientUnits="userSpaceOnUse" x1="135.1354" y1="178.3214" x2="133.6943" y2="68.0765" gradientTransform="matrix(1 0 0 -1 0 254)">
	<stop  offset="0" style="stop-color:#6E4695"/>
	<stop  offset="0" style="stop-color:#6E4695"/>
	<stop  offset="0.5" style="stop-color:#DA358B"/>
	<stop  offset="0.8629" style="stop-color:#EC6707"/>
</linearGradient>
<path class="st1" d="M134.44,169.18L134.44,169.18c-1.56,0-2.82-1.26-2.82-2.82V91.39c0-1.56,1.26-2.82,2.82-2.82l0,0
	c1.56,0,2.82,1.26,2.82,2.82v74.97C137.26,167.92,136,169.18,134.44,169.18z"/>
<g>
	<path class="st0" d="M164.83,144.55V107.6h25.31v4.27h-20.51v11.25h15.49v4.38h-15.49v12.77h20.51v4.27L164.83,144.55
		L164.83,144.55z"/>
	<path class="st0" d="M211.17,144.55l-0.32-3.44c-1.56,2.66-5.29,4.12-8.37,4.12c-3.35,0-6.15-1.3-7.93-3.08
		c-2.59-2.55-3.94-6.36-3.94-10.73c0-4.53,1.46-8.39,4.21-10.94c1.78-1.62,4.43-2.97,7.77-2.97c3.4,0,6.53,1.56,8.04,3.75v-14.33
		h4.59v37.62L211.17,144.55L211.17,144.55z M207.82,123.03c-1.08-0.94-2.59-1.67-4.59-1.67c-2.27,0-3.83,0.89-5.02,2.03
		c-2.05,1.98-2.91,4.9-2.91,7.97s0.81,6.15,2.86,8.13c1.19,1.15,2.81,1.88,5.07,1.88c2,0,3.51-0.73,4.59-1.67
		c2.27-1.93,3.08-5.05,3.08-8.34S210.09,124.96,207.82,123.03z"/>
	<path class="st0" d="M239.44,144.55l-0.38-3.96c-1.4,3.02-5.29,4.64-8.37,4.64c-5.72,0-9.61-3.8-9.61-9.69v-17.35h4.64v16.73
		c0,3.96,1.73,6.3,6.04,6.3c3.89,0,7.07-3.33,7.07-7.71v-15.32h4.64v26.37L239.44,144.55L239.44,144.55z"/>
	<path class="st0" d="M261.06,117.51c3.24,0,6.15,1.09,8.04,2.87c1.83,1.72,3.18,3.86,3.4,6.72h-4.64
		c-0.22-1.82-1.13-3.08-2.16-4.06c-1.08-0.99-2.86-1.67-4.64-1.67c-2.16,0-3.89,0.83-5.07,1.88c-2.32,2.03-2.97,5.26-2.97,8.13
		s0.65,6.04,2.97,8.08c1.19,1.04,2.91,1.93,5.07,1.93c1.78,0,3.56-0.68,4.64-1.67c1.03-0.99,2-2.24,2.21-4.06h4.59
		c-0.22,2.87-1.62,5.05-3.45,6.77c-1.89,1.77-4.75,2.81-7.99,2.81c-3.45,0-6.53-1.36-8.53-3.23c-2.97-2.81-4.21-6.46-4.21-10.63
		s1.24-7.82,4.21-10.63C254.53,118.86,257.6,117.51,261.06,117.51z"/>
	<path class="st0" d="M298.86,144.92c-2.43,0-4.05-1.77-4.05-4.01h-0.11c-1.62,2.66-5.18,4.33-9.01,4.33
		c-6.53,0-9.45-4.01-9.45-7.76c0-3.91,2.81-8.23,9.77-8.6l8.53-0.47v-1.93c0-1.3-0.16-2.71-1.4-3.8c-0.92-0.83-2.38-1.51-4.59-1.51
		c-2.48,0-4.05,0.73-4.97,1.62c-0.86,0.83-1.35,1.72-1.46,3.07h-4.53c0.05-2.24,1.08-4.01,2.54-5.42c1.89-1.82,5.07-2.92,8.42-2.92
		c5.29,0,8.42,2.35,9.71,5.21c0.54,1.2,0.81,2.4,0.81,3.91v12.77c0,1.41,0.7,1.77,1.62,1.77c0.49,0,1.19-0.16,1.19-0.16v3.28
		C300.91,144.76,299.99,144.92,298.86,144.92z M294.54,131.84l-7.56,0.42c-2.91,0.16-6.04,1.51-6.04,4.85
		c0,2.34,1.57,4.38,5.45,4.38c2.1,0,4.26-0.68,5.72-2.14c1.62-1.62,2.43-3.75,2.43-5.94V131.84z"/>
	<path class="st0" d="M316.67,117.51c3.24,0,6.15,1.09,8.04,2.87c1.83,1.72,3.18,3.86,3.4,6.72h-4.64
		c-0.22-1.82-1.13-3.08-2.16-4.06c-1.08-0.99-2.86-1.67-4.64-1.67c-2.16,0-3.89,0.83-5.07,1.88c-2.32,2.03-2.97,5.26-2.97,8.13
		s0.65,6.04,2.97,8.08c1.19,1.04,2.91,1.93,5.07,1.93c1.78,0,3.56-0.68,4.64-1.67c1.03-0.99,2-2.24,2.21-4.06h4.59
		c-0.22,2.87-1.62,5.05-3.45,6.77c-1.89,1.77-4.75,2.81-7.99,2.81c-3.45,0-6.53-1.36-8.53-3.23c-2.97-2.81-4.21-6.46-4.21-10.63
		s1.24-7.82,4.21-10.63C310.14,118.86,313.22,117.51,316.67,117.51z"/>
	<path class="st0" d="M331.86,144.55v-3.8h9.88v-18.81h-8.8v-3.75h13.44v22.56h9.93v3.8H331.86z M340.55,113.18v-6.25h6.53v6.25
		H340.55z"/>
	<path class="st0" d="M379.11,142.05c-2,1.88-5.07,3.18-8.53,3.18s-6.64-1.3-8.64-3.18c-2.97-2.81-4.26-6.51-4.26-10.68
		c0-4.17,1.29-7.87,4.26-10.68c2-1.88,5.18-3.18,8.64-3.18s6.53,1.3,8.53,3.18c2.97,2.81,4.26,6.46,4.26,10.63
		C383.37,135.48,382.07,139.24,379.11,142.05z M375.6,123.24c-1.19-1.04-2.91-1.88-5.07-1.88s-3.89,0.83-5.07,1.88
		c-2.32,2.03-3.08,5.21-3.08,8.08s0.76,6.15,3.08,8.18c1.19,1.04,2.92,1.88,5.07,1.88c2.16,0,3.89-0.83,5.07-1.88
		c2.32-2.03,3.08-5.26,3.08-8.13S377.92,125.27,375.6,123.24z M366.32,115.84l-1.94-2.55l9.5-7.35l2.81,3.8L366.32,115.84z"/>
	<path class="st0" d="M406.04,144.55v-16.73c0-3.86-1.78-6.31-5.99-6.31c-2.64,0-4.96,1.82-6.15,4.22
		c-0.92,1.93-1.19,4.74-1.19,6.77v12.04h-4.64v-26.37h4.05l0.38,3.96c1.62-3.02,5.34-4.64,8.53-4.64c6.21,0,9.71,3.6,9.71,9.69
		v17.35h-4.7V144.55z"/>
</g>
</svg>
