<?xml version="1.0" encoding="utf-8"?>
<!-- Generator: Adobe Illustrator 23.0.6, SVG Export Plug-In . SVG Version: 6.00 Build 0)  -->
<svg version="1.1" id="Capa_1" xmlns="http://www.w3.org/2000/svg" xmlns:xlink="http://www.w3.org/1999/xlink" x="0px" y="0px"
	 viewBox="0 0 1366 366" style="enable-background:new 0 0 1366 366;" xml:space="preserve">
<style type="text/css">
	.st0{fill:#FFFFFF;}
	.st1{fill:url(#SVGID_1_);}
</style>
<g>
	<g>
		<g>
			<path class="st0" d="M276.88,149.87c4.35-4.31,10.2-6.49,17.38-6.49c5.86,0,11.08,2.01,15.53,5.97
				c6.98,6.08,10.52,15.92,10.52,29.23c0,13.31-3.54,23.14-10.53,29.23c-4.44,3.96-9.66,5.97-15.52,5.97c-6.64,0-12.21-2.31-17-7.06
				c-8.26-8.17-9.99-19.81-9.99-28.14C267.27,169.82,268.93,157.73,276.88,149.87L276.88,149.87z M291.76,229.81
				c10.87,0,21.6-4.56,27.77-11.6v49.93h18.18V148.08h-9.83c-5.73-10.24-16.38-20.83-35.51-20.83c-11.27,0-22.08,4.01-29.21,11.27
				c-9.3,9.39-14.42,23.54-14.42,39.82c0,17.1,5.33,31.58,15.02,40.79C269,224.01,278.1,229.81,291.76,229.81L291.76,229.81z
				 M176.01,149.33c4.45-3.96,9.67-5.96,15.52-5.96c6.64,0,12.2,2.31,17,7.06c8.26,8.17,9.99,19.81,9.99,28.14
				c0,8.76-1.67,20.84-9.61,28.7c-4.35,4.31-10.2,6.49-17.38,6.49c-5.86,0-11.08-2.01-15.53-5.97
				c-6.98-6.08-10.51-15.92-10.51-29.23C165.49,165.25,169.03,155.42,176.01,149.33L176.01,149.33z M157.26,209.06
				c5.73,10.24,17.04,20.83,36.17,20.83c11.27,0,22.08-4.01,29.21-11.27c9.3-9.39,14.42-23.54,14.42-39.82
				c0-17.1-5.33-31.58-15.02-40.79c-5.23-4.87-14.34-10.67-27.99-10.67c-10.86,0-21.6,4.56-27.77,11.59V89h-18.18v120.06H157.26
				L157.26,209.06z"/>
		</g>
	</g>
</g>
<linearGradient id="SVGID_1_" gradientUnits="userSpaceOnUse" x1="426.6193" y1="29.9882" x2="422.4743" y2="347.0772">
	<stop  offset="0" style="stop-color:#6E4695"/>
	<stop  offset="0" style="stop-color:#6E4695"/>
	<stop  offset="0.5" style="stop-color:#DA358B"/>
	<stop  offset="0.8629" style="stop-color:#EC6707"/>
</linearGradient>
<path class="st1" d="M424.62,298.92L424.62,298.92c-4.47,0-8.1-3.63-8.1-8.1V75.18c0-4.47,3.63-8.1,8.1-8.1h0
	c4.47,0,8.1,3.63,8.1,8.1v215.64C432.72,295.29,429.09,298.92,424.62,298.92z"/>
<g>
	<g>
		<path class="st0" d="M510.91,227.4V122.75h71.7v12.1h-58.09v31.88h43.88v12.4h-43.88v36.16h58.09v12.1H510.91z"/>
	</g>
	<g>
		<path class="st0" d="M643.27,227.4l-0.92-9.74c-4.43,7.53-14.98,11.66-23.69,11.66c-9.48,0-17.43-3.69-22.47-8.71
			c-7.34-7.23-11.16-18.01-11.16-30.4c0-12.84,4.13-23.77,11.93-31c5.04-4.58,12.54-8.41,22.01-8.41c9.63,0,18.5,4.43,22.78,10.63
			v-40.59h12.99V227.4H643.27z M633.79,166.44c-3.06-2.66-7.34-4.72-13-4.72c-6.42,0-10.85,2.51-14.21,5.76
			c-5.81,5.61-8.26,13.87-8.26,22.59c0,8.71,2.29,17.41,8.1,23.02c3.37,3.25,7.95,5.32,14.37,5.32c5.66,0,9.94-2.07,13-4.72
			c6.42-5.46,8.71-14.32,8.71-23.62C642.5,180.76,640.21,171.9,633.79,166.44z"/>
	</g>
	<g>
		<path class="st0" d="M724.56,227.4l-1.07-11.22c-3.98,8.56-14.98,13.14-23.69,13.14c-16.21,0-27.21-10.77-27.21-27.45v-49.15
			h13.15v47.38c0,11.22,4.89,17.86,17.12,17.86c11,0,20.03-9.45,20.03-21.84v-43.4h13.15v74.69H724.56z"/>
	</g>
	<g>
		<path class="st0" d="M787.01,150.8c9.17,0,17.43,3.1,22.78,8.12c5.19,4.87,9.02,10.92,9.63,19.04h-13.14
			c-0.61-5.16-3.21-8.71-6.12-11.51c-3.06-2.81-8.1-4.72-13.15-4.72c-6.11,0-11,2.36-14.37,5.31c-6.57,5.76-8.41,14.91-8.41,23.03
			c0,8.12,1.83,17.12,8.41,22.88c3.37,2.95,8.26,5.46,14.37,5.46c5.05,0,10.09-1.92,13.15-4.72c2.9-2.81,5.66-6.35,6.27-11.51h12.99
			c-0.61,8.12-4.58,14.32-9.78,19.19c-5.35,5.02-13.45,7.97-22.63,7.97c-9.78,0-18.5-3.84-24.15-9.15
			c-8.41-7.97-11.93-18.3-11.93-30.11s3.52-22.14,11.93-30.11C768.51,154.64,777.22,150.8,787.01,150.8z"/>
	</g>
	<g>
		<path class="st0" d="M895.31,228.44c-6.88,0-11.47-5.02-11.47-11.36h-0.31c-4.58,7.53-14.68,12.25-25.53,12.25
			c-18.5,0-26.75-11.37-26.75-21.99c0-11.07,7.95-23.32,27.67-24.35l24.15-1.33v-5.46c0-3.69-0.46-7.68-3.98-10.77
			c-2.6-2.36-6.73-4.28-12.99-4.28c-7.03,0-11.47,2.07-14.06,4.58c-2.45,2.36-3.82,4.87-4.13,8.71h-12.84
			c0.16-6.35,3.06-11.37,7.19-15.35c5.35-5.17,14.37-8.27,23.85-8.27c14.98,0,23.85,6.64,27.52,14.76c1.53,3.4,2.29,6.79,2.29,11.07
			v36.16c0,3.98,1.99,5.02,4.58,5.02c1.38,0,3.37-0.44,3.37-0.44v9.3C901.12,228,898.52,228.44,895.31,228.44z M883.08,191.39
			l-21.4,1.18c-8.25,0.44-17.12,4.28-17.12,13.72c0,6.64,4.43,12.4,15.44,12.4c5.96,0,12.08-1.92,16.21-6.05
			c4.58-4.58,6.88-10.63,6.88-16.83V191.39z"/>
	</g>
	<g>
		<path class="st0" d="M956.03,229.03c-17.43,0-24.92-11.66-24.92-23.62v-41.92h-24.15v-10.77h24.15v-19.34l12.99-3.99v23.32h32.41
			v10.77h-32.41v40.74c0,7.97,4.74,13.43,13.76,13.43c7.64,0,13.15-2.21,19.57-5.02v11.07
			C971.78,226.82,965.05,229.03,956.03,229.03z"/>
	</g>
	<g>
		<path class="st0" d="M992.07,227.4v-10.77h27.98v-53.29h-24.92v-10.63h38.06v63.91h28.13v10.77H992.07z M1016.69,138.55v-17.71
			h18.5v17.71H1016.69z"/>
	</g>
	<g>
		<path class="st0" d="M1127.14,220.32c-5.66,5.32-14.37,9.01-24.15,9.01s-18.81-3.69-24.46-9.01
			c-8.41-7.97-12.08-18.45-12.08-30.26s3.67-22.29,12.08-30.26c5.65-5.31,14.68-9,24.46-9s18.5,3.69,24.15,9
			c8.41,7.97,12.08,18.3,12.08,30.11S1135.55,212.35,1127.14,220.32z M1117.2,167.03c-3.37-2.95-8.26-5.31-14.37-5.31
			c-6.11,0-11,2.36-14.37,5.31c-6.57,5.76-8.72,14.76-8.72,22.88c0,8.12,2.14,17.42,8.72,23.18c3.37,2.95,8.26,5.32,14.37,5.32
			c6.12,0,11.01-2.36,14.37-5.32c6.57-5.76,8.71-14.91,8.71-23.02C1125.91,181.94,1123.77,172.79,1117.2,167.03z"/>
	</g>
	<g>
		<path class="st0" d="M1204.61,227.4v-47.38c0-10.92-5.04-17.86-16.97-17.86c-7.49,0-14.07,5.17-17.43,11.96
			c-2.6,5.46-3.37,13.43-3.37,19.19v34.1h-13.15v-74.69h11.46l1.07,11.22c4.58-8.56,15.13-13.14,24.15-13.14
			c17.58,0,27.52,10.18,27.52,27.46v49.15H1204.61z"/>
	</g>
</g>
</svg>
