<svg xmlns="http://www.w3.org/2000/svg" width="100" height="100" viewBox="0 0 100 100">
    <g fill="none" fill-rule="evenodd">
        <path fill="#FFF" d="M83.123 89.13v-8.99c-1.116 1.266-3.056 2.088-5.02 2.088-2.468 0-4.114-1.044-5.059-1.92-1.751-1.659-2.715-4.267-2.715-7.346 0-2.932.925-5.478 2.606-7.17 1.288-1.308 3.12-2.03 5.158-2.03l.041-.002c.062-.001.17-.006.318-.006 1.207 0 4.214.295 6.043 3.028l.025.038c.143.218.291.443.44.692h1.47V89.13h-3.307zm-4.537-22.474c-1.3 0-2.357.393-3.144 1.17-1.436 1.415-1.737 3.592-1.737 5.17 0 1.5.313 3.597 1.806 5.07.868.855 1.874 1.271 3.075 1.271a4.121 4.121 0 0 0 2.806-1.074c1.263-1.097 1.903-2.869 1.903-5.267 0-2.397-.64-4.169-1.9-5.265-.806-.714-1.75-1.075-2.81-1.075zm-18.464 15.58c-1.208 0-4.214-.295-6.044-3.028l-.033-.052c-.14-.214-.286-.434-.43-.677h-1.47v-21.62h3.306v8.99c1.116-1.265 3.056-2.087 5.02-2.087 2.468 0 4.113 1.044 5.059 1.92 1.751 1.66 2.716 4.268 2.716 7.345 0 2.932-.926 5.478-2.607 7.17-1.289 1.31-3.12 2.031-5.158 2.031l-.041.002c-.062.002-.17.006-.317.006zm-.134-15.583a4.114 4.114 0 0 0-2.806 1.074c-1.264 1.097-1.903 2.869-1.903 5.267 0 2.397.64 4.17 1.902 5.264a4.115 4.115 0 0 0 2.807 1.077c1.299 0 2.356-.394 3.143-1.17 1.437-1.416 1.739-3.594 1.739-5.171 0-1.5-.314-3.598-1.808-5.07-.867-.855-1.873-1.271-3.074-1.271z"/>
        <path fill="#7F1A7A" d="M21.654 62.225c0-2.98-2.423-5.397-5.412-5.397s-5.411 2.416-5.411 5.397c0 2.98 2.422 5.396 5.411 5.396 2.989 0 5.412-2.416 5.412-5.396"/>
        <path fill="#C70063" d="M37.682 24.077c0-2.98-2.422-5.397-5.41-5.397-2.99 0-5.412 2.417-5.412 5.397 0 2.98 2.422 5.397 5.411 5.397 2.989 0 5.411-2.417 5.411-5.397"/>
        <path fill="#F00059" d="M56.652 16.19c0-2.98-2.423-5.396-5.412-5.396S45.83 13.21 45.83 16.19s2.422 5.397 5.411 5.397c2.99 0 5.412-2.417 5.412-5.397"/>
        <path fill="#FF0028" d="M75.621 24.077c0-2.98-2.423-5.397-5.412-5.397-2.988 0-5.412 2.417-5.412 5.397 0 2.98 2.424 5.397 5.412 5.397 2.989 0 5.412-2.417 5.412-5.397"/>
        <path fill="#FF4F00" d="M89.162 40.718c0-2.98-2.424-5.397-5.412-5.397-2.989 0-5.412 2.417-5.412 5.397 0 2.98 2.423 5.397 5.412 5.397 2.988 0 5.412-2.417 5.412-5.397"/>
    </g>
</svg>
