<svg xmlns="http://www.w3.org/2000/svg" width="64" height="64" viewBox="0 0 64 64">
    <g fill="none" fill-rule="evenodd">
        <path fill="#4DD2FF" d="M48.233 13.811L39.99 34.937 9.08 19.088 15.652.081z"/>
        <path fill="#4DE1FF" d="M12.135 46.087l10.836 7.042.362-.187 3.488 2.372-.057.28 12.89 8.376.336-29.033-30.91-15.85z"/>
        <path fill="#4DA6FF" d="M39.99 34.937l-.336 29.033 13.152-10.09 1.939-28.7-6.512-11.369z"/>
        <path fill="#4DC3FF" d="M35.397 16.055l-3.472-1.637 3.276-1.665 3.347 1.518z"/>
        <path fill="#4DE1FF" d="M35.457 24.26l-3.347-1.518-.185-8.324 3.472 1.637z"/>
        <path fill="#4DA6FF" d="M38.592 16.23l-3.135 8.03-.06-8.205 3.151-1.784zM14.433 33.544l-.485.255-.515-6.602.498.356z"/>
        <path fill="#4DC3FF" d="M20.154 36.969l.014.611-6.22-3.78.485-.256z"/>
        <path fill="#4DA6FF" d="M28.735 42.045l-.485.255-.262-7.021.499.356zM23.332 52.942l-.365.13L22.542 45l.39.19z"/>
        <path fill="#4DC3FF" d="M35.198 45.698l.013.612-6.961-4.01.485-.255z"/>
    </g>
</svg>
