<svg xmlns="http://www.w3.org/2000/svg" width="64" height="64" viewBox="0 0 64 64">
    <g fill="none" fill-rule="evenodd">
        <path fill="#4DE1FF" d="M15.97 54.137l4.351 3.265.456-.22 3.121 2.445-.01.57 4.91 3.615-.09-27.556-15.47-26.8z"/>
        <path fill="#4DB5FF" d="M50.951 24.007l-22.243 12.25-15.47-26.8L37.353.085z"/>
        <path fill="#4DA6FF" d="M28.708 36.256l.09 27.556L48.69 50.269l2.26-26.262z"/>
        <path fill="#4DC3FF" d="M27.8 16.77l-3.135-1.649 3.19-1.538 3.25 1.537z"/>
        <path fill="#4DE1FF" d="M27.669 24.397l-2.962-5.176-.042-4.1 3.135 1.65z"/>
        <path fill="#4DA6FF" d="M30.97 22.974l-3.301 1.423.131-7.627 3.306-1.65z"/>
        <path fill="#4DC3FF" d="M36.357 44.816l-5.94 3.767.009-.57 5.48-3.32z"/>
        <path fill="#4DE1FF" d="M36.524 38.56l-.221 6.26-.45-.123.215-5.917zM48.993 31.866l-.466 5.634-.45-.122.46-5.292zM48.196 41.774l-.466 5.634-.45-.122.46-5.292z"/>
        <path fill="#4DC3FF" d="M48.478 37.436l-5.159 3.289.01-.57 4.699-2.84zM47.71 47.397l-5.015 3.336.01-.569 4.555-2.888z"/>
        <path fill="#4DA6FF" d="M20.777 57.182l-.456.22-.198-8.202.448.236z"/>
    </g>
</svg>
