<svg xmlns="http://www.w3.org/2000/svg" width="64" height="64" viewBox="0 0 64 64">
    <g fill="none" fill-rule="evenodd">
        <path fill="#4DE1FF" d="M7 23.421l2.351 25.97 1.984 1.693.474-.112 2.808 1.944-.007.476L28.342 63.76l-.09-27.127-16.376-23.969z"/>
        <path fill="#4DA6FF" d="M55.934 20.907L28.31 36.693l-.027 27.125 24.926-17.133z"/>
        <path fill="#4DB5FF" d="M41.464 0L11.876 12.664l16.434 24.03 27.624-15.787z"/>
        <path fill="#4DA6FF" d="M11.205 43.587l-.47-.244.6 7.741.474-.112z"/>
        <path fill="#4DC3FF" d="M35.842 47.032l-5.123 3.14-.009.594 5.602-3.608z"/>
        <path fill="#4DE1FF" d="M36.59 35.86l-.476.23-.272 10.942.47.126z"/>
        <path fill="#4DC3FF" d="M49.624 32.833l-4.767 3.026-.008.595 5.246-3.495z"/>
        <path fill="#4DE1FF" d="M50.523 27.73l-.476.232-.423 4.872.471.125z"/>
        <path fill="#4DA6FF" d="M31.229 18.118l-3.288 1.38-.014 8.754 3.18-1.49z"/>
        <path fill="#4DC3FF" d="M28.092 16.537l-3.18 1.381 3.029 1.58 3.288-1.38z"/>
        <path fill="#4DE1FF" d="M24.913 17.918l-.086 6.114 3.1 4.209.014-8.743z"/>
    </g>
</svg>
