<svg xmlns="http://www.w3.org/2000/svg" width="64" height="64" viewBox="0 0 64 64">
    <defs>
        <linearGradient id="a" x1="17.664%" x2="84.081%" y1="92.888%" y2="8.571%">
            <stop offset="0%" stop-color="#4DE1FF"/>
            <stop offset="100%" stop-color="#4DC3FF"/>
        </linearGradient>
        <linearGradient id="b" x1="14.654%" x2="26.52%" y1="58.931%" y2="37.352%">
            <stop offset="0%" stop-color="#4DE1FF"/>
            <stop offset="100%" stop-color="#4DC3FF"/>
        </linearGradient>
        <linearGradient id="c" x1="72.304%" x2="50%" y1="42.051%" y2="59.981%">
            <stop offset="0%" stop-color="#4DE1FF"/>
            <stop offset="100%" stop-color="#4DC3FF"/>
        </linearGradient>
    </defs>
    <g fill="none" fill-rule="evenodd">
        <path fill="#4DA6FF" d="M16.666 61.323c-1.081-13.514-3.649-24.324 12.567-33.243C48.209 17.644 63.827 9.162 63.827 9.162l-2.568 23.513-44.593 28.648z"/>
        <path fill="url(#a)" d="M25.18 47.74c-2.294 1.384-4.153 4.364-4.153 6.658 0 .92.3 1.589.806 1.971.09.068.523.382.658.46.761.435 1.895.318 3.162-.446 2.293-1.383 4.152-4.364 4.152-6.657 0-.864-.264-1.507-.716-1.9-.115-.099-.535-.391-.62-.451-.316-.218-.705-.332-1.149-.332-.625 0-1.357.225-2.14.698M52.72 33.395c-1.236.977-2.201 2.772-2.157 4.008.014.369.117.645.287.826.062.066.356.37.453.44.42.303 1.128.165 1.917-.46 1.236-.976 2.202-2.77 2.157-4.007-.013-.377-.12-.657-.298-.838-.059-.06-.382-.397-.508-.47a.89.89 0 0 0-.45-.112c-.391 0-.878.2-1.4.613M57.855 30.153c-1.236.976-2.201 2.77-2.157 4.006.014.37.117.646.287.827.062.066.357.37.453.44.42.302 1.128.164 1.917-.46 1.237-.977 2.202-2.77 2.157-4.007-.013-.377-.12-.657-.298-.838-.059-.06-.382-.397-.508-.47a.89.89 0 0 0-.45-.112c-.391 0-.878.2-1.4.614" transform="translate(0 2)"/>
        <path fill="url(#b)" d="M46.935 0S33.152 6.486 14.098 15.405C-4.955 24.324.45 35.134 1.531 48.647l15.135 10.676c-1.081-13.514-3.649-24.324 12.567-33.243C48.209 15.643 63.827 7.162 63.827 7.162L46.935 0z" transform="translate(0 2)"/>
        <path fill="url(#c)" d="M21.53 35.81c-2.567 4.054-1.756 7.837-1.756 7.837 9.324-3.378 8.243-9.324 8.243-12.702h-.009c-.188 0-3.441.07-6.477 4.865" transform="translate(0 2)"/>
        <path fill="#4DA6FF" d="M29.805 51.726c0 2.293-1.86 5.273-4.152 6.657-2.294 1.383-4.153.645-4.153-1.648s1.86-5.274 4.153-6.657c2.293-1.384 4.152-.646 4.152 1.648M55.377 36.2c.045 1.237-.92 3.031-2.157 4.008-1.236.977-2.274.767-2.319-.47-.045-1.235.921-3.03 2.157-4.006 1.236-.977 2.275-.767 2.32.469M60.512 32.958c.045 1.236-.92 3.03-2.157 4.007-1.236.977-2.274.767-2.319-.47-.045-1.235.921-3.03 2.157-4.007 1.236-.977 2.275-.767 2.32.47"/>
    </g>
</svg>
