<svg xmlns="http://www.w3.org/2000/svg" width="64" height="64" viewBox="0 0 64 64">
    <defs>
        <linearGradient id="a" x1="6.54%" x2="88.941%" y1="77.475%" y2="6.519%">
            <stop offset="0%" stop-color="#4DE1FF"/>
            <stop offset="100%" stop-color="#4DA6FF"/>
        </linearGradient>
        <linearGradient id="b" x1="0%" y1="67.342%" y2="15.549%">
            <stop offset="0%" stop-color="#4DE1FF"/>
            <stop offset="100%" stop-color="#4DA6FF"/>
        </linearGradient>
    </defs>
    <g fill="none" fill-rule="evenodd">
        <path fill="#4DE1FF" d="M0 45.65l19.846 12.56 9.578-21.284L9.87 25.22z"/>
        <path fill="#4DC3FF" d="M9.87 25.22l19.554 11.706 32.458-19.422-20.619-10.11z"/>
        <path fill="#4DA6FF" d="M29.424 36.926L19.846 58.21 63.08 29.477l.798-3.725v-5.587l-1.996-2.66z"/>
        <path fill="url(#a)" d="M35.018 31.2c-3.59 2.166-6.499 6.831-6.499 10.42 0 1.201.326 2.128.894 2.75.19.208.916.92 1.08 1.085 1.147 1.153 3.191 1.149 5.523-.258 3.59-2.165 6.5-6.83 6.5-10.42 0-1.2-.327-2.127-.895-2.75-.19-.207-1.227-1.273-1.624-1.506-.461-.271-1.011-.412-1.628-.412-.978 0-2.125.352-3.35 1.092" transform="translate(0 6)"/>
        <path fill="url(#b)" d="M56.685 22.254c-1.913 1.493-3.485 4.41-3.51 6.515-.008.67.143 1.178.414 1.51.162.198.88.922 1.085 1.077.619.463 1.633.286 2.787-.613 1.914-1.493 3.486-4.41 3.51-6.515.009-.778-.194-1.335-.551-1.655-.136-.121-.814-.872-1.087-1.022a1.341 1.341 0 0 0-.655-.158c-.56 0-1.247.28-1.993.86" transform="translate(0 6)"/>
        <path fill="#4DA6FF" d="M37.874 23.16l19.022-9.844v5.188L31.09 33.536z"/>
        <path fill="#4DC3FF" d="M22.31 15.046l15.563 8.114 19.023-9.844L41.598 6z"/>
        <path fill="#4DE1FF" d="M22.31 15.046l-7.184 9.179 15.963 9.311 6.784-10.376z"/>
        <path fill="#4DA6FF" d="M42.516 40.778c0 3.59-2.91 8.255-6.5 10.42-3.59 2.165-6.5 1.01-6.5-2.579 0-3.59 2.91-8.255 6.5-10.42 3.59-2.165 6.5-1.01 6.5 2.579M60.971 30.228c-.025 2.106-1.596 5.022-3.51 6.515-1.914 1.493-3.446.996-3.421-1.11.025-2.105 1.596-5.021 3.51-6.514 1.914-1.493 3.446-.996 3.421 1.11"/>
    </g>
</svg>
