<?xml version="1.0" encoding="UTF-8"?>
<svg width="257px" height="444px" viewBox="0 0 257 444" version="1.1" xmlns="http://www.w3.org/2000/svg" xmlns:xlink="http://www.w3.org/1999/xlink">
    <!-- Generator: Sketch 52.6 (67491) - http://www.bohemiancoding.com/sketch -->
    <title>Rectangle Copy 15</title>
    <desc>Created with Sketch.</desc>
    <defs>
        <rect id="path-1" x="0" y="0" width="257" height="444"></rect>
    </defs>
    <g id="Page-1" stroke="none" stroke-width="1" fill="none" fill-rule="evenodd">
        <g id="Assets-Copy" transform="translate(-1680.000000, -441.000000)">
            <g id="Group-18" transform="translate(1680.000000, 441.000000)">
                <mask id="mask-2" fill="white">
                    <use xlink:href="#path-1"></use>
                </mask>
                <g id="Rectangle-Copy-15" fill-rule="nonzero"></g>
                <path d="M4,331 L56,331 C58.209139,331 60,332.790861 60,335 L60,387 C60,389.209139 58.209139,391 56,391 L4,391 C1.790861,391 2.705415e-16,389.209139 0,387 L0,335 C-2.705415e-16,332.790861 1.790861,331 4,331 Z" id="Rectangle" fill="#C0C3C9" mask="url(#mask-2)"></path>
                <path d="M156.666667,86 L191.333333,86 C192.806093,86 194,87.1939073 194,88.6666667 L194,123.333333 C194,124.806093 192.806093,126 191.333333,126 L156.666667,126 C155.193907,126 154,124.806093 154,123.333333 L154,88.6666667 C154,87.1939073 155.193907,86 156.666667,86 Z" id="Rectangle-Copy" fill="#C0C3C9" mask="url(#mask-2)"></path>
                <g id="Group-13" mask="url(#mask-2)">
                    <g transform="translate(219.000000, 161.000000)">
                        <path d="M4.93333333,0 L69.0666667,0 C71.7912714,0 74,2.20872857 74,4.93333333 L74,69.0666667 C74,71.7912714 71.7912714,74 69.0666667,74 L4.93333333,74 C2.20872857,74 0,71.7912714 0,69.0666667 L0,4.93333333 C0,2.20872857 2.20872857,0 4.93333333,0 Z" id="Rectangle-Copy-18" fill="#FF7451"></path>
                        <g id="logo_junior-copy-4" stroke-width="1" fill="none" transform="translate(12.333333, 12.333333)">
                            <path d="M49.0091443,32.7863968 C49.4413964,33.5367611 49.4413964,34.4615058 49.0091443,35.21187 L46.640741,39.314566 C46.207432,40.0649303 45.4063389,40.5267742 44.539721,40.5267742 L38.6604584,40.5267742 C37.4313406,40.5267742 37.0202255,38.9034509 38.0918725,38.3010458 C41.9620612,36.120762 45.0818856,33.0284157 47.0412875,29.3791089 L49.0091443,32.7863968 Z M11.2411966,38.3007287 C12.3128436,38.9031338 11.9006717,40.5264571 10.6715539,40.5264571 L4.79334812,40.5264571 C3.92673023,40.5264571 3.1256371,40.0646132 2.69232815,39.3142489 L0.32498171,35.2126098 C-0.108327237,34.4622456 -0.108327237,33.5375009 0.32498171,32.7860797 L2.29072474,29.3798487 C4.25118351,33.0302123 7.37100793,36.1204449 11.2411966,38.3007287 Z M45.8062513,27.2402536 C42.5775713,34.5061049 34.3214505,39.6889026 24.666059,39.6889026 C15.0117243,39.6889026 6.75560354,34.5061049 3.52692346,27.2402536 L13.5680657,9.84659839 C14.0024315,9.09623411 14.8024677,8.63333333 15.6701425,8.63333333 L33.6630323,8.63333333 C34.5296502,8.63333333 35.3307433,9.09623411 35.7640523,9.84659839 L45.8062513,27.2402536 Z M33.4742508,25.6570857 L33.4742508,22.4387345 C33.4742508,21.4302388 32.6543094,20.6102973 31.6468911,20.6102973 C30.6383954,20.6102973 29.8184539,21.4302388 29.8184539,22.4387345 L29.8184539,25.6570857 C29.8184539,26.6655814 30.6383954,27.4844454 31.6468911,27.4844454 C32.6543094,27.4844454 33.4742508,26.6655814 33.4742508,25.6570857 Z M19.5794211,25.6570857 L19.5794211,22.4387345 C19.5794211,21.4302388 18.7584021,20.6102973 17.7509839,20.6102973 C16.7435656,20.6102973 15.9236241,21.4302388 15.9236241,22.4387345 L15.9236241,25.6570857 C15.9236241,26.6655814 16.7435656,27.4844454 17.7509839,27.4844454 C18.7584021,27.4844454 19.5794211,26.6655814 19.5794211,25.6570857 Z" id="logo_junior" fill="#FFFFFF"></path>
                        </g>
                    </g>
                </g>
                <g id="Group-17" mask="url(#mask-2)">
                    <g transform="translate(159.000000, 248.000000)">
                        <path d="M4,0 L56,0 C58.209139,0 60,1.790861 60,4 L60,56 C60,58.209139 58.209139,60 56,60 L4,60 C1.790861,60 0,58.209139 0,56 L0,4 C0,1.790861 1.790861,0 4,0 Z" id="Rectangle-Copy-21" fill="#F9D64F"></path>
                        <g id="logo_apps-copy-4" stroke-width="1" fill="none" transform="translate(10.000000, 10.000000)">
                            <path d="M28.9958691,9.58487273 C24.0352873,14.5437091 15.9677964,14.5419636 11.0098327,9.58487273 C10.7392873,9.31345455 10.4591418,9.0464 10.1702691,8.78196364 C12.6278691,5.9456 16.20256,4.29090909 20.0024145,4.29090909 C23.8031418,4.29090909 27.3778327,5.9456 29.83456,8.78196364 C29.5456873,9.0464 29.2655418,9.31345455 28.9958691,9.58487273 Z M27.1106909,23.4036364 L27.1106909,20.7976727 C27.1106909,19.9808 26.4465455,19.3157818 25.6305455,19.3157818 C24.8136727,19.3157818 24.1495273,19.9808 24.1495273,20.7976727 L24.1495273,23.4036364 C24.1495273,24.2205091 24.8136727,24.8846545 25.6305455,24.8846545 C26.4465455,24.8846545 27.1106909,24.2205091 27.1106909,23.4036364 Z M15.856,23.4036364 L15.856,20.7976727 C15.856,19.9808 15.1909818,19.3157818 14.3749818,19.3157818 C13.5589818,19.3157818 12.8948364,19.9808 12.8948364,20.7976727 L12.8948364,23.4036364 C12.8948364,24.2205091 13.5589818,24.8846545 14.3749818,24.8846545 C15.1909818,24.8846545 15.856,24.2205091 15.856,23.4036364 Z M34.8561455,7.19185455 C36.8189091,10.0727273 37.9691636,13.5496727 37.9691636,17.2980364 C37.9691636,27.2200727 29.9261091,35.264 20.0023273,35.264 C10.0794182,35.264 2.03636364,27.2200727 2.03636364,17.2980364 C2.03636364,13.5496727 3.18661818,10.0727273 5.14938182,7.19185455 C6.79709091,8.19025455 8.35316364,9.39723636 9.77570909,10.8189091 C15.4231273,16.4680727 24.5824,16.4680727 30.2298182,10.8189091 C31.6523636,9.39723636 33.2084364,8.19025455 34.8561455,7.19185455 Z" id="logo_apps" fill="#FFFFFF"></path>
                        </g>
                    </g>
                </g>
                <g id="Group-Copy-5" mask="url(#mask-2)">
                    <g transform="translate(37.000000, 131.000000)">
                        <path d="M6.8,0 L95.2,0 C98.9555363,-6.89880826e-16 102,3.0444637 102,6.8 L102,95.2 C102,98.9555363 98.9555363,102 95.2,102 L6.8,102 C3.0444637,102 4.59920551e-16,98.9555363 0,95.2 L0,6.8 C-4.59920551e-16,3.0444637 3.0444637,6.89880826e-16 6.8,0 Z" id="Rectangle" fill="#82AD3A"></path>
                        <g id="logo_events" stroke-width="1" fill="none" transform="translate(17.000000, 17.000000)">
                            <path d="M13.797472,51.9664902 C19.0836684,54.4515811 26.1635811,55.9500538 34.0491084,55.9500538 C41.9361193,55.9500538 49.0145484,54.4515811 54.3022284,51.9664902 C49.3023738,57.4960029 42.0755811,60.9751302 34.0491084,60.9751302 C26.0241193,60.9751302 18.7973265,57.4960029 13.797472,51.9664902 Z M46.1331782,38.0008727 L46.1331782,33.5692509 C46.1331782,32.1805673 45.0041309,31.05152 43.6169309,31.05152 C42.2282473,31.05152 41.0992,32.1805673 41.0992,33.5692509 L41.0992,38.0008727 C41.0992,39.3895564 42.2282473,40.51712 43.6169309,40.51712 C45.0041309,40.51712 46.1331782,39.3895564 46.1331782,38.0008727 Z M27.0002036,38.0008727 L27.0002036,33.5692509 C27.0002036,32.1805673 25.8696727,31.05152 24.4824727,31.05152 C23.0952727,31.05152 21.9662255,32.1805673 21.9662255,33.5692509 L21.9662255,38.0008727 C21.9662255,39.3895564 23.0952727,40.51712 24.4824727,40.51712 C25.8696727,40.51712 27.0002036,39.3895564 27.0002036,38.0008727 Z M42.6021236,22.6081455 C51.9742545,23.7668655 61.3612218,27.1554909 61.3612218,33.6656873 C61.3612218,37.6522182 60.4947782,41.4369745 58.9547636,44.8552727 C55.0602182,49.4219055 45.22816,52.7600873 34.04896,52.7600873 C22.8712436,52.7600873 13.0391855,49.4219055 9.14612364,44.8552727 C7.60462545,41.4369745 6.73818182,37.6522182 6.73818182,33.6656873 C6.73818182,27.1554909 16.1251491,23.7668655 25.49728,22.6081455 C25.4913455,22.6393018 25.4883782,22.6734255 25.48096,22.7030982 C26.8147491,22.5384145 28.1500218,22.4123055 29.4571055,22.3351564 C30.5001018,22.2743273 31.3428073,21.4642618 31.4481455,20.4257164 L31.9585164,17.60384 C32.0326982,16.8664727 31.7166836,16.1439418 31.12768,15.6958836 C29.9170327,14.78048 29.1959855,13.3383855 29.1959855,11.8384291 C29.1959855,9.16343273 31.3739636,6.98545455 34.04896,6.98545455 C36.72544,6.98545455 38.9049018,9.16343273 38.9049018,11.8384291 C38.9049018,13.3383855 38.1823709,14.78048 36.9732073,15.6958836 C36.38272,16.1439418 36.0681891,16.8664727 36.1423709,17.60384 L36.6512582,20.4257164 C36.7565964,21.4642618 37.5993018,22.2743273 38.6422982,22.3351564 C39.9493818,22.4123055 41.2831709,22.5384145 42.6184436,22.7030982 C42.6110255,22.6734255 42.6080582,22.6393018 42.6021236,22.6081455 Z" fill="#FFFFFF"></path>
                        </g>
                    </g>
                </g>
                <g id="Group-14" mask="url(#mask-2)">
                    <g transform="translate(65.000000, 250.000000)">
                        <path d="M4.93333333,0 L69.0666667,0 C71.7912714,0 74,2.20872857 74,4.93333333 L74,69.0666667 C74,71.7912714 71.7912714,74 69.0666667,74 L4.93333333,74 C2.20872857,74 0,71.7912714 0,69.0666667 L0,4.93333333 C0,2.20872857 2.20872857,0 4.93333333,0 Z" id="Rectangle-Copy-39" fill="#4DC3FF"></path>
                        <g id="logo_3d-copy-5" stroke-width="1" fill="none" transform="translate(12.333333, 12.333333)">
                            <path d="M2.97188049,18.8585008 C3.67474595,18.0706027 4.56274595,17.4549227 5.55084776,17.0642027 L6.76390958,30.1764645 C3.71134231,29.5737008 1.41007686,26.9538318 1.23462958,23.8216136 C1.13129867,21.9885663 1.74805504,20.226559 2.97188049,18.8585008 Z M9.52467467,33.3789692 C12.9571983,35.9471728 18.6253292,37.4669983 24.8660856,37.4669983 C30.8065365,37.4669983 36.3218238,36.0591147 39.7855619,33.6814274 L39.4045292,37.812511 C39.2839765,39.1084528 38.2119183,40.0847147 36.9105947,40.0847147 L12.426551,40.0847147 C11.1252274,40.0847147 10.0542456,39.1073765 9.93476922,37.8114347 L9.52467467,33.3789692 Z M46.3669874,18.8585008 C47.5897365,20.226559 48.2064929,21.9874899 48.1042383,23.8205372 C47.928791,26.9495263 45.6264492,29.5693954 42.5749583,30.1753881 L43.7869438,17.0642027 C44.7750456,17.4549227 45.6630456,18.0706027 46.3669874,18.8585008 Z M33.4358776,24.0574448 L33.4358776,20.8423467 C33.4358776,19.8348703 32.6167649,19.0157576 31.6103649,19.0157576 C30.6028885,19.0157576 29.7837758,19.8348703 29.7837758,20.8423467 L29.7837758,24.0574448 C29.7837758,25.0649212 30.6028885,25.8829576 31.6103649,25.8829576 C32.6167649,25.8829576 33.4358776,25.0649212 33.4358776,24.0574448 Z M19.5550921,24.0574448 L19.5550921,20.8423467 C19.5550921,19.8348703 18.734903,19.0157576 17.728503,19.0157576 C16.722103,19.0157576 15.9029903,19.8348703 15.9029903,20.8423467 L15.9029903,24.0574448 C15.9029903,25.0649212 16.722103,25.8829576 17.728503,25.8829576 C18.734903,25.8829576 19.5550921,25.0649212 19.5550921,24.0574448 Z M39.2665394,9.59757576 C39.9801685,9.59757576 40.6367503,9.88819394 41.1178849,10.4134594 C41.5968667,10.9408776 41.8250558,11.6211394 41.7593976,12.3293867 L40.0770412,30.5414594 C37.4969976,33.3636848 31.403703,35.2548558 24.8658703,35.2548558 C17.8533612,35.2548558 11.4360812,33.097823 9.21231395,30.0011248 L7.57947031,12.3293867 C7.51273576,11.6211394 7.74092486,10.9408776 8.22098304,10.4134594 C8.70104122,9.88819394 9.35762304,9.59757576 10.0712521,9.59757576 L39.2665394,9.59757576 Z" id="logo_3d" fill="#FFFFFF"></path>
                        </g>
                    </g>
                </g>
                <g id="Group-15" mask="url(#mask-2)">
                    <g transform="translate(219.000000, 321.000000)">
                        <path d="M3,0 L42,0 C43.6568542,0 45,1.34314575 45,3 L45,42 C45,43.6568542 43.6568542,45 42,45 L3,45 C1.34314575,45 0,43.6568542 0,42 L0,3 C0,1.34314575 1.34314575,0 3,0 Z" id="Rectangle-Copy-40" fill="#D255AA"></path>
                        <g id="logo_code-copy-4" stroke-width="1" fill="none" transform="translate(7.500000, 7.500000)">
                            <path d="M24.7603636,13.47192 C26.3352,14.8733018 27.6390545,16.3676291 28.5632727,17.8325018 C27.2862545,19.8602836 25.3481455,21.8782473 22.9472727,23.6808655 C20.5058182,25.5135927 17.7613091,26.9895927 15.0043636,27.9537382 C12.2474182,26.9895927 9.50225455,25.5135927 7.0608,23.6802109 C4.65927273,21.8782473 2.72116364,19.8596291 1.44545455,17.8325018 C2.36836364,16.3676291 3.67221818,14.8739564 5.24705455,13.47192 L5.24705455,16.9724291 C5.24705455,18.3279927 6.34014545,19.4472655 8.40850909,20.2091564 C10.1541818,20.8512655 12.4961455,21.2053745 15.0037091,21.2053745 C19.7026909,21.2053745 24.7603636,19.8805745 24.7603636,16.9724291 L24.7603636,13.47192 Z M9.67322182,11.8917818 L9.67322182,13.8469091 C9.67322182,14.4595636 10.1713309,14.9576727 10.7833309,14.9576727 C11.3959855,14.9576727 11.8940945,14.4595636 11.8940945,13.8469091 L11.8940945,11.8917818 C11.8940945,11.2791273 11.3959855,10.7816727 10.7833309,10.7816727 C10.1713309,10.7816727 9.67322182,11.2791273 9.67322182,11.8917818 Z M18.11424,11.8917818 L18.11424,13.8469091 C18.11424,14.4595636 18.6123491,14.9576727 19.2250036,14.9576727 C19.8370036,14.9576727 20.3357673,14.4595636 20.3357673,13.8469091 L20.3357673,11.8917818 C20.3357673,11.2791273 19.8370036,10.7816727 19.2250036,10.7816727 C18.6123491,10.7816727 18.11424,11.2791273 18.11424,11.8917818 Z M15.0044945,19.8589091 C10.1778764,19.8589091 6.39787636,18.5053091 6.39787636,16.7766545 L6.39787636,10.6514182 C6.39787636,5.89876364 10.2511855,2.04545455 15.0044945,2.04545455 C19.7578036,2.04545455 23.6111127,5.89876364 23.6111127,10.6514182 L23.6111127,16.7766545 C23.6111127,18.5053091 19.8304582,19.8589091 15.0044945,19.8589091 Z" id="logo_code" fill="#FFFFFF"></path>
                        </g>
                    </g>
                </g>
            </g>
        </g>
    </g>
</svg>