<svg xmlns="http://www.w3.org/2000/svg" width="614" height="120" viewBox="0 0 614 120">
    <g fill="none" fill-rule="evenodd">
        <path fill="#C0C5CB" d="M485.2 69.785v14.803h8.954c2.524 0 4.515-.654 5.975-1.964 1.46-1.308 2.19-3.112 2.19-5.41 0-4.952-2.693-7.429-8.08-7.429h-9.04zm0-4.35h8.191c2.374 0 4.271-.593 5.693-1.784 1.422-1.187 2.133-2.802 2.133-4.841 0-2.264-.66-3.913-1.977-4.939-1.319-1.03-3.324-1.544-6.018-1.544H485.2v13.108zm-5.425 23.588V47.891h13.447c4.463 0 7.82.924 10.071 2.769 2.25 1.846 3.376 4.577 3.376 8.193 0 1.92-.546 3.62-1.638 5.099-1.093 1.478-2.581 2.622-4.464 3.432 2.222.622 3.978 1.803 5.268 3.545 1.29 1.742 1.936 3.818 1.936 6.229 0 3.692-1.197 6.592-3.587 8.7-2.393 2.11-5.773 3.165-10.143 3.165h-14.266zm59.148-19.012h-17.826v14.577h20.708v4.435h-26.132V47.892h25.85v4.435h-20.426v13.25h17.826v4.434zm38.617-17.684h-13.22v36.696h-5.396V52.327H545.73v-4.435h31.809v4.435zm10.989 21.498h13.984l-7.006-19.238-6.978 19.238zm15.594 4.435H586.89l-3.871 10.763h-5.594l15.707-41.131h4.746l15.735 41.13h-5.565l-3.926-10.762zM449.27 119.03a.909.909 0 0 1-.909-.908V17.929a.91.91 0 0 1 1.818 0v100.193c0 .502-.407.909-.909.909z"/>
        <path fill="#313741" d="M408.53 78.85c2.883-2.865 4.324-6.328 4.324-10.393 0-4.064-1.441-7.527-4.323-10.392-2.882-2.864-6.368-4.298-10.457-4.298-4.09 0-7.575 1.434-10.457 4.298-2.882 2.865-4.324 6.328-4.324 10.392 0 4.065 1.442 7.528 4.324 10.393 2.882 2.865 6.368 4.298 10.457 4.298s7.575-1.433 10.457-4.298zm4.176-24.936c4.041 4.016 6.06 8.864 6.06 14.543v35.257c0 .806-.29 1.498-.869 2.073a2.857 2.857 0 0 1-2.087.864 2.85 2.85 0 0 1-2.086-.864 2.813 2.813 0 0 1-.87-2.073V82.853l-.148.147c-4.04 4.014-8.916 6.023-14.632 6.023-5.714 0-10.591-2.009-14.632-6.023-4.04-4.016-6.06-8.863-6.06-14.543s2.02-10.527 6.06-14.543c4.04-4.016 8.918-6.022 14.632-6.022 5.716 0 10.593 2.006 14.632 6.022zM355.105 78.85c2.882-2.865 4.323-6.328 4.323-10.393 0-4.064-1.441-7.527-4.323-10.392-2.882-2.864-6.368-4.298-10.456-4.298-4.09 0-7.575 1.434-10.457 4.298-2.882 2.865-4.324 6.328-4.324 10.392 0 4.065 1.442 7.528 4.324 10.393 2.882 2.865 6.368 4.298 10.457 4.298 4.088 0 7.574-1.433 10.456-4.298zm4.175-24.936c4.041 4.016 6.062 8.864 6.062 14.543 0 5.68-2.02 10.527-6.062 14.543-4.039 4.014-8.916 6.023-14.631 6.023-5.714 0-10.591-2.009-14.633-6.023-4.039-4.016-6.059-8.863-6.059-14.543s2.02-10.527 6.06-14.543c4.04-4.016 8.918-6.022 14.632-6.022 5.715 0 10.592 2.006 14.631 6.022zm-50.32 35.11h-5.91c-.813 0-1.511-.287-2.088-.865a2.808 2.808 0 0 1-.87-2.074V33.202c0-.809.29-1.499.87-2.075a2.855 2.855 0 0 1 2.088-.863c.812 0 1.506.289 2.085.863.58.576.87 1.266.87 2.075v49.946h2.956c.812 0 1.508.289 2.087.863.58.576.868 1.265.868 2.074 0 .808-.289 1.501-.868 2.074a2.848 2.848 0 0 1-2.087.864zM277.817 78.85c2.883-2.865 4.322-6.328 4.322-10.393 0-4.064-1.439-7.527-4.322-10.392-2.882-2.864-6.367-4.298-10.457-4.298-4.088 0-7.574 1.434-10.456 4.298-2.882 2.865-4.323 6.328-4.323 10.392 0 4.065 1.441 7.528 4.323 10.393 2.882 2.865 6.368 4.298 10.456 4.298 4.09 0 7.575-1.433 10.457-4.298zm4.176-24.936c4.039 4.016 6.059 8.864 6.059 14.543 0 5.68-2.02 10.527-6.06 14.543-4.04 4.014-8.917 6.023-14.632 6.023S256.767 87.014 252.728 83c-4.041-4.016-6.062-8.863-6.062-14.543V33.13c0-.809.29-1.5.87-2.074a2.854 2.854 0 0 1 2.089-.864c.812 0 1.505.289 2.085.864a2.82 2.82 0 0 1 .87 2.074v20.933c.049-.05.098-.1.148-.148 4.039-4.016 8.916-6.022 14.631-6.022s10.592 2.006 14.633 6.022zm-50.322 35.11c-9.853 0-14.78-4.898-14.78-14.692V53.767h-2.957a2.84 2.84 0 0 1-2.085-.864 2.805 2.805 0 0 1-.87-2.073c0-.809.29-1.499.87-2.074a2.85 2.85 0 0 1 2.085-.865h2.956V33.202c0-.809.29-1.499.87-2.075a2.857 2.857 0 0 1 2.087-.863c.812 0 1.509.289 2.086.863.58.576.87 1.266.87 2.075v14.69h5.948c.813 0 1.509.289 2.09.864a2.82 2.82 0 0 1 .866 2.074c0 .808-.289 1.5-.866 2.073a2.856 2.856 0 0 1-2.09.864h-5.948v20.565c0 5.878 2.955 8.816 8.868 8.816.812 0 1.508.289 2.086.863.579.576.87 1.265.87 2.074 0 .808-.291 1.501-.87 2.074a2.842 2.842 0 0 1-2.086.864zM193.026 42.75c-1.01 0-1.88-.36-2.604-1.083-.73-.722-1.09-1.585-1.09-2.59 0-1.002.36-1.865 1.09-2.588.724-.722 1.594-1.083 2.604-1.083s1.878.361 2.603 1.083c.728.723 1.091 1.586 1.091 2.588 0 1.005-.363 1.868-1.091 2.59-.725.723-1.593 1.083-2.603 1.083zm-28.189 36.1c2.883-2.865 4.324-6.328 4.324-10.393 0-4.064-1.441-7.527-4.324-10.392-2.882-2.864-6.368-4.298-10.457-4.298-4.088 0-7.574 1.434-10.456 4.298-2.883 2.865-4.323 6.328-4.323 10.392 0 4.065 1.44 7.528 4.323 10.393 2.882 2.865 6.368 4.298 10.456 4.298 4.09 0 7.575-1.433 10.457-4.298zm4.176-24.936c4.039 4.016 6.059 8.864 6.059 14.543 0 5.68-2.02 10.527-6.06 14.543-4.04 4.014-8.918 6.023-14.632 6.023-5.716 0-10.592-2.009-14.631-6.023-4.041-4.016-6.062-8.863-6.062-14.543V33.13c0-.809.289-1.5.87-2.074a2.856 2.856 0 0 1 2.089-.864c.811 0 1.505.289 2.085.864a2.82 2.82 0 0 1 .87 2.074v20.933c.048-.05.098-.1.148-.148 4.039-4.016 8.915-6.022 14.631-6.022 5.714 0 10.591 2.006 14.633 6.022zm24.013-6.022c.812 0 1.508.288 2.088.864.576.575.867 1.265.867 2.074v35.255c0 .809-.29 1.5-.867 2.074a2.853 2.853 0 0 1-2.088.864c-.812 0-1.51-.287-2.088-.864a2.816 2.816 0 0 1-.868-2.074V50.83c0-.809.29-1.5.868-2.074a2.852 2.852 0 0 1 2.088-.864z"/>
        <path fill="#D255AA" d="M0 66.285c0-.47.234-.876.642-1.111.202-.117.419-.176.643-.176.22 0 .443.06.641.175l19 10.97a2.628 2.628 0 0 1 1.313 2.273v21.94c0 .47-.234.875-.642 1.11a1.258 1.258 0 0 1-1.285.001l-19-10.97A2.633 2.633 0 0 1 0 88.225v-21.94z"/>
        <path fill="#00C4FF" d="M26.073 16.104l49.424 28.534a2.63 2.63 0 0 1 1.311 2.272v25.561c0 .935-.503 1.806-1.31 2.272l-22.14 12.782a2.675 2.675 0 0 1-2.623 0L1.312 58.991A2.629 2.629 0 0 1 0 56.719V31.157c0-.935.503-1.805 1.313-2.273l22.136-12.78a2.625 2.625 0 0 1 2.624 0"/>
        <path fill="#FFD73F" d="M50.734.35a2.63 2.63 0 0 1 2.624 0l19.43 11.219c.317.182.499.497.499.864a.975.975 0 0 1-.5.864L53.359 24.514a2.631 2.631 0 0 1-2.622.001L31.303 13.297a.976.976 0 0 1-.497-.865c0-.366.181-.681.5-.865L50.734.35z"/>
        <path fill="#FF7451" d="M104.092 56.719c0 .935-.503 1.806-1.312 2.273L82.658 70.61a.5.5 0 0 1-.537 0c-.267-.155-.267-.388-.267-.465V46.91a7.694 7.694 0 0 0-3.836-6.643L57.896 28.649a.494.494 0 0 1-.268-.464c0-.309.201-.425.265-.463l20.125-11.618a2.636 2.636 0 0 1 2.625 0l22.366 12.912a2.172 2.172 0 0 1 1.083 1.877v25.826z"/>
        <path fill="#6BAE28" d="M27.285 80.76c0-.077 0-.316.272-.472a.592.592 0 0 1 .283-.08c.085 0 .171.025.26.076l20.112 11.612a7.717 7.717 0 0 0 7.67-.001l47.39-27.361c.068-.039.272-.157.546.001.274.157.274.395.274.474v23.215c0 .935-.502 1.806-1.312 2.274L53.358 119.03a2.628 2.628 0 0 1-2.623 0l-22.138-12.78a2.632 2.632 0 0 1-1.312-2.274V80.761z"/>
    </g>
</svg>
