<svg xmlns="http://www.w3.org/2000/svg" width="100" height="40" viewBox="0 0 100 40">
    <g fill="none" fill-rule="evenodd">
        <path fill="#F25022" d="M0 9.35h10.13v10.13H0V9.35z"/>
        <path fill="#80BA01" d="M11.16 9.35h10.13v10.13H11.16V9.35z"/>
        <path fill="#02A4EF" d="M0 20.52h10.13v10.13H0V20.52z"/>
        <path fill="#FFB902" d="M11.16 20.52h10.13v10.13H11.16V20.52z"/>
        <path fill="#777" d="M91.34 13.21c.93-.61 2.14-.66 3.19-.37.01.63 0 1.25 0 1.88-.5-.22-1.09-.36-1.61-.15-.42.17-.67.59-.73 1.02-.08.54-.03 1.09-.04 1.64h3.2c.01-.69-.01-1.39.01-2.08.73-.21 1.44-.44 2.17-.66.01.91-.01 1.83.01 2.74.72-.01 1.44 0 2.17 0v1.78c-.73-.03-1.45-.01-2.18-.01v3.07c.01.57-.03 1.14.04 1.7.04.33.16.7.47.87.52.29 1.19.16 1.67-.16v1.8c-.63.27-1.33.35-2 .31-.64-.05-1.31-.28-1.73-.79-.48-.58-.61-1.36-.62-2.09-.01-1.57 0-3.14 0-4.71h-3.21v7.39h-2.19V19c-.51-.01-1.02 0-1.52-.01v-1.76c.51-.01 1.01-.01 1.52 0 .04-.78-.08-1.58.15-2.33.19-.68.63-1.3 1.23-1.69zm-46.9.13c.44-.07.92.08 1.21.43.34.38.41.98.15 1.42-.28.5-.91.73-1.46.61-.57-.1-1.04-.63-1.02-1.22-.01-.62.51-1.17 1.12-1.24zm-.91 3.89c.73 0 1.45-.01 2.18 0-.01 3.05 0 6.1 0 9.15h-2.17c-.01-3.04-.01-6.09-.01-9.15zm-15.88-3.62h3.19c.99 2.52 1.99 5.03 2.98 7.55.25.63.49 1.27.76 1.89 1.28-3.15 2.57-6.28 3.84-9.44 1.02-.02 2.04 0 3.07-.01v12.77c-.74 0-1.47.01-2.21 0 .01-3.14 0-6.28 0-9.43 0-.14 0-.28-.01-.42-.04.07-.08.13-.11.2-1.27 3.22-2.56 6.42-3.82 9.64-.52.02-1.05 0-1.57.01-1.31-3.22-2.6-6.44-3.9-9.66-.03-.07-.07-.13-.11-.19-.03 1.38 0 2.75-.01 4.13v5.72h-2.09c-.01-4.24-.01-8.5-.01-12.76zm22.82 3.61c1.06-.3 2.2-.29 3.25.01.22.06.43.15.62.26-.01.7 0 1.4-.01 2.09-.71-.54-1.6-.88-2.5-.77-.71.06-1.39.43-1.82 1.01-.55.71-.67 1.66-.58 2.54.07.68.35 1.37.89 1.82.55.49 1.33.66 2.05.61.71-.08 1.39-.38 1.97-.81.01.66 0 1.32 0 1.98-.9.53-1.97.67-2.99.62-1.05-.06-2.09-.45-2.85-1.19-.82-.8-1.27-1.93-1.33-3.06-.05-1.18.19-2.41.87-3.4.57-.83 1.46-1.43 2.43-1.71zm14.84-.15c1.05-.13 2.16-.07 3.14.37.85.38 1.53 1.09 1.91 1.93.41.9.5 1.91.44 2.89-.07.95-.37 1.91-.96 2.67-.61.8-1.53 1.35-2.51 1.55-.84.18-1.72.17-2.56 0-1.01-.22-1.94-.8-2.53-1.65-.69-.99-.89-2.24-.8-3.42.06-1 .37-2.01 1.01-2.8.68-.89 1.76-1.41 2.86-1.54zm.65 1.73c-.52.03-1.05.21-1.44.58-.54.48-.78 1.21-.85 1.91-.08.77-.02 1.59.33 2.29.27.54.78.97 1.37 1.13.59.15 1.22.14 1.79-.08.49-.19.87-.59 1.08-1.06.32-.7.35-1.49.31-2.24-.06-.69-.25-1.41-.76-1.91-.47-.48-1.17-.66-1.83-.62zm8.44-1.72c1.01-.18 2.07-.05 3.03.32v2.01c-.67-.46-1.49-.71-2.3-.68-.41.02-.86.19-1.05.58-.15.39-.05.89.32 1.12.62.42 1.36.59 2.01.96.51.28 1 .66 1.26 1.19.48 1.01.28 2.33-.57 3.08-.81.76-1.98.97-3.05.93-.76-.05-1.53-.2-2.23-.51v-2.12c.59.43 1.27.73 1.99.86.5.08 1.05.09 1.51-.14.45-.22.53-.86.26-1.24-.25-.3-.61-.46-.96-.63-.65-.29-1.32-.53-1.89-.97-.4-.31-.7-.75-.82-1.24-.18-.73-.12-1.55.3-2.19.49-.73 1.33-1.17 2.19-1.33zm8.37-.02c1.09-.14 2.25-.06 3.25.44.87.43 1.54 1.22 1.88 2.13.26.7.36 1.45.34 2.19 0 1.11-.3 2.24-.99 3.12-.65.85-1.64 1.4-2.69 1.57-1.03.17-2.11.12-3.09-.26a4.07 4.07 0 0 1-2.23-2.16c-.43-1-.48-2.12-.34-3.18.14-1.06.62-2.1 1.44-2.81.68-.59 1.55-.92 2.43-1.04zm.59 1.75c-.6.03-1.21.29-1.61.78-.43.5-.61 1.17-.66 1.82-.05.67 0 1.36.26 1.99.22.53.63.99 1.16 1.21.49.21 1.05.25 1.57.17.49-.07.96-.31 1.28-.69.32-.38.49-.86.57-1.34.1-.65.11-1.32-.02-1.96-.11-.55-.35-1.1-.79-1.46-.48-.42-1.14-.56-1.76-.52zm-24.11-1.44c.6-.36 1.37-.39 2.03-.17v2.19c-.43-.28-.97-.4-1.48-.35-.62.07-1.11.55-1.37 1.1-.28.58-.33 1.24-.31 1.87v4.38h-2.16v-9.15c.72-.01 1.44-.01 2.16 0v1.57c.23-.57.58-1.13 1.13-1.44z"/>
    </g>
</svg>
