<svg xmlns="http://www.w3.org/2000/svg" width="350" height="99" viewBox="0 0 350 99">
    <g fill="none" fill-rule="evenodd">
        <g fill="#313741">
            <path d="M191.886 35.016c-2.001 1.99-4.422 2.985-7.261 2.985-2.841 0-5.262-.996-7.264-2.985-2.002-1.99-3.002-4.395-3.002-7.218 0-2.823 1-5.228 3.002-7.218 2.002-1.99 4.423-2.985 7.264-2.985 2.839 0 5.26.996 7.261 2.985 2.002 1.99 3.003 4.395 3.003 7.218 0 2.823-1 5.228-3.003 7.218m2.9-17.32c-2.805-2.788-6.192-4.181-10.161-4.181-3.97 0-7.357 1.393-10.163 4.182-2.806 2.79-4.209 6.156-4.209 10.101 0 3.945 1.403 7.311 4.209 10.1 2.806 2.788 6.193 4.183 10.163 4.183 3.969 0 7.356-1.395 10.161-4.183l.103-.102v14.488c0 .56.2 1.04.604 1.44.401.4.884.6 1.449.6.564 0 1.047-.2 1.45-.6.402-.4.604-.88.604-1.44V27.798c0-3.945-1.403-7.311-4.21-10.101M154.781 35.016C152.78 37.006 150.36 38 147.52 38s-5.261-.996-7.263-2.985c-2.002-1.99-3.003-4.395-3.003-7.218 0-2.823 1.001-5.228 3.003-7.218 2.002-1.99 4.423-2.985 7.263-2.985s5.26.996 7.262 2.985c2.002 1.99 3.003 4.395 3.003 7.218 0 2.823-1.001 5.228-3.003 7.218m2.9-17.32c-2.805-2.788-6.192-4.181-10.162-4.181-3.97 0-7.356 1.393-10.163 4.182-2.805 2.79-4.208 6.156-4.208 10.101 0 3.945 1.403 7.311 4.208 10.1 2.807 2.788 6.194 4.183 10.163 4.183 3.97 0 7.357-1.395 10.162-4.183 2.806-2.789 4.21-6.155 4.21-10.1 0-3.945-1.404-7.311-4.21-10.101M122.732 42.081h-4.105c-.565 0-1.05-.199-1.45-.6a1.949 1.949 0 0 1-.604-1.44V3.31c0-.56.2-1.04.604-1.44.4-.4.885-.6 1.45-.6.564 0 1.046.2 1.448.6.402.4.604.88.604 1.44v34.69h2.053c.564 0 1.048.2 1.45.6.402.4.603.878.603 1.44 0 .562-.2 1.042-.603 1.44-.402.401-.886.6-1.45.6M101.102 35.016C99.1 37.006 96.679 38 93.839 38s-5.26-.996-7.262-2.985c-2.002-1.99-3.003-4.395-3.003-7.218 0-2.823 1-5.228 3.003-7.218 2.002-1.99 4.422-2.985 7.262-2.985s5.26.996 7.263 2.985c2.002 1.99 3.001 4.395 3.001 7.218 0 2.823-1 5.228-3.001 7.218m2.9-17.32c-2.807-2.788-6.194-4.181-10.163-4.181-3.97 0-7.357 1.393-10.162 4.182l-.103.103V3.26c0-.562-.202-1.04-.604-1.44-.403-.4-.884-.6-1.449-.6-.565 0-1.049.2-1.45.6-.403.4-.604.878-.604 1.44v24.537c0 3.945 1.403 7.311 4.21 10.1 2.805 2.788 6.192 4.183 10.162 4.183 3.969 0 7.356-1.395 10.163-4.183 2.805-2.789 4.208-6.155 4.208-10.1 0-3.945-1.403-7.311-4.208-10.101M69.052 42.081c-6.843 0-10.266-3.4-10.266-10.203V17.595h-2.053c-.564 0-1.047-.2-1.448-.6a1.949 1.949 0 0 1-.604-1.44c0-.562.2-1.041.604-1.44.4-.4.884-.6 1.448-.6h2.053V3.311c0-.562.202-1.041.604-1.44.4-.4.886-.6 1.45-.6s1.048.2 1.448.6c.403.399.605.878.605 1.44v10.202h4.131c.564 0 1.048.2 1.451.6.401.4.602.88.602 1.44 0 .562-.2 1.043-.602 1.441-.403.4-.887.6-1.451.6h-4.131v14.283c0 4.082 2.052 6.123 6.159 6.123.564 0 1.047.2 1.448.6.403.4.605.878.605 1.44 0 .562-.202 1.042-.605 1.44-.4.401-.884.6-1.448.6M42.212 9.944c-.701 0-1.305-.25-1.808-.753a2.44 2.44 0 0 1-.758-1.798c0-.697.252-1.295.758-1.798a2.473 2.473 0 0 1 1.808-.752c.702 0 1.305.251 1.809.752.505.503.758 1.101.758 1.798 0 .697-.253 1.297-.758 1.798a2.47 2.47 0 0 1-1.809.753M22.634 35.016C20.632 37.006 18.212 38 15.371 38c-2.84 0-5.26-.996-7.262-2.985-2.002-1.99-3.002-4.395-3.002-7.218 0-2.823 1-5.228 3.002-7.218 2.002-1.99 4.423-2.985 7.262-2.985 2.84 0 5.261.996 7.263 2.985 2.002 1.99 3.003 4.395 3.003 7.218 0 2.823-1 5.228-3.003 7.218m2.9-17.32c-2.806-2.788-6.194-4.181-10.163-4.181-3.97 0-7.356 1.393-10.161 4.182-.035.034-.07.068-.103.103V3.26c0-.562-.202-1.04-.605-1.44-.402-.4-.884-.6-1.448-.6s-1.05.2-1.45.6C1.2 2.22 1 2.699 1 3.26v24.537c0 3.945 1.403 7.311 4.21 10.1 2.805 2.788 6.192 4.183 10.161 4.183 3.97 0 7.357-1.395 10.163-4.183 2.805-2.789 4.208-6.155 4.208-10.1 0-3.945-1.403-7.311-4.208-10.101M42.212 13.514c.565 0 1.048.2 1.45.6.401.4.603.879.603 1.44v24.487c0 .561-.202 1.042-.603 1.44-.402.401-.885.6-1.45.6-.564 0-1.049-.199-1.45-.6a1.953 1.953 0 0 1-.602-1.44V15.555c0-.562.2-1.041.603-1.44.4-.4.885-.6 1.45-.6"/>
        </g>
        <path fill="#00C4FF" d="M69.779 98.449h-23.81c-1.688 0-3.057-1.39-3.057-3.104V71.178c0-1.714 1.369-3.104 3.058-3.104h23.809c1.689 0 3.058 1.39 3.058 3.104v24.167c0 1.715-1.37 3.104-3.058 3.104"/>
        <path fill="#6BAE28" d="M27.786 98.449H3.977c-1.689 0-3.058-1.39-3.058-3.104V71.178c0-1.714 1.37-3.104 3.058-3.104h23.81c1.688 0 3.057 1.39 3.057 3.104v24.167c0 1.715-1.369 3.104-3.058 3.104"/>
        <path fill="#D255AA" d="M111.772 98.449h-23.81c-1.688 0-3.058-1.39-3.058-3.104V71.178c0-1.714 1.37-3.104 3.059-3.104h23.809c1.689 0 3.057 1.39 3.057 3.104v24.167c0 1.715-1.368 3.104-3.057 3.104"/>
        <path fill="#FF7451" d="M153.765 98.449h-23.81c-1.688 0-3.058-1.39-3.058-3.104V71.178c0-1.714 1.37-3.104 3.059-3.104h23.809c1.689 0 3.057 1.39 3.057 3.104v24.167c0 1.715-1.368 3.104-3.057 3.104"/>
        <path fill="#FFD73F" d="M195.757 98.449H171.95c-1.69 0-3.058-1.39-3.058-3.104V71.178c0-1.714 1.368-3.104 3.058-3.104h23.808c1.69 0 3.058 1.39 3.058 3.104v24.167c0 1.715-1.369 3.104-3.058 3.104"/>
        <path fill="#C0C4CA" d="M214 98.012V.988c0-.546.437-.988.975-.988s.975.442.975.988v97.024a.982.982 0 0 1-.975.988.982.982 0 0 1-.975-.988z"/>
        <g fill="#C0C4CA">
            <path d="M235.067 50.346V63.58h7.947c2.239 0 4.007-.584 5.301-1.756 1.295-1.17 1.944-2.782 1.944-4.836 0-4.43-2.39-6.643-7.17-6.643h-8.022zm0-3.89h7.27c2.105 0 3.789-.531 5.05-1.595 1.262-1.063 1.893-2.506 1.893-4.328 0-2.026-.585-3.498-1.755-4.417-1.17-.92-2.95-1.38-5.338-1.38h-7.12v11.72zm-4.814 21.091V30.77h11.934c3.96 0 6.939.826 8.936 2.476 1.997 1.65 2.996 4.092 2.996 7.326 0 1.717-.486 3.237-1.454 4.558-.97 1.323-2.29 2.346-3.961 3.07 1.972.556 3.53 1.612 4.675 3.17 1.145 1.557 1.717 3.413 1.717 5.57 0 3.3-1.06 5.893-3.183 7.78-2.123 1.885-5.123 2.828-9 2.828h-12.66zM282.847 50.547h-15.818v13.034h18.375v3.965h-23.188V30.77h22.937v3.966H267.03v11.846h15.818zM317.116 34.736h-11.732v32.81h-4.788v-32.81h-11.707V30.77h28.227zM326.867 53.958h12.409l-6.217-17.202-6.192 17.202zm13.838 3.965h-15.292l-3.435 9.623h-4.963l13.938-36.776h4.212l13.963 36.776h-4.939l-3.484-9.623z"/>
        </g>
    </g>
</svg>
