<svg xmlns="http://www.w3.org/2000/svg" width="200" height="100" viewBox="0 0 200 100">
    <g fill="none" fill-rule="evenodd">
        <g fill="#313741">
            <path d="M192.815 35.37c-2.023 2.01-4.468 3.015-7.336 3.015-2.87 0-5.314-1.006-7.336-3.015-2.022-2.01-3.033-4.44-3.033-7.291 0-2.852 1.01-5.281 3.033-7.291 2.022-2.01 4.467-3.015 7.336-3.015 2.868 0 5.313 1.005 7.335 3.015 2.023 2.01 3.034 4.44 3.034 7.29 0 2.852-1.011 5.282-3.034 7.292m2.93-17.494c-2.834-2.817-6.255-4.225-10.265-4.225-4.01 0-7.43 1.408-10.265 4.225-2.834 2.818-4.251 6.218-4.251 10.203 0 3.984 1.417 7.385 4.25 10.202 2.835 2.816 6.257 4.225 10.266 4.225 4.01 0 7.431-1.409 10.265-4.225l.104-.103v14.634c0 .566.202 1.052.61 1.455a2 2 0 0 0 1.463.606c.57 0 1.058-.202 1.465-.606.406-.403.61-.889.61-1.455V28.08c0-3.985-1.418-7.385-4.252-10.203M155.334 35.37c-2.022 2.01-4.467 3.015-7.335 3.015-2.87 0-5.314-1.006-7.336-3.015-2.022-2.01-3.033-4.44-3.033-7.291 0-2.852 1.01-5.281 3.033-7.291 2.022-2.01 4.467-3.015 7.336-3.015 2.868 0 5.313 1.005 7.335 3.015 2.023 2.01 3.034 4.44 3.034 7.29 0 2.852-1.011 5.282-3.034 7.292m2.93-17.494c-2.834-2.817-6.255-4.225-10.265-4.225-4.01 0-7.43 1.408-10.265 4.225-2.834 2.818-4.251 6.218-4.251 10.203 0 3.984 1.417 7.385 4.25 10.202 2.835 2.816 6.257 4.225 10.266 4.225 4.01 0 7.431-1.409 10.265-4.225 2.834-2.817 4.252-6.218 4.252-10.202 0-3.985-1.418-7.385-4.252-10.203M122.962 42.506h-4.147c-.57 0-1.06-.2-1.465-.606a1.969 1.969 0 0 1-.61-1.455v-37.1c0-.567.203-1.051.61-1.455a2.002 2.002 0 0 1 1.465-.606c.57 0 1.057.203 1.463.606.406.404.61.888.61 1.455v35.04h2.074c.57 0 1.058.202 1.464.606.406.403.609.887.609 1.454 0 .568-.203 1.053-.609 1.455a2 2 0 0 1-1.464.606M101.113 35.37c-2.022 2.01-4.467 3.015-7.337 3.015-2.868 0-5.313-1.006-7.335-3.015-2.022-2.01-3.033-4.44-3.033-7.291 0-2.852 1.011-5.281 3.033-7.291 2.022-2.01 4.467-3.015 7.335-3.015 2.87 0 5.315 1.005 7.337 3.015 2.022 2.01 3.032 4.44 3.032 7.29 0 2.852-1.01 5.282-3.032 7.292m2.929-17.494c-2.835-2.817-6.256-4.225-10.266-4.225s-7.43 1.408-10.264 4.225l-.104.104V3.294c0-.567-.204-1.051-.61-1.455a2.001 2.001 0 0 0-1.463-.606 2 2 0 0 0-1.465.606 1.97 1.97 0 0 0-.61 1.455v24.785c0 3.984 1.417 7.385 4.252 10.202 2.833 2.816 6.255 4.225 10.264 4.225 4.01 0 7.431-1.409 10.266-4.225 2.833-2.817 4.25-6.218 4.25-10.202 0-3.985-1.417-7.385-4.25-10.203M68.74 42.506c-6.913 0-10.37-3.435-10.37-10.306V17.773h-2.074c-.57 0-1.058-.201-1.463-.606a1.969 1.969 0 0 1-.61-1.455c0-.567.202-1.051.61-1.455a2 2 0 0 1 1.463-.606h2.074V3.345c0-.567.203-1.051.61-1.455a2.002 2.002 0 0 1 1.464-.606 2 2 0 0 1 1.464.606c.406.404.61.888.61 1.455v10.306h4.173c.57 0 1.058.202 1.466.606.405.404.607.888.607 1.455 0 .567-.202 1.052-.607 1.455a2.004 2.004 0 0 1-1.466.606h-4.173V32.2c0 4.124 2.073 6.184 6.221 6.184a2 2 0 0 1 1.463.607c.407.403.61.887.61 1.454 0 .568-.203 1.053-.61 1.455a1.994 1.994 0 0 1-1.463.606M41.629 10.044a2.492 2.492 0 0 1-1.827-.76 2.464 2.464 0 0 1-.765-1.817c0-.703.253-1.308.765-1.815a2.498 2.498 0 0 1 1.827-.76 2.5 2.5 0 0 1 1.826.76c.51.507.766 1.112.766 1.815a2.47 2.47 0 0 1-.766 1.817 2.494 2.494 0 0 1-1.826.76M21.853 35.37c-2.022 2.01-4.467 3.015-7.337 3.015-2.868 0-5.313-1.006-7.335-3.015-2.022-2.01-3.033-4.44-3.033-7.291 0-2.852 1.011-5.281 3.033-7.291 2.022-2.01 4.467-3.015 7.335-3.015 2.87 0 5.315 1.005 7.337 3.015 2.022 2.01 3.033 4.44 3.033 7.29 0 2.852-1.011 5.282-3.033 7.292m2.929-17.494c-2.835-2.817-6.256-4.225-10.266-4.225s-7.43 1.408-10.264 4.225l-.104.104V3.294c0-.567-.204-1.051-.61-1.455a2.001 2.001 0 0 0-1.463-.606c-.57 0-1.06.202-1.465.606A1.97 1.97 0 0 0 0 3.294v24.785c0 3.984 1.417 7.385 4.252 10.202 2.833 2.816 6.255 4.225 10.264 4.225 4.01 0 7.431-1.409 10.266-4.225 2.833-2.817 4.25-6.218 4.25-10.202 0-3.985-1.417-7.385-4.25-10.203M41.629 13.65c.57 0 1.058.203 1.464.607.405.403.61.887.61 1.455v24.733c0 .567-.205 1.053-.61 1.455a2 2 0 0 1-1.464.606c-.57 0-1.06-.2-1.465-.606a1.973 1.973 0 0 1-.609-1.455V15.712c0-.568.203-1.052.61-1.455a2.002 2.002 0 0 1 1.464-.606"/>
        </g>
        <path fill="#00C4FF" d="M69.271 99.526h-23.95a3.072 3.072 0 0 1-3.077-3.067V72.572a3.071 3.071 0 0 1 3.076-3.068h23.951a3.072 3.072 0 0 1 3.077 3.068V96.46a3.072 3.072 0 0 1-3.077 3.067"/>
        <path fill="#6BAE28" d="M27.028 99.526H3.076A3.072 3.072 0 0 1 0 96.46V72.572a3.071 3.071 0 0 1 3.076-3.068h23.952a3.072 3.072 0 0 1 3.076 3.068V96.46a3.072 3.072 0 0 1-3.076 3.067"/>
        <path fill="#D255AA" d="M111.515 99.526H87.564a3.072 3.072 0 0 1-3.076-3.067V72.572a3.071 3.071 0 0 1 3.076-3.068h23.951a3.072 3.072 0 0 1 3.076 3.068V96.46a3.072 3.072 0 0 1-3.076 3.067"/>
        <path fill="#FF7451" d="M153.759 99.526h-23.951a3.072 3.072 0 0 1-3.076-3.067V72.572a3.071 3.071 0 0 1 3.076-3.068h23.95a3.072 3.072 0 0 1 3.077 3.068V96.46a3.072 3.072 0 0 1-3.076 3.067"/>
        <path fill="#FFD73F" d="M196.003 99.526H172.05a3.072 3.072 0 0 1-3.076-3.067V72.572a3.071 3.071 0 0 1 3.076-3.068h23.952a3.072 3.072 0 0 1 3.076 3.068V96.46a3.072 3.072 0 0 1-3.076 3.067"/>
    </g>
</svg>
