<svg xmlns="http://www.w3.org/2000/svg" width="696" height="92" viewBox="0 0 696 92">
    <g fill="none" fill-rule="evenodd">
        <g fill="#313741">
            <path d="M322.964 58.244c-3.387 3.366-7.482 5.05-12.286 5.05-4.806 0-8.902-1.684-12.289-5.05-3.387-3.366-5.08-7.436-5.08-12.212s1.693-8.846 5.08-12.212c3.387-3.366 7.483-5.05 12.289-5.05 4.804 0 8.9 1.684 12.286 5.05 3.387 3.366 5.08 7.436 5.08 12.212s-1.693 8.846-5.08 12.212m4.906-29.303c-4.745-4.718-10.476-7.075-17.192-7.075-6.716 0-12.447 2.357-17.195 7.075-4.746 4.72-7.12 10.417-7.12 17.09 0 6.675 2.374 12.371 7.12 17.089 4.748 4.718 10.479 7.078 17.195 7.078 6.716 0 12.447-2.36 17.192-7.078.059-.056.117-.114.175-.172v24.513c0 .947.339 1.76 1.022 2.436a3.349 3.349 0 0 0 2.45 1.016c.955 0 1.773-.34 2.454-1.016.68-.676 1.022-1.489 1.022-2.436V46.03c0-6.673-2.374-12.37-7.123-17.09M260.185 58.244c-3.387 3.366-7.482 5.05-12.286 5.05-4.807 0-8.902-1.684-12.289-5.05-3.387-3.366-5.08-7.436-5.08-12.212s1.693-8.846 5.08-12.212c3.387-3.366 7.482-5.05 12.289-5.05 4.804 0 8.9 1.684 12.286 5.05 3.387 3.366 5.08 7.436 5.08 12.212s-1.693 8.846-5.08 12.212m4.906-29.303c-4.746-4.718-10.476-7.075-17.192-7.075-6.716 0-12.447 2.357-17.195 7.075-4.746 4.72-7.12 10.417-7.12 17.09 0 6.675 2.374 12.371 7.12 17.089 4.748 4.718 10.479 7.078 17.195 7.078 6.716 0 12.446-2.36 17.192-7.078 4.749-4.718 7.123-10.414 7.123-17.088 0-6.674-2.374-12.37-7.123-17.09M205.96 70.198h-6.945a3.345 3.345 0 0 1-2.453-1.015 3.298 3.298 0 0 1-1.022-2.437V4.603c0-.95.339-1.76 1.022-2.437a3.354 3.354 0 0 1 2.453-1.015c.955 0 1.77.34 2.45 1.015.681.676 1.023 1.487 1.023 2.437v58.691h3.473c.954 0 1.772.34 2.453 1.015.68.676 1.02 1.487 1.02 2.437 0 .95-.34 1.763-1.02 2.437a3.349 3.349 0 0 1-2.453 1.015M169.364 58.244c-3.387 3.366-7.482 5.05-12.289 5.05-4.804 0-8.9-1.684-12.286-5.05-3.387-3.366-5.08-7.436-5.08-12.212s1.693-8.846 5.08-12.212c3.387-3.366 7.482-5.05 12.286-5.05 4.807 0 8.902 1.684 12.289 5.05 3.387 3.366 5.078 7.436 5.078 12.212s-1.691 8.846-5.078 12.212m4.906-29.303c-4.748-4.718-10.479-7.075-17.195-7.075-6.716 0-12.446 2.357-17.192 7.075l-.175.175V4.517c0-.95-.341-1.76-1.022-2.437-.68-.676-1.496-1.015-2.45-1.015a3.35 3.35 0 0 0-2.454 1.015c-.683.676-1.022 1.487-1.022 2.437v41.515c0 6.674 2.374 12.37 7.123 17.088 4.746 4.718 10.476 7.078 17.192 7.078 6.716 0 12.447-2.36 17.195-7.078 4.746-4.718 7.12-10.414 7.12-17.088 0-6.674-2.374-12.37-7.12-17.09M115.138 70.198c-11.578 0-17.369-5.754-17.369-17.262V28.769h-3.473a3.34 3.34 0 0 1-2.45-1.015 3.298 3.298 0 0 1-1.023-2.437c0-.95.34-1.76 1.022-2.437a3.349 3.349 0 0 1 2.451-1.015h3.473V4.603c0-.95.342-1.76 1.022-2.437a3.354 3.354 0 0 1 2.453-1.015c.955 0 1.773.34 2.451 1.015.68.676 1.022 1.487 1.022 2.437v17.262h6.99c.955 0 1.773.34 2.456 1.015.678.676 1.017 1.487 1.017 2.437 0 .95-.34 1.764-1.017 2.437a3.357 3.357 0 0 1-2.456 1.015h-6.99v24.167c0 6.906 3.473 10.358 10.421 10.358.955 0 1.773.34 2.451 1.015.68.676 1.022 1.487 1.022 2.437 0 .95-.341 1.763-1.022 2.437a3.34 3.34 0 0 1-2.45 1.015M69.728 15.824c-1.187 0-2.209-.423-3.06-1.273-.856-.848-1.282-1.863-1.282-3.043 0-1.178.426-2.19 1.283-3.041.85-.848 1.872-1.273 3.06-1.273 1.186 0 2.206.425 3.059 1.273.854.85 1.282 1.863 1.282 3.04 0 1.18-.428 2.196-1.282 3.044-.853.85-1.873 1.273-3.06 1.273M36.604 58.244c-3.387 3.366-7.483 5.05-12.29 5.05-4.803 0-8.899-1.684-12.286-5.05-3.387-3.366-5.08-7.436-5.08-12.212s1.693-8.846 5.08-12.212c3.387-3.366 7.483-5.05 12.287-5.05 4.806 0 8.902 1.684 12.289 5.05 3.387 3.366 5.08 7.436 5.08 12.212s-1.693 8.846-5.08 12.212m4.906-29.303c-4.748-4.718-10.48-7.075-17.195-7.075-6.716 0-12.447 2.357-17.193 7.075l-.174.175V4.517c0-.95-.342-1.76-1.022-2.437-.68-.676-1.496-1.015-2.451-1.015-.955 0-1.775.34-2.453 1.015C.339 2.756 0 3.567 0 4.517v41.515c0 6.674 2.374 12.37 7.122 17.088 4.746 4.718 10.477 7.078 17.193 7.078 6.716 0 12.447-2.36 17.195-7.078 4.746-4.718 7.12-10.414 7.12-17.088 0-6.674-2.374-12.37-7.12-17.09M69.728 21.865c.955 0 1.773.34 2.453 1.015.679.676 1.02 1.487 1.02 2.437v41.429c0 .95-.341 1.763-1.02 2.437a3.349 3.349 0 0 1-2.453 1.015 3.345 3.345 0 0 1-2.453-1.015 3.304 3.304 0 0 1-1.02-2.437V25.317c0-.95.34-1.76 1.02-2.437a3.354 3.354 0 0 1 2.453-1.015"/>
        </g>
        <path fill="#00C4FF" d="M476.723 71.314h-40.288c-2.858 0-5.175-2.3-5.175-5.134V26.198c0-2.834 2.317-5.134 5.175-5.134h40.288c2.858 0 5.173 2.3 5.173 5.134V66.18c0 2.834-2.315 5.134-5.173 5.134"/>
        <path fill="#6BAE28" d="M405.665 71.314h-40.287c-2.858 0-5.174-2.3-5.174-5.134V26.198c0-2.834 2.316-5.134 5.174-5.134h40.287c2.858 0 5.174 2.3 5.174 5.134V66.18c0 2.834-2.316 5.134-5.174 5.134"/>
        <path fill="#D255AA" d="M547.78 71.314h-40.288c-2.858 0-5.175-2.3-5.175-5.134V26.198c0-2.834 2.317-5.134 5.175-5.134h40.288c2.858 0 5.173 2.3 5.173 5.134V66.18c0 2.834-2.315 5.134-5.173 5.134"/>
        <path fill="#FF7451" d="M618.836 71.314H578.55c-2.858 0-5.174-2.3-5.174-5.134V26.198c0-2.834 2.316-5.134 5.174-5.134h40.287c2.858 0 5.174 2.3 5.174 5.134V66.18c0 2.834-2.316 5.134-5.174 5.134"/>
        <path fill="#FFD73F" d="M689.893 71.314h-40.287c-2.858 0-5.175-2.3-5.175-5.134V26.198c0-2.834 2.317-5.134 5.175-5.134h40.287c2.858 0 5.174 2.3 5.174 5.134V66.18c0 2.834-2.316 5.134-5.174 5.134"/>
    </g>
</svg>
