<svg xmlns="http://www.w3.org/2000/svg" width="71" height="40" viewBox="0 0 71 40">
    <g fill="none" fill-rule="evenodd">
        <path fill="#4285F4" d="M17.462 17.581h-8.28v2.46h5.88c-.29 3.45-3.16 4.92-5.87 4.92-3.46 0-6.49-2.73-6.49-6.55 0-3.72 2.88-6.59 6.49-6.59 2.79 0 4.43 1.78 4.43 1.78l1.72-1.78s-2.21-2.46-6.24-2.46c-5.13 0-9.1 4.33-9.1 9.01 0 4.58 3.73 9.05 9.23 9.05 4.84 0 8.37-3.31 8.37-8.21.01-1.03-.14-1.63-.14-1.63z"/>
        <path fill="#EA4335" fill-rule="nonzero" d="M24.252 15.801c-3.4 0-5.84 2.66-5.84 5.76 0 3.15 2.36 5.85 5.88 5.85 3.18 0 5.78-2.43 5.78-5.78.01-3.85-3.03-5.83-5.82-5.83zm.03 2.28c1.67 0 3.26 1.35 3.26 3.53 0 2.13-1.58 3.52-3.26 3.52-1.85 0-3.31-1.48-3.31-3.54-.01-2.01 1.44-3.51 3.31-3.51z"/>
        <path fill="#FBBC05" fill-rule="nonzero" d="M36.942 15.801c-3.4 0-5.84 2.66-5.84 5.76 0 3.15 2.36 5.85 5.88 5.85 3.18 0 5.78-2.43 5.78-5.78.01-3.85-3.02-5.83-5.82-5.83zm.04 2.28c1.67 0 3.26 1.35 3.26 3.53 0 2.13-1.58 3.52-3.26 3.52-1.85 0-3.31-1.48-3.31-3.54-.02-2.01 1.43-3.51 3.31-3.51z"/>
        <path fill="#4285F4" fill-rule="nonzero" d="M49.392 15.811c-3.12 0-5.57 2.73-5.57 5.8 0 3.49 2.84 5.81 5.52 5.81 1.65 0 2.53-.66 3.18-1.41v1.14c0 2-1.22 3.2-3.05 3.2-1.77 0-2.66-1.32-2.97-2.07l-2.23.93c.79 1.67 2.38 3.42 5.22 3.42 3.1 0 5.47-1.95 5.47-6.05v-10.43h-2.44v.98c-.75-.8-1.77-1.32-3.13-1.32zm.23 2.27c1.53 0 3.1 1.31 3.1 3.54 0 2.27-1.57 3.52-3.13 3.52-1.66 0-3.21-1.35-3.21-3.5-.01-2.23 1.6-3.56 3.24-3.56z"/>
        <path fill="#EA4335" fill-rule="nonzero" d="M65.772 15.791c-2.935 0-5.4 2.34-5.4 5.8 0 3.66 2.745 5.82 5.69 5.82 2.455 0 3.952-1.34 4.85-2.55l-2.006-1.34c-.519.81-1.387 1.6-2.835 1.6-1.627 0-2.375-.89-2.844-1.76l7.765-3.23-.4-.95c-.758-1.84-2.504-3.39-4.82-3.39zm.1 2.23c1.058 0 1.816.56 2.146 1.24l-5.19 2.17c-.23-1.67 1.367-3.41 3.044-3.41z"/>
        <path fill="#34A853" d="M56.652 27.071h2.56V9.961h-2.56z"/>
    </g>
</svg>
