<?xml version="1.0" encoding="utf-8"?>
<!-- Generator: Adobe Illustrator 24.0.0, SVG Export Plug-In . SVG Version: 6.00 Build 0)  -->
<svg version="1.1"
	 id="svg2" xmlns:cc="http://creativecommons.org/ns#" xmlns:dc="http://purl.org/dc/elements/1.1/" xmlns:inkscape="http://www.inkscape.org/namespaces/inkscape" xmlns:rdf="http://www.w3.org/1999/02/22-rdf-syntax-ns#" xmlns:sodipodi="http://sodipodi.sourceforge.net/DTD/sodipodi-0.dtd" xmlns:svg="http://www.w3.org/2000/svg"
	 xmlns="http://www.w3.org/2000/svg" xmlns:xlink="http://www.w3.org/1999/xlink" x="0px" y="0px" viewBox="0 0 71 40"
	 style="enable-background:new 0 0 71 40;" xml:space="preserve">
<style type="text/css">
	.st0{fill:#4285F4;}
	.st1{fill:#EA4335;}
	.st2{fill:#FBBC05;}
	.st3{fill:#34A853;}
</style>
<sodipodi:namedview  bordercolor="#666666" borderopacity="1.0" fit-margin-bottom="0.5" fit-margin-left="0.5" fit-margin-right="0.5" fit-margin-top="0.5" id="base" inkscape:current-layer="layer1" inkscape:cx="698.4839" inkscape:cy="-270.28462" inkscape:document-units="px" inkscape:pageopacity="0.0" inkscape:pageshadow="2" inkscape:window-height="1025" inkscape:window-maximized="0" inkscape:window-width="1040" inkscape:window-x="874" inkscape:window-y="-9" inkscape:zoom="0.22966747" pagecolor="#ffffff" showgrid="false">
	
		<inkscape:grid  empspacing="5" enabled="true" id="grid2996" originx="-39.48794px" originy="-160.23718px" snapvisiblegridlinesonly="true" type="xygrid" visible="true">
		</inkscape:grid>
</sodipodi:namedview>
<g id="layer1" transform="translate(-39.48794,-563.5689)" inkscape:groupmode="layer" inkscape:label="Layer 1">
	<path id="path2998" inkscape:connector-curvature="0" sodipodi:nodetypes="cccccccccccccc" class="st0" d="M56.94,580.15h-8.28
		v2.46h5.88c-0.29,3.45-3.16,4.92-5.87,4.92c-3.46,0-6.49-2.73-6.49-6.55c0-3.72,2.88-6.59,6.49-6.59c2.79,0,4.43,1.78,4.43,1.78
		l1.72-1.78c0,0-2.21-2.46-6.24-2.46c-5.13,0-9.1,4.33-9.1,9.01c0,4.58,3.73,9.05,9.23,9.05c4.84,0,8.37-3.31,8.37-8.21
		C57.09,580.75,56.94,580.15,56.94,580.15L56.94,580.15z"/>
	<path id="path3000" inkscape:connector-curvature="0" class="st1" d="M63.73,578.37c-3.4,0-5.84,2.66-5.84,5.76
		c0,3.15,2.36,5.85,5.88,5.85c3.18,0,5.78-2.43,5.78-5.78C69.56,580.35,66.52,578.37,63.73,578.37L63.73,578.37z M63.76,580.65
		c1.67,0,3.26,1.35,3.26,3.53c0,2.13-1.58,3.52-3.26,3.52c-1.85,0-3.31-1.48-3.31-3.54C60.44,582.15,61.89,580.65,63.76,580.65
		L63.76,580.65z"/>
	<path id="path3005" inkscape:connector-curvature="0" class="st2" d="M76.42,578.37c-3.4,0-5.84,2.66-5.84,5.76
		c0,3.15,2.36,5.85,5.88,5.85c3.18,0,5.78-2.43,5.78-5.78C82.25,580.35,79.22,578.37,76.42,578.37L76.42,578.37z M76.46,580.65
		c1.67,0,3.26,1.35,3.26,3.53c0,2.13-1.58,3.52-3.26,3.52c-1.85,0-3.31-1.48-3.31-3.54C73.13,582.15,74.58,580.65,76.46,580.65
		L76.46,580.65z"/>
	<path id="path3007" inkscape:connector-curvature="0" class="st0" d="M88.87,578.38c-3.12,0-5.57,2.73-5.57,5.8
		c0,3.49,2.84,5.81,5.52,5.81c1.65,0,2.53-0.66,3.18-1.41v1.14c0,2-1.22,3.2-3.05,3.2c-1.77,0-2.66-1.32-2.97-2.07l-2.23,0.93
		c0.79,1.67,2.38,3.42,5.22,3.42c3.1,0,5.47-1.95,5.47-6.05v-10.43H92v0.98C91.25,578.9,90.23,578.38,88.87,578.38z M89.1,580.65
		c1.53,0,3.1,1.31,3.1,3.54c0,2.27-1.57,3.52-3.13,3.52c-1.66,0-3.21-1.35-3.21-3.5C85.85,581.98,87.46,580.65,89.1,580.65
		L89.1,580.65z"/>
	<path id="path3011" inkscape:connector-curvature="0" class="st1" d="M105.26,578.36c-2.94,0-5.41,2.34-5.41,5.8
		c0,3.66,2.75,5.82,5.7,5.82c2.46,0,3.96-1.34,4.86-2.55l-2.01-1.34c-0.52,0.81-1.39,1.6-2.84,1.6c-1.63,0-2.38-0.89-2.85-1.76
		l7.78-3.23l-0.4-0.95C109.33,579.91,107.58,578.36,105.26,578.36L105.26,578.36z M105.36,580.59c1.06,0,1.82,0.56,2.15,1.24
		l-5.2,2.17C102.08,582.33,103.68,580.59,105.36,580.59z"/>
	<path id="path3015" inkscape:connector-curvature="0" class="st3" d="M96.13,589.64h2.56v-17.11h-2.56V589.64z"/>
</g>
</svg>
