<?xml version="1.0" encoding="utf-8"?>
<!-- Generator: Adobe Illustrator 24.0.0, SVG Export Plug-In . SVG Version: 6.00 Build 0)  -->
<svg version="1.1" id="Capa_1" xmlns="http://www.w3.org/2000/svg" xmlns:xlink="http://www.w3.org/1999/xlink" x="0px" y="0px"
	 viewBox="0 0 100 40" style="enable-background:new 0 0 100 40;" xml:space="preserve">
<style type="text/css">
	.st0{fill:#F25022;}
	.st1{fill:#FEFEFE;}
	.st2{fill:#80BA01;}
	.st3{fill:#777777;}
	.st4{fill:#02A4EF;}
	.st5{fill:#FFB902;}
</style>
<g>
	<path class="st0" d="M0,9.35h10.13c0,3.38,0,6.75,0,10.13c-3.38,0-6.75,0-10.13,0V9.35L0,9.35z"/>
	<path class="st1" d="M10.13,9.35h1.03c0,3.38,0,6.75,0,10.13c3.38,0,6.75,0,10.13,0c0-3.38,0-6.75,0-10.13h78.42v7.88
		c-0.72,0-1.45-0.01-2.17,0c-0.02-0.91,0-1.83-0.01-2.74c-0.72,0.22-1.44,0.45-2.17,0.66c-0.02,0.69,0,1.39-0.01,2.08
		c-1.07,0-2.14,0-3.2,0c0.01-0.55-0.04-1.1,0.04-1.64c0.07-0.43,0.31-0.86,0.73-1.02c0.53-0.22,1.11-0.07,1.61,0.15
		c0-0.63,0-1.25,0-1.88c-1.05-0.29-2.26-0.23-3.19,0.37c-0.6,0.39-1.04,1-1.24,1.69c-0.23,0.76-0.11,1.56-0.15,2.33
		c-0.51,0-1.01-0.01-1.52,0c0.01,0.59,0,1.17,0,1.76c0.51,0.01,1.02,0,1.52,0.01c0,2.46,0,4.92,0,7.39c0.73,0,1.46,0,2.19,0
		c0-2.46,0-4.93,0-7.39c1.07,0,2.14,0,3.21,0c0,1.57,0,3.14,0,4.71c0.01,0.73,0.13,1.51,0.62,2.09c0.42,0.51,1.08,0.74,1.73,0.79
		c0.68,0.05,1.38-0.03,2-0.31v4.36H21.29c0-3.38,0-6.75,0-10.13c-3.38,0-6.75,0-10.13,0c0,3.38,0,6.75,0,10.13h-1.03
		c0-3.38,0-6.75,0-10.13c-3.38,0-6.75,0-10.13,0v-1.03c3.38,0,6.75,0,10.13,0C10.13,16.11,10.13,12.73,10.13,9.35L10.13,9.35z"/>
	<path class="st2" d="M11.16,9.35h10.13c0,3.38,0,6.75,0,10.13c-3.38,0-6.75,0-10.13,0C11.16,16.11,11.16,12.73,11.16,9.35
		L11.16,9.35z"/>
	<path class="st3" d="M91.34,13.21c0.93-0.61,2.14-0.66,3.19-0.37c0.01,0.63,0,1.25,0,1.88c-0.5-0.22-1.09-0.36-1.61-0.15
		c-0.42,0.17-0.67,0.59-0.73,1.02c-0.08,0.54-0.03,1.09-0.04,1.64c1.07,0,2.14,0,3.2,0c0.01-0.69-0.01-1.39,0.01-2.08
		c0.73-0.21,1.44-0.44,2.17-0.66c0.01,0.91-0.01,1.83,0.01,2.74c0.72-0.01,1.44,0,2.17,0v1.78C98.98,18.98,98.26,19,97.53,19
		c0,1.02,0,2.05,0,3.07c0.01,0.57-0.03,1.14,0.04,1.7c0.04,0.33,0.16,0.7,0.47,0.87c0.52,0.29,1.19,0.16,1.67-0.16v1.8
		c-0.63,0.27-1.33,0.35-2,0.31c-0.64-0.05-1.31-0.28-1.73-0.79c-0.48-0.58-0.61-1.36-0.62-2.09c-0.01-1.57,0-3.14,0-4.71
		c-1.07,0-2.14,0-3.21,0c0,2.46,0,4.93,0,7.39c-0.73,0-1.46,0-2.19,0c0-2.46,0-4.92,0-7.39c-0.51-0.01-1.02,0-1.52-0.01
		c0-0.58,0-1.17,0-1.76c0.51-0.01,1.01-0.01,1.52,0c0.04-0.78-0.08-1.58,0.15-2.33C90.3,14.22,90.74,13.6,91.34,13.21L91.34,13.21z"
		/>
	<path class="st3" d="M44.44,13.34c0.44-0.07,0.92,0.08,1.21,0.43c0.34,0.38,0.41,0.98,0.15,1.42c-0.28,0.5-0.91,0.73-1.46,0.61
		c-0.57-0.1-1.04-0.63-1.02-1.22C43.31,13.96,43.83,13.41,44.44,13.34L44.44,13.34z"/>
	<path class="st3" d="M27.65,13.61c1.06,0,2.12,0,3.19,0c0.99,2.52,1.99,5.03,2.98,7.55c0.25,0.63,0.49,1.27,0.76,1.89
		c1.28-3.15,2.57-6.28,3.84-9.44c1.02-0.02,2.04,0,3.07-0.01c0,4.26,0,8.52,0,12.77c-0.74,0-1.47,0.01-2.21,0
		c0.01-3.14,0-6.28,0-9.43c0-0.14,0-0.28-0.01-0.42c-0.04,0.07-0.08,0.13-0.11,0.2c-1.27,3.22-2.56,6.42-3.82,9.64
		c-0.52,0.02-1.05,0-1.57,0.01c-1.31-3.22-2.6-6.44-3.9-9.66c-0.03-0.07-0.07-0.13-0.11-0.19c-0.03,1.38,0,2.75-0.01,4.13
		c0,1.91,0,3.81,0,5.72c-0.7,0-1.39,0-2.09,0C27.65,22.13,27.65,17.87,27.65,13.61L27.65,13.61z"/>
	<path class="st3" d="M50.47,17.22c1.06-0.3,2.2-0.29,3.25,0.01c0.22,0.06,0.43,0.15,0.62,0.26c-0.01,0.7,0,1.4-0.01,2.09
		c-0.71-0.54-1.6-0.88-2.5-0.77c-0.71,0.06-1.39,0.43-1.82,1.01c-0.55,0.71-0.67,1.66-0.58,2.54c0.07,0.68,0.35,1.37,0.89,1.82
		c0.55,0.49,1.33,0.66,2.05,0.61c0.71-0.08,1.39-0.38,1.97-0.81c0.01,0.66,0,1.32,0,1.98c-0.9,0.53-1.97,0.67-2.99,0.62
		c-1.05-0.06-2.09-0.45-2.85-1.19c-0.82-0.8-1.27-1.93-1.33-3.06c-0.05-1.18,0.19-2.41,0.87-3.4C48.61,18.1,49.5,17.5,50.47,17.22
		L50.47,17.22z"/>
	<path class="st3" d="M65.31,17.07c1.05-0.13,2.16-0.07,3.14,0.37c0.85,0.38,1.53,1.09,1.91,1.93c0.41,0.9,0.5,1.91,0.44,2.89
		c-0.07,0.95-0.37,1.91-0.96,2.67c-0.61,0.8-1.53,1.35-2.51,1.55c-0.84,0.18-1.72,0.17-2.56,0c-1.01-0.22-1.94-0.8-2.53-1.65
		c-0.69-0.99-0.89-2.24-0.8-3.42c0.06-1,0.37-2.01,1.01-2.8C63.13,17.72,64.21,17.2,65.31,17.07L65.31,17.07z"/>
	<path class="st3" d="M74.4,17.08c1.01-0.18,2.07-0.05,3.03,0.32c0,0.67,0,1.34,0,2.01c-0.67-0.46-1.49-0.71-2.3-0.68
		c-0.41,0.02-0.86,0.19-1.05,0.58c-0.15,0.39-0.05,0.89,0.32,1.12c0.62,0.42,1.36,0.59,2.01,0.96c0.51,0.28,1,0.66,1.26,1.19
		c0.48,1.01,0.28,2.33-0.57,3.08c-0.81,0.76-1.98,0.97-3.05,0.93c-0.76-0.05-1.53-0.2-2.23-0.51c0-0.71,0-1.41,0-2.12
		c0.59,0.43,1.27,0.73,1.99,0.86c0.5,0.08,1.05,0.09,1.51-0.14c0.45-0.22,0.53-0.86,0.26-1.24c-0.25-0.3-0.61-0.46-0.96-0.63
		c-0.65-0.29-1.32-0.53-1.89-0.97c-0.4-0.31-0.7-0.75-0.82-1.24c-0.18-0.73-0.12-1.55,0.3-2.19C72.7,17.68,73.54,17.24,74.4,17.08
		L74.4,17.08z"/>
	<path class="st3" d="M82.77,17.06c1.09-0.14,2.25-0.06,3.25,0.44c0.87,0.43,1.54,1.22,1.88,2.13c0.26,0.7,0.36,1.45,0.34,2.19
		c0,1.11-0.3,2.24-0.99,3.12c-0.65,0.85-1.64,1.4-2.69,1.57c-1.03,0.17-2.11,0.12-3.09-0.26c-0.99-0.39-1.81-1.18-2.23-2.16
		c-0.43-1-0.48-2.12-0.34-3.18c0.14-1.06,0.62-2.1,1.44-2.81C81.02,17.51,81.89,17.18,82.77,17.06L82.77,17.06z"/>
	<path class="st3" d="M59.25,17.37c0.6-0.36,1.37-0.39,2.03-0.17c0,0.73,0,1.46,0,2.19c-0.43-0.28-0.97-0.4-1.48-0.35
		c-0.62,0.07-1.11,0.55-1.37,1.1c-0.28,0.58-0.33,1.24-0.31,1.87c0,1.46,0,2.92,0,4.38c-0.72,0-1.44,0-2.16,0c0-3.05,0-6.1,0-9.15
		c0.72-0.01,1.44-0.01,2.16,0c0,0.52,0,1.05,0,1.57C58.35,18.24,58.7,17.68,59.25,17.37L59.25,17.37z"/>
	<path class="st3" d="M43.53,17.23c0.73,0,1.45-0.01,2.18,0c-0.01,3.05,0,6.1,0,9.15c-0.73,0-1.45,0-2.17,0
		C43.53,23.34,43.53,20.29,43.53,17.23L43.53,17.23z"/>
	<path class="st1" d="M65.96,18.8c0.66-0.04,1.36,0.14,1.83,0.62c0.51,0.5,0.7,1.22,0.76,1.91c0.04,0.75,0.01,1.54-0.31,2.24
		c-0.21,0.47-0.59,0.87-1.08,1.06c-0.57,0.22-1.2,0.23-1.79,0.08c-0.59-0.16-1.1-0.59-1.37-1.13c-0.35-0.7-0.41-1.52-0.33-2.29
		c0.07-0.7,0.31-1.43,0.85-1.91C64.91,19.01,65.44,18.83,65.96,18.8L65.96,18.8z"/>
	<path class="st1" d="M83.36,18.81c0.62-0.04,1.28,0.1,1.76,0.52c0.44,0.36,0.68,0.91,0.79,1.46c0.13,0.64,0.12,1.31,0.02,1.96
		c-0.08,0.48-0.25,0.96-0.57,1.34c-0.32,0.38-0.79,0.62-1.28,0.69c-0.52,0.08-1.08,0.04-1.57-0.17c-0.53-0.22-0.94-0.68-1.16-1.21
		c-0.26-0.63-0.31-1.32-0.26-1.99c0.05-0.65,0.23-1.32,0.66-1.82C82.15,19.1,82.76,18.84,83.36,18.81L83.36,18.81z"/>
	<path class="st1" d="M97.53,19c0.73,0,1.45-0.02,2.18,0.01v5.48c-0.48,0.32-1.14,0.45-1.67,0.16c-0.31-0.17-0.43-0.54-0.47-0.87
		c-0.07-0.56-0.02-1.13-0.04-1.7C97.53,21.05,97.54,20.02,97.53,19L97.53,19z"/>
	<path class="st4" d="M0,20.52c3.38,0,6.75,0,10.13,0c0,3.38,0,6.75,0,10.13H0V20.52L0,20.52z"/>
	<path class="st5" d="M11.16,20.52c3.38,0,6.75,0,10.13,0c0,3.38,0,6.75,0,10.13H11.16C11.16,27.27,11.16,23.89,11.16,20.52
		L11.16,20.52z"/>
</g>
</svg>
