<svg xmlns="http://www.w3.org/2000/svg" width="64" height="64" viewBox="0 0 64 64">
    <defs>
        <linearGradient id="a" x1="13.977%" x2="91.091%" y1="85.787%" y2="18.715%">
            <stop offset="0%" stop-color="#4DE1FF"/>
            <stop offset="100%" stop-color="#4DC3FF"/>
        </linearGradient>
    </defs>
    <g fill="none" fill-rule="evenodd">
        <path fill="#4DA6FF" d="M31.288 26.103l-7.14 14.62.233 18.807 38.942-24.612.498-9.054-17.818 11.772 1.023-20.991z"/>
        <path fill="url(#a)" d="M36.92 34.409c-4.056 3-7.274 8.822-7.187 13.005.036 1.731.632 2.91 1.606 3.485.314.186 1.464.691 1.7.806 1.38.67 3.43.23 5.698-1.448 4.056-3 7.274-8.823 7.187-13.005-.037-1.773-.661-2.967-1.678-3.526-.294-.162-1.397-.654-1.639-.77a3.178 3.178 0 0 0-1.383-.294c-1.222 0-2.71.567-4.304 1.747M57.434 26.901c-2.394 1.863-4.294 5.37-4.243 7.837.021 1 .36 1.674.914 1.998.188.11 1.02.729 1.292.871.815.427 2.063.138 3.45-.94 2.395-1.863 4.295-5.372 4.243-7.838-.02-.968-.338-1.631-.862-1.966-.2-.128-1.096-.784-1.388-.926a1.776 1.776 0 0 0-.778-.166c-.738 0-1.648.368-2.628 1.13" transform="translate(0 4)"/>
        <path fill="#4DC3FF" d="M21.819 4.257l-15.987 6.71 25.463 15.138 15.662-9.392z"/>
        <path fill="#4DD2FF" d="M24.148 40.722L0 25.257l5.9-14.22 25.388 15.066z"/>
        <path fill="#4DE1FF" d="M24.381 59.53L2.164 43.12 0 25.257l24.148 15.465z"/>
        <path fill="#4DA6FF" d="M45.924 41.252c.087 4.182-3.13 10.005-7.186 13.005s-7.415 2.041-7.501-2.142c-.087-4.183 3.13-10.006 7.186-13.006s7.414-2.04 7.501 2.143M63.09 32.828c.051 2.466-1.848 5.975-4.243 7.837-2.394 1.862-4.377 1.373-4.428-1.093-.052-2.465 1.848-5.974 4.243-7.837 2.394-1.862 4.377-1.373 4.428 1.093"/>
        <path fill="#4DC3FF" d="M29.702 34.05l-3.08 6.421-.016 1.648 8.42-5z"/>
        <path fill="#4DE1FF" d="M32.645 27.763l-2.943 6.287 5.324 3.07.105-10.98z"/>
        <path fill="#4DC3FF" d="M46.002 37.636l1.017-20.305 16.802 8.533z"/>
    </g>
</svg>
