<svg xmlns="http://www.w3.org/2000/svg" width="64" height="64" viewBox="0 0 64 64">
    <defs>
        <linearGradient id="a" x1="0%" y1="55.415%" y2="55.415%">
            <stop offset="0%" stop-color="#4DE1FF"/>
            <stop offset="100%" stop-color="#4DA6FF"/>
        </linearGradient>
        <linearGradient id="b" x1="17.396%" y1="61.926%" y2="61.926%">
            <stop offset="0%" stop-color="#4DE1FF"/>
            <stop offset="100%" stop-color="#4DA6FF"/>
        </linearGradient>
        <linearGradient id="c" x1="54.313%" x2="63.063%" y1="69.662%" y2="50%">
            <stop offset="0%" stop-color="#4DA6FF"/>
            <stop offset="100%" stop-color="#4DC3FF"/>
        </linearGradient>
    </defs>
    <g fill="none" fill-rule="evenodd">
        <path fill="url(#a)" d="M12.462 60.274v1.138c0 1.344 1.63 2.433 3.64 2.433 2.01 0 3.64-1.09 3.64-2.433v-1.138c0-1.345-1.63-2.434-3.64-2.434-2.01 0-3.64 1.09-3.64 2.434" transform="translate(19)"/>
        <path fill="#4DC3FF" d="M38.742 60.274c0 1.344-1.63 2.433-3.64 2.433-2.01 0-3.64-1.09-3.64-2.433 0-1.344 1.63-2.434 3.64-2.434 2.01 0 3.64 1.09 3.64 2.434"/>
        <path fill="url(#b)" d="M16.102 0c-.681 0-1.234.226-1.234.506l.237 59.42c0 .28.446.506.997.506.55 0 .997-.227.997-.506l.237-59.42c0-.28-.553-.506-1.234-.506z" transform="translate(19)"/>
        <path fill="url(#c)" d="M2.017 6.815c-.187.562.002 1.136.421 1.282l12.615 9.16c.987.759.617-1.77 0-2.276L3.113 6.062a.614.614 0 0 0-.202-.034c-.364 0-.737.314-.894.787" transform="translate(19)"/>
        <path fill="#4DD2FF" d="M19.74 9.545L19 11.062l4.195 2.15.987-1.644-.36-2.562c-.227.223-.517.32-.78.23l-.957-.702-2.345 1.011z"/>
        <path fill="#4DE1FF" d="M29.735 18.016l-4.319-2.15L19 11.062l4.195 2.15z"/>
        <path fill="#4DA6FF" d="M31.709 16.751l-1.974 1.265-6.54-4.805.987-1.643-.37-2.528 9.007 6.574z"/>
        <path fill="#4DE1FF" d="M22.536 7.344c-.187.562-.678.9-1.097.753-.42-.146-.609-.72-.422-1.282.186-.562.677-.899 1.097-.753.42.146.608.72.422 1.282"/>
        <path fill="#4DC3FF" d="M36.336.506c0 .279-.552.505-1.234.505-.682 0-1.234-.226-1.234-.505 0-.28.552-.506 1.234-.506.682 0 1.234.226 1.234.506"/>
    </g>
</svg>
