<svg xmlns="http://www.w3.org/2000/svg" xmlns:xlink="http://www.w3.org/1999/xlink" width="100" height="100" viewBox="0 0 100 100">
    <defs>
        <path id="a" d="M99.876.122H0V99.01h99.876z"/>
    </defs>
    <g fill="none" fill-rule="evenodd">
        <g transform="translate(0 .18)">
            <mask id="b" fill="#fff">
                <use xlink:href="#a"/>
            </mask>
            <path fill="#C0C4CA" d="M4.994.122h89.889c2.758 0 4.993 2.214 4.993 4.945v88.999c0 2.73-2.235 4.944-4.993 4.944H4.993C2.237 99.01 0 96.796 0 94.066v-89C0 2.337 2.236.123 4.994.123" mask="url(#b)"/>
        </g>
        <path fill="#FFF" d="M12.7 22.612V33.64a2.05 2.05 0 0 0 2.06 2.04h70.356a2.05 2.05 0 0 0 2.06-2.04V22.61a2.05 2.05 0 0 0-2.06-2.039H14.76a2.05 2.05 0 0 0-2.06 2.04"/>
        <path fill="#E7E7E7" d="M85.117 20.572H14.76a2.05 2.05 0 0 0-2.06 2.04V33.64a2.05 2.05 0 0 0 2.06 2.04h70.357a2.05 2.05 0 0 0 2.06-2.04V22.61a2.05 2.05 0 0 0-2.06-2.039m0 1.546c.275 0 .499.221.499.494V33.64a.498.498 0 0 1-.5.494H14.76a.498.498 0 0 1-.5-.494V22.61c0-.272.225-.493.5-.493h70.357"/>
        <path fill="#FFF" d="M12.7 43.13v11.029a2.05 2.05 0 0 0 2.06 2.04h70.356a2.05 2.05 0 0 0 2.06-2.04v-11.03a2.05 2.05 0 0 0-2.06-2.04H14.76a2.05 2.05 0 0 0-2.06 2.04"/>
        <path fill="#E7E7E7" d="M85.117 41.09H14.76a2.05 2.05 0 0 0-2.06 2.04v11.029a2.05 2.05 0 0 0 2.06 2.04h70.357a2.05 2.05 0 0 0 2.06-2.04v-11.03a2.05 2.05 0 0 0-2.06-2.04m0 1.546c.275 0 .499.222.499.495v11.029a.497.497 0 0 1-.5.494H14.76a.497.497 0 0 1-.5-.494v-11.03c0-.272.225-.494.5-.494h70.357"/>
        <path fill="#6BAE28" d="M12.7 63.647v11.03a2.05 2.05 0 0 0 2.06 2.039h70.356a2.05 2.05 0 0 0 2.06-2.04V63.647a2.05 2.05 0 0 0-2.06-2.04H14.76a2.05 2.05 0 0 0-2.06 2.04"/>
        <path fill="#323843" d="M65.461 84.047V71.376l9.614 9.139-5.707-.34zM19.765 48.362l-1.744 1.286c.044.707.335 1.06.872 1.06.581 0 .872-.421.872-1.264v-1.082zm-1.752.59l1.744-1.287c-.02-.367-.101-.64-.245-.817-.143-.176-.352-.265-.627-.265-.292 0-.51.103-.655.308-.144.205-.217.52-.217.945v1.115zm2.65.337c0 .348-.04.655-.122.92a1.85 1.85 0 0 1-.35.668c-.152.179-.338.314-.557.406a1.91 1.91 0 0 1-.741.137 1.9 1.9 0 0 1-.738-.137 1.47 1.47 0 0 1-.56-.406 1.872 1.872 0 0 1-.355-.667 3.07 3.07 0 0 1-.125-.921v-1.29c0-.348.041-.655.123-.92.083-.266.2-.489.354-.668.154-.18.34-.314.558-.406.218-.09.463-.137.735-.137.275 0 .522.046.741.137.22.092.406.227.56.406.154.18.271.402.354.667.082.266.123.573.123.921v1.29zM24.365 48.362l-1.744 1.286c.044.707.335 1.06.872 1.06.581 0 .872-.421.872-1.264v-1.082zm-1.752.59l1.744-1.287c-.02-.367-.101-.64-.245-.817-.143-.176-.352-.265-.627-.265-.292 0-.51.103-.655.308-.144.205-.217.52-.217.945v1.115zm2.65.337c0 .348-.04.655-.122.92a1.85 1.85 0 0 1-.35.668c-.152.179-.338.314-.557.406a1.91 1.91 0 0 1-.741.137 1.9 1.9 0 0 1-.738-.137 1.47 1.47 0 0 1-.559-.406 1.872 1.872 0 0 1-.356-.667 3.07 3.07 0 0 1-.125-.921v-1.29c0-.348.041-.655.123-.92.083-.266.2-.489.354-.668.154-.18.34-.314.558-.406.218-.09.463-.137.735-.137.275 0 .522.046.741.137.22.092.407.227.56.406.154.18.271.402.354.667.082.266.123.573.123.921v1.29zM28.965 48.362l-1.744 1.286c.045.707.335 1.06.872 1.06.581 0 .872-.421.872-1.264v-1.082zm-1.752.59l1.744-1.287c-.02-.367-.101-.64-.245-.817-.143-.176-.352-.265-.627-.265-.292 0-.51.103-.654.308-.145.205-.218.52-.218.945v1.115zm2.65.337c0 .348-.04.655-.122.92a1.85 1.85 0 0 1-.35.668c-.152.179-.338.314-.557.406a1.91 1.91 0 0 1-.741.137 1.9 1.9 0 0 1-.737-.137 1.47 1.47 0 0 1-.56-.406 1.872 1.872 0 0 1-.356-.667 3.07 3.07 0 0 1-.125-.921v-1.29c0-.348.041-.655.123-.92.083-.266.2-.489.354-.668.154-.18.34-.314.558-.406.218-.09.463-.137.735-.137.275 0 .522.046.742.137.22.092.406.227.559.406.154.18.271.402.354.667.082.266.123.573.123.921v1.29zM33.565 48.362l-1.744 1.286c.045.707.335 1.06.872 1.06.581 0 .872-.421.872-1.264v-1.082zm-1.752.59l1.744-1.287c-.02-.367-.101-.64-.245-.817-.143-.176-.352-.265-.627-.265-.292 0-.51.103-.654.308-.145.205-.218.52-.218.945v1.115zm2.65.337c0 .348-.04.655-.121.92a1.85 1.85 0 0 1-.35.668c-.153.179-.339.314-.558.406a1.91 1.91 0 0 1-.741.137 1.9 1.9 0 0 1-.737-.137 1.47 1.47 0 0 1-.56-.406 1.872 1.872 0 0 1-.356-.667 3.07 3.07 0 0 1-.125-.921v-1.29c0-.348.041-.655.123-.92.083-.266.2-.489.354-.668.154-.18.34-.314.558-.406.218-.09.463-.137.735-.137.275 0 .522.046.742.137.22.092.406.227.559.406.154.18.271.402.354.667.082.266.123.573.123.921v1.29zM38.165 48.362l-1.744 1.286c.045.707.336 1.06.872 1.06.581 0 .872-.421.872-1.264v-1.082zm-1.752.59l1.744-1.287c-.02-.367-.101-.64-.245-.817-.143-.176-.352-.265-.626-.265-.293 0-.51.103-.655.308-.145.205-.218.52-.218.945v1.115zm2.65.337c0 .348-.04.655-.121.92a1.85 1.85 0 0 1-.35.668c-.153.179-.338.314-.558.406a1.91 1.91 0 0 1-.74.137 1.9 1.9 0 0 1-.738-.137 1.47 1.47 0 0 1-.56-.406 1.872 1.872 0 0 1-.356-.667 3.07 3.07 0 0 1-.125-.921v-1.29c0-.348.041-.655.124-.92.082-.266.2-.489.353-.668.154-.18.34-.314.558-.406.218-.09.464-.137.736-.137.274 0 .52.046.74.137.22.092.407.227.56.406.154.18.271.402.354.667.082.266.123.573.123.921v1.29zM18.054 28.11h.827c.15 0 .287-.021.412-.063a.973.973 0 0 0 .324-.18.793.793 0 0 0 .211-.285.944.944 0 0 0 .075-.388c0-.15-.023-.284-.071-.4a.779.779 0 0 0-.204-.292.876.876 0 0 0-.324-.18 1.457 1.457 0 0 0-.426-.065h-.824v1.853zm.913.719h-.913v2.105h-.898v-5.396h1.722c.279.002.537.037.773.105.236.069.44.17.612.304.172.135.305.304.4.506.095.203.142.44.142.712 0 .183-.024.349-.073.498a1.463 1.463 0 0 1-.518.725c-.122.091-.257.169-.404.233l1.153 2.268v.045h-.959l-1.037-2.105zM22.493 28.97c0 .182.02.354.058.515.04.16.1.302.18.424.081.122.184.219.309.289.125.07.273.106.445.106a.868.868 0 0 0 .436-.106.896.896 0 0 0 .307-.29c.081-.121.141-.263.18-.423.038-.16.058-.333.058-.516v-.077c0-.178-.02-.347-.058-.508a1.297 1.297 0 0 0-.18-.422.922.922 0 0 0-.307-.29.871.871 0 0 0-.443-.107.873.873 0 0 0-.442.107.9.9 0 0 0-.307.29 1.32 1.32 0 0 0-.178.422c-.038.16-.058.33-.058.508v.077zm-.894-.078c0-.29.043-.559.129-.808.086-.25.21-.466.37-.649.162-.182.358-.326.59-.43.232-.104.495-.155.79-.155.297 0 .562.051.795.155.234.104.43.248.591.43.161.183.284.4.37.649.084.25.126.519.126.808v.077c0 .292-.042.563-.127.812-.085.25-.208.465-.369.647-.16.181-.357.324-.589.428a1.915 1.915 0 0 1-.79.156c-.297 0-.562-.052-.795-.156a1.702 1.702 0 0 1-.591-.428 1.894 1.894 0 0 1-.371-.647 2.473 2.473 0 0 1-.13-.812v-.077zM29.029 28.895c0-.178-.016-.346-.047-.505-.031-.16-.083-.3-.154-.42a.79.79 0 0 0-.286-.288.86.86 0 0 0-.442-.106.874.874 0 0 0-.52.145.945.945 0 0 0-.31.378v1.656a.967.967 0 0 0 .312.382.874.874 0 0 0 .526.148c.17 0 .313-.034.43-.102a.803.803 0 0 0 .285-.28c.072-.118.125-.257.157-.416.032-.16.049-.331.049-.514v-.078zm.894.078c0 .297-.034.57-.103.818-.069.248-.17.462-.305.642-.135.18-.3.321-.498.423a1.467 1.467 0 0 1-.68.152c-.248 0-.462-.044-.643-.13a1.312 1.312 0 0 1-.466-.374l-.04.43h-.813V25.24h.894v2.065c.128-.146.277-.258.45-.338a1.45 1.45 0 0 1 .61-.118c.259 0 .488.05.686.15.199.1.365.24.5.42s.236.396.305.647.103.527.103.828v.078zM31.694 28.97c0 .182.019.354.057.515.04.16.1.302.18.424.081.122.184.219.309.289.125.07.273.106.445.106a.868.868 0 0 0 .437-.106.896.896 0 0 0 .306-.29c.081-.121.141-.263.18-.423.039-.16.058-.333.058-.516v-.077c0-.178-.02-.347-.058-.508a1.297 1.297 0 0 0-.18-.422.922.922 0 0 0-.306-.29.871.871 0 0 0-.444-.107.873.873 0 0 0-.442.107.9.9 0 0 0-.307.29 1.32 1.32 0 0 0-.178.422c-.038.16-.057.33-.057.508v.077zm-.895-.078c0-.29.043-.559.129-.808.086-.25.21-.466.37-.649.162-.182.358-.326.59-.43.232-.104.495-.155.79-.155.297 0 .562.051.795.155.234.104.43.248.592.43.16.183.283.4.368.649.085.25.128.519.128.808v.077c0 .292-.043.563-.128.812-.085.25-.207.465-.368.647-.161.181-.358.324-.59.428a1.915 1.915 0 0 1-.79.156c-.297 0-.562-.052-.795-.156a1.702 1.702 0 0 1-.591-.428 1.894 1.894 0 0 1-.371-.647 2.473 2.473 0 0 1-.129-.812v-.077zM37.357 25.953v.971h1.53v.66h-1.53v1.923c0 .15.018.276.054.374a.54.54 0 0 0 .38.361c.087.024.183.036.288.036.077 0 .158-.005.241-.013a6.093 6.093 0 0 0 .46-.067c.067-.013.122-.026.167-.039l.101.612c-.065.037-.143.07-.233.102a2.21 2.21 0 0 1-.298.075 3.86 3.86 0 0 1-.677.064 1.76 1.76 0 0 1-.557-.084 1.113 1.113 0 0 1-.434-.26 1.204 1.204 0 0 1-.284-.452 1.896 1.896 0 0 1-.103-.66v-1.973h-.988v-.659h.988v-.971h.895zM42.586 30.934h-.903V26.63l-1.392.504v-.778l2.238-.82h.057z"/>
    </g>
</svg>
