<svg xmlns="http://www.w3.org/2000/svg" width="100" height="100" viewBox="0 0 100 100">
    <g fill="none" fill-rule="evenodd">
        <path fill="#C0C4CA" d="M4.994.304h89.89c2.758 0 4.994 2.229 4.994 4.979V94.9c0 2.75-2.236 4.979-4.994 4.979H4.994c-2.758 0-4.994-2.23-4.994-4.98V5.284C0 2.533 2.236.303 4.994.303"/>
        <path fill="#323843" d="M0 13.204v81.694c0 2.75 2.236 4.979 4.994 4.979h83.284V13.204H0z"/>
        <path fill="#006830" d="M0 10.907v4.594h85.974v84.376h4.608v-88.97z"/>
        <path fill="#FFF" d="M28.556 43.229l-4.48 3.326c.115 1.828.862 2.741 2.24 2.741 1.494 0 2.24-1.089 2.24-3.268v-2.8zm-4.5 1.524l4.481-3.326c-.052-.952-.261-1.657-.63-2.114-.369-.456-.905-.685-1.61-.685-.75 0-1.311.265-1.683.796-.372.53-.557 1.345-.557 2.444v2.885zm6.807.872c0 .901-.104 1.695-.312 2.382-.208.687-.508 1.262-.899 1.725-.39.464-.868.814-1.432 1.05-.564.236-1.199.355-1.904.355-.699 0-1.33-.119-1.894-.355a3.774 3.774 0 0 1-1.437-1.05c-.394-.463-.699-1.038-.914-1.725-.215-.687-.322-1.48-.322-2.382V42.29c0-.902.106-1.695.318-2.382.211-.687.514-1.262.908-1.726a3.791 3.791 0 0 1 1.433-1.05c.56-.235 1.19-.354 1.889-.354.705 0 1.34.119 1.903.355a3.784 3.784 0 0 1 1.438 1.05c.394.463.697 1.038.908 1.725.212.687.317 1.48.317 2.382v3.335zM40.372 43.229l-4.48 3.326c.115 1.828.862 2.741 2.24 2.741 1.493 0 2.24-1.089 2.24-3.268v-2.8zm-4.5 1.524l4.48-3.326c-.05-.952-.26-1.657-.629-2.114-.369-.456-.905-.685-1.61-.685-.75 0-1.311.265-1.683.796-.372.53-.557 1.345-.557 2.444v2.885zm6.807.872c0 .901-.104 1.695-.312 2.382-.208.687-.508 1.262-.899 1.725-.39.464-.868.814-1.432 1.05-.565.236-1.199.355-1.904.355-.699 0-1.33-.119-1.894-.355a3.772 3.772 0 0 1-1.437-1.05c-.394-.463-.699-1.038-.914-1.725-.215-.687-.322-1.48-.322-2.382V42.29c0-.902.106-1.695.317-2.382.212-.687.515-1.262.909-1.726a3.791 3.791 0 0 1 1.433-1.05c.56-.235 1.19-.354 1.889-.354.705 0 1.34.119 1.903.355a3.784 3.784 0 0 1 1.438 1.05c.394.463.697 1.038.908 1.725.212.687.317 1.48.317 2.382v3.335zM52.188 43.229l-4.48 3.326c.115 1.828.862 2.741 2.24 2.741 1.493 0 2.24-1.089 2.24-3.268v-2.8zm-4.5 1.524l4.48-3.326c-.05-.952-.26-1.657-.629-2.114-.369-.456-.905-.685-1.61-.685-.75 0-1.311.265-1.683.796-.372.53-.557 1.345-.557 2.444v2.885zm6.807.872c0 .901-.104 1.695-.312 2.382-.208.687-.508 1.262-.899 1.725-.39.464-.869.814-1.433 1.05-.564.236-1.198.355-1.903.355-.699 0-1.33-.119-1.894-.355a3.774 3.774 0 0 1-1.437-1.05c-.395-.463-.7-1.038-.914-1.725-.215-.687-.322-1.48-.322-2.382V42.29c0-.902.106-1.695.317-2.382.212-.687.515-1.262.909-1.726a3.791 3.791 0 0 1 1.433-1.05c.56-.235 1.19-.354 1.889-.354.705 0 1.34.119 1.903.355a3.784 3.784 0 0 1 1.438 1.05c.394.463.697 1.038.908 1.725.212.687.317 1.48.317 2.382v3.335zM64.004 43.229l-4.48 3.326c.115 1.828.862 2.741 2.24 2.741 1.493 0 2.24-1.089 2.24-3.268v-2.8zm-4.5 1.524l4.48-3.326c-.05-.952-.26-1.657-.63-2.114-.368-.456-.904-.685-1.61-.685-.75 0-1.31.265-1.682.796-.372.53-.557 1.345-.557 2.444v2.885zm6.807.872c0 .901-.104 1.695-.312 2.382-.208.687-.508 1.262-.899 1.725-.39.464-.869.814-1.433 1.05-.564.236-1.198.355-1.903.355-.699 0-1.33-.119-1.894-.355a3.774 3.774 0 0 1-1.437-1.05c-.395-.463-.7-1.038-.914-1.725-.215-.687-.322-1.48-.322-2.382V42.29c0-.902.106-1.695.317-2.382.212-.687.515-1.262.909-1.726a3.791 3.791 0 0 1 1.432-1.05c.561-.235 1.191-.354 1.89-.354.705 0 1.34.119 1.903.355a3.784 3.784 0 0 1 1.438 1.05c.394.463.697 1.038.908 1.725.212.687.317 1.48.317 2.382v3.335zM75.82 43.229l-4.48 3.326c.115 1.828.862 2.741 2.24 2.741 1.493 0 2.24-1.089 2.24-3.268v-2.8zm-4.5 1.524l4.48-3.326c-.05-.952-.26-1.657-.63-2.114-.368-.456-.904-.685-1.61-.685-.75 0-1.31.265-1.682.796-.372.53-.557 1.345-.557 2.444v2.885zm6.807.872c0 .901-.104 1.695-.312 2.382-.209.687-.508 1.262-.9 1.725-.39.464-.868.814-1.432 1.05-.564.236-1.198.355-1.903.355-.699 0-1.33-.119-1.894-.355a3.772 3.772 0 0 1-1.437-1.05c-.395-.463-.7-1.038-.914-1.725-.215-.687-.322-1.48-.322-2.382V42.29c0-.902.106-1.695.317-2.382.212-.687.515-1.262.909-1.726a3.791 3.791 0 0 1 1.432-1.05c.561-.235 1.191-.354 1.89-.354.705 0 1.34.119 1.903.355a3.784 3.784 0 0 1 1.438 1.05c.394.463.697 1.038.908 1.725.211.687.317 1.48.317 2.382v3.335zM24.19 63.074a.608.608 0 0 1-.212-1.178c.222-.082 22.325-8.125 48.365-8.125.304 0 .604.001.909.003a.609.609 0 0 1-.004 1.216h-.005c-26.214-.187-48.62 7.964-48.842 8.046a.615.615 0 0 1-.212.038"/>
    </g>
</svg>
