<svg xmlns="http://www.w3.org/2000/svg" xmlns:xlink="http://www.w3.org/1999/xlink" width="100" height="100" viewBox="0 0 100 100">
    <defs>
        <path id="a" d="M99.876.123H0v99.573h99.876z"/>
    </defs>
    <g fill="none" fill-rule="evenodd">
        <g transform="translate(0 .18)">
            <mask id="b" fill="#fff">
                <use xlink:href="#a"/>
            </mask>
            <path fill="#C0C4CA" d="M4.994.123h89.889c2.758 0 4.993 2.23 4.993 4.979v89.616c0 2.75-2.235 4.978-4.993 4.978H4.993C2.237 99.696 0 97.467 0 94.718V5.102C0 2.352 2.236.123 4.994.123" mask="url(#b)"/>
        </g>
        <path fill="#FFF" d="M12.7 22.769v11.105c0 1.134.922 2.054 2.06 2.054h70.356c1.138 0 2.06-.92 2.06-2.054V22.769a2.057 2.057 0 0 0-2.06-2.054H14.76c-1.138 0-2.06.92-2.06 2.054"/>
        <path fill="#E7E7E7" d="M85.117 20.715H14.76c-1.138 0-2.06.92-2.06 2.054v11.105c0 1.134.922 2.054 2.06 2.054h70.357c1.137 0 2.06-.92 2.06-2.054V22.769a2.057 2.057 0 0 0-2.06-2.054m0 1.556c.275 0 .499.223.499.498v11.105a.5.5 0 0 1-.5.497H14.76a.5.5 0 0 1-.5-.497V22.769c0-.275.225-.498.5-.498h70.357"/>
        <path fill="#FFF" d="M12.7 43.428v11.106c0 1.134.922 2.054 2.06 2.054h70.356c1.138 0 2.06-.92 2.06-2.054V43.428a2.057 2.057 0 0 0-2.06-2.053H14.76c-1.138 0-2.06.92-2.06 2.053"/>
        <path fill="#E7E7E7" d="M85.117 41.375H14.76c-1.138 0-2.06.92-2.06 2.053v11.106c0 1.134.922 2.054 2.06 2.054h70.357c1.137 0 2.06-.92 2.06-2.054V43.428a2.057 2.057 0 0 0-2.06-2.053m0 1.556c.275 0 .499.223.499.497v11.106a.5.5 0 0 1-.5.497H14.76a.5.5 0 0 1-.5-.497V43.428c0-.274.225-.497.5-.497h70.357"/>
        <path fill="#6BAE28" d="M12.7 64.088v11.106c0 1.134.922 2.053 2.06 2.053h70.356c1.138 0 2.06-.919 2.06-2.053V64.088a2.057 2.057 0 0 0-2.06-2.053H14.76c-1.138 0-2.06.92-2.06 2.053"/>
        <path fill="#323843" d="M65.461 84.63V71.87l9.614 9.203-5.707-.342zM18.054 28.426h.925c.152 0 .288-.023.408-.07a.895.895 0 0 0 .307-.191.822.822 0 0 0 .194-.295 1.107 1.107 0 0 0 0-.765.865.865 0 0 0-.501-.508 1.16 1.16 0 0 0-.408-.074h-.925v1.903zm0 .724v2.082h-.898v-5.433h1.823c.272.002.523.043.754.121.23.079.43.19.597.336.167.146.297.322.391.53.094.208.14.442.14.703 0 .254-.046.483-.14.687a1.512 1.512 0 0 1-.391.522 1.75 1.75 0 0 1-.597.332c-.23.078-.482.117-.754.12h-.925zM24.492 27.12a2.514 2.514 0 0 1 .425.03c.066.01.127.02.182.032.054.01.1.024.138.039l-.127.877a3.681 3.681 0 0 0-.812-.094c-.3 0-.541.062-.725.187a1.095 1.095 0 0 0-.406.518v2.523h-.894v-4.037h.838l.041.63c.165-.219.36-.391.586-.517.226-.125.477-.188.754-.188M27.041 29.254c0 .184.02.357.058.52.039.16.098.303.18.426a.89.89 0 0 0 .308.291.89.89 0 0 0 .446.107.862.862 0 0 0 .436-.107.898.898 0 0 0 .307-.29c.08-.124.141-.266.18-.428.038-.162.058-.335.058-.519v-.078c0-.18-.02-.35-.058-.511a1.31 1.31 0 0 0-.18-.426.925.925 0 0 0-.307-.29.865.865 0 0 0-.443-.109.868.868 0 0 0-.442.108.903.903 0 0 0-.307.291c-.08.122-.14.264-.178.426a2.187 2.187 0 0 0-.058.51v.08zm-.894-.078c0-.291.043-.562.129-.814.086-.25.21-.469.37-.652.161-.185.358-.329.59-.434.232-.104.495-.156.79-.156.296 0 .561.052.795.156.233.105.43.25.591.434.161.183.284.401.369.652.085.252.127.523.127.814v.078c0 .294-.042.566-.127.817a1.887 1.887 0 0 1-.369.652c-.16.183-.357.326-.59.43a1.903 1.903 0 0 1-.79.158c-.296 0-.561-.053-.794-.157a1.702 1.702 0 0 1-.592-.431 1.905 1.905 0 0 1-.37-.652 2.498 2.498 0 0 1-.13-.817v-.078zM31.93 31.232V27.86h-1.09v-.664h1.09v-.25c0-.262.039-.493.117-.693.079-.2.192-.368.34-.504.15-.135.328-.238.538-.31.21-.07.445-.106.707-.106.173 0 .337.013.492.04.157.026.32.056.489.091l-.078.71a2.757 2.757 0 0 0-.779-.105c-.322 0-.557.076-.706.227-.148.152-.222.368-.222.65v.25h1.504v.664h-1.505v3.373h-.898zM37.29 27.84a.876.876 0 0 0-.636.263c-.086.086-.158.19-.216.314-.059.123-.1.263-.126.42h1.898v-.068a1.277 1.277 0 0 0-.07-.345.91.91 0 0 0-.17-.297.811.811 0 0 0-.282-.208.944.944 0 0 0-.399-.079m.109 3.466c-.3 0-.573-.05-.82-.148a1.838 1.838 0 0 1-1.044-1.028 2.014 2.014 0 0 1-.146-.771v-.153c0-.32.052-.61.155-.866.104-.256.242-.475.415-.657.174-.181.376-.32.607-.418.23-.097.473-.145.728-.145.294 0 .554.05.779.147.224.098.412.237.563.415.15.177.265.388.342.632.078.244.116.511.116.802v.377h-2.807c.015.157.054.303.116.437.063.134.144.25.245.349.101.098.22.175.356.23.136.057.285.085.447.085.227 0 .436-.045.627-.134.19-.09.346-.213.466-.37l.486.455c-.064.098-.148.191-.25.282a1.74 1.74 0 0 1-.36.243 2.25 2.25 0 0 1-1.022.237M41.365 28.687c-.012.274.01.477.07.61.058.133.144.2.256.2a.54.54 0 0 0 .243-.06.567.567 0 0 0 .221-.235v-.019l.146-1.682a.59.59 0 0 0-.69.29c-.124.21-.206.508-.246.896m2.523-.466a4.221 4.221 0 0 1-.075.656c-.042.22-.107.416-.193.59a1.266 1.266 0 0 1-.33.426.733.733 0 0 1-.48.164.63.63 0 0 1-.36-.103.631.631 0 0 1-.231-.293 1.023 1.023 0 0 1-.305.287.716.716 0 0 1-.726.01.705.705 0 0 1-.247-.275 1.317 1.317 0 0 1-.133-.43 2.452 2.452 0 0 1-.012-.566 3.17 3.17 0 0 1 .146-.724c.073-.214.165-.395.277-.545.112-.149.244-.264.393-.345.15-.08.315-.12.494-.12.182 0 .332.03.45.092.117.062.21.134.28.217l-.16 1.921a.723.723 0 0 0 .005.207c.011.051.027.09.049.116a.13.13 0 0 0 .074.049.274.274 0 0 0 .288-.091.848.848 0 0 0 .158-.278 2.11 2.11 0 0 0 .1-.422 3.69 3.69 0 0 0 .037-.532 2.98 2.98 0 0 0-.074-.814 1.57 1.57 0 0 0-.27-.587 1.162 1.162 0 0 0-.452-.357 1.48 1.48 0 0 0-.608-.12c-.252 0-.48.059-.683.174a1.6 1.6 0 0 0-.522.484 2.473 2.473 0 0 0-.341.733 3.705 3.705 0 0 0-.138.927c-.028.677.09 1.188.351 1.534.262.346.647.518 1.153.518a1.826 1.826 0 0 0 .869-.223l.12.481a1.13 1.13 0 0 1-.22.123 1.931 1.931 0 0 1-.78.157c-.36 0-.67-.062-.934-.185a1.683 1.683 0 0 1-.647-.522 2.24 2.24 0 0 1-.371-.816 3.942 3.942 0 0 1-.1-1.067c.013-.39.077-.759.192-1.104a3.06 3.06 0 0 1 .47-.907 2.27 2.27 0 0 1 .705-.614c.272-.15.571-.226.898-.226.295 0 .561.057.8.17.238.113.439.274.602.483.163.21.287.462.37.758a3.3 3.3 0 0 1 .111.989M45.228 27.195l.023.425a.934.934 0 0 1 .321-.368.867.867 0 0 1 .487-.132c.172 0 .315.034.428.103.114.068.2.174.257.319a.914.914 0 0 1 .307-.308.854.854 0 0 1 .453-.114c.132 0 .254.022.365.065a.698.698 0 0 1 .284.207c.079.095.14.215.184.362.043.147.065.324.065.53v2.948h-.831v-2.955c0-.162-.034-.273-.103-.334a.384.384 0 0 0-.264-.092.376.376 0 0 0-.243.073.42.42 0 0 0-.131.192v3.116h-.812v-2.955c0-.157-.032-.267-.096-.33a.351.351 0 0 0-.26-.096.402.402 0 0 0-.247.068.425.425 0 0 0-.138.182v3.131h-.831v-4.037h.782zM50.816 30.586a1.187 1.187 0 0 0 .597-.155.95.95 0 0 0 .35-.34v-.758h-.569c-.364 0-.633.058-.806.175a.568.568 0 0 0-.26.5c0 .082.013.159.04.23.028.07.07.131.126.183a.609.609 0 0 0 .213.12c.087.03.19.045.31.045zm1.078.646a.818.818 0 0 1-.062-.175 2.926 2.926 0 0 1-.043-.217 1.526 1.526 0 0 1-.784.43c-.11.024-.23.037-.357.037-.215 0-.409-.03-.582-.092a1.342 1.342 0 0 1-.446-.253 1.13 1.13 0 0 1-.387-.86c0-.433.162-.764.485-.993.323-.229.786-.343 1.39-.343h.655V28.5a.64.64 0 0 0-.217-.51c-.145-.125-.35-.188-.614-.188-.12 0-.224.014-.314.042a.666.666 0 0 0-.225.118.482.482 0 0 0-.134.175.528.528 0 0 0-.046.217h-.894c0-.157.037-.309.11-.457a1.2 1.2 0 0 1 .324-.395 1.67 1.67 0 0 1 .522-.279c.206-.07.441-.104.706-.104.24 0 .461.03.666.088.205.058.382.145.532.26.15.116.266.261.352.434.084.173.127.374.127.606v1.799c0 .176.013.337.039.483.026.145.064.272.114.379v.063h-.917zM55.289 26.15a.47.47 0 0 1 .135-.346.508.508 0 0 1 .378-.136c.164 0 .292.046.383.136.091.091.137.206.137.346 0 .139-.046.254-.137.345-.09.091-.219.136-.383.136a.507.507 0 0 1-.378-.136.47.47 0 0 1-.135-.345zm-1.183 1.045h2.16v3.298h1.201v.74h-3.36v-.74h1.257v-2.556h-1.258v-.742zM58.676 25.5h2.19v4.993h1.235v.739h-3.425v-.739h1.288v-4.25h-1.288zM64.23 30.698a.7.7 0 0 1 .044-.246.564.564 0 0 1 .33-.332.742.742 0 0 1 .278-.049c.105 0 .198.017.28.05a.557.557 0 0 1 .333.332.707.707 0 0 1 0 .486.55.55 0 0 1-.334.321.778.778 0 0 1-.279.047.775.775 0 0 1-.279-.047.556.556 0 0 1-.33-.321.655.655 0 0 1-.042-.24M69.482 30.598a1.003 1.003 0 0 0 .595-.198.712.712 0 0 0 .19-.22.54.54 0 0 0 .065-.276h.846c.002.193-.042.376-.133.546a1.46 1.46 0 0 1-.37.446 1.874 1.874 0 0 1-1.185.415c-.312 0-.586-.054-.82-.161a1.658 1.658 0 0 1-.588-.439 1.868 1.868 0 0 1-.353-.645 2.541 2.541 0 0 1-.118-.782v-.134c0-.276.039-.537.118-.784.078-.246.196-.461.353-.645.158-.184.353-.33.588-.439.234-.108.506-.162.816-.162.244 0 .47.037.68.112.208.075.387.18.538.313a1.41 1.41 0 0 1 .474 1.094h-.846a.742.742 0 0 0-.236-.564.875.875 0 0 0-.617-.235.886.886 0 0 0-.468.114.883.883 0 0 0-.3.298 1.283 1.283 0 0 0-.159.42 2.448 2.448 0 0 0-.047.478v.134c0 .165.016.325.047.482.031.156.084.296.16.42a.88.88 0 0 0 .299.298.893.893 0 0 0 .471.114M73.042 29.254c0 .184.019.357.058.52.038.16.098.303.18.426a.89.89 0 0 0 .308.291.89.89 0 0 0 .446.107.862.862 0 0 0 .436-.107.898.898 0 0 0 .307-.29c.08-.124.14-.266.18-.428.038-.162.057-.335.057-.519v-.078c0-.18-.02-.35-.058-.511a1.31 1.31 0 0 0-.18-.426.925.925 0 0 0-.306-.29.866.866 0 0 0-.444-.109.868.868 0 0 0-.442.108.903.903 0 0 0-.307.291c-.08.122-.139.264-.177.426a2.187 2.187 0 0 0-.058.51v.08zm-.895-.078c0-.291.043-.562.13-.814.085-.25.209-.469.37-.652.16-.185.357-.329.59-.434.232-.104.495-.156.79-.156.296 0 .561.052.795.156.233.105.43.25.59.434.162.183.285.401.37.652.084.252.127.523.127.814v.078c0 .294-.043.566-.127.817a1.887 1.887 0 0 1-.37.652c-.16.183-.357.326-.589.43a1.903 1.903 0 0 1-.79.158c-.296 0-.561-.053-.795-.157a1.702 1.702 0 0 1-.591-.431 1.905 1.905 0 0 1-.37-.652 2.498 2.498 0 0 1-.13-.817v-.078zM77.429 27.195l.022.425a.937.937 0 0 1 .322-.368.867.867 0 0 1 .486-.132c.173 0 .316.034.429.103.113.068.199.174.256.319a.914.914 0 0 1 .307-.308.854.854 0 0 1 .453-.114c.132 0 .254.022.365.065a.698.698 0 0 1 .285.207c.078.095.14.215.183.362.044.147.066.324.066.53v2.948h-.832v-2.955c0-.162-.034-.273-.102-.334a.384.384 0 0 0-.264-.092.377.377 0 0 0-.244.073.42.42 0 0 0-.13.192v3.116h-.813v-2.955c0-.157-.032-.267-.095-.33a.351.351 0 0 0-.26-.096.402.402 0 0 0-.247.068.428.428 0 0 0-.139.182v3.131h-.83v-4.037h.782zM21.137 47.894l-1.24.294-.107-1.292h-1.014l-.108 1.3-1.24-.303-.313.954 1.17.49-.679 1.13.824.598.859-1.024.845 1.025.826-.6-.684-1.13 1.175-.489zM26.387 47.894l-1.24.294-.107-1.292h-1.014l-.108 1.3-1.24-.303-.313.954 1.171.49-.68 1.13.824.598.86-1.024.844 1.025.826-.6-.684-1.13 1.175-.489zM31.638 47.894l-1.24.294-.108-1.292h-1.014l-.108 1.3-1.239-.303-.313.954 1.17.49-.68 1.13.824.598.86-1.024.845 1.025.825-.6-.684-1.13 1.175-.489zM36.888 47.894l-1.24.294-.107-1.292h-1.014l-.108 1.3-1.24-.303-.313.954 1.17.49-.679 1.13.824.598.859-1.024.845 1.025.826-.6-.684-1.13 1.175-.489zM42.452 48.847l-.314-.953-1.24.294-.107-1.292h-1.014l-.108 1.3-1.24-.303-.313.954 1.171.49-.68 1.13.824.598.86-1.024.844 1.025.826-.6-.684-1.13z"/>
    </g>
</svg>
