<svg xmlns="http://www.w3.org/2000/svg" xmlns:xlink="http://www.w3.org/1999/xlink" width="100" height="100" viewBox="0 0 100 100">
    <defs>
        <path id="a" d="M99.876.123H0v99.573h99.876V.123z"/>
    </defs>
    <g fill="none" fill-rule="evenodd">
        <g transform="translate(0 .18)">
            <mask id="b" fill="#fff">
                <use xlink:href="#a"/>
            </mask>
            <path fill="#C0C4CA" d="M4.994.123h89.889c2.758 0 4.993 2.23 4.993 4.979v89.615c0 2.75-2.235 4.98-4.993 4.98H4.993c-2.757 0-4.993-2.23-4.993-4.98V5.102C0 2.352 2.236.122 4.994.122" mask="url(#b)"/>
        </g>
        <path fill="#00ADE5" d="M81.745 57.081H18.131a4.422 4.422 0 0 1-4.428-4.414V36.912a4.422 4.422 0 0 1 4.428-4.415h63.614a4.422 4.422 0 0 1 4.429 4.415v15.755a4.422 4.422 0 0 1-4.429 4.414"/>
        <path fill="#FFF" d="M37.251 46.047l1.237-4.824a1.376 1.376 0 0 1 1.334-1.033h.002c.93 0 1.593.902 1.313 1.787l-2.048 6.452c-.181.571-.712.959-1.313.959h-.595a1.377 1.377 0 0 1-1.29-.892l-1.833-4.897-1.834 4.896c-.2.537-.715.893-1.29.893h-.584c-.6 0-1.132-.388-1.313-.959l-2.047-6.452a1.373 1.373 0 0 1 1.312-1.787c.63 0 1.18.427 1.335 1.035l1.227 4.814 1.768-4.937a1.377 1.377 0 0 1 1.297-.912h.267c.583 0 1.102.367 1.297.914l1.758 4.943zM53.127 46.047l1.237-4.824a1.376 1.376 0 0 1 1.333-1.033h.002c.931 0 1.594.902 1.313 1.787l-2.048 6.452c-.18.571-.712.959-1.313.959h-.594a1.377 1.377 0 0 1-1.29-.892l-1.834-4.897-1.834 4.896c-.2.537-.715.893-1.29.893h-.584c-.6 0-1.132-.388-1.313-.959l-2.047-6.452a1.373 1.373 0 0 1 1.313-1.787c.63 0 1.179.427 1.334 1.035l1.227 4.814 1.768-4.937a1.377 1.377 0 0 1 1.297-.912h.267c.583 0 1.103.367 1.297.914l1.759 4.943zM69.002 46.047l1.237-4.824a1.376 1.376 0 0 1 1.334-1.033h.001c.931 0 1.594.902 1.313 1.787l-2.048 6.452c-.18.571-.712.959-1.312.959h-.595a1.377 1.377 0 0 1-1.29-.892l-1.834-4.897-1.834 4.896c-.2.537-.715.893-1.29.893H62.1c-.6 0-1.131-.388-1.312-.959l-2.048-6.452a1.373 1.373 0 0 1 1.313-1.787c.63 0 1.18.427 1.334 1.035l1.227 4.814 1.768-4.937a1.377 1.377 0 0 1 1.297-.912h.267c.583 0 1.103.367 1.298.914l1.758 4.943z"/>
        <path fill="#323843" d="M57.077 67.684V52.052l11.779 11.274-6.992-.42z"/>
    </g>
</svg>
