<svg xmlns="http://www.w3.org/2000/svg" xmlns:xlink="http://www.w3.org/1999/xlink" width="61" height="61" viewBox="0 0 61 61">
    <defs>
        <rect id="b" width="380" height="583" x="450" y="230" rx="10"/>
        <filter id="a" width="134.2%" height="122.3%" x="-17.1%" y="-9.4%" filterUnits="objectBoundingBox">
            <feOffset dy="10" in="SourceAlpha" result="shadowOffsetOuter1"/>
            <feGaussianBlur in="shadowOffsetOuter1" result="shadowBlurOuter1" stdDeviation="20"/>
            <feColorMatrix in="shadowBlurOuter1" values="0 0 0 0 0 0 0 0 0 0 0 0 0 0 0 0 0 0 0.1 0"/>
        </filter>
    </defs>
    <g fill="none" fill-rule="evenodd" transform="translate(-609 -289)">
        <rect width="1180" height="466" x="50" y="287" fill="#F1F1F1" fill-rule="nonzero" rx="10"/>
        <g fill-rule="nonzero">
            <use fill="#000" filter="url(#a)" xlink:href="#b"/>
            <use fill="#FFF" xlink:href="#b"/>
        </g>
        <path fill="#313740" d="M665.29 326.863c-1.493 6.3-6.563 14.743-13.028 17.993-3.205 1.605-6.43 1.738-9.576.364l-.027-.01c-.335-.14-1.505-.595-2.563-.595-1 0-2.177.452-2.557.605-2.993 1.304-5.885 1.271-8.848-.09-6.443-2.952-11.665-11.608-13.79-18.405-1.915-6.12-.98-14.087 2.277-19.374 1.268-2.064 3.485-4.638 6.85-5.182.876-.138 1.7-.203 2.486-.203 6.64 0 10.045 4.562 10.157 4.71.205.314 1.318 1.874 3.238 1.974.892.045 2.235-.226 3.602-1.909.045-.06 4.316-5.929 12.686-4.572 2.44.396 4.53 1.881 6.217 4.414 3.333 5.006 4.513 13.346 2.875 20.28m.423-22.49c-2.288-3.44-5.365-5.562-8.885-6.131-7.83-1.27-12.883 2.397-15.126 4.584-1.345-9.879-6.355-12.45-6.692-12.67h-5.32c.257.17 6.715 4.848 8.25 12.144-2.51-2.223-7.363-5.22-14.54-4.058-3.836.622-7.153 3.047-9.598 7.015-3.815 6.197-4.92 15.517-2.685 22.662 2.457 7.863 8.34 17.356 15.925 20.835 2.05.938 4.115 1.402 6.18 1.402 1.96 0 3.918-.422 5.855-1.264.353-.143.853-.286 1.02-.296.175.005.673.143 1.03.286 4.206 1.825 8.67 1.662 12.913-.47 7.623-3.827 13.37-13.275 15.108-20.63 1.875-7.929.465-17.554-3.435-23.408"/>
        <path fill="#313741" d="M644.807 296.713s-.364-9.49 12.58-5.957c0 0-4.684 10.097-12.58 5.957"/>
    </g>
</svg>
