<svg xmlns="http://www.w3.org/2000/svg" width="64" height="64" viewBox="0 0 64 64">
    <defs>
        <linearGradient id="a" x1="0%" y1="50%" y2="50%">
            <stop offset="0%" stop-color="#4DE1FF"/>
            <stop offset="100%" stop-color="#4DA6FF"/>
        </linearGradient>
    </defs>
    <g fill="none" fill-rule="evenodd">
        <path fill="url(#a)" d="M4.122 58.637v1.658c0 1.957 2.375 3.545 5.306 3.545 2.93 0 5.305-1.588 5.305-3.545v-1.658c0-1.958-2.375-3.545-5.305-3.545-2.93 0-5.306 1.587-5.306 3.545" transform="translate(22)"/>
        <path fill="#4DC3FF" d="M33.227 3.524c0 .407-.806.737-1.8.737-.993 0-1.798-.33-1.798-.737 0-.406.805-.736 1.799-.736.993 0 1.799.33 1.799.736M36.734 58.637c0 1.958-2.376 3.545-5.306 3.545s-5.306-1.587-5.306-3.545 2.376-3.545 5.306-3.545 5.306 1.587 5.306 3.545"/>
        <path fill="url(#a)" d="M7.63 3.524c0 .278.345 54.33.345 54.607 0 .407.65.737 1.453.737s1.453-.33 1.453-.737c0-.278.346-54.33.346-54.607 0-.407-.806-.736-1.8-.736-.993 0-1.798.33-1.798.736" transform="translate(22)"/>
        <path fill="#4DA6FF" d="M33.22.884L23.925 25.63l17.927-9.246z"/>
        <path fill="#4DD2FF" d="M23.86 25.7L22 24.882 31.428 0l1.859.952z"/>
    </g>
</svg>
