<svg xmlns="http://www.w3.org/2000/svg" width="64" height="64" viewBox="0 0 64 64">
    <defs>
        <linearGradient id="a" x1="0%" y1="58.175%" y2="58.175%">
            <stop offset="0%" stop-color="#4DE1FF"/>
            <stop offset="100%" stop-color="#4DA6FF"/>
        </linearGradient>
        <linearGradient id="b" x1="0%" y1="50%" y2="50%">
            <stop offset="0%" stop-color="#4DE1FF"/>
            <stop offset="100%" stop-color="#4DA6FF"/>
        </linearGradient>
        <radialGradient id="c" cx="27.697%" r="81.924%" fx="27.697%" fy="50%" gradientTransform="scale(1 .87907) rotate(62.731 .22 .534)">
            <stop offset="0%" stop-color="#4DE1FF"/>
            <stop offset="100%" stop-color="#4DA6FF"/>
        </radialGradient>
        <linearGradient id="d" x1="41.374%" x2="89.055%" y1="30.085%" y2="13.724%">
            <stop offset="0%" stop-color="#4DE1FF"/>
            <stop offset="100%" stop-color="#4DC3FF"/>
        </linearGradient>
        <radialGradient id="e" cx="27.697%" r="81.924%" fx="27.697%" fy="50%" gradientTransform="matrix(.45814 .78134 -.88888 .40272 .595 .082)">
            <stop offset="0%" stop-color="#4DE1FF"/>
            <stop offset="100%" stop-color="#4DA6FF"/>
        </radialGradient>
    </defs>
    <g fill="none" fill-rule="evenodd">
        <path fill="url(#a)" d="M0 58.912v1.603c0 1.895 2.432 3.431 5.433 3.431 3 0 5.433-1.536 5.433-3.43v-1.604c0-1.895-2.433-3.43-5.433-3.43-3.001 0-5.433 1.535-5.433 3.43" transform="translate(25)"/>
        <path fill="#4DC3FF" d="M35.866 58.912c0 1.894-2.433 3.43-5.433 3.43S25 60.806 25 58.912c0-1.895 2.433-3.43 5.433-3.43s5.433 1.535 5.433 3.43"/>
        <path fill="url(#b)" d="M5.433 0C4.416 0 3.59.319 3.59.713c0 .268.354 57.44.354 57.709 0 .393.666.713 1.488.713s1.488-.32 1.488-.713c0-.27.353-57.44.353-57.71C7.274.32 6.45 0 5.433 0z" transform="translate(25)"/>
        <path fill="#4DC3FF" d="M32.274.713c0 .393-.824.713-1.841.713s-1.842-.32-1.842-.713c0-.394.825-.713 1.842-.713 1.017 0 1.841.32 1.841.713M32.274 2.686c0 .394-.824.713-1.841.713v1.93l2.175.92 6.663-2.762-1.904-.921-5.093.12"/>
        <path fill="#4DE1FF" d="M32.336 29.407l-2.039.79.136-24.868 2.175.92z"/>
        <path fill="#4DA6FF" d="M38.59 26.381l-6.254 3.026.272-23.157 6.663-2.763z"/>
        <path fill="url(#c)" d="M10.363 6.846c-1.2.791-1.967 2.497-1.71 3.809.15.764.614 1.226 1.213 1.322l-.001.004h.019c.209.03.434.016.667-.045 2.293-.3 2.913-2.098 2.924-3.048.007-.534-.156-1.849-1.357-2.327a1.539 1.539 0 0 0-.572-.107c-.369 0-.773.122-1.183.392" transform="translate(25)"/>
        <path fill="url(#d)" d="M10.167 5.8c-1.336.88-2.32 2.753-2.371 4.167.488.356 1.65-.769 2.944-1.894 1.362-1.184 2.868-2.37 3.88-1.823l-1.165-.79c-.345-.19-.76-.273-1.19-.273-.753 0-1.551.253-2.098.613zm4.648.582a1.189 1.189 0 0 0-.195-.132l.195.132z" transform="translate(25)"/>
        <path fill="#4DA6FF" d="M39.815 6.381c-1.36-1.447-4.998 2.72-6.374 3.531 3.11-1.82 4.742-3.662 6.102-3.268l.272-.263z"/>
        <path fill="url(#e)" d="M10.363 14.61c-1.2.79-1.967 2.495-1.71 3.807.15.766.614 1.227 1.213 1.323l-.001.004h.019c.209.03.434.016.667-.044 2.293-.301 2.913-2.099 2.924-3.05.007-.533-.156-1.848-1.357-2.326a1.539 1.539 0 0 0-.572-.107c-.369 0-.773.122-1.183.392" transform="translate(25)"/>
        <path fill="url(#d)" d="M10.167 13.695c-1.336.88-2.32 2.753-2.371 4.167.488.356 1.65-.77 2.944-1.894 1.361-1.185 2.867-2.37 3.88-1.824l-1.165-.79c-.346-.19-.76-.272-1.19-.272-.753 0-1.551.252-2.098.613zm4.648.581a1.191 1.191 0 0 0-.195-.132l.195.132z" transform="translate(25)"/>
        <path fill="#4DA6FF" d="M39.815 14.276c-1.36-1.447-4.998 2.72-6.374 3.531 3.11-1.82 4.742-3.662 6.102-3.268l.272-.263z"/>
        <path fill="url(#c)" d="M10.363 21.846c-1.2.791-1.967 2.496-1.71 3.808.15.765.614 1.227 1.213 1.323l-.001.003h.019c.209.03.434.017.667-.044 2.293-.3 2.913-2.098 2.924-3.048.007-.534-.156-1.849-1.357-2.327a1.539 1.539 0 0 0-.572-.107c-.369 0-.773.122-1.183.392" transform="translate(25)"/>
        <path fill="url(#d)" d="M10.167 21.59c-1.336.88-2.32 2.752-2.371 4.167.488.356 1.65-.77 2.944-1.895 1.361-1.185 2.867-2.37 3.88-1.824l-1.165-.788c-.346-.192-.76-.274-1.19-.274-.754 0-1.551.253-2.098.613zm4.648.58a1.191 1.191 0 0 0-.195-.132l.195.132z" transform="translate(25)"/>
        <path fill="#4DA6FF" d="M39.815 22.17c-1.36-1.447-4.998 2.72-6.374 3.531 3.11-1.82 4.742-3.662 6.102-3.267l.272-.263z"/>
    </g>
</svg>
