<svg xmlns="http://www.w3.org/2000/svg" width="64" height="64" viewBox="0 0 64 64">
    <defs>
        <linearGradient id="a" x1="0%" y1="50%" y2="50%">
            <stop offset="0%" stop-color="#4DE1FF"/>
            <stop offset="100%" stop-color="#4DA6FF"/>
        </linearGradient>
    </defs>
    <g fill="none" fill-rule="evenodd">
        <path fill="url(#a)" d="M6.186 58.745v1.674c0 1.977 2.457 3.581 5.487 3.581 3.032 0 5.488-1.604 5.488-3.58v-1.675c0-1.978-2.456-3.581-5.488-3.581-3.03 0-5.487 1.603-5.487 3.581" transform="translate(20)"/>
        <path fill="#4DC3FF" d="M37.161 58.745c0 1.977-2.457 3.581-5.487 3.581-3.03 0-5.488-1.604-5.488-3.581 0-1.978 2.457-3.58 5.488-3.58 3.03 0 5.487 1.602 5.487 3.58"/>
        <path fill="url(#a)" d="M11.673 0c-1.027 0-1.86.333-1.86.744 0 .28.358 57.21.358 57.49 0 .41.672.743 1.502.743.831 0 1.504-.333 1.504-.744 0-.28.357-57.209.357-57.489 0-.41-.833-.744-1.86-.744z" transform="translate(20)"/>
        <path fill="#4DC3FF" d="M33.534.744c0 .411-.833.744-1.86.744-1.028 0-1.86-.333-1.86-.744S30.646 0 31.674 0c1.027 0 1.86.333 1.86.744"/>
        <path fill="#4DA6FF" d="M27.966 6.936l-5.769 14.558 5.769 7.965 10.3-5.63 5.356-12.91-4.807-8.79z"/>
        <path fill="#4DD2FF" d="M25.768 28.498l2.198.961-5.769-7.966-2.197-.96z"/>
        <path fill="#4DD2FF" d="M22.197 21.494L20 20.532l5.768-14.558 2.198.962z"/>
        <path fill="#4DC3FF" d="M36.618 1.167l-3.084 1.367v1.094c0 .411-.833.744-1.86.744-.644 0-1.211-.13-1.545-.33l-4.36 1.932 2.197.962 10.85-4.807-2.198-.962z"/>
    </g>
</svg>
