<svg xmlns="http://www.w3.org/2000/svg" width="64" height="64" viewBox="0 0 64 64">
    <defs>
        <linearGradient id="a" x1="0%" y1="50%" y2="50%">
            <stop offset="0%" stop-color="#4DE1FF"/>
            <stop offset="100%" stop-color="#4DA6FF"/>
        </linearGradient>
        <linearGradient id="b" x1="0%" x2="75.209%" y1="71.399%" y2="7.841%">
            <stop offset="0%" stop-color="#4DE1FF"/>
            <stop offset="100%" stop-color="#4DC3FF"/>
        </linearGradient>
    </defs>
    <g fill="none" fill-rule="evenodd">
        <path fill="url(#a)" d="M5.019 59.104v1.527c0 1.804 2.206 3.267 4.927 3.267 2.722 0 4.929-1.463 4.929-3.267v-1.527c0-1.805-2.207-3.267-4.929-3.267-2.72 0-4.927 1.462-4.927 3.267" transform="translate(22)"/>
        <path fill="#4DC3FF" d="M36.875 59.104c0 1.804-2.207 3.267-4.929 3.267-2.72 0-4.927-1.463-4.927-3.267 0-1.804 2.206-3.267 4.927-3.267 2.722 0 4.929 1.463 4.929 3.267"/>
        <path fill="url(#a)" d="M9.946 0c-.922 0-1.67.304-1.67.679 0 .256.32 57.702.32 57.958 0 .375.605.679 1.35.679.746 0 1.35-.304 1.35-.679 0-.256.321-57.702.321-57.958 0-.375-.747-.679-1.67-.679z" transform="translate(22)"/>
        <path fill="#4DC3FF" d="M33.617.679c0 .374-.748.679-1.67.679-.923 0-1.67-.305-1.67-.68 0-.374.747-.678 1.67-.678.922 0 1.67.304 1.67.679"/>
        <path fill="url(#b)" d="M11.617 2.806v.88c0 .375-.747.679-1.67.679-.648 0-1.209-.15-1.486-.37-.396.234-.795.499-1.196.8-4.934 3.701-8.1 11.103-7.07 16.532.387 2.045 1.314 3.518 2.584 4.362.584.388 2.932 1.525 3.503 1.752 2.022.802 4.653.29 7.313-1.706 4.295-3.221 7.25-9.245 7.266-14.332v-.087a11.602 11.602 0 0 0-.194-2.114c-.424-2.238-1.496-3.791-2.954-4.585-.487-.264-2.377-1.18-2.832-1.397a5.219 5.219 0 0 0-2.265-.494c-.325 0-.659.026-.999.08" transform="translate(22)"/>
        <path fill="#4DA6FF" d="M42.667 9.202c1.03 5.429-2.136 12.83-7.071 16.533-4.935 3.702-9.77 2.301-10.8-3.127-1.03-5.43 2.137-12.832 7.072-16.534 4.935-3.702 9.77-2.301 10.8 3.128"/>
    </g>
</svg>
