<svg xmlns="http://www.w3.org/2000/svg" width="64" height="64" viewBox="0 0 64 64">
    <defs>
        <linearGradient id="a" x1="12.415%" x2="87.926%" y1="71.172%" y2="71.172%">
            <stop offset="0%" stop-color="#4DE1FF"/>
            <stop offset="100%" stop-color="#4DA6FF"/>
        </linearGradient>
        <linearGradient id="b" x1="50%" x2="50%" y1="0%" y2="100%">
            <stop offset="0%" stop-color="#4DE1FF"/>
            <stop offset="100%" stop-color="#4DA6FF"/>
        </linearGradient>
        <radialGradient id="c" cx="15.428%" cy="40.146%" r="98.228%" fx="15.428%" fy="40.146%" gradientTransform="scale(1 .99297) rotate(57.84 .152 .403)">
            <stop offset="0%" stop-color="#4DE1FF"/>
            <stop offset="100%" stop-color="#4DA6FF"/>
        </radialGradient>
        <radialGradient id="d" cx="15.428%" cy="40.146%" r="98.228%" fx="15.428%" fy="40.146%" gradientTransform="matrix(.5323 .84063 -.84655 .52858 .412 .06)">
            <stop offset="0%" stop-color="#4DE1FF"/>
            <stop offset="100%" stop-color="#4DA6FF"/>
        </radialGradient>
        <radialGradient id="e" cx="15.428%" cy="40.146%" r="98.228%" fx="15.428%" fy="40.146%" gradientTransform="matrix(.5323 .84062 -.84656 .52857 .412 .06)">
            <stop offset="0%" stop-color="#4DE1FF"/>
            <stop offset="100%" stop-color="#4DA6FF"/>
        </radialGradient>
    </defs>
    <g fill="none" fill-rule="evenodd">
        <path fill="url(#a)" d="M14.036 52.26c0 1.127.365 2.195 1.009 3.164 1.745 2.626 1.791 3.575 2.01 4.093 1.06 2.496 4.492 4.324 8.563 4.324 4.07 0 7.501-1.828 8.561-4.324.22-.518.266-1.467 2.01-4.093.645-.969 1.01-2.037 1.01-3.165 0-4.278-5.185-7.747-11.581-7.747-6.397 0-11.582 3.469-11.582 7.747" transform="translate(10)"/>
        <path fill="#4DC3FF" d="M24.036 52.26c0-4.28 5.185-7.748 11.581-7.748s11.581 3.468 11.581 7.747c0 4.28-5.185 7.749-11.58 7.749-6.397 0-11.582-3.47-11.582-7.749"/>
        <path fill="url(#b)" d="M16.212 28.955l.611 3.389 4.282 3.85.765 2.927 1.07 6.315v2.772l-1.222 4.005 1.223 2.001 1.682.463 2.6-1.078 1.682-1.695.612-3.388v-1.54l-.612-3.388-1.529-5.546-.306-2.464.153-.77 2.294-2.156.612-1.386.765-2.31-3.088-1.806-.43 1.805-.612.77-1.223-2.618z" transform="translate(10)"/>
        <path fill="url(#c)" d="M25.082 21.255c0 4.976 4.006 9.01 8.947 9.01 4.941 0 8.947-4.034 8.947-9.01 0-4.977-4.006-9.01-8.947-9.01-4.941 0-8.947 4.033-8.947 9.01" transform="translate(10)"/>
        <path fill="url(#d)" d="M0 12.707c0 4.975 4.006 9.01 8.947 9.01 4.941 0 8.947-4.035 8.947-9.01 0-4.977-4.006-9.01-8.947-9.01C4.006 3.697 0 7.73 0 12.707" transform="translate(10)"/>
        <path fill="url(#e)" d="M19.118 0C10.67 0 3.824 6.896 3.824 15.402s6.847 15.402 15.294 15.402c8.446 0 15.293-6.896 15.293-15.402S27.564 0 19.118 0z" transform="translate(10)"/>
    </g>
</svg>
