<svg xmlns="http://www.w3.org/2000/svg" width="64" height="64" viewBox="0 0 64 64">
    <defs>
        <linearGradient id="a" x1="0%" y1="50%" y2="50%">
            <stop offset="0%" stop-color="#4DE1FF"/>
            <stop offset="100%" stop-color="#4DA6FF"/>
        </linearGradient>
        <linearGradient id="b" x1="78.812%" x2="56.277%" y1="67.482%" y2="9.89%">
            <stop offset="0%" stop-color="#4DA6FF"/>
            <stop offset="100%" stop-color="#4DC3FF"/>
        </linearGradient>
        <linearGradient id="c" x1="91.387%" x2="50%" y1="76.842%" y2="4.065%">
            <stop offset="0%" stop-color="#4DA6FF"/>
            <stop offset="100%" stop-color="#4DC3FF"/>
        </linearGradient>
    </defs>
    <g fill="none" fill-rule="evenodd">
        <path fill="url(#a)" d="M13.308 24.123l-.897 37.971c0 .987 1.44 1.787 3.215 1.787 1.776 0 3.215-.8 3.215-1.787l-1.944-39.758-3.589 1.787z" transform="translate(16)"/>
        <path fill="url(#b)" d="M17 20.549c-.04.018-4.44 2.383-4.44 2.383l.748 1.19 1.346 1.937 4.302-2.372c.253-.1.413-.356.419-.741.012-.77-.594-1.77-1.356-2.232-.258-.157-.5-.232-.71-.232a.706.706 0 0 0-.31.067" transform="translate(16)"/>
        <path fill="url(#c)" d="M10.628 21.898c-.404.199-2.675 1.4-3.13 1.72-.321.226-.516.633-.525 1.198-.022 1.366 1.054 3.139 2.402 3.958.686.417 1.311.507 1.762.315.064-.027 2.814-1.422 3.264-1.807.274-.234.438-.62.446-1.137.022-1.366-1.054-3.138-2.402-3.958-.459-.278-.89-.41-1.26-.41-.207 0-.394.04-.557.12" transform="translate(16)"/>
        <path fill="#4DE1FF" d="M17.794 5.212l.748 3.574 1.196 7.743 4.337 6.7 1.866-.985c.425-.261 1.046-.229 1.743.148l-1.964-7.65-9.57-12.806 1.644 3.276zM21.981 28.59l-3.439 5.36-.748 4.915.748.893 4.785-2.68 1.346-2.532.897-6.403-1.495-.893zM31.551 28.74l8.374 7.147 5.533 1.19L48 36.334l-.3-1.638-6.28-4.467-7.476-2.531-5.682-.894z"/>
        <path fill="#4DE1FF" d="M22.973 24.816c-.022 1.367 1.054 3.139 2.403 3.958 1.348.82 2.46.376 2.48-.99.022-1.367-1.054-3.14-2.402-3.959-1.349-.82-2.46-.376-2.481.991"/>
        <path fill="#4DC3FF" d="M16.15 1.936L16 0h.748l.897 1.191 2.063 5.507z"/>
    </g>
</svg>
