<svg xmlns="http://www.w3.org/2000/svg" width="80" height="80" viewBox="0 0 80 80">
    <g fill="none" fill-rule="evenodd">
        <path fill="#00687B" d="M27.776 1.537c-.742-.172-4.027-.698-4.95-.904A13.438 13.438 0 0 0 19.89.31c-8.491 0-15.375 7.653-15.375 17.475v44.579c0 9.821 6.884 17.474 15.375 17.474a13.42 13.42 0 0 0 2.937-.324c.922-.206 4.207-.732 4.949-.903 6.8-1.573 11.925-8.517 11.925-16.846V18.383c0-8.33-5.125-15.274-11.925-16.846"/>
        <path fill="#00687B" d="M19.89.309c-.859 0-1.7.081-2.521.238-1.069.204-4.605.816-5.34.984C5.215 3.093.078 10.044.078 18.383v43.381c0 8.339 5.137 15.29 11.95 16.851.735.169 4.271.78 5.34.985.82.156 1.662.237 2.521.237 8.492 0 15.376-7.653 15.376-17.475V17.784C35.266 7.962 28.382.31 19.89.31"/>
        <path fill="#00819A" d="M14.932 1.203C6.73 1.203.08 8.894.08 18.383v43.38c0 9.489 6.65 17.18 14.852 17.18 8.203 0 14.852-7.691 14.852-17.18v-43.38c0-9.489-6.65-17.18-14.852-17.18"/>
        <path fill="#FFF" fill-opacity=".3" d="M2.56 34.7a.928.928 0 0 1-.93-.927v-15.39c0-8.622 5.967-15.635 13.302-15.635.514 0 .93.414.93.926a.928.928 0 0 1-.93.927c-6.309 0-11.442 6.182-11.442 13.782v15.39a.929.929 0 0 1-.93.927m0 7.223a.928.928 0 0 1-.93-.927v-3.045c0-.512.416-.927.93-.927s.93.415.93.927v3.045a.929.929 0 0 1-.93.927"/>
        <path fill="#76FF68" d="M24.81 17.648c0 6.31-4.422 11.426-9.878 11.426S5.054 23.96 5.054 17.648c0-6.31 4.422-11.425 9.878-11.425s9.878 5.115 9.878 11.425M24.81 62.498c0 6.31-4.422 11.426-9.878 11.426s-9.878-5.115-9.878-11.426c0-6.31 4.422-11.426 9.878-11.426s9.878 5.116 9.878 11.426"/>
        <path fill="#00525F" d="M23.545 46.951H6.32a1.263 1.263 0 0 1-1.265-1.26V34.456c0-.696.566-1.26 1.265-1.26h17.226c.7 0 1.265.564 1.265 1.26V45.69c0 .696-.566 1.26-1.265 1.26"/>
        <path fill="#00687B" d="M23.62 46.951H8.533c-.657 0-1.19-.53-1.19-1.185V34.38c0-.654.533-1.185 1.19-1.185h15.089c.657 0 1.19.531 1.19 1.185v11.386c0 .654-.533 1.185-1.19 1.185"/>
        <path fill="#373B44" d="M47.325 51.876l-.068-.1-.034-2.806c-.02-1.571.584-3.142 1.817-4.136a5.314 5.314 0 0 1 3.344-1.174l2.576.394a23.61 23.61 0 0 0 3.577.273h2.925a23.61 23.61 0 0 0 3.577-.273l2.577-.394a5.29 5.29 0 0 1 4.595 2.643c.458.795.622 1.724.616 2.64l-.018 2.933H47.325zm30.647.77L78 55.884A1.113 1.113 0 0 1 76.88 57H43.149c-.615 0-1.115-.49-1.12-1.097L42 52.646c0-1.068.877-1.935 1.958-1.935h1.032l.013 1.08a2.32 2.32 0 0 0 2.323 2.312H72.81a2.32 2.32 0 0 0 2.322-2.312v-1.08h.881c1.083 0 1.96.867 1.96 1.935zM59.996 23.217c-.621 0-1.124-.495-1.124-1.109 0-.612.503-1.108 1.124-1.108.62 0 1.123.496 1.123 1.108 0 .614-.504 1.11-1.123 1.11zm.044 2.352c.62 0 1.123.496 1.123 1.109s-.503 1.108-1.123 1.108-1.124-.495-1.124-1.108c0-.613.503-1.11 1.124-1.11zm-.847 15.439l-2.372-2.342a1.095 1.095 0 0 1 0-1.562 1.129 1.129 0 0 1 1.582 0l.478.472V31.23c0-.61.5-1.105 1.119-1.105.617 0 1.117.495 1.117 1.105v6.347l.48-.473a1.129 1.129 0 0 1 1.581 0c.437.432.437 1.13 0 1.562l-2.374 2.344a1.115 1.115 0 0 1-1.611-.002z"/>
    </g>
</svg>
