<svg xmlns="http://www.w3.org/2000/svg" width="80" height="80" viewBox="0 0 80 80">
    <g fill="none" fill-rule="evenodd">
        <path fill="#00687B" d="M27.776 1.537c-.742-.172-4.027-.698-4.95-.904A13.438 13.438 0 0 0 19.89.31c-8.491 0-15.375 7.653-15.375 17.475v44.579c0 9.821 6.884 17.474 15.375 17.474a13.42 13.42 0 0 0 2.937-.324c.922-.206 4.207-.732 4.949-.903 6.8-1.573 11.925-8.517 11.925-16.846V18.383c0-8.33-5.125-15.274-11.925-16.846"/>
        <path fill="#00687B" d="M19.89.309c-.859 0-1.7.081-2.521.238-1.069.204-4.605.816-5.34.984C5.215 3.093.078 10.044.078 18.383v43.381c0 8.339 5.137 15.29 11.95 16.851.735.169 4.271.78 5.34.985.82.156 1.662.237 2.521.237 8.492 0 15.376-7.653 15.376-17.475V17.784C35.266 7.962 28.382.31 19.89.31"/>
        <path fill="#00819A" d="M14.932 1.203C6.73 1.203.08 8.894.08 18.383v43.38c0 9.489 6.65 17.18 14.852 17.18 8.203 0 14.852-7.691 14.852-17.18v-43.38c0-9.489-6.65-17.18-14.852-17.18"/>
        <path fill="#FFF" fill-opacity=".3" d="M2.56 34.7a.928.928 0 0 1-.93-.927v-15.39c0-8.622 5.967-15.635 13.302-15.635.514 0 .93.414.93.926a.928.928 0 0 1-.93.927c-6.309 0-11.442 6.182-11.442 13.782v15.39a.929.929 0 0 1-.93.927m0 7.223a.928.928 0 0 1-.93-.927v-3.045c0-.512.416-.927.93-.927s.93.415.93.927v3.045a.929.929 0 0 1-.93.927"/>
        <path fill="#76FF68" d="M24.81 17.648c0 6.31-4.422 11.426-9.878 11.426S5.054 23.96 5.054 17.648c0-6.31 4.422-11.425 9.878-11.425s9.878 5.115 9.878 11.425M24.81 62.498c0 6.31-4.422 11.426-9.878 11.426s-9.878-5.115-9.878-11.426c0-6.31 4.422-11.426 9.878-11.426s9.878 5.116 9.878 11.426"/>
        <path fill="#00525F" d="M23.545 46.951H6.32a1.263 1.263 0 0 1-1.265-1.26V34.456c0-.696.566-1.26 1.265-1.26h17.226c.7 0 1.265.564 1.265 1.26V45.69c0 .696-.566 1.26-1.265 1.26"/>
        <path fill="#00687B" d="M23.62 46.951H8.533c-.657 0-1.19-.53-1.19-1.185V34.38c0-.654.533-1.185 1.19-1.185h15.089c.657 0 1.19.531 1.19 1.185v11.386c0 .654-.533 1.185-1.19 1.185"/>
        <path fill="#373B44" d="M47.628 32.09h8.688v-8.714h-8.688v8.714zm-1.184 2.376c-.655 0-1.184-.53-1.184-1.188V22.19c0-.658.529-1.189 1.184-1.189h11.057c.654 0 1.184.53 1.184 1.189v11.09c0 .657-.53 1.187-1.184 1.187H46.444zm19.25 15.591h8.686v-8.715h-8.687v8.715zm9.872-11.091c.654 0 1.184.531 1.184 1.189v11.091c0 .656-.53 1.187-1.184 1.187H64.509c-.654 0-1.185-.53-1.185-1.187V40.155c0-.658.53-1.19 1.185-1.19h11.057zm-9.873-6.801h8.687V23.45h-8.687v8.715zm9.873-11.09c.654 0 1.184.531 1.184 1.187v11.092c0 .656-.53 1.187-1.184 1.187H64.509c-.654 0-1.185-.531-1.185-1.187V22.262c0-.656.53-1.188 1.185-1.188h11.057zM51.972 56.631c.652 0 1.181.53 1.181 1.184 0 .654-.529 1.184-1.18 1.184-.652 0-1.181-.53-1.181-1.184 0-.654.529-1.184 1.18-1.184zm5.994-7.094a1.19 1.19 0 0 0-.101-1.678 1.179 1.179 0 0 0-1.672.101 5.645 5.645 0 0 1-4.223 1.906 5.644 5.644 0 0 1-4.22-1.9 1.178 1.178 0 0 0-1.671-.1 1.19 1.19 0 0 0-.1 1.678 8.012 8.012 0 0 0 5.991 2.698c2.29 0 4.475-.985 5.996-2.705zM47.984 43.2a1.193 1.193 0 0 0-.097 1.678 5.468 5.468 0 0 0 4.083 1.837 5.46 5.46 0 0 0 4.088-1.843 1.193 1.193 0 0 0-.1-1.679 1.182 1.182 0 0 0-1.672.1c-1.175 1.33-3.453 1.328-4.628.005a1.186 1.186 0 0 0-1.674-.098zm3.988-4.287c-.652 0-1.18.53-1.18 1.185a1.182 1.182 0 1 0 2.36 0c0-.655-.528-1.185-1.18-1.185zm7.538-2.038c.654 0 1.185.53 1.185 1.188v15.123c0 .656-.53 1.188-1.185 1.188H44.434a1.185 1.185 0 0 1-1.184-1.188V38.064c0-.657.53-1.188 1.184-1.188H59.51z"/>
    </g>
</svg>
