<svg xmlns="http://www.w3.org/2000/svg" width="80" height="80" viewBox="0 0 80 80">
    <g fill="none" fill-rule="evenodd">
        <path fill="#00687B" d="M59.856 50.99c0 10.446-7.577 19.119-17.534 20.833-.934.16-5.29.873-6.559 1.004-.726.074-1.464.113-2.21.113h-2.074c-11.966 0-21.667-9.701-21.667-21.667v-23.46c0-11.966 9.7-21.667 21.667-21.667h2.074c.746 0 1.484.038 2.21.113 1.27.13 5.625.843 6.559 1.004 9.957 1.713 17.534 10.386 17.534 20.832V50.99z"/>
        <path fill="#00687B" d="M55.22 51.273c0 11.966-9.7 21.667-21.667 21.667h-2.074c-.679 0-1.35-.032-2.012-.094-1.34-.125-5.875-.868-6.832-1.037-9.92-1.744-17.459-10.399-17.459-20.82V28.096c0-10.42 7.539-19.075 17.459-20.82.957-.167 5.493-.91 6.832-1.035a21.624 21.624 0 0 1 2.012-.094h2.074c11.966 0 21.667 9.7 21.667 21.667v23.46z"/>
        <path fill="#00819A" d="M28.346 72.136h-2.024c-11.678 0-21.146-9.467-21.146-21.146V28.095c0-11.678 9.468-21.145 21.146-21.145h2.024c11.678 0 21.146 9.467 21.146 21.145V50.99c0 11.679-9.468 21.146-21.146 21.146"/>
        <path fill="#FFF" fill-opacity=".3" d="M7.769 39.63a.972.972 0 0 1-.972-.971V28.095c0-10.766 8.759-19.525 19.525-19.525h2.024a.972.972 0 1 1 0 1.944h-2.024c-9.694 0-17.58 7.887-17.58 17.581V38.66a.972.972 0 0 1-.973.972m0 7.146a.972.972 0 0 1-.972-.972v-2.923a.972.972 0 0 1 1.944 0v2.923a.972.972 0 0 1-.972.972"/>
        <path fill="#76FF68" d="M37.658 24.204c0 6.62-4.622 11.988-10.324 11.988S17.01 30.825 17.01 24.204c0-6.621 4.622-11.988 10.324-11.988s10.324 5.367 10.324 11.988M37.658 54.882c0 6.62-4.622 11.987-10.324 11.987S17.01 61.502 17.01 54.882c0-6.621 4.622-11.988 10.324-11.988s10.324 5.367 10.324 11.988M74.94 45.693c0 12.808-7.718 23.19-17.24 23.19-9.52 0-17.238-10.382-17.238-23.19 0-12.807 7.718-23.19 17.239-23.19 9.52 0 17.239 10.383 17.239 23.19"/>
        <path fill="#5C606A" d="M57.7 22.503c-9.52 0-17.238 10.383-17.238 23.19 0 12.808 7.718 23.19 17.239 23.19 9.52 0 17.238-10.382 17.238-23.19 0-12.807-7.717-23.19-17.238-23.19m0 1.806c8.51 0 15.432 9.593 15.432 21.384 0 11.79-6.923 21.384-15.432 21.384-8.51 0-15.432-9.593-15.432-21.384 0-11.79 6.922-21.384 15.432-21.384"/>
    </g>
</svg>
