<svg xmlns="http://www.w3.org/2000/svg" width="24" height="24" viewBox="0 0 24 24">
    <g fill="none" fill-rule="evenodd">
        <path fill="#FFF" d="M23.222 17.537c0-3.146-2.55-5.693-5.694-5.693s-5.693 2.547-5.693 5.693c0 3.145 2.549 5.693 5.693 5.693 3.145 0 5.694-2.548 5.694-5.693"/>
        <path fill="#323843" d="M15.705 14.05h3.617c.927 0 1.678.752 1.678 1.679v3.616c0 .927-.75 1.68-1.678 1.68h-3.617c-.927 0-1.679-.753-1.679-1.68v-3.616c0-.927.752-1.679 1.68-1.679zm0 .623c-.583 0-1.056.473-1.056 1.056v3.616c0 .583.473 1.056 1.056 1.056h3.617c.583 0 1.055-.473 1.055-1.056v-3.616c0-.583-.472-1.056-1.055-1.056h-3.617z"/>
        <path fill="#323843" d="M6.191 7.108l-1.42-1.42c-.127-.128-.127-.335 0-.462l.692-.691c.128-.13.335-.13.462 0l1.42 1.42c.127.127.127.334 0 .462l-.692.69c-.128.129-.335.129-.462 0zM9.507 5.52c-.18 0-.327-.146-.327-.327V3.204c0-.18.147-.328.327-.328h.98c.181 0 .327.147.327.328v1.99c0 .18-.146.326-.328.326h-.98zm-3.75 4.73c0 .18-.146.326-.327.326H3.422c-.18 0-.327-.146-.327-.327v-.978c0-.181.146-.328.327-.328H5.43c.181 0 .327.147.327.328v.978zm7.584-3.142l-.692-.691c-.128-.128-.128-.335 0-.463l1.42-1.42c.127-.128.334-.128.462 0l.691.692c.128.127.128.334 0 .462l-1.42 1.42c-.127.128-.334.128-.461 0zm.896 2.162c0-.181.146-.326.327-.326h2.008c.18 0 .328.145.328.326v.98c0 .18-.147.327-.328.327h-2.008c-.181 0-.327-.148-.327-.328v-.98zm3.284 13.144c2.693 0 4.884-2.19 4.884-4.884 0-2.695-2.19-4.885-4.884-4.885-2.694 0-4.885 2.19-4.885 4.885 0 2.693 2.191 4.884 4.885 4.884zm-9.38-9.398h3.712V9.76c0-1.023-.833-1.856-1.856-1.856-1.023 0-1.856.833-1.856 1.856v3.257zm3.368 2.14c.069-.174.146-.342.228-.508H7.054v.507h4.455zM8.563 18.37h2.55c-.036-.276-.061-.555-.061-.84 0-.252.018-.498.046-.742H5.919c-.275 0-.498-.223-.498-.498v-2.775c0-.276.223-.499.498-.499h.589V9.76c0-1.923 1.565-3.488 3.49-3.488 1.923 0 3.488 1.565 3.488 3.488v2.722c1.108-.887 2.509-1.421 4.035-1.421.285 0 .564.025.84.061V8.072c0-4.327-2.103-6.43-6.43-6.43H8.064c-4.327 0-6.43 2.103-6.43 6.43v3.868c0 4.327 2.103 6.43 6.43 6.43h.5zm11.43-6.817c2.344.973 3.998 3.284 3.998 5.977 0 3.568-2.903 6.469-6.47 6.469-2.692 0-5.003-1.653-5.976-3.998H8.063C2.848 20.001 0 17.153 0 11.941V8.072C0 2.857 2.849.008 8.062.008H11.931c5.213 0 8.062 2.85 8.062 8.062V11.553z"/>
    </g>
</svg>
