<svg xmlns="http://www.w3.org/2000/svg" width="24" height="24" viewBox="0 0 24 24">
    <g fill="none" fill-rule="evenodd">
        <path fill="#09B70C" d="M23.223 17.537c0-3.145-2.549-5.693-5.694-5.693-3.144 0-5.693 2.548-5.693 5.693 0 3.146 2.55 5.694 5.693 5.694 3.145 0 5.694-2.548 5.694-5.694"/>
        <path fill="#323843" d="M20.274 15.39c0 .169-.071.322-.186.43l-4.285 4.286c-.108.115-.262.187-.433.187-.327 0-.593-.265-.593-.593 0-.174.076-.331.195-.44l4.273-4.273c.109-.118.263-.191.436-.191.327 0 .593.266.593.594zm-.678 1.804c.362 0 .655.29.659.65h.006v1.77h-.006v.012c0 .363-.295.658-.66.658v.004h-1.767v-.004h-.004c-.364 0-.66-.295-.66-.658 0-.192.082-.364.212-.485l1.754-1.756c.12-.117.284-.191.466-.191z"/>
        <path fill="#323843" d="M6.192 7.108l-1.419-1.42c-.128-.128-.128-.335 0-.462l.692-.691c.128-.13.335-.13.462 0l1.42 1.42c.127.127.127.334 0 .462l-.693.69c-.128.129-.335.129-.462 0zM9.508 5.52c-.18 0-.327-.146-.327-.327V3.204c0-.18.147-.328.327-.328h.98c.182 0 .327.147.327.328v1.99c0 .18-.145.326-.327.326h-.98zm-3.75 4.73c0 .18-.145.326-.326.326H3.424c-.181 0-.327-.146-.327-.327v-.978c0-.181.146-.328.327-.328h2.008c.18 0 .327.147.327.328v.978zm7.584-3.142l-.691-.691c-.128-.128-.128-.335 0-.463l1.42-1.42c.126-.128.333-.128.46 0l.693.692c.128.127.128.334 0 .462l-1.42 1.42c-.128.128-.335.128-.462 0zm.896 2.162c0-.181.146-.326.327-.326h2.008c.181 0 .328.145.328.326v.98c0 .18-.147.327-.328.327h-2.008c-.181 0-.327-.148-.327-.328v-.98zm3.285 13.144c2.693 0 4.884-2.19 4.884-4.884 0-2.695-2.191-4.885-4.884-4.885-2.694 0-4.885 2.19-4.885 4.885 0 2.693 2.19 4.884 4.885 4.884zm-9.38-9.398h3.711V9.76c0-1.023-.833-1.856-1.855-1.856-1.024 0-1.856.833-1.856 1.856v3.257zm3.367 2.14c.07-.174.146-.342.228-.508H7.055v.507h4.455zM8.564 18.37h2.55c-.036-.276-.06-.555-.06-.84 0-.252.017-.498.045-.742H5.921c-.275 0-.498-.223-.498-.498v-2.775c0-.276.223-.499.498-.499h.588V9.76C6.51 7.836 8.075 6.27 10 6.27c1.923 0 3.488 1.565 3.488 3.488v2.722c1.108-.887 2.51-1.421 4.036-1.421.285 0 .563.025.84.061V8.072c0-4.327-2.104-6.43-6.43-6.43H8.064c-4.327 0-6.43 2.103-6.43 6.43v3.868c0 4.327 2.103 6.43 6.43 6.43h.5zm11.43-6.817c2.345.973 3.998 3.284 3.998 5.977 0 3.568-2.903 6.469-6.47 6.469-2.691 0-5.002-1.653-5.976-3.998H8.064c-5.213 0-8.062-2.848-8.062-8.06V8.072C.002 2.857 2.851.008 8.064.008H11.933c5.213 0 8.062 2.85 8.062 8.062V11.553z"/>
    </g>
</svg>
