<svg xmlns="http://www.w3.org/2000/svg" width="24" height="24" viewBox="0 0 24 24">
    <path fill="#323843" fill-rule="evenodd" d="M22.04 13.72V9.679c0-5.194-2.524-7.718-7.717-7.718H9.677c-5.193 0-7.717 2.524-7.717 7.717V14.323c0 5.192 2.524 7.717 7.717 7.717H14.323c5.193 0 7.717-2.525 7.717-7.717v-.602zM24 9.678v.602h-.001H24V14.323C24 20.58 20.58 24 14.323 24H9.677C3.42 24 0 20.58 0 14.323V9.677C0 3.42 3.42 0 9.677 0H14.323C20.58 0 24 3.42 24 9.677zM8.468 18.18h7.065v-.607H8.468v.607zm1.304-6.477v3.909h4.456v-3.909A2.23 2.23 0 0 0 12 9.476a2.23 2.23 0 0 0-2.228 2.228zm7.123 3.909c.33 0 .598.268.598.598v3.332c0 .33-.268.598-.598.598h-9.79a.598.598 0 0 1-.598-.598v-3.332c0-.33.268-.598.598-.598h.707v-3.909A4.193 4.193 0 0 1 12 7.516a4.193 4.193 0 0 1 4.188 4.188v3.909h.707z"/>
</svg>
