<svg xmlns="http://www.w3.org/2000/svg" width="24" height="24" viewBox="0 0 24 24">
    <g fill="none" fill-rule="evenodd">
        <path fill="#0095D2" d="M23.114 17.527a5.693 5.693 0 0 0-5.694-5.693 5.693 5.693 0 1 0 5.694 5.693"/>
        <path fill="#323843" d="M6.193 7.101l-1.42-1.42a.326.326 0 0 1 0-.462l.692-.693a.326.326 0 0 1 .462 0l1.421 1.42a.329.329 0 0 1 0 .463l-.693.692a.326.326 0 0 1-.462 0zm3.318-1.588a.327.327 0 0 1-.327-.327v-1.99c0-.181.147-.328.327-.328h.98c.18 0 .327.147.327.328v1.99a.327.327 0 0 1-.327.327h-.98zm-3.752 4.73a.326.326 0 0 1-.327.328H3.423a.326.326 0 0 1-.327-.327v-.98c0-.18.146-.327.327-.327h2.01c.18 0 .326.147.326.328v.979zm7.587-3.142l-.693-.692a.329.329 0 0 1 0-.463l1.421-1.42a.326.326 0 0 1 .462 0l.692.693a.326.326 0 0 1 0 .462l-1.42 1.42a.326.326 0 0 1-.462 0zm.896 2.163c0-.18.146-.327.327-.327h2.01c.18 0 .327.146.327.327v.98a.328.328 0 0 1-.328.327H14.57a.327.327 0 0 1-.327-.328v-.979zm3.286 13.15a4.892 4.892 0 0 0 4.886-4.886 4.892 4.892 0 0 0-4.886-4.887 4.892 4.892 0 0 0-4.887 4.887 4.892 4.892 0 0 0 4.887 4.886zm-9.384-9.402h3.713V9.754a1.859 1.859 0 0 0-1.856-1.857 1.859 1.859 0 0 0-1.857 1.857v3.258zm3.37 2.14c.068-.173.145-.341.227-.507H7.056v.507h4.457zm-2.948 3.216h2.551a6.474 6.474 0 0 1-.06-.84 6.5 6.5 0 0 1 .045-.743h-5.18a.498.498 0 0 1-.499-.498V13.51c0-.276.223-.5.498-.5h.59V9.755A3.495 3.495 0 0 1 10 6.264a3.494 3.494 0 0 1 3.49 3.49v2.723a6.433 6.433 0 0 1 4.037-1.422c.285 0 .564.025.84.06v-3.05c0-4.328-2.104-6.432-6.432-6.432h-3.87c-4.329 0-6.433 2.104-6.433 6.432v3.87c0 4.329 2.104 6.433 6.432 6.433h.501zm11.435-6.82a6.482 6.482 0 0 1 4 5.98A6.48 6.48 0 0 1 17.527 24a6.481 6.481 0 0 1-5.979-4H8.066C2.85 20 0 17.15 0 11.937V8.065C0 2.85 2.85 0 8.065 0h3.871c5.215 0 8.065 2.85 8.065 8.065v3.483zm-4.721 8.119v-4.28h4.28v4.28h-4.28z"/>
    </g>
</svg>
