<svg xmlns="http://www.w3.org/2000/svg" width="24" height="24" viewBox="0 0 24 24">
    <g fill="none" fill-rule="evenodd">
        <path fill="#CC1C24" d="M23.222 17.537c0-3.145-2.549-5.693-5.694-5.693-3.144 0-5.693 2.548-5.693 5.693 0 3.146 2.55 5.694 5.693 5.694 3.145 0 5.694-2.548 5.694-5.694"/>
        <path fill="#323843" d="M17.013 19.163c-.143.142-.34.23-.558.23-.434 0-.786-.349-.79-.782h-.009V16.49h.008v-.014c0-.436.353-.79.79-.79v-.004h2.123v.003h.004c.438 0 .791.355.791.791 0 .23-.097.436-.253.581l-2.106 2.107z"/>
        <path fill="#323843" d="M6.191 7.108l-1.419-1.42c-.128-.128-.128-.335 0-.462l.692-.691c.128-.13.335-.13.462 0l1.42 1.42c.127.127.127.334 0 .462l-.693.69c-.128.129-.335.129-.462 0zM9.507 5.52c-.179 0-.326-.146-.326-.327V3.204c0-.18.147-.328.326-.328h.98c.182 0 .327.147.327.328v1.99c0 .18-.145.326-.327.326h-.98zm-3.75 4.73c0 .18-.145.326-.326.326H3.423c-.181 0-.327-.146-.327-.327v-.978c0-.181.146-.328.327-.328H5.43c.18 0 .327.147.327.328v.978zm7.584-3.142l-.691-.691c-.128-.128-.128-.335 0-.463l1.42-1.42c.126-.128.333-.128.46 0l.693.692c.128.127.128.334 0 .462l-1.42 1.42c-.128.128-.335.128-.462 0zm.896 2.162c0-.181.146-.326.327-.326h2.008c.181 0 .328.145.328.326v.98c0 .18-.147.327-.328.327h-2.008c-.181 0-.327-.148-.327-.328v-.98zm3.285 13.144c2.693 0 4.884-2.19 4.884-4.884 0-2.695-2.191-4.885-4.884-4.885-2.694 0-4.885 2.19-4.885 4.885 0 2.693 2.19 4.884 4.885 4.884zm-9.38-9.398h3.711V9.76c0-1.023-.833-1.856-1.855-1.856-1.024 0-1.856.833-1.856 1.856v3.257zm3.367 2.14c.07-.174.146-.342.228-.508H7.054v.507h4.455zM8.563 18.37h2.55c-.036-.276-.06-.555-.06-.84 0-.252.017-.498.045-.742H5.92c-.275 0-.498-.223-.498-.498v-2.775c0-.276.223-.499.498-.499h.588V9.76c0-1.923 1.566-3.488 3.49-3.488 1.923 0 3.488 1.565 3.488 3.488v2.722c1.108-.887 2.51-1.421 4.036-1.421.285 0 .563.025.84.061V8.072c0-4.327-2.104-6.43-6.43-6.43H8.063c-4.327 0-6.43 2.103-6.43 6.43v3.868c0 4.327 2.103 6.43 6.43 6.43h.5zm11.43-6.817c2.345.973 3.998 3.284 3.998 5.977 0 3.568-2.903 6.469-6.47 6.469-2.691 0-5.002-1.653-5.976-3.998H8.063C2.85 20.001 0 17.153 0 11.941V8.072C.001 2.857 2.85.008 8.063.008H11.932c5.213 0 8.062 2.85 8.062 8.062V11.553z"/>
    </g>
</svg>
