<svg xmlns="http://www.w3.org/2000/svg" width="44" height="44" viewBox="0 0 44 44">
    <g fill="none" fill-rule="evenodd">
        <path fill="#111410" d="M3.75 24.181h16.5l-5.32-3.676-2.68 1.851a.439.439 0 0 1-.5 0l-2.68-1.851-5.32 3.676zm-.896-7.972v7.582l5.487-3.79-5.487-3.792zm17.396-.39H3.75l8.25 5.7 8.25-5.7zm.896 7.972V16.21L15.66 20l5.487 3.791zm.854.797v.003l-.002.007c0 .04-.005.08-.018.118-.003.007-.008.012-.01.018-.007.017-.016.03-.024.045a.387.387 0 0 1-.178.17c-.014.008-.028.016-.043.022a.436.436 0 0 1-.152.029H2.427a.436.436 0 0 1-.152-.03c-.015-.005-.028-.013-.043-.02a.414.414 0 0 1-.178-.17c-.008-.015-.017-.03-.024-.046-.002-.006-.007-.011-.01-.018a.4.4 0 0 1-.018-.117L2 24.591v-9.182l.002-.008c0-.04.006-.079.018-.117.003-.006.008-.012.01-.018.007-.016.016-.03.024-.046a.408.408 0 0 1 .178-.17c.015-.007.028-.015.043-.02a.437.437 0 0 1 .152-.03h19.146c.054 0 .104.012.152.03.015.005.029.013.043.02a.417.417 0 0 1 .122.092c.023.024.04.05.056.079.008.015.017.029.024.045.002.006.007.012.01.018a.384.384 0 0 1 .018.118l.002.007v9.179zm-6.504-13.456V8.12c0-.24.192-.434.43-.434H17.3L12.5 3.98 7.699 7.685h1.376c.237 0 .43.195.43.434v3.013h5.99zM9.075 12a.432.432 0 0 1-.43-.434V8.553H6.43a.436.436 0 0 1-.26-.778l6.07-4.686a.425.425 0 0 1 .521 0l6.071 4.686c.146.113.205.307.146.483a.43.43 0 0 1-.406.295h-2.216v3.013c0 .24-.193.434-.43.434h-6.85z"/>
        <path fill="#000" fill-rule="nonzero" d="M33 42.75c-5.385 0-9.75-4.365-9.75-9.75s4.365-9.75 9.75-9.75 9.75 4.365 9.75 9.75-4.365 9.75-9.75 9.75zm0-1.5a8.25 8.25 0 1 0 0-16.5 8.25 8.25 0 0 0 0 16.5z"/>
        <path fill="#000" d="M29 38.476V28h3.242c.927 0 1.756.207 2.487.622a4.351 4.351 0 0 1 1.711 1.77c.41.765.615 1.635.615 2.608v.483c0 .973-.201 1.839-.604 2.597a4.314 4.314 0 0 1-1.704 1.763c-.734.417-1.561.628-2.483.633H29zm2.171-8.728v6.994h1.05c.849 0 1.498-.276 1.947-.828.448-.551.678-1.34.687-2.367v-.554c0-1.065-.222-1.872-.666-2.42-.444-.55-1.093-.825-1.947-.825h-1.07z"/>
    </g>
</svg>
