<svg xmlns="http://www.w3.org/2000/svg" width="24" height="24" viewBox="0 0 24 24">
    <path fill="#323843" fill-rule="evenodd" d="M16.349 19.74h1.6v2.05h-1.186a.415.415 0 0 1-.414-.414V19.74zm4.493-7.128a3.81 3.81 0 0 1 2.686 1.924l-1.402.772a2.22 2.22 0 0 0-1.562-1.121l.278-1.575zM24 16.379v2.263h-1.6v-2.265c0-.11-.007-.217-.023-.322l1.584-.227c.026.18.04.366.039.55zm-6.052 2.28h-1.6v-2.28c0-.18.013-.358.038-.532l1.583.224a2.414 2.414 0 0 0-.02.308v2.28zm1.536-6.043l.287 1.574a2.215 2.215 0 0 0-1.555 1.13l-1.406-.764a3.808 3.808 0 0 1 2.674-1.94zm4.102 9.174H22.4v-2.05H24v1.636a.414.414 0 0 1-.414.414zm-4.638 0v-1.6H21.4v1.6h-2.452zM4.753 15.676h7.065v-.607H4.753v.607zm1.305-6.477v3.909h4.456V9.199c0-1.228-1-2.228-2.229-2.228a2.23 2.23 0 0 0-2.227 2.228zm7.122 3.909c.33 0 .598.268.598.599v3.331c0 .33-.268.598-.598.598H3.391a.598.598 0 0 1-.598-.598v-3.331c0-.331.268-.599.598-.599h.707V9.199a4.193 4.193 0 0 1 4.187-4.188 4.193 4.193 0 0 1 4.189 4.188v3.909h.706zM3.716 6.016L2.013 4.312a.393.393 0 0 1 0-.555l.83-.83a.394.394 0 0 1 .556 0L5.102 4.63a.393.393 0 0 1 0 .555l-.83.831a.394.394 0 0 1-.556 0zM7.697 4.11a.392.392 0 0 1-.392-.392v-2.39c0-.215.175-.391.392-.391h1.176c.217 0 .392.176.392.392v2.389a.392.392 0 0 1-.392.392H7.697zm-4.5 5.677a.393.393 0 0 1-.394.392H.393A.392.392 0 0 1 0 9.787V8.611c0-.216.175-.392.392-.392h2.411c.217 0 .393.176.393.392v1.176zm9.102-3.77l-.83-.832a.393.393 0 0 1 0-.555l1.703-1.704a.394.394 0 0 1 .556 0l.83.831a.393.393 0 0 1 0 .555l-1.703 1.704a.394.394 0 0 1-.556 0zm3.879 2.202c.217 0 .393.176.393.392v1.176a.393.393 0 0 1-.393.392h-2.411a.392.392 0 0 1-.392-.392V8.611c0-.216.175-.392.392-.392h2.41z"/>
</svg>
