<svg xmlns="http://www.w3.org/2000/svg" width="24" height="24" viewBox="0 0 24 24">
    <path fill="#323843" fill-rule="evenodd" d="M0 21.376V19.74h1.6v2.051H.414c-.229 0-.414-.186-.414-.414zm3.158-8.765l.278 1.575c-.665.119-1.234.527-1.562 1.121l-1.402-.771c.563-1.021 1.541-1.723 2.686-1.925zM0 16.38c-.001-.186.013-.37.039-.552l1.584.228c-.016.104-.023.212-.023.322v2.265H0V16.38zm2.6 5.411v-1.601h2.452v1.601H2.6zm3.43-5.72l1.584-.223c.025.173.038.351.038.531v2.282h-1.6v-2.282c0-.104-.008-.206-.021-.308zm-1.514-3.455c1.144.21 2.118.916 2.674 1.94l-1.406.764c-.324-.597-.891-1.009-1.555-1.13l.287-1.574zM6.05 21.79v-2.05h1.6v1.636c0 .227-.186.414-.414.414H6.051zM19.728 6.016l-.83-.831c-.152-.152-.152-.4 0-.555l1.704-1.704c.152-.153.401-.153.555 0l.83.83c.154.156.154.404 0 .556l-1.702 1.704c-.154.153-.404.153-.556 0zM15.128 4.11c-.217 0-.392-.176-.392-.392v-2.39c0-.215.175-.391.392-.391h1.176c.217 0 .392.176.392.392v2.389c0 .216-.175.392-.392.392h-1.176zm-3.982 1.906L9.444 4.312c-.153-.152-.153-.4 0-.555l.83-.831c.152-.153.402-.153.556 0L12.53 4.63c.153.155.153.403 0 .555l-.83.83c-.154.154-.402.154-.556 0zm-.519 3.771c0 .216-.176.392-.393.392H7.822c-.217 0-.392-.176-.392-.392V8.61c0-.216.175-.39.392-.39h2.411c.217 0 .393.174.393.39v1.177zM23.607 8.22c.217 0 .393.176.393.393v1.175c0 .216-.176.392-.393.392h-2.41c-.218 0-.393-.176-.393-.392V8.612c0-.217.175-.393.392-.393h2.411zm-4.415 9.908c.836 0 1.517-.68 1.517-1.517 0-1.048-.763-2.21-1.517-3.082-.754.872-1.517 2.034-1.517 3.082 0 .836.68 1.517 1.517 1.517zm-7.01-3.059v.608h3.643c.045-.205.1-.408.168-.608h-3.81zm1.304-5.87v3.91h3.547c.3-.42.613-.798.91-1.122V9.198c0-1.227-1-2.227-2.229-2.227s-2.228 1-2.228 2.227zm6.416 2.232c1.017.987 2.767 3.002 2.767 5.18 0 1.92-1.557 3.477-3.477 3.477-1.56 0-2.866-1.035-3.306-2.45H10.82c-.33 0-.597-.269-.597-.599v-3.33c0-.332.267-.6.597-.6h.707v-3.91c0-2.308 1.88-4.187 4.188-4.187 2.31 0 4.188 1.88 4.188 4.187v2.232z"/>
</svg>
