<svg xmlns="http://www.w3.org/2000/svg" width="24" height="24" viewBox="0 0 24 24">
    <path fill="#323843" fill-rule="evenodd" d="M3.158 12.611l.278 1.575c-.665.119-1.234.527-1.562 1.121l-1.402-.771c.563-1.021 1.541-1.723 2.686-1.925zM0 16.38c-.001-.186.013-.37.039-.552l1.584.228c-.016.104-.023.212-.023.322v2.265H0V16.38zm2.6 5.411v-1.601h2.452v1.601H2.6zM0 21.376V19.74h1.6v2.051H.414c-.229 0-.414-.186-.414-.414zm6.03-5.306l1.584-.223c.025.173.038.351.038.531v2.282h-1.6v-2.282c0-.104-.008-.206-.021-.308zm.021 5.72v-2.05h1.6v1.636c0 .227-.186.414-.414.414H6.051zm-1.535-9.175c1.144.21 2.118.916 2.674 1.94l-1.406.764c-.324-.597-.891-1.009-1.555-1.13l.287-1.574zm14.676 5.512c.836 0 1.517-.68 1.517-1.517 0-1.048-.763-2.21-1.517-3.082-.754.872-1.517 2.034-1.517 3.082 0 .836.68 1.517 1.517 1.517zm-7.01-3.059v.608h3.644c.044-.205.099-.408.168-.608h-3.811zm1.305-5.87v3.91h3.546c.3-.42.614-.798.91-1.123V9.198c0-1.227-1-2.227-2.228-2.227-1.23 0-2.228 1-2.228 2.227zm6.416 2.232c1.017.988 2.766 3.002 2.766 5.18 0 1.92-1.557 3.477-3.477 3.477-1.561 0-2.866-1.035-3.306-2.45H10.82c-.33 0-.597-.269-.597-.599v-3.332c0-.33.267-.599.597-.599h.707V9.198c0-2.308 1.879-4.187 4.188-4.187 2.309 0 4.188 1.88 4.188 4.187v2.232z"/>
</svg>
