<svg xmlns="http://www.w3.org/2000/svg" width="24" height="24" viewBox="0 0 24 24">
    <path fill="#323843" fill-rule="evenodd" d="M11.54 9.893c.424.153.757.386.997.698.241.314.362.699.362 1.16 0 .712-.274 1.282-.822 1.709-.548.426-1.266.64-2.158.64-.523 0-1.007-.1-1.454-.298-.447-.2-.786-.474-1.017-.827a2.157 2.157 0 0 1-.345-1.202H8.96c0 .245.1.456.296.636.197.177.44.268.728.268.326 0 .585-.091.78-.271a.91.91 0 0 0 .29-.695c0-.4-.102-.686-.302-.854-.2-.167-.479-.252-.833-.252H9.02V9.23h.872c.69 0 1.035-.338 1.035-1.014a.879.879 0 0 0-.246-.642c-.164-.167-.397-.25-.697-.25a.994.994 0 0 0-.637.215.65.65 0 0 0-.272.53H7.23c0-.42.118-.794.351-1.123a2.32 2.32 0 0 1 .973-.77A3.325 3.325 0 0 1 9.92 5.9c.888 0 1.585.202 2.093.607.507.407.761.964.761 1.671 0 .345-.105.668-.315.973-.21.306-.516.553-.918.742zm10.94 3.447v-.59l-6.29.966v.588l6.29-.964zm-7.354-.983l3.049-.468A8.22 8.22 0 0 0 18.402 10c0-4.632-3.77-8.401-8.401-8.401S1.6 5.369 1.6 10c0 4.633 3.769 8.402 8.4 8.402 1.73 0 3.335-.53 4.672-1.428v-4.091c0-.264.19-.485.453-.526zm-.77 6.622c.105.03.216.044.317.09v-.264c-.106.057-.21.12-.317.174zm-.73 3.478a1.05 1.05 0 0 0 1.048-1.05 1.05 1.05 0 1 0-1.048 1.049zm7.805-1.352a1.05 1.05 0 0 0 1.049-1.05 1.05 1.05 0 0 0-2.098 0 1.05 1.05 0 0 0 1.049 1.05zm2.38-9.892a.53.53 0 0 1 .185.4v8.443a2.567 2.567 0 0 1-2.565 2.564 2.554 2.554 0 0 1-1.99-.946 2.586 2.586 0 0 1-.518-2.164 2.553 2.553 0 0 1 2.086-1.984 2.581 2.581 0 0 1 1.47.19V14.86l-6.29.965V21.3c0 1.437-1.12 2.636-2.497 2.67a2.557 2.557 0 0 1-2.014-.895 2.572 2.572 0 0 1-.574-2.142c.07-.393.236-.756.472-1.067A9.844 9.844 0 0 1 10 20C4.488 20 0 15.516 0 10 0 4.487 4.488 0 10 0c5.515 0 10 4.487 10 10 0 .56-.065 1.1-.157 1.633l3.538-.542a.53.53 0 0 1 .429.122z"/>
</svg>
