<svg xmlns="http://www.w3.org/2000/svg" width="24" height="24" viewBox="0 0 24 24">
    <path fill="#323843" fill-rule="evenodd" d="M5.713 3.393c.216 0 .392.176.392.393v5.523a.242.242 0 0 0 .484 0V2.363c0-.217.177-.393.393-.393h1.053c.216 0 .392.176.392.393v7.042h.02a.242.242 0 0 0 .466-.096l-.001-5.964c0-.217.176-.392.392-.392h1.054c.215 0 .39.175.39.392l-.004 5.964c0 .134.11.243.242.243.1 0 .186-.061.223-.147h.025V4.44c0-.216.176-.391.392-.391h1.054a.39.39 0 0 1 .39.39v10.186c0 .912-.354 1.768-1 2.412a3.388 3.388 0 0 1-2.405.995h-.007l-1.481-.003a5.278 5.278 0 0 1-4.73-2.992L.973 9.846a.245.245 0 0 1-.01-.195.251.251 0 0 1 .13-.146l.095-.044a1.478 1.478 0 0 1 1.967.702l1.113 2.358V3.786c0-.217.175-.393.39-.393h1.055zm16.766 16.663a1.05 1.05 0 0 0-2.098 0 1.05 1.05 0 0 0 1.05 1.049 1.05 1.05 0 0 0 1.048-1.05zm-7.806 1.353a1.051 1.051 0 0 0-1.048-1.05 1.05 1.05 0 1 0 1.048 1.05zm7.806-8.658l-6.29.965v.588l6.29-.964v-.59zm1.331-1.538a.53.53 0 0 1 .185.402v8.44a2.567 2.567 0 0 1-2.565 2.565 2.554 2.554 0 0 1-1.989-.946 2.584 2.584 0 0 1-.519-2.164 2.554 2.554 0 0 1 2.086-1.984 2.581 2.581 0 0 1 1.471.19v-2.854l-6.29.965V21.3c0 1.438-1.12 2.636-2.498 2.67-.022.002-.044.002-.066.002-.75 0-1.458-.324-1.948-.896a2.571 2.571 0 0 1-.574-2.143 2.574 2.574 0 0 1 2.115-2.058 2.61 2.61 0 0 1 1.454.193v-6.186c0-.264.191-.485.453-.526l8.256-1.266a.53.53 0 0 1 .43.122z"/>
</svg>
