<svg xmlns="http://www.w3.org/2000/svg" width="24" height="24" viewBox="0 0 24 24">
    <path fill="#323843" fill-rule="evenodd" d="M7.635 7.223l3.5-1.21h.17v7.976H9.453V8.094l-1.818.53V7.224zM22.48 13.34v-.59l-6.29.966v.588l6.29-.964zm-7.354-.983l3.048-.468A8.22 8.22 0 0 0 18.4 10C18.4 5.369 14.632 1.6 10 1.6 5.37 1.6 1.6 5.369 1.6 10c0 4.633 3.769 8.402 8.4 8.402 1.73 0 3.336-.53 4.673-1.43v-4.09c0-.263.19-.484.453-.525zm-.771 6.62c.105.033.217.046.318.092v-.264c-.106.056-.21.12-.318.173zm-.73 3.48a1.05 1.05 0 0 0 1.049-1.05 1.05 1.05 0 1 0-1.048 1.049zm7.806-1.352a1.05 1.05 0 0 0 1.049-1.05 1.05 1.05 0 0 0-2.098 0 1.05 1.05 0 0 0 1.049 1.05zm2.38-9.892a.53.53 0 0 1 .185.4v8.443a2.567 2.567 0 0 1-2.565 2.564 2.554 2.554 0 0 1-1.99-.946 2.586 2.586 0 0 1-.518-2.164 2.553 2.553 0 0 1 2.086-1.984 2.581 2.581 0 0 1 1.47.19V14.86l-6.29.965V21.3c0 1.437-1.12 2.636-2.497 2.67a2.557 2.557 0 0 1-2.014-.895 2.572 2.572 0 0 1-.574-2.142 2.5 2.5 0 0 1 .472-1.067A9.854 9.854 0 0 1 10 20C4.487 20 0 15.516 0 10 0 4.487 4.487 0 10 0c5.513 0 10 4.487 10 10 0 .56-.066 1.1-.158 1.633l3.539-.542a.53.53 0 0 1 .429.122z"/>
</svg>
