<svg xmlns="http://www.w3.org/2000/svg" width="24" height="24" viewBox="0 0 24 24">
    <path fill="#323843" fill-rule="evenodd" d="M12.719 22h9.618v-.456h-9.618V22zm1.711-2.845h6.196l.33.889H14.1l.33-.889zm1.103-2.976h3.99l.548 1.476h-5.086l.548-1.476zm2.833-3.122l.602 1.622h-2.88l.602-1.622h1.676zm5.099 6.987h-.909l-3.054-8.238a.38.38 0 0 0-.357-.249h-2.754c.21-.165.414-.332.608-.502a.266.266 0 0 0 .045-.347l-.781-1.214c.142-.136.283-.273.414-.408l.948.998c.104.11.282.11.387.001.208-.215.403-.428.584-.634a.264.264 0 0 0-.01-.358l-.987-1.04c.427-.518.737-.952.908-1.203a.264.264 0 0 0-.082-.371l-.718-.453a.264.264 0 0 0-.359.071c-.671.97-3.678 4.999-7.347 4.999-3.67 0-6.677-4.029-7.348-4.999a.264.264 0 0 0-.359-.071l-.717.453a.262.262 0 0 0-.082.371c.171.251.48.684.907 1.203l-.987 1.04a.265.265 0 0 0-.01.358c.181.206.376.418.584.634a.27.27 0 0 0 .388-.001l.948-.998c.13.135.271.271.413.408l-.781 1.214a.268.268 0 0 0 .045.347c.213.186.436.37.668.551a.272.272 0 0 0 .393-.067l.727-1.129c.176.14.357.276.544.408l-.532 1.328a.27.27 0 0 0 .105.329c.244.153.495.299.754.437.14.074.318.007.377-.14l.488-1.217c.216.113.439.214.664.31l-.267 1.369a.27.27 0 0 0 .174.306c.275.093.556.173.842.242a.268.268 0 0 0 .324-.211l.25-1.278c.261.06.527.105.798.134v1.32c0 .145.115.263.26.266.253.005.606.005.859 0a.265.265 0 0 0 .26-.266v-1.32c.271-.029.537-.074.798-.134l.249 1.278a.27.27 0 0 0 .324.211c.287-.069.568-.148.843-.242a.27.27 0 0 0 .174-.306l-.267-1.369c.226-.096.449-.197.664-.31l.489 1.217a.273.273 0 0 0 .377.14c.259-.137.509-.284.753-.437a.27.27 0 0 0 .105-.329l-.532-1.328c.187-.132.368-.268.544-.407l.728 1.129c.006.009.019.008.026.017h-.054a.38.38 0 0 0-.357.249l-3.053 8.238h-.91a.372.372 0 0 0-.372.373v2.701c0 .211.171.382.381.382h11.856a.381.381 0 0 0 .381-.382v-2.701a.372.372 0 0 0-.372-.373z"/>
</svg>
