<svg xmlns="http://www.w3.org/2000/svg" width="24" height="24" viewBox="0 0 24 24">
    <g fill="none" fill-rule="evenodd">
        <path fill="#0094D1" d="M23.221 17.527c0-3.145-2.549-5.693-5.694-5.693-3.144 0-5.693 2.548-5.693 5.693 0 3.145 2.55 5.694 5.693 5.694 3.145 0 5.694-2.55 5.694-5.694"/>
        <path fill="#323843" d="M18.029 15.91c.143-.144.34-.23.559-.23.433 0 .785.348.79.78h.007v2.123h-.007v.013c0 .436-.353.79-.79.79v.004h-2.122v-.004h-.005c-.437 0-.791-.354-.791-.79 0-.23.097-.436.254-.58l2.104-2.109.001.002z"/>
        <path fill="#323843" d="M17.529 22.414c2.694 0 4.886-2.192 4.886-4.887 0-2.695-2.192-4.886-4.886-4.886-2.695 0-4.887 2.191-4.887 4.886 0 2.695 2.192 4.887 4.887 4.887zm-4.053-10.859c-.217.113-.439.213-.665.31l.201 1.033c.234-.227.486-.434.752-.626l-.288-.717zm1.735-1.144c-.175.14-.357.274-.543.406l.306.765c.261-.112.534-.204.81-.282l-.573-.889zm2.318.644c3.567 0 6.471 2.904 6.471 6.472C24 21.097 21.096 24 17.53 24c-3.57 0-6.473-2.904-6.473-6.473 0-1.428.472-2.746 1.259-3.818-.085.022-.167.052-.253.073-.147.034-.295-.062-.324-.212l-.25-1.277c-.26.058-.527.104-.797.134v1.32c0 .145-.116.263-.261.266-.252.005-.607.005-.858 0-.146-.003-.261-.12-.261-.266v-1.32c-.271-.03-.537-.076-.799-.134l-.248 1.277c-.03.15-.176.246-.323.212-.287-.069-.57-.149-.843-.243-.127-.042-.2-.175-.175-.306l.268-1.368c-.226-.097-.45-.197-.664-.31l-.49 1.216c-.058.148-.236.214-.377.141-.258-.139-.508-.284-.753-.437-.11-.069-.154-.209-.104-.33l.532-1.328c-.188-.132-.369-.267-.545-.407l-.728 1.13c-.085.131-.268.163-.392.065-.23-.18-.454-.364-.667-.55-.1-.088-.119-.237-.046-.348l.782-1.213c-.143-.138-.284-.273-.414-.408l-.948.998c-.104.11-.282.11-.387.001-.21-.216-.403-.428-.585-.634-.09-.104-.085-.259.01-.358l.987-1.04c-.428-.519-.737-.952-.908-1.204-.085-.124-.044-.29.083-.37l.719-.454c.12-.074.276-.047.358.072.67.97 3.678 4.998 7.348 4.998 3.668 0 6.675-4.029 7.347-4.998.08-.119.238-.146.358-.072l.718.453c.127.081.166.247.082.371-.17.252-.48.686-.908 1.204l.988 1.04c.095.1.1.254.01.358-.181.206-.377.418-.585.634-.105.108-.282.108-.387 0l-.948-.999c-.13.135-.271.27-.413.408l.782 1.214c.072.11.053.26-.046.347-.012.008-.023.02-.035.028.186-.017.373-.028.564-.028z"/>
    </g>
</svg>
