<svg xmlns="http://www.w3.org/2000/svg" width="24" height="24" viewBox="0 0 24 24">
    <g fill="none" fill-rule="evenodd">
        <path fill="#323843" d="M13.475 11.555c-.216.113-.438.214-.664.311l.201 1.033c.234-.228.486-.435.751-.626l-.288-.718zm1.736-1.144c-.176.139-.357.275-.544.407l.306.764c.262-.112.534-.204.811-.282l-.573-.889zm2.317.644c3.568 0 6.472 2.904 6.472 6.473C24 21.096 21.096 24 17.528 24c-3.569 0-6.472-2.904-6.472-6.472 0-1.429.471-2.746 1.258-3.819-.085.023-.167.052-.253.074-.147.034-.295-.063-.324-.212l-.249-1.278c-.26.059-.527.105-.798.134v1.32c0 .145-.115.263-.26.266-.253.005-.607.005-.859 0-.146-.003-.26-.121-.26-.266v-1.32c-.272-.029-.537-.075-.799-.134l-.249 1.278c-.029.149-.176.246-.323.212-.287-.07-.569-.15-.843-.244-.126-.042-.199-.174-.174-.305l.267-1.368c-.225-.097-.449-.198-.664-.311l-.489 1.217c-.059.147-.237.214-.377.14-.258-.138-.509-.284-.753-.437-.11-.068-.154-.209-.105-.33l.533-1.327c-.188-.132-.369-.268-.545-.408l-.728 1.129c-.085.132-.268.164-.392.067-.23-.181-.455-.364-.668-.551-.1-.088-.118-.236-.046-.348l.782-1.213c-.142-.137-.283-.273-.414-.408l-.947.998c-.105.11-.283.11-.388.001-.209-.216-.403-.427-.585-.634-.09-.104-.084-.258.011-.358l.987-1.04c-.428-.519-.737-.952-.908-1.204-.085-.124-.045-.29.082-.37l.72-.453c.12-.075.276-.047.357.071.671.97 3.678 4.999 7.348 4.999s6.676-4.029 7.347-4.999c.081-.118.238-.146.36-.071l.717.453c.127.08.166.246.082.37-.17.252-.48.686-.908 1.204l.987 1.04c.095.1.101.255.01.358-.18.207-.376.419-.584.634-.106.109-.283.109-.388-.001l-.948-.998c-.13.135-.27.271-.413.408l.782 1.214c.072.111.054.26-.046.347l-.034.028c.186-.016.373-.028.563-.028z"/>
        <path fill="#FFF" d="M15.706 14.04h3.616c.927 0 1.679.752 1.679 1.68v3.615c0 .928-.752 1.68-1.68 1.68h-3.615c-.928 0-1.68-.752-1.68-1.68V15.72c0-.928.752-1.68 1.68-1.68"/>
    </g>
</svg>
