<svg xmlns="http://www.w3.org/2000/svg" width="24" height="24" viewBox="0 0 24 24">
    <g fill="none" fill-rule="evenodd">
        <path fill="#CC1C24" d="M23.222 17.528c0-3.145-2.549-5.693-5.694-5.693-3.144 0-5.693 2.548-5.693 5.693 0 3.145 2.55 5.694 5.693 5.694 3.145 0 5.694-2.55 5.694-5.694"/>
        <path fill="#323843" d="M17.013 19.154c-.143.142-.34.229-.558.229-.434 0-.787-.348-.79-.781h-.009V16.48h.008v-.015c0-.436.353-.79.79-.79v-.004h2.123v.004h.004c.437 0 .791.354.791.79 0 .23-.097.436-.254.582l-2.105 2.107z"/>
        <path fill="#323843" d="M17.522 22.414c2.693 0 4.884-2.192 4.884-4.887 0-2.694-2.191-4.886-4.884-4.886-2.694 0-4.885 2.192-4.885 4.886 0 2.695 2.191 4.887 4.885 4.887zM13.47 11.555c-.216.113-.438.213-.664.31l.2 1.033c.235-.226.487-.434.752-.626l-.288-.717zm1.736-1.144c-.177.14-.358.274-.545.406l.306.765c.262-.112.534-.204.812-.282l-.573-.889zm2.315.644c3.566 0 6.469 2.904 6.469 6.472 0 3.57-2.903 6.473-6.47 6.473-3.567 0-6.468-2.903-6.468-6.473 0-1.428.47-2.746 1.257-3.818-.085.022-.167.052-.253.073-.147.034-.295-.062-.324-.212l-.248-1.277c-.261.058-.527.104-.798.134v1.32c0 .145-.115.263-.26.266-.253.005-.607.005-.859 0-.146-.003-.26-.12-.26-.266v-1.32c-.271-.03-.536-.076-.798-.134l-.25 1.277c-.028.15-.175.246-.322.212-.287-.069-.569-.149-.843-.242-.125-.043-.198-.176-.173-.307l.266-1.368c-.224-.097-.448-.197-.663-.31l-.49 1.216c-.058.148-.236.214-.376.141-.258-.138-.509-.284-.753-.437-.11-.069-.154-.209-.105-.33l.533-1.328c-.188-.132-.369-.267-.545-.407l-.727 1.13c-.085.131-.268.163-.392.065-.23-.18-.455-.364-.668-.55-.1-.088-.118-.237-.046-.348l.782-1.213c-.142-.138-.283-.273-.414-.408l-.946.998c-.105.11-.283.11-.388.001-.208-.216-.403-.428-.585-.634-.09-.104-.084-.259.011-.358l.987-1.04c-.428-.519-.737-.952-.908-1.203-.085-.125-.045-.29.082-.372l.719-.453c.12-.074.276-.047.357.072.671.97 3.677 5 7.345 5 3.668 0 6.673-4.03 7.344-5 .08-.119.238-.146.359-.072l.717.453c.127.081.166.247.082.372-.17.251-.48.685-.907 1.203l.986 1.04c.095.1.101.255.01.358-.18.206-.375.42-.583.634-.106.108-.283.108-.388 0l-.948-.999c-.13.135-.27.271-.413.408l.782 1.214c.072.11.054.26-.046.347-.01.01-.023.02-.034.028.186-.017.373-.028.563-.028z"/>
    </g>
</svg>
