<svg xmlns="http://www.w3.org/2000/svg" width="24" height="24" viewBox="0 0 24 24">
    <path fill="#323843" fill-rule="evenodd" d="M13.475 11.555l.288.718a6.61 6.61 0 0 0-.75.626l-.202-1.034a9.12 9.12 0 0 0 .664-.31m1.736-1.144l.573.89c-.277.077-.549.17-.81.281l-.307-.764c.187-.132.368-.268.544-.407m2.317.644c-.19 0-.377.012-.563.028l.034-.028a.268.268 0 0 0 .046-.347l-.782-1.214c.142-.137.283-.273.413-.408l.948.998a.27.27 0 0 0 .388.001c.208-.215.403-.428.584-.634a.265.265 0 0 0-.01-.358l-.987-1.04c.428-.518.737-.952.908-1.204a.263.263 0 0 0-.082-.37l-.718-.453a.263.263 0 0 0-.359.071c-.67.97-3.678 5-7.347 5-3.67 0-6.677-4.03-7.348-5a.262.262 0 0 0-.358-.07l-.719.452a.262.262 0 0 0-.082.37c.171.252.48.685.908 1.204l-.987 1.04a.266.266 0 0 0-.01.358c.181.206.375.418.584.634a.27.27 0 0 0 .388 0l.947-.999c.131.135.272.271.414.408l-.782 1.213a.27.27 0 0 0 .046.348c.213.186.437.37.668.551a.27.27 0 0 0 .392-.067l.728-1.129c.176.14.357.276.545.408l-.533 1.327a.27.27 0 0 0 .105.33c.244.153.495.3.753.437.14.074.318.007.377-.14l.49-1.217c.214.113.438.214.663.31l-.267 1.37a.268.268 0 0 0 .174.304c.274.094.556.174.843.243a.268.268 0 0 0 .323-.21l.25-1.279c.261.06.526.105.797.134v1.32c0 .145.115.263.261.266.252.005.606.005.858 0a.265.265 0 0 0 .261-.266v-1.32c.271-.029.537-.075.798-.134l.25 1.278a.269.269 0 0 0 .323.211c.086-.02.168-.05.253-.073a6.432 6.432 0 0 0-1.258 3.82A6.48 6.48 0 0 0 17.528 24 6.48 6.48 0 0 0 24 17.528a6.48 6.48 0 0 0-6.472-6.473"/>
</svg>
