<svg xmlns="http://www.w3.org/2000/svg" width="24" height="24" viewBox="0 0 24 24">
    <g fill="none" fill-rule="evenodd">
        <path fill="#CE1C23" d="M23.114 17.527a5.693 5.693 0 0 0-5.694-5.693 5.693 5.693 0 1 0 5.694 5.693"/>
        <path fill="#323843" d="M17.528 22.414a4.892 4.892 0 0 0 4.886-4.886 4.891 4.891 0 0 0-4.886-4.887 4.892 4.892 0 0 0-4.887 4.887 4.892 4.892 0 0 0 4.887 4.886zm-4.053-10.859a9.12 9.12 0 0 1-.664.31l.201 1.034a6.61 6.61 0 0 1 .751-.626l-.288-.718zm1.736-1.144a12.62 12.62 0 0 1-.544.407l.306.764c.262-.112.534-.204.811-.282l-.573-.889zm2.317.644A6.48 6.48 0 0 1 24 17.528 6.48 6.48 0 0 1 17.528 24a6.48 6.48 0 0 1-6.472-6.472c0-1.429.471-2.747 1.258-3.819-.085.023-.167.052-.253.073a.269.269 0 0 1-.324-.21l-.249-1.279a6.992 6.992 0 0 1-.798.134v1.32a.265.265 0 0 1-.26.266 24.54 24.54 0 0 1-.859 0 .265.265 0 0 1-.26-.266v-1.32a7.029 7.029 0 0 1-.799-.134l-.249 1.278a.268.268 0 0 1-.323.211 9.293 9.293 0 0 1-.843-.243.268.268 0 0 1-.174-.305l.267-1.369a9.12 9.12 0 0 1-.664-.31l-.489 1.217a.273.273 0 0 1-.377.14 12.636 12.636 0 0 1-.753-.437.27.27 0 0 1-.105-.33l.533-1.327a11.366 11.366 0 0 1-.545-.408l-.728 1.13a.27.27 0 0 1-.392.066 16.326 16.326 0 0 1-.668-.55.27.27 0 0 1-.046-.349l.782-1.213c-.142-.137-.283-.273-.414-.408l-.947.998a.27.27 0 0 1-.388.001 18.984 18.984 0 0 1-.585-.634.266.266 0 0 1 .011-.358l.987-1.04a16.5 16.5 0 0 1-.908-1.204.262.262 0 0 1 .082-.37l.72-.453a.262.262 0 0 1 .357.071c.671.97 3.678 5 7.348 5s6.676-4.03 7.347-5a.263.263 0 0 1 .36-.07l.717.452c.127.08.166.246.082.37-.17.252-.48.686-.908 1.204l.987 1.04c.095.1.101.255.01.358-.18.206-.376.42-.584.634a.27.27 0 0 1-.388 0l-.948-.999c-.13.135-.27.271-.413.408l.782 1.214a.268.268 0 0 1-.046.347c-.01.01-.023.02-.034.028a6.55 6.55 0 0 1 .563-.028zm.794 5.524l2.017.293-1.459 1.423.344 2.009-1.804-.948-1.805.948.345-2.01-1.46-1.422 2.018-.293.902-1.828.902 1.828z"/>
    </g>
</svg>
