<svg xmlns="http://www.w3.org/2000/svg" width="24" height="24" viewBox="0 0 24 24">
    <path fill="#323843" fill-rule="evenodd" d="M12.719 22h9.618v-.456h-9.618V22zm-2.718-6.553c1.864 0 3.572-.926 4.959-2.041l.594-1.6a.38.38 0 0 1 .357-.249h.983c.562-.63.992-1.196 1.25-1.556-.956-1.337-4.211-5.446-8.143-5.446-3.943 0-7.191 4.109-8.144 5.445.955 1.335 4.211 5.447 8.144 5.447zm6.087-.768h2.88l-.602-1.622H16.69l-.602 1.622zm3.435 1.5h-3.99l-.548 1.476h5.086l-.548-1.476zm1.433 3.865l-.33-.889H14.43l-.33.889h6.856zm2.509 0c.205 0 .372.166.372.372v2.702c0 .211-.17.382-.381.382H11.6a.382.382 0 0 1-.381-.382v-2.702c0-.206.167-.372.372-.372h.91l1.536-4.146C12.825 16.555 11.466 17 10.001 17 4.468 17 .429 10.683.26 10.415L0 10.001l.26-.414c.169-.269 4.208-6.585 9.741-6.585 5.533 0 9.571 6.316 9.74 6.585l.26.414-.26.414a15.81 15.81 0 0 1-.815 1.142h.219a.38.38 0 0 1 .357.249l3.054 8.238h.909zm-13.464-8.317c.951 0 1.726-.774 1.726-1.726 0-.951-.775-1.726-1.726-1.726-.952 0-1.726.775-1.726 1.726 0 .952.774 1.726 1.726 1.726zm0-5.004a3.278 3.278 0 1 1 0 6.558 3.278 3.278 0 0 1 0-6.558z"/>
</svg>
