<svg xmlns="http://www.w3.org/2000/svg" width="24" height="24" viewBox="0 0 24 24">
    <path fill="#373A44" fill-rule="evenodd" d="M9.752 6.17L7.525 3.947a.351.351 0 0 1 0-.497l.447-.446a.347.347 0 0 1 .249-.103c.094 0 .182.036.249.103l.813.813V.334c0-.184.15-.334.334-.334h.768c.184 0 .334.15.334.334v3.482l.813-.813a.35.35 0 0 1 .497 0l.447.445a.353.353 0 0 1 0 .498L10.249 6.17a.349.349 0 0 1-.497 0zm7.776 16.244a4.893 4.893 0 0 0 4.887-4.886 4.892 4.892 0 0 0-4.887-4.887 4.892 4.892 0 0 0-4.887 4.887 4.893 4.893 0 0 0 4.887 4.886zm-6.39-5.863a6.444 6.444 0 0 1 1.186-2.855l-1.97 1.404a.608.608 0 0 1-.706 0l-2.176-1.55-3.634 3.001h7.3zm-8.74-6.616v5.71l3.711-3.066L2.4 9.935zm15.205 0l-1.97 1.404a6.459 6.459 0 0 1 1.895-.284c.025 0 .05.003.075.004V9.935zm-1.72-.758H4.118l5.883 4.19 5.882-4.19zm3.336 2.11c2.75.746 4.781 3.258 4.781 6.241A6.48 6.48 0 0 1 17.528 24c-3.353 0-6.117-2.563-6.439-5.832H1.252a.47.47 0 0 1-.47-.469V8.03c0-.259.21-.47.47-.47H18.75a.47.47 0 0 1 .47.47v3.258zm-.897 5.292l2.018.293-1.46 1.423.344 2.009-1.804-.948-1.804.948.345-2.01-1.46-1.422 2.017-.293.902-1.828.902 1.828z"/>
</svg>
