<svg xmlns="http://www.w3.org/2000/svg" width="24" height="24" viewBox="0 0 24 24">
    <path fill="#373A44" fill-rule="evenodd" d="M7.972 3.272l-.446-.446a.349.349 0 0 1 0-.498L9.752.104a.349.349 0 0 1 .497 0l2.227 2.224a.35.35 0 0 1 0 .498l-.446.446a.352.352 0 0 1-.497 0l-.814-.813v3.48c0 .186-.15.335-.334.335h-.767a.333.333 0 0 1-.334-.335V2.46l-.814.813a.348.348 0 0 1-.498 0zm9.556 19.142a4.893 4.893 0 0 0 4.887-4.886 4.892 4.892 0 0 0-4.887-4.887 4.892 4.892 0 0 0-4.887 4.887 4.893 4.893 0 0 0 4.887 4.886zm-6.39-5.863a6.444 6.444 0 0 1 1.186-2.855l-1.97 1.404a.608.608 0 0 1-.706 0l-2.176-1.55-3.634 3.001h7.3zm-8.74-6.616v5.709l3.711-3.065L2.4 9.935zm15.205 0l-1.97 1.404a6.454 6.454 0 0 1 1.895-.284c.025 0 .05.003.075.004V9.935zm-1.72-.758H4.118l5.883 4.19 5.882-4.19zm3.336 2.11c2.75.746 4.781 3.258 4.781 6.241A6.48 6.48 0 0 1 17.528 24c-3.353 0-6.117-2.563-6.439-5.832H1.252a.47.47 0 0 1-.47-.469v-9.67a.47.47 0 0 1 .47-.469H18.75a.47.47 0 0 1 .47.469v3.258zm-4.426 8.014l2.627-4.55 2.627 4.55h-5.254z"/>
</svg>
