<svg xmlns="http://www.w3.org/2000/svg" width="24" height="24" viewBox="0 0 24 24">
    <path fill="#323843" fill-rule="evenodd" d="M8.639 12.873a4.238 4.238 0 0 0 4.234-4.234 4.24 4.24 0 0 0-4.234-4.235 4.24 4.24 0 0 0-4.234 4.235 4.238 4.238 0 0 0 4.234 4.234zm5.834-4.234a5.84 5.84 0 0 1-5.834 5.834 5.841 5.841 0 0 1-5.835-5.834 5.842 5.842 0 0 1 5.835-5.835 5.841 5.841 0 0 1 5.834 5.835zm-6.637-.803c.443-.443 1.867-1.148 2.31-.705.443.443-.262 1.866-.706 2.309-.443.443-1.866 1.148-2.31.706-.442-.444.264-1.867.706-2.31zm13.584 4.819c.214 0 .388.173.388.388v8.112a2.79 2.79 0 0 1-2.794 2.789l-1.18-.003a4.259 4.259 0 0 1-3.836-2.426l-1.971-4.134a.28.28 0 0 1 .133-.373l.074-.035a1.251 1.251 0 0 1 1.668.595l.743 1.572v-6.619c0-.214.172-.388.387-.388h.839c.215 0 .388.174.388.388v4.4c0 .065.053.117.117.117a.118.118 0 0 0 .118-.117v-5.534c0-.214.174-.387.388-.387h.839c.214 0 .387.173.387.387v5.534c0 .065.054.117.119.117a.117.117 0 0 0 .118-.117l-.001-.002V12.17c0-.214.174-.388.388-.388h.838c.214 0 .388.174.388.388v4.741c0 .004-.004.006-.004.01 0 .065.053.117.117.117a.118.118 0 0 0 .119-.117h.003v-3.878c0-.215.174-.388.388-.388h.839z"/>
</svg>
