<svg xmlns="http://www.w3.org/2000/svg" width="24" height="24" viewBox="0 0 24 24">
    <path fill="#323843" fill-rule="evenodd" d="M10.001 14.235a4.238 4.238 0 0 0 4.234-4.234 4.24 4.24 0 0 0-4.234-4.235 4.24 4.24 0 0 0-4.234 4.235 4.238 4.238 0 0 0 4.234 4.234zm0-10.069a5.84 5.84 0 0 1 5.834 5.835 5.84 5.84 0 0 1-5.834 5.834 5.84 5.84 0 0 1-5.834-5.834 5.841 5.841 0 0 1 5.834-5.835zM9.199 9.2c.442-.443 1.866-1.148 2.31-.706.442.444-.263 1.867-.706 2.31-.443.443-1.867 1.148-2.309.705-.443-.443.262-1.866.705-2.31zm-2.587 6.464a.395.395 0 0 1 .396.396v3.546a.395.395 0 0 1-.397.396H3.065a.396.396 0 0 1-.395-.396v-.71c0-.22.177-.397.396-.397h1.295l-1.428-1.43C.75 14.887-.432 11.702.147 8.272.832 4.215 4.057.925 8.102.176a10.017 10.017 0 0 1 11.886 9.33.48.48 0 0 1-.48.496h-.667a.472.472 0 0 1-.467-.457c-.256-4.744-4.473-8.453-9.393-7.87-3.639.433-6.649 3.288-7.247 6.903a8.378 8.378 0 0 0 2.34 7.35l1.431 1.427v-1.296a.394.394 0 0 1 .396-.396h.711zm9.933.982l3.243 3.245a.497.497 0 0 1 0 .703l-3.243 3.244a.498.498 0 0 1-.705 0l-.572-.572a.498.498 0 0 1 0-.704l2.318-2.32-2.318-2.319a.498.498 0 0 1 0-.704l.572-.573a.5.5 0 0 1 .705 0z"/>
</svg>
