<svg xmlns="http://www.w3.org/2000/svg" width="24" height="24" viewBox="0 0 24 24">
    <path fill="#323843" fill-rule="evenodd" d="M10.001 14.237a4.238 4.238 0 0 0 4.234-4.234 4.24 4.24 0 0 0-4.234-4.236 4.24 4.24 0 0 0-4.234 4.236 4.238 4.238 0 0 0 4.234 4.234zm5.834-4.234a5.84 5.84 0 0 1-5.834 5.834 5.841 5.841 0 0 1-5.834-5.834 5.841 5.841 0 0 1 5.834-5.835 5.84 5.84 0 0 1 5.834 5.835zM9.199 9.2c.442-.443 1.866-1.148 2.31-.705.442.443-.263 1.867-.706 2.31-.443.442-1.867 1.148-2.309.705-.443-.443.262-1.867.705-2.31zm.346 9.18a.473.473 0 0 1 .456.468v.666c0 .27-.227.495-.496.482A10.016 10.016 0 0 1 .176 8.11C.926 4.065 4.214.839 8.271.155c3.428-.58 6.614.602 8.797 2.786l1.43 1.428V3.073a.398.398 0 0 1 .396-.396h.711c.218 0 .396.178.396.396v3.546a.393.393 0 0 1-.117.28.39.39 0 0 1-.28.116H16.06a.399.399 0 0 1-.397-.396v-.71a.39.39 0 0 1 .116-.28.394.394 0 0 1 .281-.117h1.296l-1.428-1.43a8.378 8.378 0 0 0-7.35-2.34C4.962 2.34 2.108 5.35 1.675 8.988c-.584 4.92 3.125 9.138 7.87 9.393zm12.152 1.51a.5.5 0 0 1 0 .704l-3.244 3.244a.499.499 0 0 1-.705 0l-.572-.573a.498.498 0 0 1 0-.705l2.32-2.318-2.32-2.319a.498.498 0 0 1 0-.705l.572-.572a.498.498 0 0 1 .705 0l3.244 3.243zm-3.817 0a.5.5 0 0 1 0 .704l-3.243 3.244a.499.499 0 0 1-.705 0l-.573-.573a.498.498 0 0 1 0-.705l2.319-2.318-2.32-2.319a.498.498 0 0 1 0-.705l.574-.572a.498.498 0 0 1 .705 0l3.243 3.243z"/>
</svg>
