<svg xmlns="http://www.w3.org/2000/svg" width="24" height="24" viewBox="0 0 24 24">
    <path fill="#323843" fill-rule="evenodd" d="M7.976 17.42c0 .747.2 1.458.581 2.084h6.875a4.023 4.023 0 0 0-3.437-6.104 4.023 4.023 0 0 0-4.019 4.02zm9.996 0c0 .725-.137 1.424-.383 2.084h2.998c.223 0 .404.18.404.403v1.155c0 .222-.181.403-.404.403H3.402A.404.404 0 0 1 3 21.062v-1.155c0-.222.18-.403.403-.403H6.4a5.857 5.857 0 0 1-.11-3.85c.656-2.113 2.476-3.752 4.656-4.125a5.987 5.987 0 0 1 7.026 5.89zM5.36 12.168L3.156 9.964a.475.475 0 0 1 0-.672l.715-.715a.475.475 0 0 1 .67 0l2.204 2.204a.476.476 0 0 1 0 .672l-.714.715a.473.473 0 0 1-.671 0zm6.13-2.68a.475.475 0 0 1-.475-.476V5.894c0-.26.213-.474.475-.474h1.01c.262 0 .474.213.474.474v3.118a.474.474 0 0 1-.474.475h-1.01zm6.468 2.68l-.714-.715a.476.476 0 0 1 0-.672l2.204-2.204a.476.476 0 0 1 .671 0l.714.715a.475.475 0 0 1 0 .672l-2.204 2.204a.473.473 0 0 1-.67 0zm5.557 4.271c.262 0 .475.213.475.476v1.01a.475.475 0 0 1-.475.476h-3.117a.475.475 0 0 1-.474-.476v-1.01c0-.262.212-.476.474-.476h3.117zM.475 18.4A.475.475 0 0 1 0 17.925v-1.01c0-.263.213-.476.474-.476h3.117c.262 0 .475.213.475.475v1.011a.475.475 0 0 1-.475.475H.474z"/>
</svg>
