<svg xmlns="http://www.w3.org/2000/svg" width="24" height="24" viewBox="0 0 24 24">
    <path fill="#323843" fill-rule="evenodd" d="M8.584 10.857v-1.96h2.803v1.96H8.584zm-1.72-7.656v-1.96h2.803v1.96H6.864zm3.823 0v-1.96h2.803v1.96h-2.803zm-6.857.416L2.565 2.12a3.73 3.73 0 0 1 2.405-.879h.876v1.96H4.97c-.417 0-.822.147-1.14.416zm1.14 5.28h2.595v1.96H4.97c-.096 0-.19-.003-.284-.011l.154-1.954c.043.004.086.005.13.005zM3.2 4.97v1.429H1.24v-1.43c0-.623.158-1.24.456-1.785l1.72.938a1.75 1.75 0 0 0-.215.848zm1.006 3.755l-.847 1.768A3.755 3.755 0 0 1 1.26 7.52l1.95-.204c.063.605.446 1.145.997 1.409zm8.2 2.132v-1.96h2.803v1.96h-2.803zm8.368-3.43l1.933.328a3.753 3.753 0 0 1-2.284 2.834l-.732-1.82a1.778 1.778 0 0 0 1.083-1.341zm.025-.853V4.97c0-.262-.055-.513-.165-.746l1.777-.829c.231.495.348 1.025.348 1.575v1.604H20.8zm-6.291-3.373v-1.96h2.803v1.96h-2.803zm4.555 7.656h-2.835v-1.96h2.803l.032 1.96zM19.031 3.2h-.701V1.24h.7c.968 0 1.885.369 2.583 1.038l-1.358 1.414A1.76 1.76 0 0 0 19.03 3.2zm1.768 15.83v-2.16a1.77 1.77 0 0 0-1.769-1.767H4.97a1.77 1.77 0 0 0-1.77 1.768v2.159A1.77 1.77 0 0 0 4.97 20.8h14.06a1.77 1.77 0 0 0 1.77-1.77zm1.96 0a3.733 3.733 0 0 1-3.729 3.729H4.97a3.733 3.733 0 0 1-3.73-3.73v-2.158a3.733 3.733 0 0 1 3.73-3.728h14.06a3.732 3.732 0 0 1 3.73 3.728v2.159zm-11.56.661H5.252a.8.8 0 0 1-.8-.8V17.01a.8.8 0 0 1 .8-.8H11.2a.8.8 0 0 1 .8.8v1.882a.8.8 0 0 1-.8.8z"/>
</svg>
