<svg xmlns="http://www.w3.org/2000/svg" width="24" height="24" viewBox="0 0 24 24">
    <path fill="#323843" fill-rule="evenodd" d="M12.613 22.759v-1.96h2.803v1.96h-2.803zm1.72-7.656v-1.96h2.803v1.96h-2.803zm-3.822 0v-1.96h2.803v1.96h-2.803zm8.52 0h-.876v-1.96h.876c.879 0 1.733.313 2.404.879L20.17 15.52a1.767 1.767 0 0 0-1.14-.417zm.13 5.691l.153 1.954a3.782 3.782 0 0 1-.283.011h-2.596V20.8h2.596c.044 0 .087-.002.13-.005zm1.638-3.922a1.75 1.75 0 0 0-.215-.848l1.72-.938a3.73 3.73 0 0 1 .455 1.786v1.43H20.8v-1.43zm-.009 2.346l1.949.204a3.754 3.754 0 0 1-2.099 2.973l-.847-1.768c.552-.264.934-.804.997-1.41zM8.791 22.759v-1.96h2.803v1.96H8.791zM4.31 20.672l-.732 1.818a3.75 3.75 0 0 1-2.284-2.833l1.933-.327c.1.6.516 1.114 1.083 1.342zm-.945-4.546a1.748 1.748 0 0 0-.165.746v1.605H1.24v-1.605c0-.55.118-1.08.35-1.575l1.775.83zm3.324-1.023v-1.96h2.803v1.96H6.689zm1.083 5.696v1.96H4.937l.032-1.96h2.803zm-4.027-5.204l-1.357-1.414a3.711 3.711 0 0 1 2.581-1.038h.701v1.96h-.7c-.459 0-.894.175-1.225.492zM3.201 4.97v2.16A1.77 1.77 0 0 0 4.97 8.895h14.06a1.77 1.77 0 0 0 1.77-1.768V4.97A1.77 1.77 0 0 0 19.03 3.2H4.97A1.77 1.77 0 0 0 3.2 4.97zm-1.96 0A3.733 3.733 0 0 1 4.97 1.24h14.06a3.733 3.733 0 0 1 3.73 3.73v2.158a3.733 3.733 0 0 1-3.73 3.728H4.97a3.732 3.732 0 0 1-3.73-3.728V4.97zm11.56-.661h5.948a.8.8 0 0 1 .801.8V6.99a.8.8 0 0 1-.8.8H12.8a.8.8 0 0 1-.8-.8V5.108a.8.8 0 0 1 .8-.8z"/>
</svg>
