<svg xmlns="http://www.w3.org/2000/svg" width="24" height="24" viewBox="0 0 24 24">
    <path fill="#323843" fill-rule="evenodd" d="M6 22.646a4.652 4.652 0 0 0 4.646-4.648 4.668 4.668 0 0 0-2.262-3.987V5.394A2.388 2.388 0 0 0 6 3.008a2.388 2.388 0 0 0-2.384 2.386v8.617a4.666 4.666 0 0 0-2.262 3.987A4.651 4.651 0 0 0 6 22.646zm3.782-9.304A5.993 5.993 0 0 1 12 17.998 6.007 6.007 0 0 1 6 24c-3.309 0-6-2.692-6-6.002a5.99 5.99 0 0 1 2.217-4.656l.045-.036V5.394A3.743 3.743 0 0 1 6 1.654a3.743 3.743 0 0 1 3.737 3.74v7.912l.045.036zm-1.991 1.55a3.606 3.606 0 0 1 1.794 3.105A3.59 3.59 0 0 1 6 21.584a3.59 3.59 0 0 1-3.586-3.587c0-1.273.689-2.462 1.794-3.104l.469-.271V5.394a1.324 1.324 0 0 1 2.646 0v9.228l.468.27zm13.733-6.127A4.457 4.457 0 0 0 22.5 6a4.51 4.51 0 0 0-3.266-4.328c-.708 1.963-2.67 2.378-3.827 2.623C13.833 4.628 13.5 4.743 13.5 6c0 1.047.374 1.999.975 2.765-.01-.107-.032-.211-.032-.321 0-2.922 3.557-.875 3.557-3.556a3.557 3.557 0 0 1 3.556 3.556c0 .11-.022.214-.032.32zm-5.58-.321A2.06 2.06 0 0 0 18 10.5a2.057 2.057 0 1 0 1.025-3.838c-.656.992-1.829 1.24-2.436 1.369-.2.043-.493.104-.625.162a1.255 1.255 0 0 0-.02.25zM18 0a6 6 0 1 1-6 6c0-4.93 6-1.477 6-6z"/>
</svg>
