<svg xmlns="http://www.w3.org/2000/svg" width="44" height="44" viewBox="0 0 44 44">
    <g fill="none" fill-rule="evenodd">
        <path fill="#000" d="M15 23.508c4.15 0 7.528-3.397 7.528-7.573 0-4.175-3.377-7.572-7.528-7.572s-7.528 3.397-7.528 7.572c0 4.176 3.377 7.573 7.528 7.573zm0-16.07c4.658 0 8.447 3.812 8.447 8.497 0 4.686-3.79 8.497-8.447 8.497-4.658 0-8.447-3.811-8.447-8.497 0-4.685 3.79-8.496 8.447-8.496zm0 18.638c5.559 0 10.08-4.55 10.08-10.14 0-4.849-3.406-8.893-7.933-9.887-.312.525-1.228.77-2.147.77-.92 0-1.835-.245-2.147-.77-4.527.994-7.934 5.038-7.934 9.887 0 5.59 4.522 10.14 10.081 10.14zm-1.349-22.85v2.367c.124.113.609.301 1.349.301s1.225-.188 1.349-.3V3.225c-.124-.113-.609-.302-1.349-.302s-1.225.189-1.349.302zm3.617 1.895A11.059 11.059 0 0 1 26 15.936C26 22.036 21.066 27 15 27S4 22.036 4 15.936c0-5.318 3.754-9.759 8.732-10.815V3.168C12.732 2.366 13.907 2 15 2c1.093 0 2.268.366 2.268 1.168v1.953zM15 11.57a.46.46 0 0 1-.46-.463V9.826a.46.46 0 1 1 .92 0v1.282a.46.46 0 0 1-.46.462zm0 4.827a.459.459 0 0 1-.325-.135.466.466 0 0 1 0-.655l4.294-4.319c.18-.18.47-.18.65 0 .18.18.18.474 0 .654l-4.294 4.32a.459.459 0 0 1-.325.135zm-4.34-.463a.46.46 0 0 1-.46.463H8.928a.46.46 0 0 1-.46-.463.46.46 0 0 1 .46-.462H10.2a.46.46 0 0 1 .46.462zm.371-4.646l.9.906c.18.18.18.473 0 .654a.459.459 0 0 1-.65 0l-.9-.906a.464.464 0 0 1 0-.654c.18-.18.47-.18.65 0zm10.042 4.184a.46.46 0 0 1 .46.463.46.46 0 0 1-.46.462H19.8a.46.46 0 0 1-.46-.462.46.46 0 0 1 .46-.463h1.274zm-2.354 3.549l.9.906c.18.18.179.473 0 .654a.459.459 0 0 1-.65 0l-.9-.906a.464.464 0 0 1 0-.654c.18-.18.47-.18.65 0zM15 20.3a.46.46 0 0 1 .46.462v1.282a.46.46 0 1 1-.92 0v-1.282a.46.46 0 0 1 .46-.462zm-3.719-1.28c.18-.18.47-.18.65 0 .18.181.18.474 0 .655l-.9.906a.459.459 0 0 1-.65 0 .466.466 0 0 1 0-.655l.9-.905z"/>
        <circle cx="32" cy="33" r="9" fill-rule="nonzero" stroke="#000" stroke-width="1.5"/>
        <path fill="#000" d="M28.263 33.515L28.86 28h5.799v1.796h-4.115l-.256 2.333a3.137 3.137 0 0 1 1.557-.41c.985 0 1.757.32 2.316.961.56.641.839 1.538.839 2.69 0 .701-.14 1.328-.423 1.882a3.064 3.064 0 0 1-1.212 1.29c-.525.305-1.146.458-1.861.458a3.86 3.86 0 0 1-1.742-.399 3.131 3.131 0 0 1-1.268-1.121A3.161 3.161 0 0 1 28 35.833h2.032c.043.452.194.803.452 1.054s.596.377 1.012.377c.465 0 .822-.176 1.074-.526.25-.35.376-.846.376-1.487 0-.616-.144-1.088-.433-1.416-.29-.328-.7-.492-1.23-.492-.488 0-.883.135-1.187.403l-.199.194-1.634-.425z"/>
    </g>
</svg>
