<svg xmlns="http://www.w3.org/2000/svg" width="24" height="24" viewBox="0 0 24 24">
    <g fill="none" fill-rule="evenodd">
        <path fill="#FFF" d="M23.222 17.528c0-3.145-2.55-5.693-5.694-5.693s-5.693 2.548-5.693 5.693c0 3.146 2.549 5.694 5.693 5.694 3.145 0 5.694-2.548 5.694-5.694"/>
        <path fill="#323843" d="M15.705 14.04h3.617c.927 0 1.678.752 1.678 1.68v3.616c0 .927-.751 1.68-1.678 1.68h-3.617c-.927 0-1.68-.753-1.68-1.68V15.72c0-.928.753-1.68 1.68-1.68zm0 .624c-.583 0-1.055.473-1.055 1.056v3.616c0 .583.472 1.056 1.055 1.056h3.617c.583 0 1.056-.473 1.056-1.056V15.72c0-.583-.473-1.056-1.056-1.056h-3.617z"/>
        <path fill="#323843" d="M9.997 11.726c.951 0 1.725-.774 1.725-1.727 0-.951-.774-1.725-1.725-1.725-.952 0-1.726.774-1.726 1.725 0 .953.774 1.727 1.726 1.727m0-5.004c1.81 0 3.277 1.467 3.277 3.277 0 1.812-1.467 3.28-3.277 3.28S6.72 11.81 6.72 9.999c0-1.81 1.466-3.277 3.277-3.277m7.524 15.692c2.693 0 4.884-2.193 4.884-4.887 0-2.696-2.19-4.887-4.884-4.887-2.693 0-4.885 2.19-4.885 4.887 0 2.694 2.192 4.887 4.885 4.887m-7.524-6.968c.506 0 .998-.076 1.478-.2.9-2.381 3.163-4.094 5.831-4.182.354-.424.642-.801.83-1.065-.955-1.336-4.21-5.445-8.14-5.445-3.94 0-7.187 4.109-8.14 5.445.955 1.335 4.21 5.447 8.14 5.447m9.139-4.18c2.788.72 4.856 3.25 4.856 6.26 0 3.569-2.903 6.473-6.47 6.473-3.568 0-6.47-2.904-6.47-6.472 0-.21.013-.415.032-.618-.355.053-.716.089-1.086.089-5.531 0-9.567-6.316-9.736-6.584L0 9.999l.26-.413C.43 9.316 4.466 3 9.997 3c5.53 0 9.568 6.317 9.736 6.586l.26.413-.26.415c-.035.055-.25.384-.598.852"/>
    </g>
</svg>
