<svg xmlns="http://www.w3.org/2000/svg" width="24" height="24" viewBox="0 0 24 24">
    <g fill="none" fill-rule="evenodd">
        <path fill="#0094D1" d="M23.222 17.527c0-3.145-2.55-5.693-5.694-5.693s-5.693 2.548-5.693 5.693c0 3.146 2.549 5.694 5.693 5.694 3.145 0 5.694-2.548 5.694-5.694"/>
        <path fill="#323843" d="M18.029 15.91c.143-.144.34-.23.559-.23.433 0 .785.348.79.78h.007v2.123h-.007v.013c0 .436-.353.791-.79.791v.003h-2.122v-.003h-.005c-.437 0-.791-.355-.791-.79 0-.23.098-.437.254-.582l2.104-2.107.001.001z"/>
        <path fill="#323843" d="M9.997 11.725c.952 0 1.725-.773 1.725-1.726 0-.951-.773-1.726-1.725-1.726-.952 0-1.725.775-1.725 1.726 0 .953.773 1.726 1.725 1.726m0-5.004c1.81 0 3.278 1.467 3.278 3.278 0 1.81-1.468 3.279-3.278 3.279S6.72 11.81 6.72 9.998c0-1.81 1.467-3.277 3.277-3.277m7.525 15.692c2.693 0 4.884-2.193 4.884-4.887 0-2.695-2.191-4.887-4.884-4.887-2.694 0-4.885 2.192-4.885 4.887 0 2.694 2.191 4.887 4.885 4.887m-7.525-6.968c.507 0 .999-.076 1.478-.2.9-2.382 3.163-4.093 5.832-4.181.354-.425.642-.802.83-1.065-.956-1.337-4.21-5.446-8.14-5.446-3.94 0-7.188 4.109-8.14 5.445.954 1.336 4.209 5.447 8.14 5.447m9.138-4.18c2.788.72 4.856 3.25 4.856 6.26 0 3.57-2.903 6.473-6.47 6.473-3.568 0-6.47-2.903-6.47-6.472 0-.21.013-.415.032-.618-.355.054-.715.09-1.086.09-5.53 0-9.567-6.316-9.736-6.585l-.26-.414.26-.414C.43 9.315 4.466 3 9.997 3c5.53 0 9.568 6.316 9.737 6.585l.259.414-.259.414c-.035.056-.25.384-.599.852"/>
    </g>
</svg>
