<svg xmlns="http://www.w3.org/2000/svg" width="24" height="24" viewBox="0 0 24 24">
    <g fill="none" fill-rule="evenodd">
        <path fill="#00B70C" d="M23.114 17.567a5.694 5.694 0 1 0-11.387-.001 5.694 5.694 0 0 0 11.387 0"/>
        <path fill="#323843" d="M10 11.725c.953 0 1.727-.774 1.727-1.726 0-.951-.774-1.726-1.726-1.726s-1.726.775-1.726 1.726c0 .952.774 1.726 1.726 1.726zm0-5.004a3.278 3.278 0 1 1 .002 6.556 3.278 3.278 0 0 1-.001-6.556zm7.528 15.691a4.892 4.892 0 0 0 4.886-4.886 4.892 4.892 0 0 0-4.886-4.887 4.892 4.892 0 0 0-4.887 4.887 4.892 4.892 0 0 0 4.887 4.886zm-7.527-6.967c.506 0 .998-.077 1.478-.201a6.475 6.475 0 0 1 5.835-4.18c.354-.425.641-.802.83-1.065-.956-1.337-4.212-5.446-8.143-5.446-3.943 0-7.192 4.109-8.144 5.445.954 1.336 4.211 5.447 8.144 5.447zm9.141-4.18c2.79.72 4.858 3.251 4.858 6.261a6.48 6.48 0 0 1-6.472 6.472 6.48 6.48 0 0 1-6.473-6.472c0-.209.013-.415.032-.619a7.072 7.072 0 0 1-1.086.091c-5.534 0-9.572-6.316-9.74-6.585L0 9.999l.26-.414C.428 9.316 4.466 3 10 3c5.532 0 9.571 6.316 9.74 6.585l.26.414-.26.414c-.035.056-.25.384-.599.852zm-2.927 3.986h2.627l1.313 2.275L18.84 19.8h-2.627l-1.312-2.275 1.313-2.275z"/>
    </g>
</svg>
