<svg xmlns="http://www.w3.org/2000/svg" width="24" height="24" viewBox="0 0 24 24">
    <g fill="none" fill-rule="evenodd">
        <path fill="#323843" d="M9.998 11.726c.952 0 1.725-.774 1.725-1.728 0-.951-.773-1.724-1.725-1.724-.952 0-1.725.773-1.725 1.724 0 .954.773 1.728 1.725 1.728m0-5.005c1.81 0 3.278 1.468 3.278 3.277 0 1.813-1.468 3.28-3.278 3.28s-3.277-1.467-3.277-3.28c0-1.81 1.467-3.277 3.277-3.277m.001 8.724c.506 0 .998-.076 1.477-.2.901-2.382 3.163-4.094 5.833-4.181.354-.425.64-.802.829-1.065-.955-1.336-4.21-5.446-8.139-5.446-3.941 0-7.189 4.11-8.14 5.445.953 1.336 4.209 5.447 8.14 5.447m9.137-4.18c2.788.72 4.856 3.25 4.856 6.26 0 3.57-2.903 6.473-6.47 6.473-3.567 0-6.47-2.903-6.47-6.472 0-.21.014-.415.033-.618-.355.054-.716.09-1.086.09-5.532 0-9.568-6.316-9.737-6.584l-.26-.415.26-.414C.431 9.315 4.467 3 10 3c5.53 0 9.567 6.316 9.736 6.585l.26.414-.26.415c-.035.055-.25.384-.599.852"/>
        <path fill="#FFF" d="M15.707 14.04h3.616c.927 0 1.68.752 1.68 1.68v3.615c0 .928-.753 1.68-1.68 1.68h-3.616c-.928 0-1.679-.752-1.679-1.68V15.72c0-.928.751-1.68 1.68-1.68"/>
    </g>
</svg>
