<svg xmlns="http://www.w3.org/2000/svg" width="24" height="24" viewBox="0 0 24 24">
    <g fill="none" fill-rule="evenodd">
        <path fill="#09B70C" d="M23.223 17.528c0-3.145-2.55-5.693-5.694-5.693s-5.693 2.548-5.693 5.693c0 3.146 2.549 5.694 5.693 5.694 3.145 0 5.694-2.548 5.694-5.694"/>
        <path fill="#323843" d="M20.273 15.38c0 .17-.07.322-.185.431l-4.286 4.285c-.108.115-.262.187-.433.187-.327 0-.593-.265-.593-.592 0-.175.076-.332.195-.44l4.273-4.274c.11-.118.263-.19.436-.19.328 0 .593.265.593.593zm-.678 1.804c.362 0 .655.29.66.65h.005v1.77h-.006v.012c0 .363-.295.658-.659.658v.004h-1.768v-.004h-.003c-.365 0-.66-.295-.66-.658 0-.192.081-.364.211-.484l1.754-1.757h.001c.12-.117.283-.191.465-.191z"/>
        <path fill="#323843" d="M9.998 11.726c.951 0 1.725-.774 1.725-1.728 0-.951-.774-1.724-1.725-1.724-.952 0-1.726.773-1.726 1.724 0 .954.774 1.728 1.726 1.728m0-5.005c1.81 0 3.277 1.468 3.277 3.277 0 1.813-1.467 3.28-3.277 3.28S6.72 11.812 6.72 9.999c0-1.81 1.466-3.277 3.277-3.277m7.524 15.692c2.693 0 4.884-2.192 4.884-4.887 0-2.695-2.19-4.886-4.884-4.886-2.693 0-4.885 2.19-4.885 4.886 0 2.695 2.192 4.887 4.885 4.887M10 15.445c.505 0 .997-.076 1.477-.2.9-2.382 3.163-4.094 5.832-4.181.354-.425.641-.802.83-1.065-.955-1.336-4.21-5.446-8.14-5.446-3.94 0-7.188 4.11-8.14 5.445.954 1.336 4.21 5.447 8.14 5.447m9.138-4.18c2.788.72 4.856 3.25 4.856 6.26 0 3.57-2.903 6.473-6.47 6.473-3.567 0-6.47-2.903-6.47-6.472 0-.21.013-.415.032-.618-.355.054-.716.09-1.085.09-5.532 0-9.568-6.316-9.737-6.584l-.26-.415.26-.414C.43 9.315 4.467 3 9.999 3c5.53 0 9.567 6.316 9.735 6.585l.26.414-.26.415c-.035.055-.25.384-.598.852"/>
    </g>
</svg>
