<svg xmlns="http://www.w3.org/2000/svg" width="24" height="24" viewBox="0 0 24 24">
    <g fill="none" fill-rule="evenodd">
        <path fill="#CC1C24" d="M23.222 17.528c0-3.145-2.549-5.693-5.694-5.693-3.144 0-5.693 2.548-5.693 5.693 0 3.146 2.55 5.694 5.693 5.694 3.145 0 5.694-2.548 5.694-5.694"/>
        <path fill="#323843" d="M17.013 19.154c-.143.142-.34.229-.558.229-.434 0-.786-.348-.79-.781h-.009V16.48h.008v-.014c0-.437.353-.79.79-.79v-.005h2.123v.005h.004c.438 0 .791.353.791.79 0 .23-.097.436-.253.58l-2.106 2.108z"/>
        <path fill="#323843" d="M9.997 11.728c.952 0 1.725-.774 1.725-1.727 0-.952-.773-1.725-1.725-1.725-.952 0-1.725.773-1.725 1.725 0 .953.773 1.727 1.725 1.727m0-5.006c1.81 0 3.278 1.469 3.278 3.279 0 1.812-1.468 3.28-3.278 3.28S6.72 11.813 6.72 10c0-1.81 1.467-3.28 3.277-3.28m7.525 15.694c2.693 0 4.884-2.193 4.884-4.886 0-2.696-2.191-4.888-4.884-4.888-2.694 0-4.885 2.192-4.885 4.888 0 2.693 2.191 4.886 4.885 4.886m-7.524-6.967c.506 0 .998-.077 1.477-.201.901-2.381 3.163-4.092 5.833-4.18.354-.426.64-.803.829-1.066-.955-1.336-4.21-5.446-8.139-5.446-3.941 0-7.189 4.11-8.14 5.445.953 1.336 4.209 5.448 8.14 5.448m9.137-4.181c2.788.72 4.856 3.252 4.856 6.262 0 3.568-2.903 6.47-6.47 6.47-3.567 0-6.468-2.902-6.468-6.47 0-.21.012-.415.03-.62-.354.054-.715.09-1.085.09C4.466 17 .43 10.684.261 10.416L.001 10l.26-.414c.169-.268 4.205-6.585 9.737-6.585 5.53 0 9.567 6.317 9.736 6.585l.26.414-.26.414c-.035.056-.25.384-.599.852"/>
    </g>
</svg>
