<svg xmlns="http://www.w3.org/2000/svg" width="64" height="64" viewBox="0 0 64 64">
    <g fill="none" fill-rule="evenodd">
        <path fill="#4DE1FF" d="M12 23.815l2.26 29.724 4.938 3.521.476-.12 3.45 2.507v.478l5.413 3.88-.714-30.56-9.22-21.785z"/>
        <path fill="#4DA6FF" d="M27.882 33.305l.595 30.56 21.058-14.683 2.26-29.485z"/>
        <path fill="#4DB5FF" d="M44.538 0L18.603 11.46l9.28 21.845 23.912-13.608z"/>
        <path fill="#4DA6FF" d="M19.198 48.704l-.476-.239.476 8.595.476-.12z"/>
        <path fill="#4DC3FF" d="M35.734 42.855l-5.948 3.7v.597l6.424-4.178z"/>
        <path fill="#4DE1FF" d="M36.33 35.812l-.477.238-.118 6.805.475.12z"/>
        <path fill="#4DA6FF" d="M32.76 12.892l-3.569 1.552.119 7.879 3.45-1.672z"/>
        <path fill="#4DC3FF" d="M29.31 11.221l-3.45 1.552 3.331 1.671 3.57-1.552z"/>
        <path fill="#4DE1FF" d="M25.86 12.773v1.074l3.45 8.476-.119-7.879z"/>
    </g>
</svg>
