<svg xmlns="http://www.w3.org/2000/svg" width="696" height="108" viewBox="0 0 696 108">
    <g fill="none" fill-rule="evenodd">
        <g fill="#323843">
            <path d="M10.552 47.46v28.58h17.423c4.907 0 8.783-1.264 11.623-3.79 2.838-2.528 4.26-6.009 4.26-10.445 0-9.562-5.241-14.344-15.719-14.344H10.552zm0-8.398H26.49c4.616 0 8.308-1.147 11.074-3.443 2.766-2.296 4.15-5.412 4.15-9.346 0-4.373-1.284-7.552-3.847-9.537-2.565-1.986-6.468-2.98-11.707-2.98H10.552v25.306zM0 84.602V5.193h26.16c8.685 0 15.214 1.784 19.593 5.346 4.378 3.564 6.568 8.836 6.568 15.816 0 3.709-1.063 6.99-3.188 9.845-2.126 2.854-5.02 5.064-8.683 6.626 4.322 1.2 7.739 3.483 10.25 6.846 2.509 3.362 3.764 7.372 3.764 12.024 0 7.128-2.327 12.727-6.98 16.798-4.653 4.073-11.23 6.11-19.73 6.11H0zM69.357 84.602h10.168V25.591H69.357v59.011zm-.824-74.664c0-1.637.504-3.018 1.512-4.144 1.006-1.127 2.5-1.692 4.479-1.692 1.98 0 3.48.565 4.507 1.692C80.056 6.92 80.57 8.3 80.57 9.938c0 1.636-.514 2.999-1.539 4.09-1.026 1.09-2.528 1.637-4.507 1.637-1.979 0-3.473-.547-4.479-1.637-1.008-1.091-1.512-2.454-1.512-4.09zM109.588 11.301v14.29h11.1v7.799h-11.1v36.642c0 2.366.494 4.14 1.483 5.325.99 1.181 2.674 1.774 5.057 1.774 1.172 0 2.784-.219 4.837-.654v8.133c-2.676.721-5.276 1.083-7.804 1.083-4.544 0-7.97-1.364-10.277-4.09-2.309-2.727-3.464-6.6-3.464-11.618V33.39H88.594v-7.8H99.42V11.301h10.168zM172.735 54.606c0-6.872-1.337-12.18-4.011-15.926-2.676-3.743-6.523-5.618-11.541-5.618-6.706 0-11.525 3.092-14.455 9.272v25.524c3.115 6.183 7.968 9.273 14.564 9.273 4.873 0 8.664-1.872 11.377-5.619 2.71-3.743 4.066-9.38 4.066-16.906zm10.169 1.145c0 9.018-2.09 16.263-6.266 21.734-4.177 5.473-9.783 8.208-16.818 8.208-7.511 0-13.318-2.635-17.422-7.909l-.495 6.818h-9.343V.83h10.168v31.25c4.102-5.052 9.763-7.58 16.983-7.58 7.216 0 12.887 2.709 17.01 8.125 4.122 5.42 6.183 12.837 6.183 22.253v.873zM196.589 84.602h10.166V.831H196.59zM230.553 55.751c0 6.543 1.528 11.8 4.589 15.762 3.057 3.964 7.153 5.945 12.283 5.945 5.167 0 9.269-2.01 12.311-6.027 3.04-4.016 4.56-9.643 4.56-16.88 0-6.471-1.548-11.717-4.644-15.734-3.096-4.018-7.208-6.027-12.338-6.027-5.02 0-9.068 1.983-12.145 5.944-3.078 3.964-4.616 9.637-4.616 17.017zm-10.222-1.2c0-5.782 1.143-10.98 3.434-15.598 2.289-4.617 5.477-8.181 9.562-10.69 4.085-2.51 8.748-3.764 13.987-3.764 8.097 0 14.647 2.782 19.648 8.345 5.002 5.564 7.503 12.963 7.503 22.198v.71c0 5.745-1.11 10.899-3.325 15.462-2.217 4.562-5.386 8.116-9.509 10.662-4.122 2.545-8.858 3.818-14.206 3.818-8.062 0-14.592-2.783-19.593-8.346-5.001-5.563-7.501-12.925-7.501-22.089v-.707zM294.91 55.751c0 6.763 1.436 12.073 4.314 15.924 2.875 3.855 6.75 5.783 11.623 5.783 6.046 0 10.662-2.654 13.85-7.964V40.59c-3.225-5.2-7.804-7.8-13.741-7.8-4.91 0-8.812 1.936-11.705 5.808-2.895 3.873-4.342 9.592-4.342 17.153zm-10.169-1.145c0-9.273 2.145-16.608 6.431-22.007 4.287-5.4 10.038-8.1 17.257-8.1 7.034 0 12.585 2.346 16.653 7.037l.439-5.945h9.343v81.7h-10.167V79.149c-4.105 4.363-9.564 6.545-16.378 6.545-7.181 0-12.907-2.773-17.175-8.318-4.268-5.544-6.403-12.9-6.403-22.062v-.708z"/>
        </g>
        <path fill="#00C4FF" d="M476.702 80.222h-40.288c-2.858 0-5.175-2.3-5.175-5.134V35.106c0-2.835 2.317-5.134 5.175-5.134h40.288c2.858 0 5.173 2.3 5.173 5.134v39.982c0 2.834-2.315 5.134-5.173 5.134"/>
        <path fill="#6BAE28" d="M405.644 80.222h-40.287c-2.858 0-5.174-2.3-5.174-5.134V35.106c0-2.835 2.316-5.134 5.174-5.134h40.287c2.858 0 5.174 2.3 5.174 5.134v39.982c0 2.834-2.316 5.134-5.174 5.134"/>
        <path fill="#D255AA" d="M547.759 80.222H507.47c-2.858 0-5.175-2.3-5.175-5.134V35.106c0-2.835 2.317-5.134 5.175-5.134h40.288c2.858 0 5.173 2.3 5.173 5.134v39.982c0 2.834-2.315 5.134-5.173 5.134"/>
        <path fill="#FF7451" d="M618.815 80.222h-40.287c-2.858 0-5.174-2.3-5.174-5.134V35.106c0-2.835 2.316-5.134 5.174-5.134h40.287c2.858 0 5.174 2.3 5.174 5.134v39.982c0 2.834-2.316 5.134-5.174 5.134"/>
        <path fill="#FFD73F" d="M689.872 80.222h-40.287c-2.858 0-5.175-2.3-5.175-5.134V35.106c0-2.835 2.317-5.134 5.175-5.134h40.287c2.858 0 5.174 2.3 5.174 5.134v39.982c0 2.834-2.316 5.134-5.174 5.134"/>
    </g>
</svg>
