<svg xmlns="http://www.w3.org/2000/svg" width="350" height="108" viewBox="0 0 350 108">
    <g fill="none" fill-rule="evenodd">
        <g fill="#323843">
            <path d="M7.155 27.727v16.992h10.296c2.9 0 5.192-.75 6.87-2.253 1.677-1.503 2.517-3.572 2.517-6.21 0-5.686-3.097-8.53-9.29-8.53H7.156zm0-4.994h9.419c2.728 0 4.91-.682 6.544-2.047 1.635-1.366 2.453-3.218 2.453-5.557 0-2.6-.759-4.49-2.273-5.671-1.516-1.18-3.823-1.773-6.919-1.773H7.155v15.048zM.92 49.81V2.595h15.46c5.132 0 8.992 1.06 11.579 3.178 2.587 2.119 3.882 5.254 3.882 9.404 0 2.205-.629 4.156-1.884 5.854-1.257 1.697-2.968 3.01-5.133 3.94 2.555.713 4.575 2.07 6.058 4.07 1.483 2 2.225 4.383 2.225 7.15 0 4.238-1.375 7.567-4.125 9.988-2.75 2.421-6.636 3.632-11.66 3.632H.92zM41.909 49.811h6.008V14.723h-6.008v35.088zM41.42 5.416c0-.973.298-1.794.893-2.464.595-.67 1.477-1.006 2.647-1.006 1.17 0 2.057.335 2.663 1.006.606.67.91 1.49.91 2.464 0 .973-.304 1.783-.91 2.432-.606.648-1.493.973-2.663.973-1.17 0-2.052-.325-2.647-.973-.595-.649-.893-1.459-.893-2.432zM65.683 6.227v8.496h6.56v4.637h-6.56v21.787c0 1.407.292 2.462.876 3.167.585.702 1.58 1.055 2.989 1.055.692 0 1.645-.13 2.858-.39v4.837c-1.581.428-3.118.644-4.612.644-2.685 0-4.71-.811-6.073-2.433-1.365-1.62-2.046-3.924-2.046-6.907V19.36h-6.4v-4.637h6.4V6.227h6.008zM103.001 31.975c0-4.086-.79-7.242-2.37-9.47-1.582-2.225-3.856-3.34-6.821-3.34-3.963 0-6.81 1.84-8.542 5.513v15.177c1.84 3.676 4.709 5.514 8.606 5.514 2.88 0 5.122-1.114 6.724-3.341C102.2 39.802 103 36.45 103 31.975zm6.01.681c0 5.363-1.235 9.67-3.703 12.923-2.469 3.254-5.782 4.88-9.939 4.88-4.44 0-7.87-1.566-10.296-4.702l-.293 4.054h-5.521V0h6.009v18.58c2.425-3.004 5.77-4.506 10.036-4.506 4.265 0 7.616 1.61 10.052 4.83 2.436 3.224 3.654 7.634 3.654 13.232v.519zM117.097 49.811h6.01V.001h-6.01zM137.17 32.656c0 3.891.903 7.016 2.712 9.372 1.808 2.357 4.227 3.534 7.259 3.534 3.053 0 5.478-1.194 7.275-3.582 1.797-2.389 2.696-5.735 2.696-10.037 0-3.848-.916-6.966-2.745-9.356-1.83-2.388-4.26-3.583-7.292-3.583-2.966 0-5.359 1.178-7.177 3.534-1.819 2.358-2.728 5.73-2.728 10.118zm-6.041-.713c0-3.437.676-6.53 2.03-9.275 1.352-2.745 3.236-4.864 5.651-6.356 2.414-1.491 5.17-2.237 8.265-2.237 4.786 0 8.656 1.654 11.612 4.961 2.956 3.308 4.434 7.708 4.434 13.2v.42c0 3.416-.656 6.48-1.965 9.194-1.31 2.714-3.183 4.827-5.62 6.34-2.435 1.513-5.235 2.27-8.395 2.27-4.764 0-8.624-1.654-11.58-4.962-2.955-3.308-4.432-7.686-4.432-13.134v-.421zM175.203 32.656c0 4.02.849 7.178 2.55 9.47 1.699 2.291 3.988 3.436 6.869 3.436 3.573 0 6.3-1.577 8.185-4.734V23.641c-1.906-3.091-4.612-4.637-8.12-4.637-2.902 0-5.209 1.15-6.918 3.453-1.711 2.302-2.566 5.703-2.566 10.199zm-6.01-.68c0-5.513 1.268-9.875 3.801-13.086 2.533-3.21 5.933-4.815 10.199-4.815 4.157 0 7.438 1.394 9.841 4.183l.26-3.535h5.52v48.579h-6.007V46.568c-2.425 2.594-5.651 3.892-9.68 3.892-4.243 0-7.627-1.648-10.15-4.946-2.522-3.296-3.783-7.67-3.783-13.117v-.422z"/>
        </g>
        <path fill="#00C4FF" d="M69.779 107.314h-23.81c-1.688 0-3.057-1.39-3.057-3.104V80.043c0-1.714 1.369-3.104 3.058-3.104h23.809c1.689 0 3.058 1.39 3.058 3.104v24.167c0 1.715-1.37 3.104-3.058 3.104"/>
        <path fill="#6BAE28" d="M27.786 107.314H3.977c-1.689 0-3.058-1.39-3.058-3.104V80.043c0-1.714 1.37-3.104 3.058-3.104h23.81c1.688 0 3.057 1.39 3.057 3.104v24.167c0 1.715-1.369 3.104-3.058 3.104"/>
        <path fill="#D255AA" d="M111.772 107.314h-23.81c-1.688 0-3.058-1.39-3.058-3.104V80.043c0-1.714 1.37-3.104 3.059-3.104h23.809c1.689 0 3.057 1.39 3.057 3.104v24.167c0 1.715-1.368 3.104-3.057 3.104"/>
        <path fill="#FF7451" d="M153.765 107.314h-23.81c-1.688 0-3.058-1.39-3.058-3.104V80.043c0-1.714 1.37-3.104 3.059-3.104h23.809c1.689 0 3.057 1.39 3.057 3.104v24.167c0 1.715-1.368 3.104-3.057 3.104"/>
        <path fill="#FFD73F" d="M195.757 107.314H171.95c-1.69 0-3.058-1.39-3.058-3.104V80.043c0-1.714 1.368-3.104 3.058-3.104h23.808c1.69 0 3.058 1.39 3.058 3.104v24.167c0 1.715-1.369 3.104-3.058 3.104"/>
        <path fill="#C0C4CA" d="M214.485 107.027a.982.982 0 0 1-.975-.988V.989c0-.547.437-.989.975-.989s.975.442.975.988v105.05a.982.982 0 0 1-.975.989"/>
        <g fill="#C0C4CA">
            <path d="M235.067 55.346V68.58h7.947c2.239 0 4.007-.584 5.301-1.756 1.295-1.17 1.944-2.782 1.944-4.836 0-4.43-2.39-6.643-7.17-6.643h-8.022zm0-3.89h7.27c2.105 0 3.789-.531 5.05-1.595 1.262-1.063 1.893-2.506 1.893-4.328 0-2.026-.585-3.498-1.755-4.417-1.17-.92-2.95-1.38-5.338-1.38h-7.12v11.72zm-4.814 21.091V35.77h11.934c3.96 0 6.939.826 8.936 2.476 1.997 1.65 2.996 4.092 2.996 7.326 0 1.717-.486 3.237-1.454 4.558-.97 1.323-2.29 2.346-3.961 3.07 1.972.556 3.53 1.612 4.675 3.17 1.145 1.557 1.717 3.413 1.717 5.57 0 3.3-1.06 5.893-3.183 7.78-2.123 1.885-5.123 2.828-9 2.828h-12.66zM282.847 55.547h-15.818v13.034h18.375v3.965h-23.188V35.77h22.937v3.966H267.03v11.846h15.818zM317.116 39.736h-11.732v32.81h-4.788v-32.81h-11.707V35.77h28.227zM326.867 58.958h12.409l-6.217-17.202-6.192 17.202zm13.838 3.965h-15.292l-3.435 9.623h-4.963l13.938-36.776h4.212l13.963 36.776h-4.939l-3.484-9.623z"/>
        </g>
    </g>
</svg>
