<svg xmlns="http://www.w3.org/2000/svg" width="64" height="64" viewBox="0 0 64 64">
    <defs>
        <linearGradient id="a" x1="18.957%" x2="88.523%" y1="90.668%" y2="16.099%">
            <stop offset="0%" stop-color="#4DE1FF"/>
            <stop offset="100%" stop-color="#4DC3FF"/>
        </linearGradient>
        <linearGradient id="b" x1="27.267%" x2="50%" y1="40.57%" y2="14.015%">
            <stop offset="0%" stop-color="#4DE1FF"/>
            <stop offset="100%" stop-color="#4DC3FF"/>
        </linearGradient>
        <linearGradient id="c" x1="75.013%" x2="40.221%" y1="32.062%" y2="71.452%">
            <stop offset="0%" stop-color="#4DE1FF"/>
            <stop offset="100%" stop-color="#4DC3FF"/>
        </linearGradient>
    </defs>
    <g fill="none" fill-rule="evenodd">
        <path fill="#4DE1FF" d="M35.439 44.102l-3.998-2.064v-7.614l3.998 2.194z"/>
        <path fill="#4DC3FF" d="M21.381 45.393l13.413-7.614-13.929-5.55z"/>
        <path fill="#4DC3FF" d="M53.237 5L10.16 26.81l11.349 6.71L63.94 10.033z"/>
        <path fill="#4DA6FF" d="M21.51 33.52l.387 10.582 13.542-7.484v7.484l27.083-16.776 1.42-17.293z"/>
        <path fill="#4DE1FF" d="M16.351 40.876l5.546 3.226-.387-10.582-5.933-3.484z"/>
        <path fill="url(#a)" d="M40.788 33.252c-.896.734-1.468 2.058-1.276 2.957.057.269.177.468.34.597.06.046.34.262.429.311.384.213.95.1 1.522-.37.896-.733 1.467-2.058 1.276-2.957-.059-.275-.183-.477-.351-.605-.056-.043-.364-.282-.478-.333a.88.88 0 0 0-.36-.073c-.328 0-.713.154-1.102.473M56.058 24.051c-.805.66-1.318 1.85-1.146 2.658.051.24.159.42.305.535.053.042.305.236.385.28.345.191.854.09 1.368-.332.805-.66 1.318-1.85 1.146-2.657-.053-.247-.164-.428-.315-.544-.05-.038-.327-.254-.43-.299a.791.791 0 0 0-.324-.066c-.294 0-.64.14-.989.425M59.54 21.857c-.805.66-1.318 1.85-1.146 2.658.052.24.16.42.305.536.054.041.306.235.385.28.345.19.854.088 1.368-.333.805-.66 1.318-1.85 1.146-2.657-.053-.247-.164-.429-.315-.544-.05-.038-.327-.253-.429-.299a.79.79 0 0 0-.324-.065c-.295 0-.64.138-.99.424" transform="translate(0 5)"/>
        <path fill="url(#b)" d="M1.271 46.292l10.695 7.651c-.825-14.915-3.623-22.038 8.756-28.85l-11.07-6.477C-3.836 24.933.506 32.46 1.272 46.292" transform="translate(0 5)"/>
        <path fill="#4DA6FF" d="M20.722 30.093c-12.379 6.812-9.581 13.935-8.756 28.85L34.794 44.62v-6.84l-13.413 7.614-.66-15.3z"/>
        <path fill="url(#c)" d="M14.666 32.468c-2.186 3.454-1.495 6.677-1.495 6.677 7.937-2.878 7.017-7.942 7.017-10.82h-.007c-.161 0-2.93.06-5.515 4.143" transform="translate(0 5)"/>
        <path fill="url(#a)" d="M27.358 41.71c-.926.759-1.517 2.128-1.319 3.057.06.278.183.484.352.617.06.048.351.271.443.322.397.22.981.103 1.573-.382.926-.76 1.517-2.128 1.319-3.057-.06-.284-.189-.493-.363-.626-.058-.044-.376-.291-.494-.344a.913.913 0 0 0-.372-.075c-.34 0-.737.16-1.139.488M31.486 39c-.927.759-1.518 2.128-1.32 3.057.06.278.183.484.351.617.062.048.352.27.444.322.397.22.982.103 1.573-.382.926-.76 1.517-2.128 1.319-3.058-.06-.284-.188-.492-.363-.625-.058-.044-.376-.292-.493-.344a.91.91 0 0 0-.374-.076c-.338 0-.736.16-1.137.49M18.14 45.263c-1.623.98-2.939 3.09-2.939 4.715 0 .651.212 1.125.57 1.396.064.049.37.271.466.326.539.308 1.342.225 2.238-.316 1.624-.98 2.94-3.09 2.94-4.715 0-.612-.187-1.068-.507-1.345a8.902 8.902 0 0 0-.44-.32 1.403 1.403 0 0 0-.812-.236c-.442 0-.96.16-1.516.495" transform="translate(0 5)"/>
        <path fill="#4DA6FF" d="M43.078 38.789c.192.899-.38 2.223-1.275 2.957-.897.735-1.779.601-1.97-.298-.192-.9.38-2.224 1.276-2.958s1.778-.6 1.97.299M58.116 29.534c.172.808-.341 1.997-1.147 2.657-.805.66-1.597.54-1.769-.268-.172-.808.34-1.998 1.146-2.657.805-.66 1.598-.54 1.77.268M61.598 27.34c.172.808-.341 1.997-1.146 2.657-.805.66-1.598.54-1.77-.268-.172-.808.341-1.998 1.146-2.657.805-.66 1.598-.54 1.77.268M21.415 51.669c0 1.624-1.316 3.735-2.94 4.715-1.623.98-2.94.457-2.94-1.167 0-1.625 1.317-3.736 2.94-4.716 1.624-.98 2.94-.457 2.94 1.168M29.726 47.265c.198.93-.393 2.299-1.32 3.058-.926.759-1.837.62-2.035-.309-.198-.93.392-2.298 1.319-3.057.926-.76 1.838-.621 2.036.308M33.853 44.555c.198.93-.393 2.299-1.32 3.058-.926.759-1.837.62-2.035-.309-.198-.93.392-2.299 1.319-3.058.926-.759 1.838-.62 2.036.31"/>
    </g>
</svg>
