<svg xmlns="http://www.w3.org/2000/svg" width="44" height="44" viewBox="0 0 44 44">
    <path fill="#000" fill-rule="evenodd" d="M37.677 32.19a2.968 2.968 0 0 1 2.965 2.965v3.265a.869.869 0 0 1-1.736 0v-3.265a1.23 1.23 0 0 0-1.229-1.228H6.965a1.23 1.23 0 0 0-1.228 1.228v3.265a.869.869 0 0 1-1.737 0v-3.265a2.968 2.968 0 0 1 2.965-2.965h4.286v-6.27c0-1.153.943-2.097 2.097-2.097h17.947c1.154 0 2.097.944 2.097 2.096v6.271h4.285zM17.45 17.091h9.745v-4.85c0-.386.313-.698.698-.698h2.238l-7.808-5.966-7.81 5.966h2.238c.386 0 .699.312.699.698v4.85zm10.443 1.397H16.75a.699.699 0 0 1-.698-.698v-4.85h-3.605a.699.699 0 0 1-.423-1.254l9.874-7.542a.697.697 0 0 1 .847 0l9.874 7.542a.697.697 0 0 1-.424 1.253h-3.604v4.85a.699.699 0 0 1-.699.7z"/>
</svg>
