<svg xmlns="http://www.w3.org/2000/svg" width="44" height="44" viewBox="0 0 44 44">
    <path fill="#000" fill-rule="evenodd" d="M37.677 32.19a2.968 2.968 0 0 1 2.965 2.966v3.265a.869.869 0 0 1-1.737 0v-3.265a1.23 1.23 0 0 0-1.228-1.229H6.965a1.23 1.23 0 0 0-1.228 1.229v3.265a.869.869 0 0 1-1.737 0v-3.265a2.968 2.968 0 0 1 2.965-2.965h4.285v-3.216c0-1.154.944-2.097 2.097-2.097h17.948c1.153 0 2.097.943 2.097 2.097v3.216h4.285zM27.194 5.398h-9.745v4.85a.699.699 0 0 1-.699.699h-2.237l7.808 5.965 7.809-5.965h-2.238a.699.699 0 0 1-.698-.699v-4.85zM16.75 4h11.142c.386 0 .699.313.699.698v4.85h3.604a.699.699 0 0 1 .424 1.254l-9.874 7.543a.697.697 0 0 1-.847 0l-9.874-7.543a.697.697 0 0 1 .424-1.253h3.604v-4.85c0-.386.313-.699.698-.699z"/>
</svg>
