<svg xmlns="http://www.w3.org/2000/svg" width="24" height="24" viewBox="0 0 24 24">
    <path fill="#323843" fill-rule="evenodd" d="M19.898 16.864a4.068 4.068 0 0 1 4.068 4.068v1.788a.373.373 0 0 1-.373.373H22.38a.373.373 0 0 1-.373-.373v-1.788a2.108 2.108 0 0 0-2.108-2.108H4.101a2.108 2.108 0 0 0-2.108 2.108v1.788a.373.373 0 0 1-.373.373H.406a.373.373 0 0 1-.373-.373v-1.788a4.068 4.068 0 0 1 4.068-4.068h1.613v-5.542a.64.64 0 0 1 .641-.64h11.29a.64.64 0 0 1 .64.64v5.542h1.613zM9.54 5.514l-.541-.54a.427.427 0 0 1 0-.604l2.7-2.698a.424.424 0 0 1 .603 0l2.7 2.699a.427.427 0 0 1 0 .603l-.542.54a.426.426 0 0 1-.603 0l-.986-.985V8.75a.406.406 0 0 1-.405.405h-.931a.405.405 0 0 1-.405-.405V4.529l-.986.986a.424.424 0 0 1-.302.125.424.424 0 0 1-.302-.125z"/>
</svg>
