<svg xmlns="http://www.w3.org/2000/svg" width="24" height="24" viewBox="0 0 24 24">
    <path fill="#373B44" fill-rule="evenodd" d="M19.321 17.935l.434.435a9.993 9.993 0 0 0 2.235-5.389h-.617a.513.513 0 0 1-.512-.513v-.936c0-.283.229-.512.512-.512h.617a9.983 9.983 0 0 0-2.235-5.388l-.434.434c-.2.2-.525.2-.725 0l-.661-.661c-.2-.2-.2-.525 0-.725l.434-.434A9.99 9.99 0 0 0 12.98 2.01v.617a.512.512 0 0 1-.512.513h-.935a.513.513 0 0 1-.513-.513V2.01a9.994 9.994 0 0 0-5.389 2.236l.434.434c.2.2.2.525 0 .725l-.661.661c-.2.2-.524.2-.725 0l-.434-.434A9.99 9.99 0 0 0 2.01 11.02h.617c.283 0 .512.229.512.512v.936a.513.513 0 0 1-.512.513H2.01a10 10 0 0 0 2.235 5.389l.434-.435c.201-.2.525-.2.725 0l.661.662c.2.2.2.525 0 .725l-.433.433a9.995 9.995 0 0 0 5.388 2.236v-.618c0-.282.23-.511.513-.511h.935c.283 0 .512.229.512.511v.618a9.998 9.998 0 0 0 5.389-2.236l-.434-.433c-.2-.2-.2-.525 0-.725l.661-.662c.2-.2.525-.2.725 0zM12 0c6.628 0 12 5.373 12 12 0 6.628-5.372 12-12 12-6.627 0-12-5.372-12-12C0 5.373 5.373 0 12 0zm.98 11.594l2.585 2.585a.507.507 0 0 1 0 .717l-.668.67a.508.508 0 0 1-.718 0l-3.01-3.01a.507.507 0 0 1-.149-.359V5.245c0-.28.228-.507.507-.507h.946c.28 0 .507.227.507.507v6.35z"/>
</svg>
