<svg xmlns="http://www.w3.org/2000/svg" width="24" height="24" viewBox="0 0 24 24">
    <path fill="#323843" fill-rule="evenodd" d="M24 11.465a.448.448 0 0 0-.448-.447h-1.39l.796-.797a.447.447 0 0 0 0-.633l-.755-.756a.448.448 0 0 0-.634 0l-2.184 2.186h-5.014l3.544-3.544h3.092c.247 0 .448-.2.448-.448v-1.07a.448.448 0 0 0-.448-.447H19.88l.93-.931a.45.45 0 0 0 0-.633l-.755-.755a.448.448 0 0 0-.634 0l-.93.93V2.992a.448.448 0 0 0-.448-.447h-1.069c-.247 0-.448.2-.448.447v3.093l-3.544 3.544V4.615l2.185-2.185a.447.447 0 0 0 0-.633l-.755-.756a.448.448 0 0 0-.634 0l-.796.797V.447A.448.448 0 0 0 12.534 0h-1.069c-.247 0-.447.2-.447.447v1.391l-.798-.797a.448.448 0 0 0-.634 0l-.755.756a.447.447 0 0 0 0 .633l2.187 2.185v5.013L7.474 6.084V2.992a.449.449 0 0 0-.449-.447H5.956c-.247 0-.447.2-.447.447v1.127l-.93-.929a.448.448 0 0 0-.634 0l-.755.755a.45.45 0 0 0 0 .633l.931.931H2.992c-.247 0-.447.2-.447.447v1.07c0 .248.2.448.447.448h3.094l3.544 3.544H4.615L2.43 8.831a.448.448 0 0 0-.634 0l-.755.756a.447.447 0 0 0 0 .633l.797.798H.448c-.248 0-.448.2-.448.447v1.069c0 .248.2.449.447.449h1.391l-.797.796a.447.447 0 0 0 0 .633l.755.756a.448.448 0 0 0 .634 0l2.185-2.185H9.63l-3.544 3.544H2.992c-.247 0-.447.2-.447.447v1.069c0 .248.2.448.447.448H4.12l-.93.931a.45.45 0 0 0 0 .633l.754.756a.448.448 0 0 0 .634 0l.931-.931v1.127c0 .248.2.448.447.448h1.07c.246 0 .448-.2.448-.448v-3.092l3.544-3.544v5.014L8.832 21.57a.447.447 0 0 0 0 .633l.755.756a.448.448 0 0 0 .634 0l.797-.797v1.39c0 .248.2.448.447.448h1.07c.246 0 .447-.2.447-.448v-1.39l.797.797a.448.448 0 0 0 .634 0l.755-.756a.447.447 0 0 0 0-.633l-2.186-2.185V14.37l3.544 3.544v3.093c0 .248.201.448.448.448h1.07c.246 0 .447-.2.447-.448v-1.128l.927.928a.448.448 0 0 0 .634 0l.755-.756a.45.45 0 0 0 0-.633l-.926-.927h1.126c.247 0 .448-.2.448-.448v-1.069a.448.448 0 0 0-.448-.447h-3.09l-3.545-3.544h5.013l2.184 2.185a.448.448 0 0 0 .634 0l.755-.756a.447.447 0 0 0 0-.633l-.796-.796h1.39a.449.449 0 0 0 .448-.449v-1.069z"/>
</svg>
