<svg xmlns="http://www.w3.org/2000/svg" xmlns:xlink="http://www.w3.org/1999/xlink" width="30" height="30" viewBox="0 0 30 30">
    <defs>
        <path id="a" d="M267 2879h376v220H267z"/>
        <mask id="b" width="376" height="220" x="0" y="0" fill="#fff">
            <use xlink:href="#a"/>
        </mask>
    </defs>
    <g fill="none" fill-rule="evenodd" transform="translate(-582 -2971)">
        <path fill-rule="nonzero" stroke="#000" stroke-width="2" d="M81 2766h621v413H81z"/>
        <rect width="130" height="66" x="500" y="2967" fill-rule="nonzero" stroke="#979797" stroke-width="6" rx="10"/>
        <path fill="#DDD" fill-rule="nonzero" d="M567 2970h50c5.523 0 10 4.477 10 10v40c0 5.523-4.477 10-10 10h-50v-60z"/>
        <path fill="#EEE" fill-rule="nonzero" d="M567 2956h50c5.523 0 10 4.477 10 10v40c0 5.523-4.477 10-10 10h-50v-60z"/>
        <use fill-rule="nonzero" stroke="#373B44" stroke-dasharray="6,6" stroke-width="2" mask="url(#b)" xlink:href="#a"/>
        <path fill="#000" d="M609.124 2980.273v-.586c0-.559-.45-.979-1.003-.979a.97.97 0 0 0-.644.25l-2.098 1.208.554-2.05a1.01 1.01 0 0 0-.703-1.24 1 1 0 0 0-1.232.71l-1.082 3.997-4.647 2.676v-5.392l2.9-2.922a1.014 1.014 0 0 0 0-1.428.996.996 0 0 0-1.417 0l-1.483 1.493v-2.636c0-.559-.448-1.01-1.003-1.01-.553 0-1.002.451-1.002 1.01v2.636l-1.482-1.493a.996.996 0 0 0-1.418 0 1.014 1.014 0 0 0 0 1.428l2.9 2.922V2984.259l-4.647-2.676-1.082-3.997a.997.997 0 0 0-1.231-.71 1.01 1.01 0 0 0-.703 1.24l.555 2.05-2.019-1.163a1.02 1.02 0 0 0-.725-.295c-.553 0-1.003.484-1.003 1.041v.586l2.75 1.585-2.01.553a1.01 1.01 0 0 0-.704 1.24 1 1 0 0 0 1.23.708l3.947-1.084 4.624 2.663-4.624 2.663-3.946-1.085a1 1 0 0 0-1.231.71 1.01 1.01 0 0 0 .703 1.24l2.013.552-2.246 1.293c-.48.278-.648.894-.373 1.379a1 1 0 0 0 1.367.375l2.247-1.294-.555 2.05a1.01 1.01 0 0 0 .968 1.276c.44 0 .845-.295.966-.745l1.083-3.999 4.646-2.674v5.39l-2.9 2.923a1.014 1.014 0 0 0 0 1.428.996.996 0 0 0 1.418 0l1.482-1.493v2.637c0 .559.449 1.01 1.002 1.01.555 0 1.003-.451 1.003-1.01v-2.637l1.483 1.493a.996.996 0 0 0 1.418 0 1.014 1.014 0 0 0 0-1.428l-2.901-2.923V2987.741l4.647 2.675 1.082 3.998c.033.124.093.233.164.331.026.035.058.061.087.092.053.056.108.107.173.15.04.027.082.046.126.068.064.03.131.053.201.068.049.011.093.02.142.024.025.002.049.012.074.012a1.01 1.01 0 0 0 .968-1.275l-.555-2.05 2.019 1.162c.182.184.44.296.724.296.554 0 1.003-.484 1.003-1.043v-.585l-2.75-1.584 2.011-.553a1.01 1.01 0 0 0 .704-1.24.998.998 0 0 0-1.231-.71l-3.947 1.085-1.509-.87-.232-.133-2.882-1.659 4.623-2.663 3.947 1.084a1.005 1.005 0 0 0 1.231-.71 1.01 1.01 0 0 0-.704-1.238l-2.011-.553 2.245-1.293.505-.354z"/>
    </g>
</svg>
