<svg xmlns="http://www.w3.org/2000/svg" width="44" height="44" viewBox="0 0 44 44">
    <g fill="none" fill-rule="evenodd">
        <path fill="#7AC943" d="M19.486 31.397c-.094.003-.186.016-.28.016C13.017 31.413 8 26.396 8 20.206 8 14.017 13.017 9 19.206 9c6.188 0 11.205 5.017 11.205 11.206 0 .747-.076 1.477-.214 2.183-3.278 2.94-6.607 5.932-7.006 6.332-.423.421-.603 1.004-.573 1.619a3.607 3.607 0 0 0-3.09 1.01c-.016.017-.026.031-.042.047zM19 24a4 4 0 1 0 0-8 4 4 0 0 0 0 8z"/>
        <path fill="#000" d="M38.764 18.486c-.218.217-1.701 1.87-5.037 5.586-2.898 3.23-6.461 7.201-7.196 7.98a4.835 4.835 0 0 0-.935-1.356 4.615 4.615 0 0 0-1.37-.922c.73-.694 4.703-4.258 7.931-7.155 3.76-3.371 5.429-4.873 5.647-5.092.016-.015.051-.023.103-.023.136 0 .375.065.593.284.32.32.305.657.264.698M23.8 35.819c-.803.804-2.378 1.722-3.993 1.956.616-1.286.421-2.345.136-3.335-.239-.824-.319-1.102.528-1.949a2.339 2.339 0 0 1 1.665-.69c.628 0 1.219.246 1.664.69a2.358 2.358 0 0 1 0 3.328m-5.125-5.123c-1.148 1.147-1.437 2.154-1.428 2.999-6.446-.97-11.41-6.53-11.41-13.243 0-7.395 6.018-13.412 13.412-13.412 6.851 0 12.51 5.17 13.306 11.81l-2.094 1.88c-4.483 4.021-7.69 6.901-8.125 7.334a3.15 3.15 0 0 0-.765 1.296c-1.073.116-2.11.548-2.896 1.336m21.622-14.703c-1.253-1.252-3.176-1.372-4.287-.263-.091.09-.557.512-1.238 1.126C33.138 9.788 26.806 4.5 19.249 4.5c-8.796 0-15.951 7.156-15.951 15.952 0 8.251 6.303 15.035 14.345 15.844-.081.438-.378.934-1.114 1.67a1.269 1.269 0 0 0 .516 2.109c.68.213 1.362.306 2.037.306 2.708 0 5.253-1.504 6.514-2.766.813-.812 1.257-1.843 1.378-2.903a3.231 3.231 0 0 0 1.252-.758c.435-.437 3.338-3.669 7.392-8.187 2.318-2.583 4.713-5.252 4.942-5.485 1.108-1.109.99-3.033-.263-4.289"/>
    </g>
</svg>
