<svg xmlns="http://www.w3.org/2000/svg" width="24" height="24" viewBox="0 0 24 24">
    <g fill="none" fill-rule="evenodd">
        <path fill="#323843" d="M15.762 20.825C14.122 22.765 11.678 24 8.942 24c-4.938 0-8.94-4.01-8.94-8.957C.001 7.141 8.941.05 8.941.05s2.522 2.01 4.887 5.076c.688-.195 1.415-.297 2.166-.297 4.416 0 7.996 3.582 7.996 8s-3.58 8-7.996 8c-.078 0-.155-.002-.233-.004M11.968 5.916c-1.101-1.368-2.216-2.493-3.026-3.253C6.66 4.804 1.96 9.837 1.96 15.043c0 3.856 3.132 6.994 6.982 6.994 1.702 0 3.258-.616 4.47-1.635-3.149-1.074-5.414-4.059-5.414-7.573 0-2.949 1.595-5.525 3.97-6.913"/>
        <path fill="#FFF" d="M13.75 8.518h4.47c1.145 0 2.074.93 2.074 2.075v4.47c0 1.145-.929 2.075-2.075 2.075h-4.47c-1.146 0-2.075-.93-2.075-2.075v-4.47c0-1.145.93-2.075 2.075-2.075"/>
    </g>
</svg>
