<svg xmlns="http://www.w3.org/2000/svg" width="24" height="24" viewBox="0 0 24 24">
    <g fill="none" fill-rule="evenodd">
        <path fill="#00B70C" d="M23 13a7 7 0 1 1-14 0 7 7 0 0 1 14 0"/>
        <path fill="#323843" d="M15.767 20.826A8.911 8.911 0 0 1 8.944 24C4.004 24 0 19.99 0 15.043 0 7.143 8.944.05 8.944.05s2.523 2.011 4.89 5.076a8.001 8.001 0 1 1 1.934 15.7zM11.97 5.916a32.277 32.277 0 0 0-3.027-3.252C6.66 4.804 1.96 9.837 1.96 15.044c0 3.856 3.133 6.993 6.984 6.993 1.702 0 3.26-.616 4.472-1.634a8.003 8.003 0 0 1-1.445-14.487zM16 6.758a6.078 6.078 0 0 0-6.071 6.071 6.077 6.077 0 0 0 6.07 6.07 6.078 6.078 0 0 0 6.072-6.07A6.08 6.08 0 0 0 16 6.758zM17.5 10l1.5 2.75-1.5 2.75h-3L13 12.75 14.5 10h3z"/>
    </g>
</svg>
