<svg xmlns="http://www.w3.org/2000/svg" width="24" height="24" viewBox="0 0 24 24">
    <g fill="none" fill-rule="evenodd">
        <path fill="#FFF" d="M23.04 12.827c0-3.887-3.152-7.036-7.039-7.036-3.886 0-7.037 3.15-7.037 7.036 0 3.888 3.151 7.038 7.037 7.038 3.887 0 7.038-3.15 7.038-7.038"/>
        <path fill="#323843" d="M13.748 8.518h4.47c1.147 0 2.075.929 2.075 2.075v4.47c0 1.145-.928 2.075-2.075 2.075h-4.47c-1.146 0-2.075-.93-2.075-2.075v-4.47c0-1.146.93-2.075 2.075-2.075zm0 .77c-.72 0-1.305.584-1.305 1.305v4.47c0 .72.585 1.305 1.305 1.305h4.47c.721 0 1.305-.584 1.305-1.305v-4.47c0-.721-.584-1.304-1.305-1.304h-4.47z"/>
        <path fill="#323843" d="M15.762 20.825C14.122 22.765 11.677 24 8.942 24c-4.938 0-8.94-4.01-8.94-8.957C.001 7.141 8.941.05 8.941.05s2.522 2.01 4.887 5.076c.688-.195 1.415-.297 2.165-.297 4.416 0 7.997 3.582 7.997 8s-3.581 8-7.997 8c-.077 0-.155-.002-.232-.004M11.967 5.916c-1.1-1.368-2.215-2.493-3.025-3.253C6.659 4.804 1.96 9.837 1.96 15.043c0 3.856 3.132 6.994 6.982 6.994 1.7 0 3.258-.616 4.47-1.635-3.149-1.074-5.414-4.059-5.414-7.573 0-2.949 1.595-5.525 3.97-6.913m4.026.842c-3.346 0-6.068 2.724-6.068 6.071 0 3.348 2.722 6.07 6.068 6.07 3.346 0 6.07-2.722 6.07-6.07 0-3.347-2.724-6.07-6.07-6.07"/>
    </g>
</svg>
