<svg xmlns="http://www.w3.org/2000/svg" width="24" height="24" viewBox="0 0 24 24">
    <g fill="none" fill-rule="evenodd">
        <path fill="#0094D1" d="M23.038 12.826c0-3.887-3.15-7.036-7.038-7.036-3.886 0-7.036 3.15-7.036 7.036 0 3.888 3.15 7.038 7.036 7.038 3.888 0 7.038-3.15 7.038-7.038"/>
        <path fill="#323843" d="M16.62 10.827c.177-.176.42-.284.69-.284.537 0 .972.431.977.966h.01v2.623h-.01v.016c0 .54-.437.977-.976.977v.006h-2.624v-.006h-.005c-.54 0-.978-.438-.978-.977 0-.283.12-.539.314-.717l2.6-2.606.002.002z"/>
        <path fill="#323843" d="M15.767 20.825C14.127 22.765 11.681 24 8.944 24 4.004 24 0 19.99 0 15.043 0 7.141 8.944.05 8.944.05s2.523 2.01 4.89 5.076c.688-.195 1.415-.297 2.165-.297 4.418 0 8.001 3.582 8.001 8s-3.583 8-8 8c-.078 0-.156-.002-.233-.004M11.971 5.916c-1.1-1.368-2.216-2.493-3.027-3.253C6.66 4.804 1.96 9.837 1.96 15.043c0 3.856 3.133 6.994 6.984 6.994 1.702 0 3.26-.616 4.472-1.635C10.266 19.328 8 16.343 8 12.83c0-2.949 1.596-5.525 3.971-6.913M16 6.758c-3.347 0-6.07 2.724-6.07 6.071 0 3.348 2.723 6.07 6.07 6.07 3.348 0 6.072-2.722 6.072-6.07 0-3.347-2.724-6.07-6.072-6.07"/>
    </g>
</svg>
