<svg xmlns="http://www.w3.org/2000/svg" width="24" height="24" viewBox="0 0 24 24">
    <g fill="none" fill-rule="evenodd">
        <path fill="#09B70C" d="M23.039 12.827c0-3.887-3.151-7.036-7.038-7.036-3.886 0-7.037 3.15-7.037 7.036 0 3.888 3.15 7.038 7.037 7.038s7.038-3.15 7.038-7.038"/>
        <path fill="#323843" d="M19.393 10.173c0 .21-.088.4-.229.532l-5.297 5.297c-.134.143-.325.232-.536.232-.404 0-.732-.329-.732-.733 0-.216.093-.41.24-.543l5.282-5.283c.134-.145.325-.235.538-.235.405 0 .734.328.734.733zm-.838 2.23c.447 0 .81.36.814.806h.008v2.186h-.008v.014c0 .448-.364.812-.814.813v.005H16.37v-.005h-.004c-.45 0-.815-.365-.815-.814 0-.236.1-.448.261-.598l2.168-2.171.001.002c.148-.146.35-.238.575-.238z"/>
        <path fill="#323843" d="M15.761 20.825C14.121 22.765 11.677 24 8.941 24c-4.938 0-8.94-4.01-8.94-8.957C0 7.141 8.94.05 8.94.05s2.522 2.01 4.887 5.076c.689-.195 1.415-.297 2.165-.297 4.416 0 7.998 3.582 7.998 8s-3.582 8-7.998 8c-.077 0-.155-.002-.232-.004M11.967 5.916c-1.1-1.368-2.215-2.493-3.026-3.253C6.658 4.804 1.96 9.837 1.96 15.043c0 3.856 3.132 6.994 6.981 6.994 1.701 0 3.259-.616 4.47-1.635-3.148-1.074-5.414-4.059-5.414-7.573 0-2.949 1.596-5.525 3.97-6.913m4.026.842c-3.345 0-6.067 2.724-6.067 6.071 0 3.348 2.722 6.07 6.067 6.07 3.347 0 6.07-2.722 6.07-6.07 0-3.347-2.723-6.07-6.07-6.07"/>
    </g>
</svg>
