<svg xmlns="http://www.w3.org/2000/svg" width="24" height="24" viewBox="0 0 24 24">
    <path fill="#323843" fill-rule="evenodd" d="M18.594 19.547a7.086 7.086 0 0 0 .52-2.66 7.113 7.113 0 0 0-6.568-7.092.537.537 0 0 0-.568.477c-.437 4.606-7.09.962-7.09 6.615 0 .941.186 1.838.518 2.66C3.302 17.706 1.964 15.009 1.964 12c0-3.311 1.338-3.726 4.636-4.425 2.548-.539 6.227-1.317 7.148-5.459 4.703.83 8.288 4.947 8.288 9.884 0 3.009-1.338 5.706-3.442 7.547m-11.747-2.66c0-1.344.24-1.446 2.117-1.844 1.382-.292 3.704-.783 4.614-3.061a5.161 5.161 0 0 1 3.575 4.905c0 2.814-2.269 5.101-5.073 5.145-.027 0-.053.004-.08.004-.027 0-.052-.004-.08-.004-2.804-.044-5.073-2.331-5.073-5.145M11.98.639C11.421 8.657.166 2.475.002 11.791c-.095 5.32 3.318 10.218 8.43 11.694C16.585 25.84 24 19.786 24 12 24 5.604 18.995.376 12.69.02a.677.677 0 0 0-.71.619"/>
</svg>
