<svg xmlns="http://www.w3.org/2000/svg" xmlns:xlink="http://www.w3.org/1999/xlink" width="30" height="30" viewBox="0 0 30 30">
    <defs>
        <path id="a" d="M267 2879h376v220H267z"/>
        <mask id="b" width="376" height="220" x="0" y="0" fill="#fff">
            <use xlink:href="#a"/>
        </mask>
    </defs>
    <g fill="none" fill-rule="evenodd" transform="translate(-518 -2983)">
        <path fill-rule="nonzero" stroke="#000" stroke-width="2" d="M81 2766h621v413H81z"/>
        <path fill="#DDD" fill-rule="nonzero" d="M513 2970h50v60h-50c-5.523 0-10-4.477-10-10v-40c0-5.523 4.477-10 10-10z"/>
        <rect width="130" height="66" x="500" y="2967" fill-rule="nonzero" stroke="#979797" stroke-width="6" rx="10"/>
        <path fill="#EEE" fill-rule="nonzero" d="M513 2968h50v60h-50c-5.523 0-10-4.477-10-10v-40c0-5.523 4.477-10 10-10z"/>
        <use fill-rule="nonzero" stroke="#373B44" stroke-dasharray="6,6" stroke-width="2" mask="url(#b)" xlink:href="#a"/>
        <path fill="#000" d="M536.705 3001.67c-1.076-1.299-2.006-2.421-2.267-3.653a.842.842 0 0 0-1.489-.343c-.32.414-.663.833-1.014 1.263-1.966 2.407-4.355 5.333-4.91 9.859-5.288-5.918-3.225-8.408-.211-12.047 1.952-2.355 4.321-5.215 4.891-9.55 1.899 2.138 2.93 3.953 3.143 5.52a.843.843 0 0 0 1.485.425c.085-.105.174-.21.265-.317.525 3.349 2.324 5.55 3.813 7.375 2.229 2.728 3.657 4.477.09 8.617-.536-3.212-2.317-5.363-3.796-7.149m5.01-2.542c-1.68-2.057-3.583-4.387-3.583-8.286a.84.84 0 1 0-1.438-.6c-.206.208-.404.412-.596.614-.695-1.86-2.163-3.885-4.512-6.245a.84.84 0 0 0-1.438.6c0 4.868-2.46 7.837-4.629 10.456-3.274 3.951-6.366 7.684 1.633 15.721a.842.842 0 0 0 1.438-.598c0-5.088 2.47-8.111 4.648-10.779l.105-.129c.517 1.001 1.277 1.92 2.066 2.872 1.753 2.116 3.567 4.306 3.567 8.036 0 .342.205.65.52.783.314.13.677.057.918-.185 6.214-6.244 3.827-9.166 1.3-12.26"/>
    </g>
</svg>
