<svg xmlns="http://www.w3.org/2000/svg" xmlns:xlink="http://www.w3.org/1999/xlink" width="30" height="30" viewBox="0 0 30 30">
    <defs>
        <path id="a" d="M153 4180h376v220H153z"/>
        <mask id="b" width="376" height="220" x="0" y="0" fill="#fff">
            <use xlink:href="#a"/>
        </mask>
    </defs>
    <g fill="none" fill-rule="evenodd" transform="translate(-404 -4284)">
        <path fill-rule="nonzero" stroke="#000" stroke-width="2" d="M83 4072h495v361H83z"/>
        <path fill="#DDD" fill-rule="nonzero" d="M399 4271h50v60h-50c-5.523 0-10-4.477-10-10v-40c0-5.523 4.477-10 10-10z"/>
        <rect width="130" height="66" x="386" y="4268" fill-rule="nonzero" stroke="#979797" stroke-width="6" rx="10"/>
        <path fill="#EEE" fill-rule="nonzero" d="M399 4269h50v60h-50c-5.523 0-10-4.477-10-10v-40c0-5.523 4.477-10 10-10z"/>
        <use fill-rule="nonzero" stroke="#373B44" stroke-dasharray="6,6" stroke-width="2" mask="url(#b)" xlink:href="#a"/>
        <path fill="#000" d="M419.346 4290.626a1.045 1.045 0 0 1-1.036-1.055v-3.836c0-.582.464-1.053 1.036-1.053.571 0 1.035.471 1.035 1.053v3.836c0 .583-.464 1.055-1.035 1.055zm6.61 2.787a1.02 1.02 0 0 1-.732-.309 1.066 1.066 0 0 1 0-1.49l1.977-2.014a1.023 1.023 0 0 1 1.464 0c.405.411.405 1.08 0 1.49l-1.978 2.014a1.02 1.02 0 0 1-.732.309zm-15.958 6.728h-2.235a1.045 1.045 0 0 1-1.036-1.054c0-.582.464-1.054 1.036-1.054h2.235c.571 0 1.036.472 1.036 1.054 0 .582-.465 1.054-1.036 1.054zm2.738-6.728a1.02 1.02 0 0 1-.732-.309l-1.978-2.013a1.066 1.066 0 0 1 0-1.49 1.023 1.023 0 0 1 1.464 0l1.977 2.013c.405.41.405 1.079 0 1.49a1.02 1.02 0 0 1-.731.309zm18.183 6.728h-2.226a1.044 1.044 0 0 1-1.035-1.054c0-.582.463-1.054 1.035-1.054h2.226c.571 0 1.036.472 1.036 1.054 0 .582-.465 1.054-1.036 1.054zm-3.333 8.388a1.02 1.02 0 0 1-.731-.308l-1.632-1.661a1.067 1.067 0 0 1 0-1.49 1.021 1.021 0 0 1 1.464 0l1.63 1.66c.405.411.405 1.08 0 1.49a1.02 1.02 0 0 1-.73.31zm-16.386-.097a1.02 1.02 0 0 1-.731-.309 1.066 1.066 0 0 1 0-1.49l1.535-1.563a1.02 1.02 0 0 1 1.464 0c.404.411.404 1.08 0 1.49l-1.536 1.563a1.02 1.02 0 0 1-.732.309zm8.145-14.871c.225 0 .451.013.682.04 2.573.299 4.677 2.373 5.045 4.981.291 2.083-.506 3.975-1.859 5.25-1.433 1.35-1.209 3.368-1.209 3.368h.002c0 1.496-1.19 2.71-2.66 2.71-1.47 0-2.661-1.214-2.661-2.71 0 0 .224-2.018-1.209-3.369-1.353-1.274-2.15-3.166-1.858-5.249.367-2.608 2.471-4.682 5.044-4.981.23-.027.458-.04.683-.04z"/>
    </g>
</svg>
