<svg xmlns="http://www.w3.org/2000/svg" width="24" height="24" viewBox="0 0 24 24">
    <path fill="#323843" fill-rule="evenodd" d="M18.053 21.371v-.77H5.946v.77h12.107zM7.98 12.001v6.64h8.04v-6.64A4.025 4.025 0 0 0 12 7.978 4.025 4.025 0 0 0 7.98 12zm11.526 6.64c.28 0 .508.226.508.507v3.675c0 .28-.228.508-.508.508H4.493a.508.508 0 0 1-.507-.508v-3.675c0-.28.227-.507.507-.507H6.02v-6.64a5.988 5.988 0 0 1 6.767-5.93c3.015.386 5.193 3.098 5.193 6.137v6.433h1.526zM5.283 6.67L3.235 4.621a.587.587 0 0 1 0-.828l.558-.558a.587.587 0 0 1 .828 0L6.67 5.283a.586.586 0 0 1 0 .83l-.557.556a.586.586 0 0 1-.829 0zm6.323-2.601a.586.586 0 0 1-.586-.586V.587c0-.325.262-.586.586-.586h.788c.324 0 .586.26.586.586v2.895a.586.586 0 0 1-.586.586h-.788zm6.28 2.601l-.556-.557a.586.586 0 0 1 0-.829l2.048-2.048a.587.587 0 0 1 .828 0l.558.558c.228.23.228.6 0 .828L18.716 6.67a.586.586 0 0 1-.83 0zm5.528 4.35c.324 0 .586.264.586.587v.788a.586.586 0 0 1-.586.586h-2.896a.585.585 0 0 1-.585-.586v-.788c0-.323.262-.586.585-.586h2.896zm-19.347.587v.788a.586.586 0 0 1-.586.586H.586A.586.586 0 0 1 0 12.394v-.788c0-.323.262-.586.586-.586h2.895c.324 0 .586.263.586.586z"/>
</svg>
