<svg xmlns="http://www.w3.org/2000/svg" width="24" height="24" viewBox="0 0 24 24">
    <path fill="#323843" fill-rule="evenodd" d="M16.349 19.74h1.6v2.05h-1.186a.415.415 0 0 1-.414-.414V19.74zm4.493-7.128a3.81 3.81 0 0 1 2.686 1.924l-1.402.772a2.22 2.22 0 0 0-1.562-1.121l.278-1.575zM24 16.379v2.263h-1.6v-2.265c0-.11-.007-.217-.023-.322l1.584-.227c.026.18.04.366.039.55zm-6.052 2.28h-1.6v-2.28c0-.18.013-.358.038-.532l1.583.224a2.414 2.414 0 0 0-.02.308v2.28zm1.536-6.043l.287 1.574a2.215 2.215 0 0 0-1.555 1.13l-1.406-.764a3.808 3.808 0 0 1 2.674-1.94zm4.102 9.174H22.4v-2.05H24v1.636a.414.414 0 0 1-.414.414zm-4.638 0v-1.6H21.4v1.6h-2.452zm-5.768-8.682a.6.6 0 0 1 .599.598v3.331a.599.599 0 0 1-.6.598H3.392a.598.598 0 0 1-.598-.598v-3.33c0-.33.268-.599.598-.599h.707V9.2a4.193 4.193 0 0 1 4.187-4.188A4.193 4.193 0 0 1 12.474 9.2v3.91h.706z"/>
</svg>
