<svg xmlns="http://www.w3.org/2000/svg" width="24" height="24" viewBox="0 0 24 24">
    <path fill="#323843" fill-rule="evenodd" d="M7.65 19.74v1.636c0 .228-.184.414-.413.414H6.05v-2.05h1.6zm-4.492-7.128l.278 1.575c-.665.118-1.234.527-1.562 1.12l-1.401-.771c.562-1.021 1.54-1.723 2.685-1.925zM0 16.378c-.001-.186.013-.37.039-.55l1.584.226c-.016.105-.023.212-.023.321v2.266H0V16.38zm6.051 2.28v-2.28c0-.105-.007-.207-.02-.309l1.582-.224c.025.174.038.352.038.533v2.28h-1.6zm-1.536-6.044c1.144.21 2.118.916 2.674 1.94l-1.406.764c-.324-.597-.89-1.009-1.555-1.13l.287-1.574zm-4.1 9.175c-.23 0-.415-.186-.415-.414V19.74h1.6v2.05H.414zm2.185 0v-1.6h2.452v1.6H2.6zm16.592-3.663c.836 0 1.517-.68 1.517-1.517 0-1.048-.763-2.21-1.517-3.082-.754.872-1.517 2.034-1.517 3.082 0 .836.68 1.517 1.517 1.517zm.71-6.697c1.018.988 2.767 3.002 2.767 5.18 0 1.92-1.557 3.477-3.477 3.477-1.561 0-2.866-1.035-3.306-2.45H10.82c-.33 0-.598-.27-.598-.6v-3.33c0-.33.268-.599.598-.599h.707V9.2c0-2.309 1.879-4.188 4.188-4.188 2.309 0 4.188 1.88 4.188 4.188v2.231z"/>
</svg>
