<svg xmlns="http://www.w3.org/2000/svg" width="24" height="24" viewBox="0 0 24 24">
    <path fill="#323843" fill-rule="evenodd" d="M7.651 19.74v1.636a.415.415 0 0 1-.414.414H6.051v-2.05h1.6zm-4.493-7.128l.278 1.575a2.22 2.22 0 0 0-1.562 1.12l-1.402-.771a3.81 3.81 0 0 1 2.686-1.924zM0 16.379c-.001-.185.013-.37.039-.551l1.584.227a2.132 2.132 0 0 0-.023.322v2.265H0v-2.263zm6.052 2.28v-2.28c0-.104-.008-.207-.021-.308l1.583-.224c.025.174.038.352.038.532v2.28h-1.6zm-1.536-6.043a3.808 3.808 0 0 1 2.674 1.94l-1.406.764a2.215 2.215 0 0 0-1.555-1.13l.287-1.574zM.414 21.79A.414.414 0 0 1 0 21.376V19.74h1.6v2.05H.414zm2.186 0v-1.6h2.452v1.6H2.6zm18.01-8.682a.6.6 0 0 1 .598.598v3.331a.599.599 0 0 1-.599.598H10.82a.598.598 0 0 1-.598-.598v-3.33c0-.33.268-.599.598-.599h.707V9.2a4.193 4.193 0 0 1 4.187-4.188 4.193 4.193 0 0 1 4.19 4.188v3.91h.705z"/>
</svg>
