<svg xmlns="http://www.w3.org/2000/svg" width="44" height="44" viewBox="0 0 44 44">
    <path fill="#000" fill-rule="evenodd" d="M22.117 13.872c-4.402 0-7.983 3.581-7.983 7.983 0 4.401 3.581 7.982 7.983 7.982 4.402 0 7.983-3.58 7.983-7.982s-3.58-7.983-7.983-7.983zm0 17.73c-5.374 0-9.748-4.373-9.748-9.747 0-5.375 4.374-9.748 9.748-9.748 5.375 0 9.748 4.373 9.748 9.748 0 5.374-4.373 9.748-9.748 9.748zm0-20.586a.882.882 0 0 1-.882-.883V3.12a.882.882 0 1 1 1.765 0v7.013a.882.882 0 0 1-.883.883zm8.288 3.433a.882.882 0 0 1-.623-1.506l4.96-4.96a.882.882 0 0 1 1.246 1.248l-4.958 4.96a.885.885 0 0 1-.625.258zm-20.009 8.288H3.383a.882.882 0 1 1 0-1.765h7.013a.882.882 0 0 1 0 1.765zm3.433-8.288a.882.882 0 0 1-.623-.258l-4.96-4.96a.882.882 0 1 1 1.248-1.248l4.96 4.96a.883.883 0 0 1-.625 1.506zm27.023 8.288h-7.014a.882.882 0 0 1 0-1.765h7.014a.883.883 0 1 1 0 1.765zm-5.487 13.248a.882.882 0 0 1-.625-.259l-4.958-4.96a.882.882 0 1 1 1.247-1.247l4.96 4.96a.881.881 0 0 1-.624 1.506zm-13.248 5.487a.882.882 0 0 1-.882-.882v-7.014a.882.882 0 0 1 1.765 0v7.014a.882.882 0 0 1-.883.882zM8.87 35.985a.881.881 0 0 1-.624-1.506l4.96-4.96a.882.882 0 1 1 1.247 1.247l-4.96 4.96a.88.88 0 0 1-.623.259z"/>
</svg>
