<svg xmlns="http://www.w3.org/2000/svg" width="44" height="44" viewBox="0 0 44 44">
    <g fill="#000" fill-rule="evenodd">
        <path d="M8.48 20.188v7.642c.06.255.091.522.091.795C8.571 30.49 7.1 32 5.285 32 3.471 32 2 30.49 2 28.625c0-1.864 1.47-3.375 3.285-3.375.599 0 1.16.164 1.644.452V14H25v14.95a.82.82 0 0 1-.056.3c-.285 1.565-1.622 2.75-3.23 2.75-1.814 0-3.285-1.51-3.285-3.375 0-1.864 1.47-3.375 3.286-3.375.636 0 1.23.186 1.734.508v-5.57H8.479zM33.037 21.723h1.421c.677 0 1.179-.17 1.505-.508.326-.338.49-.787.49-1.347 0-.542-.162-.963-.486-1.265-.323-.302-.767-.452-1.333-.452-.511 0-.939.14-1.283.42-.345.28-.517.644-.517 1.093h-2.668c0-.701.19-1.33.568-1.887.378-.557.907-.992 1.587-1.306.68-.314 1.43-.471 2.248-.471 1.422 0 2.535.34 3.341 1.02.807.68 1.21 1.617 1.21 2.81 0 .616-.188 1.182-.563 1.699a3.658 3.658 0 0 1-1.477 1.19c.757.272 1.321.678 1.694 1.22.372.54.558 1.18.558 1.92 0 1.193-.435 2.15-1.306 2.87-.87.72-2.023 1.08-3.457 1.08-1.341 0-2.438-.354-3.29-1.062C30.425 28.04 30 27.104 30 25.941h2.668c0 .505.189.917.567 1.237.379.32.845.48 1.399.48.634 0 1.13-.168 1.49-.503.36-.335.54-.78.54-1.334 0-1.341-.738-2.012-2.215-2.012h-1.412v-2.086z"/>
    </g>
</svg>
