<svg xmlns="http://www.w3.org/2000/svg" width="24" height="24" viewBox="0 0 24 24">
    <path fill="#323843" fill-rule="evenodd" d="M10.757 11.433l-1.03 1.188h3.139v1.425H7.3V12.84l2.563-2.695c.632-.72.949-1.291.949-1.715 0-.343-.076-.604-.225-.783-.15-.18-.367-.27-.652-.27a.81.81 0 0 0-.685.36c-.176.24-.263.538-.263.896H7.137a2.62 2.62 0 0 1 1.386-2.328c.434-.234.92-.351 1.457-.351.86 0 1.525.2 1.99.597.467.399.699.97.699 1.715 0 .314-.058.62-.175.917-.117.298-.3.61-.545.937-.247.327-.644.764-1.192 1.312zM22.48 13.34v-.59l-6.29.966v.588l6.29-.964zm-7.354-.983l3.049-.468A8.22 8.22 0 0 0 18.402 10c0-4.632-3.77-8.401-8.401-8.401S1.6 5.369 1.6 10c0 4.633 3.769 8.402 8.4 8.402 1.73 0 3.335-.53 4.672-1.428v-4.091c0-.264.19-.485.453-.526zm-.77 6.622c.105.03.216.044.317.09v-.264c-.106.057-.21.12-.317.174zm-.73 3.478a1.05 1.05 0 0 0 1.048-1.05 1.05 1.05 0 1 0-1.048 1.049zm7.805-1.352a1.05 1.05 0 0 0 1.049-1.05 1.05 1.05 0 0 0-2.098 0 1.05 1.05 0 0 0 1.049 1.05zm2.38-9.892a.53.53 0 0 1 .185.4v8.443a2.567 2.567 0 0 1-2.565 2.564 2.554 2.554 0 0 1-1.99-.946 2.586 2.586 0 0 1-.518-2.164 2.553 2.553 0 0 1 2.086-1.984 2.581 2.581 0 0 1 1.47.19V14.86l-6.29.965V21.3c0 1.437-1.12 2.636-2.497 2.67a2.557 2.557 0 0 1-2.014-.895 2.572 2.572 0 0 1-.574-2.142c.07-.393.236-.756.472-1.067A9.844 9.844 0 0 1 10 20C4.488 20 0 15.516 0 10 0 4.487 4.488 0 10 0c5.515 0 10 4.487 10 10 0 .56-.065 1.1-.157 1.633l3.538-.542a.53.53 0 0 1 .429.122z"/>
</svg>
