<svg xmlns="http://www.w3.org/2000/svg" width="44" height="44" viewBox="0 0 44 44">
    <path fill="#000" fill-rule="evenodd" d="M40.86 13.143a.809.809 0 0 1 .222 1.14c-4.423 6.328-11.518 10.105-18.977 10.105-7.46 0-14.554-3.777-18.976-10.105a.809.809 0 0 1 .221-1.14.856.856 0 0 1 1.17.216c4.108 5.878 10.682 9.388 17.585 9.388 6.903 0 13.477-3.51 17.586-9.388a.855.855 0 0 1 1.17-.216zm.884 6.553c.304.25.343.694.086.99a.727.727 0 0 1-1.015.084l-1.868-1.538a.69.69 0 0 1-.086-.99.729.729 0 0 1 1.016-.084l1.867 1.538zm-6.305 2.211l1.854 2.838a.694.694 0 0 1-.22.971.736.736 0 0 1-.996-.215l-1.854-2.837a.694.694 0 0 1 .22-.972.734.734 0 0 1 .996.215zm-6.246 3.027l1.141 3.982a.7.7 0 0 1-.5.866.72.72 0 0 1-.888-.488l-1.141-3.982a.7.7 0 0 1 .5-.866.722.722 0 0 1 .888.488zm-7.103.317c.399 0 .721.314.721.702v4.343a.712.712 0 0 1-.721.704.712.712 0 0 1-.721-.704v-4.343c0-.388.322-.702.721-.702zm-6.204-.802c.382.11.6.5.486.873l-1.207 3.982a.72.72 0 0 1-.896.474.699.699 0 0 1-.486-.873l1.208-3.982a.722.722 0 0 1 .895-.474zm-6.154-2.747a.695.695 0 0 1 .22.971l-1.848 2.828a.724.724 0 0 1-.609.325.74.74 0 0 1-.387-.11.694.694 0 0 1-.22-.971l1.847-2.828a.732.732 0 0 1 .997-.215zm-5.429-3.544a.732.732 0 0 1 1.016.083.69.69 0 0 1-.086.99l-2.047 1.687a.73.73 0 0 1-1.016-.083.69.69 0 0 1 .085-.99l2.048-1.687z"/>
</svg>
