<svg xmlns="http://www.w3.org/2000/svg" width="24" height="24" viewBox="0 0 24 24">
    <path fill="#323843" fill-rule="evenodd" d="M21.25 11.248l1.313 1.367c.146.15.392.15.537.002.289-.297.56-.588.81-.87a.36.36 0 0 0-.013-.49l-1.369-1.424a22.802 22.802 0 0 0 1.258-1.648.356.356 0 0 0-.114-.508l-.994-.62a.368.368 0 0 0-.497.097C21.25 8.483 17.084 14 12 14 6.915 14 2.749 8.483 1.82 7.154a.368.368 0 0 0-.497-.097l-.996.62a.356.356 0 0 0-.112.508c.236.343.664.938 1.257 1.648L.104 11.257a.357.357 0 0 0-.014.49c.25.282.521.573.81.87a.378.378 0 0 0 .537-.002l1.313-1.367c.181.184.376.372.574.558L2.24 13.468a.364.364 0 0 0 .063.475c.296.256.605.508.926.755.171.133.426.09.544-.091l1.006-1.546c.246.191.496.378.756.558l-.738 1.818a.367.367 0 0 0 .146.45c.338.21.686.412 1.043.6a.38.38 0 0 0 .523-.192l.676-1.666c.3.155.609.292.921.424l-.37 1.874c-.035.18.067.36.24.42.381.127.772.237 1.169.33a.371.371 0 0 0 .448-.288l.346-1.75c.362.082.73.144 1.105.183v1.807c0 .2.16.362.361.365.35.008.84.008 1.19 0a.365.365 0 0 0 .36-.365v-1.806c.376-.04.745-.102 1.107-.184l.345 1.75c.04.204.245.337.449.29.397-.095.786-.205 1.167-.332a.368.368 0 0 0 .24-.42l-.369-1.874c.313-.132.622-.27.92-.424l.678 1.666a.379.379 0 0 0 .522.191c.358-.187.705-.388 1.044-.598a.367.367 0 0 0 .145-.45l-.737-1.819c.26-.18.51-.367.754-.558l1.008 1.546a.377.377 0 0 0 .544.091c.32-.247.63-.499.926-.755a.363.363 0 0 0 .063-.474l-1.084-1.662c.197-.187.392-.375.574-.56"/>
</svg>
