<svg xmlns="http://www.w3.org/2000/svg" width="24" height="24" viewBox="0 0 24 24">
    <path fill="#323843" fill-rule="evenodd" d="M17.648 7.157l.672.672v-1.57a.48.48 0 0 1 .48-.48h.86a.48.48 0 0 1 .48.48v4.294h-.001a.48.48 0 0 1-.48.48h-4.292a.478.478 0 0 1-.34-.141.477.477 0 0 1-.14-.34v-.86a.481.481 0 0 1 .48-.48h1.569l-.672-.671-.395-.395c-1.354-1.353-3.362-2.051-5.504-1.573-2.18.487-3.931 2.26-4.396 4.447a5.892 5.892 0 0 0 5.287 7.143.481.481 0 0 1 .457.474v1.005c0 .273-.228.5-.5.484a7.855 7.855 0 0 1-7.185-9.401c.6-3.063 3.077-5.527 6.142-6.115 2.76-.53 5.333.4 7.084 2.15l.394.397z"/>
</svg>
