<svg xmlns="http://www.w3.org/2000/svg" width="24" height="24" viewBox="0 0 24 24">
    <path fill="#323843" fill-rule="evenodd" d="M6.856 17.935l.671.672H5.958a.48.48 0 0 0-.48.48v.861a.48.48 0 0 0 .48.48h4.293v-.002a.48.48 0 0 0 .48-.479l.002-4.293a.478.478 0 0 0-.143-.339.477.477 0 0 0-.338-.14h-.86a.481.481 0 0 0-.48.48v1.568l-.673-.672-.395-.395c-1.353-1.354-2.05-3.362-1.573-5.504.487-2.18 2.262-3.93 4.448-4.396a5.892 5.892 0 0 1 7.143 5.287.481.481 0 0 0 .474.457h1.005c.272 0 .5-.228.483-.5a7.855 7.855 0 0 0-9.4-7.185c-3.063.6-5.527 3.077-6.115 6.142-.53 2.76.4 5.333 2.15 7.084l.397.394z"/>
</svg>
