<svg xmlns="http://www.w3.org/2000/svg" width="44" height="44" viewBox="0 0 44 44">
    <path fill="#000" fill-rule="evenodd" d="M33.119 13.169c-6.085-6.083-15.985-6.083-22.07 0a15.506 15.506 0 0 0-4.57 11.034c0 4.169 1.623 8.088 4.57 11.035l1.481-1.481a13.423 13.423 0 0 1-3.956-9.554c0-3.609 1.405-7.001 3.956-9.553 5.268-5.266 13.84-5.266 19.108 0a13.446 13.446 0 0 1 2.495 15.654l-.287-3.128-1.928 2.319.46 5.002 5.003-.46 1.927-2.319-3.738.345c3.564-6.077 2.628-13.815-2.451-18.894zM17.392 23.77a.616.616 0 0 1-.605-.743 5.376 5.376 0 0 1 .718-1.735.617.617 0 0 1 .956-.1l1.526 1.525a.616.616 0 0 1-.436 1.053h-2.159zm.113 3.343a5.372 5.372 0 0 1-.718-1.734.616.616 0 0 1 .605-.744h2.159c.55 0 .824.664.436 1.052l-1.526 1.527a.617.617 0 0 1-.956-.101zm1.669 1.67a.618.618 0 0 1-.102-.957L20.6 26.3a.617.617 0 0 1 1.053.437v2.159c0 .39-.361.689-.744.604a5.402 5.402 0 0 1-1.734-.717zm3.666-3.895a1.018 1.018 0 1 1-1.441-1.44 1.018 1.018 0 0 1 1.44 1.44zm-.323 4.007v-2.16c0-.549.664-.824 1.052-.436l1.527 1.527a.618.618 0 0 1-.101.956 5.408 5.408 0 0 1-1.734.717.616.616 0 0 1-.744-.604zm4.146-1.782a.617.617 0 0 1-.955.101l-1.527-1.527a.617.617 0 0 1 .437-1.052h2.159c.39 0 .689.362.604.744a5.403 5.403 0 0 1-.718 1.734zm0-5.821c.345.54.584 1.128.718 1.735a.616.616 0 0 1-.604.743h-2.16a.617.617 0 0 1-.436-1.053l1.527-1.526a.617.617 0 0 1 .955.1zm-1.668-1.669c.331.211.378.678.101.956l-1.527 1.526a.616.616 0 0 1-1.052-.436V19.51c0-.391.361-.69.744-.605a5.394 5.394 0 0 1 1.734.718zm-3.343-.113v2.159c0 .55-.665.825-1.053.436l-1.527-1.526a.617.617 0 0 1 .102-.956 5.403 5.403 0 0 1 1.734-.718.616.616 0 0 1 .744.605zm-8 3.136a.549.549 0 0 0-.55.55v2.014c0 .303.245.549.55.549h.607l-.562.233a.549.549 0 0 0-.297.717l.77 1.86a.55.55 0 0 0 .719.299l.561-.233-.43.43a.548.548 0 0 0 0 .777l1.424 1.424a.549.549 0 0 0 .778 0l.43-.43-.233.562a.549.549 0 0 0 .297.718l1.86.771a.55.55 0 0 0 .72-.298l.232-.561v.607c0 .304.246.55.549.55h2.014a.55.55 0 0 0 .55-.55v-.607l.233.562a.55.55 0 0 0 .718.297l1.86-.771a.55.55 0 0 0 .297-.718l-.232-.563.43.43a.548.548 0 0 0 .777 0l1.424-1.423a.55.55 0 0 0 0-.777l-.43-.43.562.232a.549.549 0 0 0 .718-.297l.77-1.86a.55.55 0 0 0-.297-.719l-.561-.232h.607a.55.55 0 0 0 .55-.55v-2.013a.55.55 0 0 0-.55-.55h-.608l.562-.233a.55.55 0 0 0 .298-.718l-.771-1.86a.55.55 0 0 0-.718-.298l-.562.233.43-.43a.55.55 0 0 0 0-.778l-1.424-1.423a.548.548 0 0 0-.777 0l-.43.43.232-.563a.55.55 0 0 0-.297-.718l-1.86-.77a.55.55 0 0 0-.719.297l-.232.563v-.609a.55.55 0 0 0-.55-.55h-2.014a.55.55 0 0 0-.55.55v.607l-.232-.561a.55.55 0 0 0-.718-.297l-1.86.77a.55.55 0 0 0-.298.718l.233.562-.43-.43a.549.549 0 0 0-.778 0l-1.424 1.424a.549.549 0 0 0 0 .778l.43.43-.561-.233a.55.55 0 0 0-.719.297l-.77 1.86a.55.55 0 0 0 .297.72l.563.232h-.609z"/>
</svg>
