<svg xmlns="http://www.w3.org/2000/svg" width="24" height="24" viewBox="0 0 24 24">
    <path fill="#323843" fill-rule="evenodd" d="M9.444 4.071H8.18a.47.47 0 0 0-.47.47v10.482l-1.334-2.829a1.777 1.777 0 0 0-2.362-.843l-.112.053a.312.312 0 0 0-.158.175.3.3 0 0 0 .012.235l2.97 6.228a6.336 6.336 0 0 0 5.675 3.591l1.777.003h.008c1.09 0 2.115-.424 2.888-1.194a4.064 4.064 0 0 0 1.2-2.893V5.327a.469.469 0 0 0-.47-.469H16.54a.47.47 0 0 0-.47.47v5.956h-.029a.295.295 0 0 1-.268.177.292.292 0 0 1-.29-.29l.005-7.159a.47.47 0 0 0-.47-.47h-1.264a.47.47 0 0 0-.47.47l.001 7.158a.291.291 0 0 1-.559.114h-.023l-.002-.114V2.834a.47.47 0 0 0-.469-.47h-1.265a.47.47 0 0 0-.47.47v8.336a.291.291 0 0 1-.582 0V4.541a.47.47 0 0 0-.47-.47"/>
</svg>
