<svg xmlns="http://www.w3.org/2000/svg" width="24" height="24" viewBox="0 0 24 24">
    <path fill="#323843" fill-rule="evenodd" d="M6.198 6.139c.15-.15.395-.15.545 0l5.59 5.589c.15.15.15.394 0 .545l-5.59 5.589a.386.386 0 0 1-.545 0l-.859-.86a.384.384 0 0 1 0-.545L9.796 12 5.34 7.544a.386.386 0 0 1 0-.546l.86-.86zm6.33 0c.15-.15.394-.15.544 0l5.59 5.589c.15.15.15.394 0 .545l-5.59 5.589a.386.386 0 0 1-.545 0l-.859-.86a.384.384 0 0 1 0-.545L16.124 12l-4.456-4.456a.386.386 0 0 1 0-.546l.86-.86z"/>
</svg>
