<svg xmlns="http://www.w3.org/2000/svg" width="44" height="44" viewBox="0 0 44 44">
    <path fill="#000" fill-rule="evenodd" d="M10.881 13.169c6.085-6.083 15.985-6.083 22.07 0a15.506 15.506 0 0 1 4.57 11.034c0 4.169-1.623 8.088-4.57 11.035l-1.481-1.481a13.423 13.423 0 0 0 3.956-9.554c0-3.609-1.405-7.001-3.956-9.553-5.268-5.266-13.84-5.266-19.108 0a13.446 13.446 0 0 0-2.495 15.654l.287-3.128 1.928 2.319-.46 5.002-5.003-.46-1.927-2.319 3.738.345C4.866 25.986 5.802 18.248 10.88 13.17zM26.608 23.77c.392 0 .69-.362.605-.743a5.376 5.376 0 0 0-.718-1.735.617.617 0 0 0-.956-.1l-1.526 1.525a.616.616 0 0 0 .436 1.053h2.159zm-.113 3.343c.345-.54.584-1.128.718-1.734a.616.616 0 0 0-.605-.744h-2.159a.616.616 0 0 0-.436 1.052l1.526 1.527c.278.277.745.23.956-.101zm-1.669 1.67a.618.618 0 0 0 .102-.957L23.4 26.3a.617.617 0 0 0-1.053.437v2.159c0 .39.361.689.744.604a5.402 5.402 0 0 0 1.734-.717zm-3.666-3.895a1.018 1.018 0 1 0 1.441-1.44 1.018 1.018 0 0 0-1.44 1.44zm.323 4.007v-2.16a.617.617 0 0 0-1.052-.436l-1.527 1.527a.618.618 0 0 0 .101.956c.54.344 1.128.583 1.734.717a.616.616 0 0 0 .744-.604zm-4.146-1.782c.21.332.677.378.955.101l1.527-1.527a.617.617 0 0 0-.437-1.052h-2.159a.617.617 0 0 0-.604.744c.134.606.373 1.194.718 1.734zm0-5.821a5.407 5.407 0 0 0-.718 1.735.616.616 0 0 0 .604.743h2.16c.549 0 .824-.665.436-1.053l-1.527-1.526a.617.617 0 0 0-.955.1zm1.668-1.669a.618.618 0 0 0-.101.956l1.527 1.526a.616.616 0 0 0 1.052-.436V19.51a.616.616 0 0 0-.744-.605 5.394 5.394 0 0 0-1.734.718zm3.343-.113v2.159c0 .55.665.825 1.053.436l1.527-1.526a.617.617 0 0 0-.102-.956 5.403 5.403 0 0 0-1.734-.718.616.616 0 0 0-.744.605zm8 3.136c.305 0 .55.246.55.55v2.014a.549.549 0 0 1-.55.549h-.607l.562.233c.28.116.413.437.297.717l-.77 1.86a.55.55 0 0 1-.719.299l-.561-.233.43.43a.548.548 0 0 1 0 .777l-1.424 1.424a.549.549 0 0 1-.778 0l-.43-.43.233.562a.549.549 0 0 1-.297.718l-1.86.771a.55.55 0 0 1-.72-.298l-.232-.561v.607a.55.55 0 0 1-.549.55H20.91a.55.55 0 0 1-.55-.55v-.607l-.233.562a.55.55 0 0 1-.718.297l-1.86-.771a.55.55 0 0 1-.297-.718l.232-.563-.43.43a.548.548 0 0 1-.777 0l-1.424-1.423a.55.55 0 0 1 0-.777l.43-.43-.562.232a.549.549 0 0 1-.718-.297l-.77-1.86a.55.55 0 0 1 .297-.719l.561-.232h-.607a.55.55 0 0 1-.55-.55v-2.013a.55.55 0 0 1 .55-.55h.608l-.562-.233a.55.55 0 0 1-.298-.718l.771-1.86a.55.55 0 0 1 .718-.298l.562.233-.43-.43a.55.55 0 0 1 0-.778l1.424-1.423a.548.548 0 0 1 .777 0l.43.43-.232-.563a.55.55 0 0 1 .297-.718l1.86-.77a.55.55 0 0 1 .719.297l.232.563v-.609a.55.55 0 0 1 .55-.55h2.014a.55.55 0 0 1 .55.55v.607l.232-.561a.55.55 0 0 1 .718-.297l1.86.77a.55.55 0 0 1 .298.718l-.233.562.43-.43a.549.549 0 0 1 .778 0l1.424 1.424a.549.549 0 0 1 0 .778l-.43.43.561-.233a.55.55 0 0 1 .719.297l.77 1.86a.55.55 0 0 1-.297.72l-.563.232h.609z"/>
</svg>
