<svg xmlns="http://www.w3.org/2000/svg" width="24" height="24" viewBox="0 0 24 24">
    <path fill="#323843" fill-rule="evenodd" d="M3.033 6.139a.387.387 0 0 1 .546 0l5.59 5.589c.15.15.15.394 0 .545l-5.59 5.589a.387.387 0 0 1-.546 0l-.859-.86a.384.384 0 0 1 0-.545L6.631 12 2.174 7.544a.386.386 0 0 1 0-.546l.86-.86zm6.33 0a.387.387 0 0 1 .545 0l5.59 5.589c.15.15.15.394 0 .545l-5.59 5.589a.387.387 0 0 1-.546 0l-.859-.86a.384.384 0 0 1 0-.545L12.96 12 8.503 7.544a.386.386 0 0 1 0-.546l.86-.86zm6.328 0c.15-.15.395-.15.546 0l5.59 5.589c.15.15.15.394 0 .545l-5.59 5.589a.387.387 0 0 1-.546 0l-.859-.86a.384.384 0 0 1 0-.545L19.29 12l-4.457-4.456a.386.386 0 0 1 0-.546l.86-.86z"/>
</svg>
