<svg xmlns="http://www.w3.org/2000/svg" width="24" height="24" viewBox="0 0 24 24">
    <path fill="#323843" fill-rule="evenodd" d="M9.742 8.228l3.494-1.208h.17v7.96h-1.849V9.097l-1.815.53V8.228zm7.04-6.333c3.938 0 7.15 3.17 7.218 7.093v5.154c.068 4.038-3.308 7.343-7.347 7.343h-.627a.452.452 0 0 1-.452-.45v-1.038c0-.248.203-.451.452-.451h.65c2.953 0 5.433-2.418 5.383-5.37l.001-5.153a5.285 5.285 0 0 0-5.278-5.188H7.324c-2.954 0-5.434 2.417-5.383 5.37l-.002 5.152a5.285 5.285 0 0 0 5.28 5.189H9.71l-1.099-1.1a.475.475 0 0 1 0-.673l.603-.602a.475.475 0 0 1 .672 0l3.008 3.009a.471.471 0 0 1 0 .672L9.886 23.86a.474.474 0 0 1-.672 0l-.603-.602a.477.477 0 0 1 0-.674l1.1-1.099H7.217c-3.939 0-7.15-3.17-7.218-7.092l.001-5.154C-.069 5.2 3.307 1.894 7.346 1.894h9.436z"/>
</svg>
