<svg xmlns="http://www.w3.org/2000/svg" width="24" height="24" viewBox="0 0 24 24">
    <path fill="#323843" fill-rule="evenodd" d="M4.234 8.752a2.059 2.059 0 0 0-2.057 2.056v2.384a2.06 2.06 0 0 0 2.057 2.057h15.532a2.059 2.059 0 0 0 2.056-2.057v-2.384a2.058 2.058 0 0 0-2.056-2.056H4.234zm15.532 8.457H4.234a4.022 4.022 0 0 1-4.017-4.017v-2.384a4.021 4.021 0 0 1 4.017-4.016h15.532a4.021 4.021 0 0 1 4.016 4.016v2.384a4.021 4.021 0 0 1-4.016 4.017zm-8.65-3.286h-6.57a.884.884 0 0 1-.886-.884V10.96c0-.488.396-.884.885-.884h6.571c.488 0 .884.396.884.884v2.078a.884.884 0 0 1-.884.884z"/>
</svg>
