<svg xmlns="http://www.w3.org/2000/svg" width="24" height="24" viewBox="0 0 24 24">
    <path fill="#323843" fill-rule="evenodd" d="M4.234 8.752a2.058 2.058 0 0 0-2.056 2.056v2.384c0 1.134.922 2.057 2.056 2.057h15.532a2.059 2.059 0 0 0 2.056-2.057v-2.384a2.058 2.058 0 0 0-2.056-2.056H4.234zm-4.016 4.44v-2.384a4.021 4.021 0 0 1 4.016-4.016h15.532a4.02 4.02 0 0 1 4.016 4.016v2.384a4.02 4.02 0 0 1-4.016 4.017H4.234a4.021 4.021 0 0 1-4.016-4.017zm12.666.73A.884.884 0 0 1 12 13.04V10.96c0-.488.396-.884.884-.884h6.57c.49 0 .886.396.886.884v2.078a.884.884 0 0 1-.885.884h-6.571z"/>
</svg>
