<svg xmlns="http://www.w3.org/2000/svg" width="24" height="24" viewBox="0 0 24 24">
    <path fill="#323843" fill-rule="evenodd" d="M12 8.018c2.173 0 3.934 1.783 3.934 3.982 0 2.2-1.761 3.982-3.934 3.982S8.065 14.2 8.065 12 9.827 8.018 12 8.018zm0 1.886c-1.142 0-2.071.941-2.071 2.096 0 1.156.929 2.096 2.07 2.096 1.142 0 2.07-.94 2.07-2.096 0-1.155-.928-2.096-2.07-2.096zm-9.772 2.095c1.146 1.622 5.053 6.615 9.772 6.615 4.718 0 8.625-4.991 9.77-6.614-1.145-1.623-5.052-6.614-9.77-6.614-4.73 0-8.63 4.99-9.772 6.613zM12 20.5C5.36 20.5.514 12.83.312 12.503L0 12l.312-.503C.514 11.171 5.362 3.5 12 3.5c6.639 0 11.485 7.67 11.687 7.997L24 12l-.313.503C23.485 12.829 18.64 20.5 12 20.5z"/>
</svg>
