<svg xmlns="http://www.w3.org/2000/svg" width="44" height="44" viewBox="0 0 44 44">
    <path fill="#000" fill-rule="evenodd" d="M2.15 22.5C6.895 29.124 14.268 33.059 22 33.059c7.732 0 15.104-3.935 19.851-10.559-4.747-6.624-12.12-10.559-19.85-10.559-7.732 0-15.105 3.935-19.852 10.559zM22 35C13.42 35 5.257 30.531.169 23.046a.974.974 0 0 1 0-1.092C5.256 14.469 13.418 10 22 10c8.582 0 16.744 4.469 21.83 11.954a.97.97 0 0 1 0 1.092C38.746 30.531 30.584 35 22.002 35zm8.895-12.5c0 4.926-3.982 8.92-8.894 8.92-4.913 0-8.897-3.994-8.897-8.92s3.984-8.92 8.897-8.92c4.912 0 8.894 3.994 8.894 8.92z"/>
</svg>
