<svg xmlns="http://www.w3.org/2000/svg" width="54" height="54" viewBox="0 0 54 54">
    <g fill="none" fill-rule="evenodd">
        <path fill="#FFF" d="M0 0H1151V696H0z" transform="translate(-456 -135)"/>
        <path fill="#448A24" d="M443 155.2V128c0-1.657 1.343-3 3-3h74c1.657 0 3 1.343 3 3v26.252c3.45.888 6 4.02 6 7.748v3c0 3.728-2.55 6.86-6 7.748V202c0 1.657-1.343 3-3 3h-74c-1.657 0-3-1.343-3-3v-27.2c3.562-1.82 6-5.525 6-9.8s-2.438-7.98-6-9.8z" transform="translate(-456 -135)"/>
        <path fill="#59B52E" stroke="#59B52E" stroke-width="4" d="M445 151.043c3.687 2.357 6 6.452 6 10.957 0 4.505-2.313 8.6-6 10.957V199c0 .552.448 1 1 1h74c.552 0 1-.448 1-1v-30.802l1.501-.387c2.628-.676 4.499-3.058 4.499-5.811s-1.871-5.135-4.499-5.811l-1.501-.387V125c0-.552-.448-1-1-1h-74c-.552 0-1 .448-1 1v26.043z" transform="translate(-456 -135)"/>
        <path fill="#323843" d="M503.892 157.347h-29.597c-1.093 0-1.98-.887-1.98-1.98v-3.353l-9.983 9.984 9.983 9.987v-3.352c0-1.096.887-1.98 1.98-1.98h29.597v-9.306zm-30.663-10.589c.391 0 .787.077 1.167.234 1.141.473 1.88 1.578 1.88 2.813v3.582h29.596c1.093 0 1.98.886 1.98 1.98v13.266c0 1.093-.887 1.98-1.98 1.98h-29.597v3.58c0 1.237-.738 2.34-1.879 2.812-1.145.477-2.443.216-3.316-.66l-11.93-11.926c-1.334-1.335-1.334-3.504 0-4.838l11.93-11.93c.583-.582 1.357-.893 2.149-.893z" transform="translate(-456 -135)"/>
    </g>
</svg>
