<svg xmlns="http://www.w3.org/2000/svg" width="54" height="54" viewBox="0 0 54 54">
    <g fill="none" fill-rule="evenodd">
        <path fill="#FFF" d="M0 0H1151V318H0z" transform="translate(-360 -135)"/>
        <path fill="#448A24" d="M347 155.2V128c0-1.657 1.343-3 3-3h74c1.657 0 3 1.343 3 3v26.252c3.45.888 6 4.02 6 7.748v3c0 3.728-2.55 6.86-6 7.748V202c0 1.657-1.343 3-3 3h-74c-1.657 0-3-1.343-3-3v-27.2c3.562-1.82 6-5.525 6-9.8s-2.438-7.98-6-9.8z" transform="translate(-360 -135)"/>
        <path fill="#59B52E" stroke="#59B52E" stroke-width="4" d="M349 151.043c3.687 2.357 6 6.452 6 10.957 0 4.505-2.313 8.6-6 10.957V199c0 .552.448 1 1 1h74c.552 0 1-.448 1-1v-30.802l1.501-.387c2.628-.676 4.499-3.058 4.499-5.811s-1.871-5.135-4.499-5.811l-1.501-.387V125c0-.552-.448-1-1-1h-74c-.552 0-1 .448-1 1v26.043z" transform="translate(-360 -135)"/>
        <path fill="#323843" d="M395.002 166.487h3.994c.99 0 1.791.801 1.791 1.791v3.276l.072.03 9.554-9.552-9.554-9.614-.072 3.308c0 .987-.8 1.79-1.79 1.79h-4.076l.081 8.971zm5.83 8.69c-.468 0-.938-.092-1.39-.28-1.357-.562-2.237-1.873-2.237-3.343v-1.485h-3.976c-.983 0-1.78-.794-1.79-1.775l-.115-12.553c-.005-.477.182-.936.52-1.275.335-.34.794-.531 1.27-.531h4.091v-1.485c0-1.472.88-2.786 2.239-3.348 1.361-.565 2.91-.252 3.946.785l9.554 9.553c1.408 1.413 1.408 3.71.002 5.121l-9.556 9.554c-.695.693-1.617 1.062-2.558 1.062zm-37.25-4.393h16.803v-17.365h-16.803v17.365zm12.505 3.596c0-.007-.006-.01-.006-.016h-9.75c0 .007-.004.009-.004.016 0 .411.33.742.742.742h8.278c.41 0 .74-.33.74-.742zm-9.76-24.762c0 .086.063.142.09.219h9.58c.027-.077.09-.133.09-.219 0-.407-.33-.74-.74-.74h-8.278c-.411 0-.742.333-.742.74zm18.619 11.502h-.981v1.96h.98c.988 0 1.792.801 1.792 1.791v3.148c0 .988-.804 1.79-1.791 1.79h-.981v2.764c0 .99-.801 1.79-1.791 1.79h-2.507l.002.017c0 2.385-1.939 4.324-4.322 4.324h-8.278c-2.385 0-4.324-1.94-4.324-4.324l.002-.016h-.956c-.99 0-1.791-.801-1.791-1.791v-20.945c0-.99.801-1.791 1.791-1.791h.981c-.005-.075-.027-.144-.027-.219 0-2.38 1.94-4.322 4.324-4.322h8.278c2.383 0 4.322 1.942 4.322 4.322 0 .075-.024.144-.029.219h2.534c.99 0 1.79.8 1.79 1.79v2.761h.982c.987 0 1.79.804 1.79 1.791v3.15c0 .988-.803 1.791-1.79 1.791z" transform="translate(-360 -135)"/>
    </g>
</svg>
