<svg xmlns="http://www.w3.org/2000/svg" width="54" height="54" viewBox="0 0 54 54">
    <g fill="none" fill-rule="evenodd">
        <path fill="#323843" d="M395.002 166.487h3.994c.99 0 1.791.801 1.791 1.791v3.276l.072.03 9.554-9.552-9.554-9.614-.072 3.308c0 .987-.8 1.79-1.79 1.79h-4.076l.081 8.971zm5.83 8.69c-.468 0-.938-.092-1.39-.28-1.357-.562-2.237-1.873-2.237-3.343v-1.485h-3.976c-.983 0-1.78-.794-1.79-1.775l-.115-12.553c-.005-.477.182-.936.52-1.275.335-.34.794-.531 1.27-.531h4.091v-1.485c0-1.472.88-2.786 2.239-3.348 1.361-.565 2.91-.252 3.946.785l9.554 9.553c1.408 1.413 1.408 3.71.002 5.121l-9.556 9.554c-.695.693-1.617 1.062-2.558 1.062zm-37.25-4.393h16.803v-17.365h-16.803v17.365zm12.505 3.596c0-.007-.006-.01-.006-.016h-9.75c0 .007-.004.009-.004.016 0 .411.33.742.742.742h8.278c.41 0 .74-.33.74-.742zm-9.76-24.762c0 .086.063.142.09.219h9.58c.027-.077.09-.133.09-.219 0-.407-.33-.74-.74-.74h-8.278c-.411 0-.742.333-.742.74zm18.619 11.502h-.981v1.96h.98c.988 0 1.792.801 1.792 1.791v3.148c0 .988-.804 1.79-1.791 1.79h-.981v2.764c0 .99-.801 1.79-1.791 1.79h-2.507l.002.017c0 2.385-1.939 4.324-4.322 4.324h-8.278c-2.385 0-4.324-1.94-4.324-4.324l.002-.016h-.956c-.99 0-1.791-.801-1.791-1.791v-20.945c0-.99.801-1.791 1.791-1.791h.981c-.005-.075-.027-.144-.027-.219 0-2.38 1.94-4.322 4.324-4.322h8.278c2.383 0 4.322 1.942 4.322 4.322 0 .075-.024.144-.029.219h2.534c.99 0 1.79.8 1.79 1.79v2.761h.982c.987 0 1.79.804 1.79 1.791v3.15c0 .988-.803 1.791-1.79 1.791z" transform="translate(-360 -135)"/>
    </g>
</svg>
