<svg xmlns="http://www.w3.org/2000/svg" width="54" height="54" viewBox="0 0 54 54">
    <g fill="none" fill-rule="evenodd">
        <path fill="#FFF" d="M0 0H1151V696H0z" transform="translate(-552 -135)"/>
        <path fill="#448A24" d="M539 155.2V128c0-1.657 1.343-3 3-3h74c1.657 0 3 1.343 3 3v26.252c3.45.888 6 4.02 6 7.748v3c0 3.728-2.55 6.86-6 7.748V202c0 1.657-1.343 3-3 3h-74c-1.657 0-3-1.343-3-3v-27.2c3.562-1.82 6-5.525 6-9.8s-2.438-7.98-6-9.8z" transform="translate(-552 -135)"/>
        <path fill="#59B52E" stroke="#59B52E" stroke-width="4" d="M541 151.043c3.687 2.357 6 6.452 6 10.957 0 4.505-2.313 8.6-6 10.957V199c0 .552.448 1 1 1h74c.552 0 1-.448 1-1v-30.802l1.501-.387c2.628-.676 4.499-3.058 4.499-5.811s-1.871-5.135-4.499-5.811l-1.501-.387V125c0-.552-.448-1-1-1h-74c-.552 0-1 .448-1 1v26.043z" transform="translate(-552 -135)"/>
        <path fill="#323843" d="M558.785 160.405l7.072 7.074c3.294 3.294 7.68 5.11 12.341 5.11 4.664 0 9.047-1.816 12.344-5.11l4.326-4.327c.774-.774 2.025-.774 2.8 0l2.366 2.365V151.41h-14.107l2.367 2.369c.774.772.774 2.025 0 2.799l-4.327 4.327c-1.539 1.539-3.586 2.387-5.769 2.387h-.011c-2.171 0-4.217-.848-5.758-2.387l-7.072-7.074-6.572 6.574zm19.413 16.144c-5.72 0-11.1-2.225-15.142-6.27l-8.47-8.474c-.773-.774-.773-2.025 0-2.8l9.372-9.373c.742-.742 2.056-.742 2.799 0l8.473 8.474c.792.79 1.843 1.226 2.96 1.226h.006c1.125 0 2.18-.437 2.972-1.226l2.925-2.928-2.529-2.53c-.875-.874-1.134-2.177-.661-3.32.474-1.14 1.577-1.878 2.812-1.878h16.862c1.885 0 3.417 1.534 3.417 3.42v16.859c0 1.237-.735 2.34-1.878 2.812-1.143.48-2.446.216-3.317-.659l-2.531-2.531-2.927 2.927c-4.041 4.046-9.421 6.271-15.143 6.271z" transform="translate(-552 -135)"/>
    </g>
</svg>
