<svg xmlns="http://www.w3.org/2000/svg" width="54" height="54" viewBox="0 0 54 54">
    <g fill="none" fill-rule="evenodd">
        <path fill="#323843" d="M589.261 170.236l2.421 5.566 2.284-.994c3.06-1.33 5.418-3.773 6.642-6.88 1.224-3.106 1.165-6.5-.167-9.56l-1.802-4.148c-.412-.942.023-2.04.965-2.45l1.384-.603-8.43-3.316-3.32 8.426 1.382-.6c.94-.41 2.04.022 2.45.964l1.805 4.147c.686 1.575.715 3.321.085 4.916-.627 1.596-1.84 2.853-3.413 3.54l-2.286.992zm1.456 9.88c-.718 0-1.402-.421-1.706-1.12l-3.908-8.983c-.198-.452-.205-.963-.025-1.424.183-.461.538-.83.99-1.024l3.992-1.737c.661-.288 1.172-.817 1.435-1.49.266-.67.252-1.403-.033-2.065l-1.062-2.439-1.447.628c-1.09.477-2.345.25-3.2-.578-.85-.824-1.125-2.07-.688-3.175l4.32-10.971c.592-1.496 2.297-2.232 3.791-1.647l10.969 4.318c1.105.436 1.834 1.485 1.854 2.67.02 1.188-.666 2.26-1.757 2.734l-1.445.628 1.058 2.439c1.73 3.973 1.806 8.381.22 12.413-1.59 4.032-4.653 7.205-8.624 8.93l-3.99 1.735c-.242.106-.494.158-.744.158zm-35.135-9.332h16.803v-17.365h-16.803v17.365zm12.505 3.596c0-.007-.006-.01-.006-.016h-9.75c0 .007-.004.009-.004.016 0 .411.33.742.742.742h8.278c.41 0 .74-.33.74-.742zm-9.76-24.762c0 .086.063.142.09.219h9.58c.028-.077.09-.133.09-.219 0-.407-.33-.74-.74-.74h-8.277c-.412 0-.743.333-.743.74zm18.619 11.502h-.981v1.96h.98c.988 0 1.792.801 1.792 1.791v3.148c0 .988-.803 1.79-1.791 1.79h-.981v2.764c0 .99-.801 1.79-1.791 1.79h-2.507l.002.017c0 2.385-1.939 4.324-4.322 4.324h-8.278c-2.385 0-4.324-1.94-4.324-4.324l.002-.016h-.956c-.99 0-1.791-.801-1.791-1.791v-20.945c0-.99.801-1.791 1.791-1.791h.981c-.004-.075-.027-.144-.027-.219 0-2.38 1.94-4.322 4.324-4.322h8.278c2.383 0 4.322 1.942 4.322 4.322 0 .075-.024.144-.029.219h2.534c.99 0 1.79.8 1.79 1.79v2.761h.982c.987 0 1.79.804 1.79 1.791v3.15c0 .988-.802 1.791-1.79 1.791z" transform="translate(-552 -135)"/>
    </g>
</svg>
