<svg xmlns="http://www.w3.org/2000/svg" width="24" height="24" viewBox="0 0 24 24">
    <path fill="#323843" fill-rule="evenodd" d="M16.781 5.023c3.938 0 7.15 3.181 7.218 7.118.07 4.053-3.307 7.37-7.346 7.37h-.627c-.249 0-.452-.203-.452-.453v-1.04c0-.25.203-.453.452-.453h.65c2.953 0 5.433-2.426 5.383-5.39-.049-2.879-2.398-5.205-5.278-5.205h-2.493l1.1 1.104c.09.09.14.21.14.336 0 .128-.05.248-.14.338l-.604.605c-.092.094-.214.14-.336.14-.122 0-.244-.046-.336-.14l-3.008-3.02c-.09-.09-.139-.209-.139-.336 0-.128.05-.247.14-.338l3.007-3.019c.186-.187.487-.187.672 0l.603.605c.186.186.186.489 0 .674l-1.099 1.104h2.493zm-3.875 12.643c.09.09.139.21.139.337 0 .128-.049.248-.139.337l-3.008 3.02c-.185.186-.487.186-.673 0l-.602-.604c-.185-.187-.185-.49 0-.676l1.099-1.103H7.229c-3.938 0-7.15-3.181-7.218-7.118-.069-4.053 3.307-7.37 7.346-7.37h.627c.25 0 .452.203.452.453v1.04c0 .25-.202.454-.452.454h-.65c-2.953 0-5.433 2.426-5.383 5.389C2 14.704 4.349 17.03 7.229 17.03h2.493l-1.099-1.103c-.09-.09-.139-.21-.139-.337 0-.129.049-.248.139-.338l.603-.605c.093-.094.215-.14.336-.14.122 0 .244.046.336.14l3.008 3.019z"/>
</svg>
