<svg xmlns="http://www.w3.org/2000/svg" width="24" height="24" viewBox="0 0 24 24">
    <path fill="#fff" fill-rule="evenodd" d="M14.827 12.08c-.011 1.326-.197 2.578-.557 3.756-.36 1.177-.873 2.19-1.539 3.039-.666.849-1.394 1.434-2.182 1.754L10 19.205c.806-.588 1.428-1.514 1.865-2.778.437-1.263.656-2.755.656-4.475v-.378c-.006-1.681-.228-3.145-.665-4.394C11.419 5.931 10.8 5.012 10 4.423L10.549 3c.8.331 1.527.914 2.182 1.749.654.835 1.167 1.852 1.539 3.053.371 1.2.557 2.498.557 3.892v.386z"/>
</svg>
