<svg xmlns="http://www.w3.org/2000/svg" width="54" height="54" viewBox="0 0 54 54">
    <g fill="none" fill-rule="evenodd">
        <path fill="#FFF" d="M0 0H1151V318H0z" transform="translate(-840 -135)"/>
        <path fill="#448A24" d="M827 155.2V128c0-1.657 1.343-3 3-3h74c1.657 0 3 1.343 3 3v26.252c3.45.888 6 4.02 6 7.748v3c0 3.728-2.55 6.86-6 7.748V202c0 1.657-1.343 3-3 3h-74c-1.657 0-3-1.343-3-3v-27.2c3.562-1.82 6-5.525 6-9.8s-2.438-7.98-6-9.8z" transform="translate(-840 -135)"/>
        <path fill="#59B52E" stroke="#59B52E" stroke-width="4" d="M829 151.043c3.687 2.357 6 6.452 6 10.957 0 4.505-2.313 8.6-6 10.957V199c0 .552.448 1 1 1h74c.552 0 1-.448 1-1v-30.802l1.501-.387c2.628-.676 4.499-3.058 4.499-5.811s-1.871-5.135-4.499-5.811l-1.501-.387V125c0-.552-.448-1-1-1h-74c-.552 0-1 .448-1 1v26.043z" transform="translate(-840 -135)"/>
        <path fill="#323843" d="M866.439 164.743c1.51 0 2.738-1.229 2.738-2.738 0-1.51-1.229-2.739-2.738-2.739-1.51 0-2.739 1.229-2.739 2.739 0 1.51 1.229 2.738 2.739 2.738zm19.352 7.344l.965 2.005c.104.215.117.458.036.686-.079.227-.24.407-.457.51l-7.454 3.582c-.77.374-1.741.192-2.33-.43l-9.23-9.762-.246.02c-.092.01-.182.023-.274.032-.12.018-.239.036-.362.036-2.795 0-5.335-1.778-6.318-4.422l-.122-.328h-3.404c-.495 0-.896-.403-.896-.898v-2.23c0-.495.4-.895.896-.895h3.404l.122-.33c.983-2.645 3.523-4.422 6.318-4.422.13 0 .256.02.38.036l.5.054 9.231-9.763c.603-.639 1.541-.817 2.333-.43l7.452 3.578c.446.214.635.751.421 1.195l-.965 2.009c-.216.445-.756.632-1.197.418l-6.13-2.943-7.334 7.758.313.347c1.134 1.26 1.757 2.86 1.757 4.504 0 1.647-.623 3.245-1.757 4.503l-.313.346 7.335 7.76 6.129-2.945c.216-.108.459-.124.686-.038.225.079.405.24.51.457zm-33.061-12.095c.495 0 .895.403.895.896v2.232c0 .492-.4.895-.895.895h-2.952c-.493 0-.896-.403-.896-.895v-2.232c0-.493.403-.896.896-.896h2.952zm-6.856 0c.495 0 .896.403.896.896v2.232c0 .492-.4.895-.896.895h-2.952c-.492 0-.893-.403-.893-.895v-2.232c0-.493.4-.896.893-.896h2.952zm44.546-2.608c.857 0 1.552.695 1.552 1.55v6.14c0 .858-.695 1.55-1.552 1.55h-6.138c-.858 0-1.55-.692-1.55-1.55v-6.14c0-.855.692-1.55 1.55-1.55h6.138z" transform="translate(-840 -135)"/>
    </g>
</svg>
