<svg xmlns="http://www.w3.org/2000/svg" width="54" height="54" viewBox="0 0 54 54">
    <g fill="none" fill-rule="evenodd">
        <path fill="#FFF" d="M-60-135h1151v696H-60z"/>
        <path fill="#9A7C22" d="M67 19.252c3.45.888 6 4.02 6 7.748v3c0 3.728-2.55 6.86-6 7.748V67a3 3 0 0 1-3 3H11c-13.255 0-24-10.745-24-24V14C-13 .745-2.255-10 11-10h53a3 3 0 0 1 3 3v26.252z"/>
        <path fill="#D8AF31" stroke="#D8AF31" stroke-width="4" d="M66.501 21.189L65 20.802V-10a1 1 0 0 0-1-1H11c-12.15 0-22 9.85-22 22v32c0 12.15 9.85 22 22 22h53a1 1 0 0 0 1-1V33.198l1.501-.387a6.003 6.003 0 0 0 0-11.622z"/>
        <path fill="#323843" d="M15.41 13.135l-.009 27.725L40.83 27.007v-.012L15.41 13.135zm-.004 32.146c-.776 0-1.553-.21-2.252-.623a4.381 4.381 0 0 1-2.163-3.798V13.14c0-1.573.81-2.993 2.163-3.798a4.391 4.391 0 0 1 4.37-.079l25.417 13.86a4.418 4.418 0 0 1 0 7.756l-25.42 13.858a4.394 4.394 0 0 1-2.115.544z"/>
    </g>
</svg>
