<svg xmlns="http://www.w3.org/2000/svg" width="54" height="54" viewBox="0 0 54 54">
    <g fill="none" fill-rule="evenodd">
        <path fill="#FFF" d="M0 0H1151V318H0z" transform="translate(-744 -135)"/>
        <path fill="#448A24" d="M731 155.2V128c0-1.657 1.343-3 3-3h74c1.657 0 3 1.343 3 3v26.252c3.45.888 6 4.02 6 7.748v3c0 3.728-2.55 6.86-6 7.748V202c0 1.657-1.343 3-3 3h-74c-1.657 0-3-1.343-3-3v-27.2c3.562-1.82 6-5.525 6-9.8s-2.438-7.98-6-9.8z" transform="translate(-744 -135)"/>
        <path fill="#59B52E" stroke="#59B52E" stroke-width="4" d="M733 151.043c3.687 2.357 6 6.452 6 10.957 0 4.505-2.313 8.6-6 10.957V199c0 .552.448 1 1 1h74c.552 0 1-.448 1-1v-30.802l1.501-.387c2.628-.676 4.499-3.058 4.499-5.811s-1.871-5.135-4.499-5.811l-1.501-.387V125c0-.552-.448-1-1-1h-74c-.552 0-1 .448-1 1v26.043z" transform="translate(-744 -135)"/>
        <path fill="#323843" d="M779.893 155.892c-.5 0-.904-.405-.904-.902v-2.08c0-.499.405-.904.904-.904h9.99l-2.2-2.2c-.371-.374-.371-.977 0-1.35l1.208-1.208c.371-.37.974-.37 1.346 0l6.025 6.03c.178.18.28.416.28.672 0 .255-.102.493-.28.675l-6.023 6.026c-.187.184-.43.277-.675.277-.243 0-.486-.093-.673-.277l-1.208-1.208c-.18-.18-.28-.419-.28-.675 0-.255.1-.49.28-.673l2.2-2.203h-9.99zm16.369 13.485c.18.18.279.42.279.675 0 .254-.1.495-.28.672l-6.022 6.026c-.187.187-.43.279-.675.279-.243 0-.486-.092-.673-.28l-1.208-1.207c-.18-.178-.28-.417-.28-.673 0-.254.1-.493.28-.673l2.202-2.203h-9.992c-.5 0-.904-.405-.904-.904v-2.077c0-.5.405-.904.904-.904l9.992.002-2.202-2.205c-.372-.371-.372-.977 0-1.348l1.208-1.208c.371-.371.974-.371 1.345 0l6.026 6.028zm-46.844 3.3h21.355v-21.355h-21.355v21.354zm23.335-25.315c1.093 0 1.98.886 1.98 1.98v25.314c0 1.096-.887 1.98-1.98 1.98h-25.315c-1.093 0-1.98-.884-1.98-1.98v-25.314c0-1.094.887-1.98 1.98-1.98h25.315z" transform="translate(-744 -135)"/>
    </g>
</svg>
