<svg xmlns="http://www.w3.org/2000/svg" width="54" height="54" viewBox="0 0 54 54">
    <g fill="none" fill-rule="evenodd">
        <path fill="#323843" d="M685.237 167.722l3.321 8.43 8.429-3.32-1.386-.6c-.453-.199-.808-.568-.99-1.027-.18-.459-.171-.972.027-1.424l1.802-4.145c1.332-3.06 1.393-6.457.169-9.562-1.222-3.107-3.582-5.55-6.642-6.88l-2.284-.995-2.421 5.566 2.284.993c1.575.686 2.787 1.944 3.417 3.539.628 1.597.599 3.346-.087 4.918l-1.805 4.145c-.412.943-1.507 1.377-2.45.965l-1.384-.603zm2.873 12.393c-1.165 0-2.27-.704-2.724-1.852l-4.32-10.968c-.437-1.107-.165-2.354.69-3.18.855-.823 2.106-1.05 3.198-.576l1.446.628 1.06-2.437c.288-.661.302-1.397.036-2.067-.263-.673-.774-1.202-1.435-1.49l-3.992-1.737c-.452-.196-.81-.565-.992-1.024-.18-.46-.171-.972.027-1.424l3.906-8.982c.412-.943 1.51-1.377 2.45-.963l3.992 1.735c3.97 1.728 7.035 4.9 8.624 8.93 1.586 4.032 1.51 8.44-.22 12.413l-1.063 2.437 1.45.632c1.084.47 1.777 1.542 1.757 2.73-.02 1.188-.747 2.236-1.852 2.673l-10.969 4.32c-.351.137-.711.202-1.069.202zm-36.528-9.331h16.803v-17.365h-16.803v17.365zm12.505 3.596c0-.007-.006-.01-.006-.016h-9.75c0 .007-.004.009-.004.016 0 .411.33.742.742.742h8.278c.41 0 .74-.33.74-.742zm-9.76-24.762c0 .086.063.142.09.219h9.58c.027-.077.09-.133.09-.219 0-.407-.33-.74-.74-.74h-8.277c-.412 0-.743.333-.743.74zm18.619 11.502h-.981v1.96h.98c.988 0 1.792.801 1.792 1.791v3.148c0 .988-.804 1.79-1.791 1.79h-.981v2.764c0 .99-.801 1.79-1.791 1.79h-2.507l.002.017c0 2.385-1.939 4.324-4.322 4.324h-8.278c-2.385 0-4.324-1.94-4.324-4.324l.002-.016h-.956c-.99 0-1.791-.801-1.791-1.791v-20.945c0-.99.801-1.791 1.791-1.791h.981c-.005-.075-.027-.144-.027-.219 0-2.38 1.94-4.322 4.324-4.322h8.278c2.383 0 4.322 1.942 4.322 4.322 0 .075-.024.144-.029.219h2.534c.99 0 1.79.8 1.79 1.79v2.761h.982c.987 0 1.79.804 1.79 1.791v3.15c0 .988-.803 1.791-1.79 1.791z" transform="translate(-648 -135)"/>
    </g>
</svg>
