<svg xmlns="http://www.w3.org/2000/svg" width="54" height="54" viewBox="0 0 54 54">
    <g fill="none" fill-rule="evenodd">
        <path fill="#FFF" d="M0 0H1151V696H0z" transform="translate(-648 -135)"/>
        <path fill="#448A24" d="M635 155.2V128c0-1.657 1.343-3 3-3h74c1.657 0 3 1.343 3 3v26.252c3.45.888 6 4.02 6 7.748v3c0 3.728-2.55 6.86-6 7.748V202c0 1.657-1.343 3-3 3h-74c-1.657 0-3-1.343-3-3v-27.2c3.562-1.82 6-5.525 6-9.8s-2.438-7.98-6-9.8z" transform="translate(-648 -135)"/>
        <path fill="#59B52E" stroke="#59B52E" stroke-width="4" d="M637 151.043c3.687 2.357 6 6.452 6 10.957 0 4.505-2.313 8.6-6 10.957V199c0 .552.448 1 1 1h74c.552 0 1-.448 1-1v-30.802l1.501-.387c2.628-.676 4.499-3.058 4.499-5.811s-1.871-5.135-4.499-5.811l-1.501-.387V125c0-.552-.448-1-1-1h-74c-.552 0-1 .448-1 1v26.043z" transform="translate(-648 -135)"/>
        <path fill="#323843" d="M661.357 170.168l7.074-7.074c1.54-1.54 3.584-2.388 5.756-2.388h.01c2.183 0 4.23.849 5.77 2.388l4.327 4.326c.774.774.774 2.028 0 2.8l-2.367 2.369h14.107V158.48l-2.367 2.365c-.772.774-2.025.774-2.799 0l-4.327-4.325c-3.294-3.296-7.679-5.112-12.343-5.112-4.662 0-9.045 1.816-12.341 5.112l-7.072 7.072 6.572 6.575zm27.986-16.448l2.925 2.927 2.53-2.53c.872-.874 2.174-1.14 3.317-.66 1.143.472 1.88 1.575 1.88 2.812v16.86c0 1.885-1.533 3.42-3.419 3.42h-16.861c-1.235 0-2.338-.738-2.813-1.879-.472-1.143-.213-2.446.662-3.319l2.529-2.531-2.925-2.925c-.792-.792-1.847-1.229-2.972-1.229h-.007c-1.116 0-2.167.437-2.959 1.229l-8.473 8.471c-.743.743-2.057.743-2.8 0l-9.37-9.373c-.775-.774-.775-2.025 0-2.8l8.47-8.473c4.042-4.043 9.421-6.27 15.14-6.27 5.723 0 11.102 2.227 15.146 6.27z" transform="translate(-648 -135)"/>
    </g>
</svg>
