<svg xmlns="http://www.w3.org/2000/svg" width="24" height="24" viewBox="0 0 24 24">
    <path fill="#FFFFFF" fill-rule="evenodd" d="M16.09 13.038l2.957-.337-1.08-9.494L3.656 4.832l.838 7.38c1.323-1.578 3.278-2.604 5.493-2.604 2.581 0 4.834 1.382 6.103 3.43zm1.016 4.51l1.445-.164-.176-1.54-1.277.143c.033.274.083.538.083.817 0 .257-.048.498-.075.745zm-7.12 3.405c2.288 0 4.15-1.862 4.15-4.149 0-2.289-1.862-4.149-4.15-4.149-2.288 0-4.148 1.86-4.148 4.15 0 2.286 1.86 4.148 4.149 4.148zM23.532 10.49c.095.834-.506 1.588-1.34 1.682l-.14.017.192 1.684c.046.402-.07.802-.322 1.12-.142.18-.327.31-.53.407l.356 3.156c.096.835-.505 1.59-1.34 1.684l-4.41.5C14.71 22.7 12.502 24 9.988 24c-3.751 0-6.808-2.897-7.133-6.566-.517-.197-.907-.666-.974-1.252L.46 3.662c-.046-.402.069-.804.321-1.12.251-.315.619-.52 1.019-.564L19.138.011c.82-.1 1.589.503 1.685 1.341l.662 5.843.14-.017c.405-.056.805.07 1.12.321.317.253.518.62.562 1.022l.224 1.968zM9.988 15.484c.729 0 1.32.592 1.32 1.32 0 .73-.591 1.323-1.32 1.323-.731 0-1.32-.593-1.32-1.322 0-.73.589-1.32 1.32-1.32z"/>
</svg>
