<svg xmlns="http://www.w3.org/2000/svg" width="54" height="54" viewBox="0 0 54 54">
    <g fill="none" fill-rule="evenodd">
        <path fill="#FFF" d="M0 0H1151V318H0z" transform="translate(-936 -135)"/>
        <path fill="#448A24" d="M923 155.2V128c0-1.657 1.343-3 3-3h74c1.657 0 3 1.343 3 3v26.252c3.45.888 6 4.02 6 7.748v3c0 3.728-2.55 6.86-6 7.748V202c0 1.657-1.343 3-3 3h-74c-1.657 0-3-1.343-3-3v-27.2c3.562-1.82 6-5.525 6-9.8s-2.438-7.98-6-9.8z" transform="translate(-936 -135)"/>
        <path fill="#59B52E" stroke="#59B52E" stroke-width="4" d="M925 151.043c3.687 2.357 6 6.452 6 10.957 0 4.505-2.313 8.6-6 10.957V199c0 .552.448 1 1 1h74c.552 0 1-.448 1-1v-30.802l1.501-.387c2.628-.676 4.499-3.058 4.499-5.811s-1.871-5.135-4.499-5.811l-1.501-.387V125c0-.552-.448-1-1-1h-74c-.552 0-1 .448-1 1v26.043z" transform="translate(-936 -135)"/>
        <path fill="#323843" d="M958.91 170.754c2.52-3.143 2.015-7.753-1.13-10.273-3.14-2.522-7.748-2.012-10.272 1.132-2.518 3.143-2.012 7.749 1.132 10.269 1.345 1.077 2.96 1.604 4.565 1.604 2.142 0 4.264-.934 5.706-2.732zm9.019-8.048c.245.2.403.482.436.797l.219 1.998c.072.65-.4 1.237-1.051 1.307l-2.502.277-.027.272c-.14 1.449-.55 2.846-1.215 4.153l-.126.246 1.973 1.58c.248.197.403.48.439.796.031.315-.059.623-.257.873l-1.255 1.566c-.198.247-.48.402-.797.436-.312.038-.623-.054-.87-.254l-1.971-1.58-.212.174c-1.134.936-2.41 1.64-3.791 2.092l-.261.086.277 2.502c.07.65-.4 1.237-1.051 1.307l-1.996.223c-.65.099-1.24-.4-1.31-1.051l-.276-2.5-.272-.027c-1.443-.144-2.84-.551-4.154-1.217l-.245-.124-1.58 1.969c-.198.247-.479.403-.794.439-.315.031-.628-.059-.873-.257l-1.568-1.255c-.51-.41-.592-1.16-.182-1.67l1.577-1.969-.173-.209c-.936-1.143-1.64-2.416-2.09-3.791l-.086-.259-2.502.275c-.644.063-1.235-.4-1.31-1.051l-.218-1.998c-.036-.315.054-.626.252-.87.2-.25.482-.404.799-.44l2.5-.276.029-.273c.14-1.446.549-2.844 1.215-4.15l.124-.248-1.971-1.578c-.246-.198-.4-.481-.437-.796-.034-.315.056-.626.254-.873l1.256-1.566c.412-.51 1.159-.594 1.67-.182l1.968 1.58.214-.176c1.13-.934 2.403-1.638 3.787-2.09l.263-.086-.277-2.504c-.072-.65.398-1.236 1.049-1.308l2-.218c.313-.052.625.054.873.252.247.198.4.48.436.797l.275 2.502.272.027c1.445.141 2.842.55 4.154 1.215l.243.121 1.581-1.969c.196-.247.477-.4.795-.436.312-.032.623.056.873.254l1.568 1.258c.51.41.592 1.159.182 1.667l-1.577 1.969.173.214c.932 1.131 1.638 2.407 2.093 3.789l.085.26 2.5-.274c.315-.05.625.056.873.252zm12.148-5.981c.833-.821 1.296-1.92 1.307-3.09.01-1.172-.438-2.274-1.26-3.109-.823-.835-1.921-1.298-3.093-1.307-1.164.004-2.273.436-3.108 1.262-1.723 1.697-1.743 4.478-.047 6.199.857.868 1.989 1.305 3.123 1.305 1.112 0 2.225-.419 3.078-1.26zm8.001-1.382c.108.223.124.477.045.711l-.79 2.345c-.166.484-.69.756-1.181.583l-1.928-.65-.146.206c-.333.48-.666.878-1.013 1.224-.03.025-.058.048-.088.07-.051.036-.103.074-.148.12l-.182.17.906 1.832c.11.225.129.477.048.715-.081.234-.246.423-.47.534l-2.217 1.095c-.223.113-.472.129-.709.05-.238-.079-.427-.248-.54-.468l-.897-1.818-.248.045c-.576.101-1.19.13-1.885.108l-.252-.01-.655 1.938c-.081.234-.245.425-.47.538-.221.11-.475.135-.711.047l-2.343-.792c-.236-.079-.425-.245-.535-.468-.113-.225-.128-.477-.05-.71l.653-1.931-.21-.144c-.49-.347-.88-.669-1.219-1.01-.027-.03-.05-.064-.072-.093-.036-.052-.074-.099-.117-.148l-.173-.185-1.834.91c-.457.23-1.021.042-1.249-.42l-1.098-2.216c-.227-.46-.038-1.021.421-1.248l1.82-.903-.042-.25c-.104-.575-.14-1.19-.11-1.883l.01-.252-1.941-.654c-.234-.08-.425-.248-.536-.468-.11-.225-.128-.477-.047-.714l.79-2.342c.079-.234.245-.425.47-.535.223-.108.475-.124.709-.045l1.933.648.144-.207c.348-.498.668-.885 1.014-1.222.027-.03.063-.052.095-.077.047-.033.092-.067.135-.108l.191-.17-.911-1.841c-.23-.46-.038-1.02.42-1.247l2.22-1.098c.22-.11.476-.123.708-.047.236.079.425.245.538.468l.902 1.818.247-.045c.579-.103 1.193-.135 1.881-.108l.252.011.657-1.94c.08-.235.248-.427.47-.537.223-.108.475-.121.712-.05l2.344.797c.234.079.425.245.536.468.11.223.128.475.047.711l-.653 1.928.207.147c.48.333.88.663 1.224 1.014.03.027.052.059.072.09.039.048.075.097.115.142l.171.185 1.838-.907c.223-.113.475-.124.71-.047.238.078.427.245.537.468l1.098 2.216c.11.225.126.477.047.71-.079.237-.245.428-.47.539l-1.816.897.043.25c.101.576.137 1.193.108 1.883l-.011.255 1.939.654c.239.08.428.246.54.468z" transform="translate(-936 -135)"/>
    </g>
</svg>
